G04*
G04 #@! TF.GenerationSoftware,Altium Limited,Altium Designer,20.0.13 (296)*
G04*
G04 Layer_Physical_Order=3*
G04 Layer_Color=16440176*
%FSLAX44Y44*%
%MOMM*%
G71*
G01*
G75*
%ADD10C,0.2500*%
%ADD11C,0.2000*%
%ADD104C,0.5000*%
%ADD105C,1.0000*%
%ADD106C,1.5000*%
%ADD107R,1.5000X1.5000*%
%ADD108C,1.6000*%
%ADD110O,1.9304X3.8608*%
%ADD114C,1.4000*%
%ADD117C,0.8000*%
%ADD118C,0.7000*%
G36*
X698931Y3569D02*
X478289D01*
Y194250D01*
X478134Y195030D01*
X477692Y195692D01*
X420289Y253095D01*
Y328000D01*
X420134Y328780D01*
X419692Y329442D01*
X419030Y329884D01*
X418250Y330039D01*
X359750D01*
X359750Y330039D01*
X358970Y329884D01*
X358308Y329442D01*
X358308Y329442D01*
X301905Y273039D01*
X156000D01*
X155220Y272884D01*
X154558Y272442D01*
X144058Y261942D01*
X143616Y261280D01*
X143461Y260500D01*
Y3569D01*
X3569D01*
Y1076432D01*
X698931D01*
X698931Y3569D01*
D02*
G37*
G36*
X418250Y252250D02*
X476250Y194250D01*
Y3569D01*
X145500D01*
Y260500D01*
X156000Y271000D01*
X302750D01*
X359750Y328000D01*
X418250D01*
Y252250D01*
D02*
G37*
%LPC*%
G36*
X591250Y1074810D02*
X336750D01*
X334923Y1074570D01*
X333220Y1073865D01*
X331758Y1072742D01*
X323075Y1064060D01*
X114904D01*
X113291Y1065298D01*
X110980Y1066255D01*
X108500Y1066582D01*
X106020Y1066255D01*
X103709Y1065298D01*
X102096Y1064060D01*
X89504D01*
X87891Y1065298D01*
X85580Y1066255D01*
X83100Y1066582D01*
X80620Y1066255D01*
X78309Y1065298D01*
X76325Y1063775D01*
X74802Y1061791D01*
X73845Y1059480D01*
X73518Y1057000D01*
X73845Y1054520D01*
X74802Y1052209D01*
X76325Y1050225D01*
X77818Y1049079D01*
X77387Y1047809D01*
X76250D01*
X75079Y1047576D01*
X74087Y1046913D01*
X74087Y1046913D01*
X64087Y1036913D01*
X63424Y1035920D01*
X63191Y1034750D01*
X63191Y1034750D01*
Y1023050D01*
X63191Y1023050D01*
X63424Y1021880D01*
X64087Y1020887D01*
X74562Y1010412D01*
X73845Y1008680D01*
X73518Y1006200D01*
X73845Y1003720D01*
X74802Y1001409D01*
X76325Y999425D01*
X78309Y997902D01*
X80620Y996945D01*
X83100Y996618D01*
X85580Y996945D01*
X87891Y997902D01*
X89876Y999425D01*
X91398Y1001409D01*
X92356Y1003720D01*
X92682Y1006200D01*
X92356Y1008680D01*
X91398Y1010991D01*
X89876Y1012975D01*
X87891Y1014498D01*
X85580Y1015455D01*
X83100Y1015782D01*
X80620Y1015455D01*
X78888Y1014738D01*
X69309Y1024317D01*
Y1033483D01*
X73522Y1037697D01*
X74479Y1036857D01*
X74330Y1036663D01*
X73319Y1034221D01*
X73141Y1032870D01*
X83100D01*
X93060D01*
X92882Y1034221D01*
X91870Y1036663D01*
X90261Y1038761D01*
X88163Y1040370D01*
X88040Y1040421D01*
X88292Y1041691D01*
X103308D01*
X103561Y1040421D01*
X103437Y1040370D01*
X101340Y1038761D01*
X99730Y1036663D01*
X98719Y1034221D01*
X98541Y1032870D01*
X108500D01*
X118460D01*
X118282Y1034221D01*
X117270Y1036663D01*
X115661Y1038761D01*
X113563Y1040370D01*
X113440Y1040421D01*
X113692Y1041691D01*
X138437D01*
X138491Y1041554D01*
X138648Y1040421D01*
X137887Y1039913D01*
X137887Y1039913D01*
X112712Y1014738D01*
X110980Y1015455D01*
X108500Y1015782D01*
X106020Y1015455D01*
X103709Y1014498D01*
X101725Y1012975D01*
X100202Y1010991D01*
X99245Y1008680D01*
X98918Y1006200D01*
X99245Y1003720D01*
X100202Y1001409D01*
X101725Y999425D01*
X103709Y997902D01*
X106020Y996945D01*
X108500Y996618D01*
X110980Y996945D01*
X113291Y997902D01*
X115276Y999425D01*
X116798Y1001409D01*
X117756Y1003720D01*
X118082Y1006200D01*
X117756Y1008680D01*
X117038Y1010412D01*
X141317Y1034691D01*
X346983D01*
X377637Y1004037D01*
X377637Y1004037D01*
X377947Y1003830D01*
X377695Y1002775D01*
X377561Y1002560D01*
X347500D01*
X345673Y1002320D01*
X343970Y1001615D01*
X342508Y1000492D01*
X314076Y972060D01*
X170500D01*
X168673Y971820D01*
X166970Y971115D01*
X165508Y969992D01*
X157976Y962460D01*
X118000D01*
Y964900D01*
X99000D01*
Y962460D01*
X89504D01*
X87891Y963698D01*
X85580Y964655D01*
X83100Y964982D01*
X80620Y964655D01*
X78309Y963698D01*
X76325Y962175D01*
X74802Y960191D01*
X73845Y957880D01*
X73518Y955400D01*
X73845Y952920D01*
X74802Y950609D01*
X76325Y948624D01*
X78309Y947102D01*
X80620Y946144D01*
X83100Y945818D01*
X85580Y946144D01*
X87891Y947102D01*
X89504Y948340D01*
X99000D01*
Y945900D01*
X118000D01*
Y948340D01*
X160900D01*
X162727Y948580D01*
X164430Y949286D01*
X165892Y950407D01*
X173424Y957940D01*
X317000D01*
X318827Y958180D01*
X320530Y958885D01*
X321992Y960008D01*
X350424Y988440D01*
X585575D01*
X594690Y979325D01*
Y958858D01*
X594930Y957030D01*
X595635Y955328D01*
X596758Y953865D01*
X600272Y950351D01*
X601735Y949229D01*
X603437Y948523D01*
X605265Y948283D01*
X617170D01*
X618709Y947102D01*
X621020Y946144D01*
X623500Y945818D01*
X625980Y946144D01*
X628291Y947102D01*
X630275Y948624D01*
X631798Y950609D01*
X632755Y952920D01*
X633082Y955400D01*
X632755Y957880D01*
X631798Y960191D01*
X630275Y962175D01*
X628291Y963698D01*
X625980Y964655D01*
X623500Y964982D01*
X621020Y964655D01*
X618709Y963698D01*
X617022Y962403D01*
X608810D01*
Y982250D01*
X608570Y984077D01*
X607864Y985780D01*
X606742Y987243D01*
X593493Y1000492D01*
X592030Y1001615D01*
X591410Y1001871D01*
X591663Y1003141D01*
X614484D01*
X615202Y1001409D01*
X616725Y999425D01*
X618709Y997902D01*
X621020Y996945D01*
X623500Y996618D01*
X625980Y996945D01*
X628291Y997902D01*
X630275Y999425D01*
X631798Y1001409D01*
X632755Y1003720D01*
X633082Y1006200D01*
X632755Y1008680D01*
X631798Y1010991D01*
X630275Y1012975D01*
X628291Y1014498D01*
X627873Y1014671D01*
X628126Y1015941D01*
X633983D01*
X640113Y1009811D01*
X639645Y1008680D01*
X639318Y1006200D01*
X639645Y1003720D01*
X640602Y1001409D01*
X642124Y999425D01*
X644109Y997902D01*
X646420Y996945D01*
X648900Y996618D01*
X651380Y996945D01*
X653691Y997902D01*
X655675Y999425D01*
X657198Y1001409D01*
X658155Y1003720D01*
X658482Y1006200D01*
X658155Y1008680D01*
X657198Y1010991D01*
X655675Y1012975D01*
X653691Y1014498D01*
X651380Y1015455D01*
X648900Y1015782D01*
X646420Y1015455D01*
X644109Y1014498D01*
X644091Y1014485D01*
X637413Y1021163D01*
X636421Y1021826D01*
X635250Y1022059D01*
X635250Y1022059D01*
X629644D01*
X629213Y1023329D01*
X630661Y1024439D01*
X632270Y1026537D01*
X633282Y1028979D01*
X633459Y1030330D01*
X623500D01*
X613540D01*
X613718Y1028979D01*
X614730Y1026537D01*
X616339Y1024439D01*
X617787Y1023329D01*
X617356Y1022059D01*
X389017D01*
X364163Y1046913D01*
X363171Y1047576D01*
X362000Y1047809D01*
X362000Y1047809D01*
X114214D01*
X113783Y1049079D01*
X114904Y1049940D01*
X326000D01*
X327827Y1050180D01*
X329530Y1050885D01*
X330992Y1052008D01*
X339674Y1060690D01*
X383219D01*
X383471Y1059420D01*
X381609Y1058648D01*
X379625Y1057125D01*
X378102Y1055141D01*
X377145Y1052830D01*
X376818Y1050350D01*
X377145Y1047870D01*
X378102Y1045559D01*
X379625Y1043575D01*
X381609Y1042052D01*
X383920Y1041095D01*
X386400Y1040768D01*
X388880Y1041095D01*
X391191Y1042052D01*
X393176Y1043575D01*
X394698Y1045559D01*
X395656Y1047870D01*
X395982Y1050350D01*
X395656Y1052830D01*
X394698Y1055141D01*
X393176Y1057125D01*
X391191Y1058648D01*
X389329Y1059420D01*
X389582Y1060690D01*
X408619D01*
X408871Y1059420D01*
X407009Y1058648D01*
X405025Y1057125D01*
X403502Y1055141D01*
X402545Y1052830D01*
X402218Y1050350D01*
X402545Y1047870D01*
X403502Y1045559D01*
X405025Y1043575D01*
X407009Y1042052D01*
X409320Y1041095D01*
X411800Y1040768D01*
X414280Y1041095D01*
X416591Y1042052D01*
X418576Y1043575D01*
X420098Y1045559D01*
X421055Y1047870D01*
X421382Y1050350D01*
X421055Y1052830D01*
X420098Y1055141D01*
X418576Y1057125D01*
X416591Y1058648D01*
X414729Y1059420D01*
X414982Y1060690D01*
X434019D01*
X434271Y1059420D01*
X432409Y1058648D01*
X430425Y1057125D01*
X428902Y1055141D01*
X427945Y1052830D01*
X427618Y1050350D01*
X427945Y1047870D01*
X428902Y1045559D01*
X430425Y1043575D01*
X432409Y1042052D01*
X434720Y1041095D01*
X437200Y1040768D01*
X439680Y1041095D01*
X441991Y1042052D01*
X443975Y1043575D01*
X445498Y1045559D01*
X446455Y1047870D01*
X446782Y1050350D01*
X446455Y1052830D01*
X445498Y1055141D01*
X443975Y1057125D01*
X441991Y1058648D01*
X440129Y1059420D01*
X440382Y1060690D01*
X459419D01*
X459671Y1059420D01*
X457809Y1058648D01*
X455825Y1057125D01*
X454302Y1055141D01*
X453345Y1052830D01*
X453018Y1050350D01*
X453345Y1047870D01*
X454302Y1045559D01*
X455825Y1043575D01*
X457809Y1042052D01*
X460120Y1041095D01*
X462600Y1040768D01*
X465080Y1041095D01*
X467391Y1042052D01*
X469375Y1043575D01*
X470898Y1045559D01*
X471856Y1047870D01*
X472182Y1050350D01*
X471856Y1052830D01*
X470898Y1055141D01*
X469375Y1057125D01*
X467391Y1058648D01*
X465529Y1059420D01*
X465782Y1060690D01*
X491718D01*
X491971Y1059420D01*
X490109Y1058648D01*
X488124Y1057125D01*
X486602Y1055141D01*
X485644Y1052830D01*
X485318Y1050350D01*
X485644Y1047870D01*
X486602Y1045559D01*
X488124Y1043575D01*
X490109Y1042052D01*
X492420Y1041095D01*
X494900Y1040768D01*
X497380Y1041095D01*
X499691Y1042052D01*
X501675Y1043575D01*
X503198Y1045559D01*
X504155Y1047870D01*
X504482Y1050350D01*
X504155Y1052830D01*
X503198Y1055141D01*
X501675Y1057125D01*
X499691Y1058648D01*
X497829Y1059420D01*
X498081Y1060690D01*
X517118D01*
X517371Y1059420D01*
X515509Y1058648D01*
X513524Y1057125D01*
X512002Y1055141D01*
X511044Y1052830D01*
X510718Y1050350D01*
X511044Y1047870D01*
X512002Y1045559D01*
X513524Y1043575D01*
X515509Y1042052D01*
X517820Y1041095D01*
X520300Y1040768D01*
X522780Y1041095D01*
X525091Y1042052D01*
X527075Y1043575D01*
X528598Y1045559D01*
X529555Y1047870D01*
X529882Y1050350D01*
X529555Y1052830D01*
X528598Y1055141D01*
X527075Y1057125D01*
X525091Y1058648D01*
X523229Y1059420D01*
X523481Y1060690D01*
X542518D01*
X542771Y1059420D01*
X540909Y1058648D01*
X538924Y1057125D01*
X537402Y1055141D01*
X536444Y1052830D01*
X536118Y1050350D01*
X536444Y1047870D01*
X537402Y1045559D01*
X538924Y1043575D01*
X540909Y1042052D01*
X543220Y1041095D01*
X545700Y1040768D01*
X548180Y1041095D01*
X550491Y1042052D01*
X552475Y1043575D01*
X553998Y1045559D01*
X554955Y1047870D01*
X555282Y1050350D01*
X554955Y1052830D01*
X553998Y1055141D01*
X552475Y1057125D01*
X550491Y1058648D01*
X548629Y1059420D01*
X548881Y1060690D01*
X567918D01*
X568171Y1059420D01*
X566309Y1058648D01*
X564324Y1057125D01*
X562802Y1055141D01*
X561844Y1052830D01*
X561518Y1050350D01*
X561844Y1047870D01*
X562802Y1045559D01*
X564324Y1043575D01*
X566309Y1042052D01*
X568620Y1041095D01*
X571100Y1040768D01*
X573580Y1041095D01*
X575891Y1042052D01*
X577875Y1043575D01*
X579398Y1045559D01*
X580355Y1047870D01*
X580682Y1050350D01*
X580355Y1052830D01*
X579398Y1055141D01*
X577875Y1057125D01*
X575891Y1058648D01*
X574029Y1059420D01*
X574281Y1060690D01*
X588326D01*
X597008Y1052008D01*
X598470Y1050885D01*
X600173Y1050180D01*
X602000Y1049940D01*
X614000D01*
Y1047500D01*
X633000D01*
Y1049940D01*
X642496D01*
X644109Y1048702D01*
X646420Y1047745D01*
X648900Y1047418D01*
X651380Y1047745D01*
X653691Y1048702D01*
X655675Y1050225D01*
X657198Y1052209D01*
X658155Y1054520D01*
X658482Y1057000D01*
X658155Y1059480D01*
X657198Y1061791D01*
X655675Y1063775D01*
X653691Y1065298D01*
X651380Y1066255D01*
X648900Y1066582D01*
X646420Y1066255D01*
X644109Y1065298D01*
X642496Y1064060D01*
X633000D01*
Y1066500D01*
X614000D01*
Y1064060D01*
X604925D01*
X596242Y1072742D01*
X594780Y1073865D01*
X593077Y1074570D01*
X591250Y1074810D01*
D02*
G37*
G36*
X650170Y1041559D02*
Y1032870D01*
X658859D01*
X658681Y1034221D01*
X657670Y1036663D01*
X656060Y1038761D01*
X653963Y1040370D01*
X651521Y1041382D01*
X650170Y1041559D01*
D02*
G37*
G36*
X624770D02*
Y1032870D01*
X633459D01*
X633282Y1034221D01*
X632270Y1036663D01*
X630661Y1038761D01*
X628563Y1040370D01*
X626121Y1041382D01*
X624770Y1041559D01*
D02*
G37*
G36*
X647630D02*
X646279Y1041382D01*
X643837Y1040370D01*
X641739Y1038761D01*
X640130Y1036663D01*
X639118Y1034221D01*
X638941Y1032870D01*
X647630D01*
Y1041559D01*
D02*
G37*
G36*
X622230D02*
X620879Y1041382D01*
X618437Y1040370D01*
X616339Y1038761D01*
X614730Y1036663D01*
X613718Y1034221D01*
X613540Y1032870D01*
X622230D01*
Y1041559D01*
D02*
G37*
G36*
X118460Y1030330D02*
X109770D01*
Y1021641D01*
X111121Y1021818D01*
X113563Y1022830D01*
X115661Y1024439D01*
X117270Y1026537D01*
X118282Y1028979D01*
X118460Y1030330D01*
D02*
G37*
G36*
X93060D02*
X84370D01*
Y1021641D01*
X85721Y1021818D01*
X88163Y1022830D01*
X90261Y1024439D01*
X91870Y1026537D01*
X92882Y1028979D01*
X93060Y1030330D01*
D02*
G37*
G36*
X658859D02*
X650170D01*
Y1021641D01*
X651521Y1021818D01*
X653963Y1022830D01*
X656060Y1024439D01*
X657670Y1026537D01*
X658681Y1028979D01*
X658859Y1030330D01*
D02*
G37*
G36*
X647630D02*
X638941D01*
X639118Y1028979D01*
X640130Y1026537D01*
X641739Y1024439D01*
X643837Y1022830D01*
X646279Y1021818D01*
X647630Y1021641D01*
Y1030330D01*
D02*
G37*
G36*
X107230D02*
X98541D01*
X98719Y1028979D01*
X99730Y1026537D01*
X101340Y1024439D01*
X103437Y1022830D01*
X105879Y1021818D01*
X107230Y1021641D01*
Y1030330D01*
D02*
G37*
G36*
X81830D02*
X73141D01*
X73319Y1028979D01*
X74330Y1026537D01*
X75940Y1024439D01*
X78037Y1022830D01*
X80479Y1021818D01*
X81830Y1021641D01*
Y1030330D01*
D02*
G37*
G36*
X298400Y1022088D02*
X294822Y1021736D01*
X291382Y1020692D01*
X288212Y1018998D01*
X285433Y1016717D01*
X283152Y1013938D01*
X281458Y1010768D01*
X280414Y1007328D01*
X280062Y1003750D01*
X280414Y1000172D01*
X281458Y996732D01*
X283152Y993562D01*
X285433Y990783D01*
X288212Y988502D01*
X291382Y986808D01*
X294822Y985764D01*
X298400Y985412D01*
X301978Y985764D01*
X305418Y986808D01*
X308588Y988502D01*
X311367Y990783D01*
X313648Y993562D01*
X315342Y996732D01*
X316386Y1000172D01*
X316738Y1003750D01*
X316386Y1007328D01*
X315342Y1010768D01*
X313648Y1013938D01*
X311367Y1016717D01*
X308588Y1018998D01*
X305418Y1020692D01*
X301978Y1021736D01*
X298400Y1022088D01*
D02*
G37*
G36*
X184100D02*
X180522Y1021736D01*
X177082Y1020692D01*
X173912Y1018998D01*
X171133Y1016717D01*
X168852Y1013938D01*
X167158Y1010768D01*
X166114Y1007328D01*
X165762Y1003750D01*
X166114Y1000172D01*
X167158Y996732D01*
X168852Y993562D01*
X171133Y990783D01*
X173912Y988502D01*
X177082Y986808D01*
X180522Y985764D01*
X184100Y985412D01*
X187678Y985764D01*
X191118Y986808D01*
X194288Y988502D01*
X197067Y990783D01*
X199348Y993562D01*
X201042Y996732D01*
X202086Y1000172D01*
X202438Y1003750D01*
X202086Y1007328D01*
X201042Y1010768D01*
X199348Y1013938D01*
X197067Y1016717D01*
X194288Y1018998D01*
X191118Y1020692D01*
X187678Y1021736D01*
X184100Y1022088D01*
D02*
G37*
G36*
X109770Y990759D02*
Y982070D01*
X118460D01*
X118282Y983421D01*
X117270Y985863D01*
X115661Y987961D01*
X113563Y989570D01*
X111121Y990582D01*
X109770Y990759D01*
D02*
G37*
G36*
X84370D02*
Y982070D01*
X93060D01*
X92882Y983421D01*
X91870Y985863D01*
X90261Y987961D01*
X88163Y989570D01*
X85721Y990582D01*
X84370Y990759D01*
D02*
G37*
G36*
X650170D02*
Y982070D01*
X658859D01*
X658681Y983421D01*
X657670Y985863D01*
X656060Y987961D01*
X653963Y989570D01*
X651521Y990582D01*
X650170Y990759D01*
D02*
G37*
G36*
X624770D02*
Y982070D01*
X633459D01*
X633282Y983421D01*
X632270Y985863D01*
X630661Y987961D01*
X628563Y989570D01*
X626121Y990582D01*
X624770Y990759D01*
D02*
G37*
G36*
X647630D02*
X646279Y990582D01*
X643837Y989570D01*
X641739Y987961D01*
X640130Y985863D01*
X639118Y983421D01*
X638941Y982070D01*
X647630D01*
Y990759D01*
D02*
G37*
G36*
X622230D02*
X620879Y990582D01*
X618437Y989570D01*
X616339Y987961D01*
X614730Y985863D01*
X613718Y983421D01*
X613540Y982070D01*
X622230D01*
Y990759D01*
D02*
G37*
G36*
X107230D02*
X105879Y990582D01*
X103437Y989570D01*
X101340Y987961D01*
X99730Y985863D01*
X98719Y983421D01*
X98541Y982070D01*
X107230D01*
Y990759D01*
D02*
G37*
G36*
X81830D02*
X80479Y990582D01*
X78037Y989570D01*
X75940Y987961D01*
X74330Y985863D01*
X73319Y983421D01*
X73141Y982070D01*
X81830D01*
Y990759D01*
D02*
G37*
G36*
X118460Y979530D02*
X109770D01*
Y970841D01*
X111121Y971018D01*
X113563Y972030D01*
X115661Y973639D01*
X117270Y975737D01*
X118282Y978179D01*
X118460Y979530D01*
D02*
G37*
G36*
X93060D02*
X84370D01*
Y970841D01*
X85721Y971018D01*
X88163Y972030D01*
X90261Y973639D01*
X91870Y975737D01*
X92882Y978179D01*
X93060Y979530D01*
D02*
G37*
G36*
X658859D02*
X650170D01*
Y970841D01*
X651521Y971018D01*
X653963Y972030D01*
X656060Y973639D01*
X657670Y975737D01*
X658681Y978179D01*
X658859Y979530D01*
D02*
G37*
G36*
X633459D02*
X624770D01*
Y970841D01*
X626121Y971018D01*
X628563Y972030D01*
X630661Y973639D01*
X632270Y975737D01*
X633282Y978179D01*
X633459Y979530D01*
D02*
G37*
G36*
X647630D02*
X638941D01*
X639118Y978179D01*
X640130Y975737D01*
X641739Y973639D01*
X643837Y972030D01*
X646279Y971018D01*
X647630Y970841D01*
Y979530D01*
D02*
G37*
G36*
X622230D02*
X613540D01*
X613718Y978179D01*
X614730Y975737D01*
X616339Y973639D01*
X618437Y972030D01*
X620879Y971018D01*
X622230Y970841D01*
Y979530D01*
D02*
G37*
G36*
X107230D02*
X98541D01*
X98719Y978179D01*
X99730Y975737D01*
X101340Y973639D01*
X103437Y972030D01*
X105879Y971018D01*
X107230Y970841D01*
Y979530D01*
D02*
G37*
G36*
X81830D02*
X73141D01*
X73319Y978179D01*
X74330Y975737D01*
X75940Y973639D01*
X78037Y972030D01*
X80479Y971018D01*
X81830Y970841D01*
Y979530D01*
D02*
G37*
G36*
X504400Y983650D02*
X485400D01*
Y964650D01*
X504400D01*
Y983650D01*
D02*
G37*
G36*
X571100Y983732D02*
X568620Y983406D01*
X566309Y982448D01*
X564324Y980926D01*
X562802Y978941D01*
X561844Y976630D01*
X561518Y974150D01*
X561844Y971670D01*
X562802Y969359D01*
X564324Y967375D01*
X566309Y965852D01*
X568620Y964895D01*
X571100Y964568D01*
X573580Y964895D01*
X575891Y965852D01*
X577875Y967375D01*
X579398Y969359D01*
X580355Y971670D01*
X580682Y974150D01*
X580355Y976630D01*
X579398Y978941D01*
X577875Y980926D01*
X575891Y982448D01*
X573580Y983406D01*
X571100Y983732D01*
D02*
G37*
G36*
X545700D02*
X543220Y983406D01*
X540909Y982448D01*
X538924Y980926D01*
X537402Y978941D01*
X536444Y976630D01*
X536118Y974150D01*
X536444Y971670D01*
X537402Y969359D01*
X538924Y967375D01*
X540909Y965852D01*
X543220Y964895D01*
X545700Y964568D01*
X548180Y964895D01*
X550491Y965852D01*
X552475Y967375D01*
X553998Y969359D01*
X554955Y971670D01*
X555282Y974150D01*
X554955Y976630D01*
X553998Y978941D01*
X552475Y980926D01*
X550491Y982448D01*
X548180Y983406D01*
X545700Y983732D01*
D02*
G37*
G36*
X520300D02*
X517820Y983406D01*
X515509Y982448D01*
X513524Y980926D01*
X512002Y978941D01*
X511044Y976630D01*
X510718Y974150D01*
X511044Y971670D01*
X512002Y969359D01*
X513524Y967375D01*
X515509Y965852D01*
X517820Y964895D01*
X520300Y964568D01*
X522780Y964895D01*
X525091Y965852D01*
X527075Y967375D01*
X528598Y969359D01*
X529555Y971670D01*
X529882Y974150D01*
X529555Y976630D01*
X528598Y978941D01*
X527075Y980926D01*
X525091Y982448D01*
X522780Y983406D01*
X520300Y983732D01*
D02*
G37*
G36*
X648900Y964982D02*
X646420Y964655D01*
X644109Y963698D01*
X642124Y962175D01*
X640602Y960191D01*
X639645Y957880D01*
X639318Y955400D01*
X639645Y952920D01*
X640602Y950609D01*
X642124Y948624D01*
X644109Y947102D01*
X646420Y946144D01*
X648900Y945818D01*
X651380Y946144D01*
X653691Y947102D01*
X655675Y948624D01*
X657198Y950609D01*
X658155Y952920D01*
X658482Y955400D01*
X658155Y957880D01*
X657198Y960191D01*
X655675Y962175D01*
X653691Y963698D01*
X651380Y964655D01*
X648900Y964982D01*
D02*
G37*
G36*
X294690Y949240D02*
X276710D01*
Y931260D01*
X294690D01*
Y949240D01*
D02*
G37*
G36*
X260300Y949318D02*
X257953Y949009D01*
X255766Y948103D01*
X253888Y946662D01*
X252447Y944784D01*
X251541Y942597D01*
X251232Y940250D01*
X251541Y937903D01*
X252447Y935716D01*
X253888Y933838D01*
X255766Y932397D01*
X257953Y931491D01*
X260300Y931182D01*
X262647Y931491D01*
X264834Y932397D01*
X266712Y933838D01*
X268153Y935716D01*
X269059Y937903D01*
X269368Y940250D01*
X269059Y942597D01*
X268153Y944784D01*
X266712Y946662D01*
X264834Y948103D01*
X262647Y949009D01*
X260300Y949318D01*
D02*
G37*
G36*
X234900D02*
X232553Y949009D01*
X230366Y948103D01*
X228488Y946662D01*
X227047Y944784D01*
X226141Y942597D01*
X225832Y940250D01*
X226141Y937903D01*
X227047Y935716D01*
X228488Y933838D01*
X230366Y932397D01*
X232553Y931491D01*
X234900Y931182D01*
X237247Y931491D01*
X239434Y932397D01*
X241312Y933838D01*
X242753Y935716D01*
X243659Y937903D01*
X243968Y940250D01*
X243659Y942597D01*
X242753Y944784D01*
X241312Y946662D01*
X239434Y948103D01*
X237247Y949009D01*
X234900Y949318D01*
D02*
G37*
G36*
X209500D02*
X207153Y949009D01*
X204966Y948103D01*
X203088Y946662D01*
X201647Y944784D01*
X200741Y942597D01*
X200432Y940250D01*
X200741Y937903D01*
X201647Y935716D01*
X203088Y933838D01*
X204966Y932397D01*
X207153Y931491D01*
X209500Y931182D01*
X211847Y931491D01*
X214034Y932397D01*
X215912Y933838D01*
X217353Y935716D01*
X218259Y937903D01*
X218568Y940250D01*
X218259Y942597D01*
X217353Y944784D01*
X215912Y946662D01*
X214034Y948103D01*
X211847Y949009D01*
X209500Y949318D01*
D02*
G37*
G36*
X273000Y923918D02*
X270653Y923609D01*
X268466Y922703D01*
X266588Y921262D01*
X265147Y919384D01*
X264241Y917197D01*
X263932Y914850D01*
X264241Y912503D01*
X265147Y910316D01*
X266588Y908438D01*
X268466Y906997D01*
X270653Y906091D01*
X273000Y905782D01*
X275347Y906091D01*
X277534Y906997D01*
X279412Y908438D01*
X280853Y910316D01*
X281759Y912503D01*
X282068Y914850D01*
X281759Y917197D01*
X280853Y919384D01*
X279412Y921262D01*
X277534Y922703D01*
X275347Y923609D01*
X273000Y923918D01*
D02*
G37*
G36*
X247600D02*
X245253Y923609D01*
X243066Y922703D01*
X241188Y921262D01*
X239747Y919384D01*
X238841Y917197D01*
X238532Y914850D01*
X238841Y912503D01*
X239747Y910316D01*
X241188Y908438D01*
X243066Y906997D01*
X245253Y906091D01*
X247600Y905782D01*
X249947Y906091D01*
X252134Y906997D01*
X254012Y908438D01*
X255453Y910316D01*
X256359Y912503D01*
X256668Y914850D01*
X256359Y917197D01*
X255453Y919384D01*
X254012Y921262D01*
X252134Y922703D01*
X249947Y923609D01*
X247600Y923918D01*
D02*
G37*
G36*
X222200D02*
X219853Y923609D01*
X217666Y922703D01*
X215788Y921262D01*
X214347Y919384D01*
X213441Y917197D01*
X213132Y914850D01*
X213441Y912503D01*
X214347Y910316D01*
X215788Y908438D01*
X217666Y906997D01*
X219853Y906091D01*
X222200Y905782D01*
X224547Y906091D01*
X226734Y906997D01*
X228612Y908438D01*
X230053Y910316D01*
X230959Y912503D01*
X231268Y914850D01*
X230959Y917197D01*
X230053Y919384D01*
X228612Y921262D01*
X226734Y922703D01*
X224547Y923609D01*
X222200Y923918D01*
D02*
G37*
G36*
X196800D02*
X194453Y923609D01*
X192266Y922703D01*
X190388Y921262D01*
X188947Y919384D01*
X188041Y917197D01*
X187732Y914850D01*
X188041Y912503D01*
X188947Y910316D01*
X190388Y908438D01*
X192266Y906997D01*
X194453Y906091D01*
X196800Y905782D01*
X199147Y906091D01*
X201334Y906997D01*
X203212Y908438D01*
X204653Y910316D01*
X205559Y912503D01*
X205868Y914850D01*
X205559Y917197D01*
X204653Y919384D01*
X203212Y921262D01*
X201334Y922703D01*
X199147Y923609D01*
X196800Y923918D01*
D02*
G37*
G36*
X351000Y911608D02*
X348854Y911181D01*
X347035Y909965D01*
X345819Y908146D01*
X345392Y906000D01*
X345819Y903854D01*
X347035Y902035D01*
X348854Y900819D01*
X351000Y900392D01*
X353146Y900819D01*
X354965Y902035D01*
X356181Y903854D01*
X356608Y906000D01*
X356181Y908146D01*
X354965Y909965D01*
X353146Y911181D01*
X351000Y911608D01*
D02*
G37*
G36*
X317000Y898358D02*
X314854Y897931D01*
X313351Y896927D01*
X312500Y896797D01*
X311649Y896927D01*
X310146Y897931D01*
X308000Y898358D01*
X305854Y897931D01*
X304035Y896715D01*
X302819Y894896D01*
X302392Y892750D01*
X302819Y890604D01*
X304035Y888785D01*
X305854Y887569D01*
X308000Y887142D01*
X310146Y887569D01*
X311649Y888573D01*
X312500Y888703D01*
X313351Y888573D01*
X314854Y887569D01*
X317000Y887142D01*
X319146Y887569D01*
X320965Y888785D01*
X322181Y890604D01*
X322608Y892750D01*
X322181Y894896D01*
X320965Y896715D01*
X319146Y897931D01*
X317000Y898358D01*
D02*
G37*
G36*
X508250Y893039D02*
X470000D01*
X469220Y892884D01*
X468558Y892442D01*
X468116Y891780D01*
X467961Y891000D01*
Y867000D01*
X468116Y866220D01*
X468558Y865558D01*
X469220Y865116D01*
X470000Y864961D01*
X508250D01*
X509030Y865116D01*
X509692Y865558D01*
X510134Y866220D01*
X510289Y867000D01*
Y891000D01*
X510134Y891780D01*
X509692Y892442D01*
X509030Y892884D01*
X508250Y893039D01*
D02*
G37*
G36*
X106275Y830833D02*
X104129Y830406D01*
X102310Y829190D01*
X101094Y827371D01*
X100667Y825225D01*
X101094Y823079D01*
X102310Y821260D01*
X104129Y820044D01*
X106275Y819617D01*
X108421Y820044D01*
X110240Y821260D01*
X111456Y823079D01*
X111538Y823493D01*
X112833D01*
X113119Y822054D01*
X114335Y820235D01*
X116154Y819019D01*
X118300Y818592D01*
X120446Y819019D01*
X122265Y820235D01*
X123481Y822054D01*
X123908Y824200D01*
X123481Y826346D01*
X122265Y828165D01*
X120446Y829381D01*
X118300Y829808D01*
X116154Y829381D01*
X114335Y828165D01*
X113119Y826346D01*
X113037Y825932D01*
X111742D01*
X111456Y827371D01*
X110240Y829190D01*
X108421Y830406D01*
X106275Y830833D01*
D02*
G37*
G36*
X127000Y750608D02*
X124854Y750181D01*
X123035Y748965D01*
X121819Y747146D01*
X121392Y745000D01*
X121819Y742854D01*
X123035Y741035D01*
X124854Y739819D01*
X127000Y739392D01*
X129146Y739819D01*
X130965Y741035D01*
X132181Y742854D01*
X132608Y745000D01*
X132181Y747146D01*
X130965Y748965D01*
X129146Y750181D01*
X127000Y750608D01*
D02*
G37*
G36*
X88500Y740233D02*
X86354Y739806D01*
X84535Y738590D01*
X83319Y736771D01*
X82892Y734625D01*
X83319Y732479D01*
X84535Y730660D01*
X86354Y729444D01*
X88500Y729017D01*
X90646Y729444D01*
X92465Y730660D01*
X93681Y732479D01*
X94108Y734625D01*
X93681Y736771D01*
X92465Y738590D01*
X90646Y739806D01*
X88500Y740233D01*
D02*
G37*
G36*
X113500Y734608D02*
X111354Y734181D01*
X109535Y732965D01*
X108319Y731146D01*
X107892Y729000D01*
X108319Y726854D01*
X109535Y725035D01*
X111354Y723819D01*
X113500Y723392D01*
X115190Y723728D01*
X116311Y722852D01*
X116267Y722630D01*
X116694Y720484D01*
X117909Y718664D01*
X119728Y717449D01*
X121875Y717022D01*
X124021Y717449D01*
X125840Y718664D01*
X127055Y720484D01*
X127482Y722630D01*
X127055Y724776D01*
X125840Y726595D01*
X124021Y727811D01*
X121875Y728237D01*
X120184Y727901D01*
X119063Y728777D01*
X119108Y729000D01*
X118681Y731146D01*
X117465Y732965D01*
X115646Y734181D01*
X113500Y734608D01*
D02*
G37*
G36*
X182000Y733483D02*
X179854Y733056D01*
X178035Y731840D01*
X176819Y730021D01*
X176392Y727875D01*
X176819Y725729D01*
X178035Y723910D01*
Y722840D01*
X176819Y721021D01*
X176392Y718875D01*
X176819Y716729D01*
X178035Y714910D01*
X179854Y713694D01*
X182000Y713267D01*
X184146Y713694D01*
X185965Y714910D01*
X187181Y716729D01*
X187608Y718875D01*
X187181Y721021D01*
X185965Y722840D01*
Y723910D01*
X187181Y725729D01*
X187608Y727875D01*
X187181Y730021D01*
X185965Y731840D01*
X184146Y733056D01*
X182000Y733483D01*
D02*
G37*
G36*
X104250Y724108D02*
X102104Y723681D01*
X100285Y722465D01*
X99069Y720646D01*
X98642Y718500D01*
X99069Y716354D01*
X100285Y714535D01*
X102104Y713319D01*
X104250Y712892D01*
X106396Y713319D01*
X108215Y714535D01*
X109431Y716354D01*
X109858Y718500D01*
X109431Y720646D01*
X108215Y722465D01*
X106396Y723681D01*
X104250Y724108D01*
D02*
G37*
G36*
X652000Y729000D02*
X634000D01*
Y711000D01*
X652000D01*
Y729000D01*
D02*
G37*
G36*
X353370Y707714D02*
Y698520D01*
X362564D01*
X362369Y700002D01*
X361307Y702565D01*
X359617Y704767D01*
X357416Y706457D01*
X354851Y707519D01*
X353370Y707714D01*
D02*
G37*
G36*
X350830Y707714D02*
X349348Y707519D01*
X346785Y706457D01*
X344583Y704767D01*
X342893Y702565D01*
X341831Y700002D01*
X341636Y698520D01*
X350830D01*
Y707714D01*
D02*
G37*
G36*
X412900Y707250D02*
X392900D01*
Y687250D01*
X412900D01*
Y707250D01*
D02*
G37*
G36*
X377500Y707336D02*
X374889Y706993D01*
X372457Y705985D01*
X370368Y704382D01*
X368765Y702293D01*
X367757Y699861D01*
X367414Y697250D01*
X367757Y694640D01*
X368765Y692207D01*
X370368Y690118D01*
X372457Y688515D01*
X374889Y687507D01*
X377500Y687164D01*
X380111Y687507D01*
X382543Y688515D01*
X384632Y690118D01*
X386235Y692207D01*
X387243Y694640D01*
X387586Y697250D01*
X387243Y699861D01*
X386235Y702293D01*
X384632Y704382D01*
X382543Y705985D01*
X380111Y706993D01*
X377500Y707336D01*
D02*
G37*
G36*
X350830Y695980D02*
X341636D01*
X341831Y694499D01*
X342893Y691935D01*
X344583Y689733D01*
X346785Y688043D01*
X349348Y686981D01*
X350830Y686786D01*
Y695980D01*
D02*
G37*
G36*
X362564D02*
X353370D01*
Y686786D01*
X354851Y686981D01*
X357416Y688043D01*
X359617Y689733D01*
X361307Y691935D01*
X362369Y694499D01*
X362564Y695980D01*
D02*
G37*
G36*
X72000Y687358D02*
X69854Y686931D01*
X68035Y685715D01*
X66819Y683896D01*
X66392Y681750D01*
X66819Y679604D01*
X68035Y677785D01*
X69854Y676569D01*
X72000Y676142D01*
X74146Y676569D01*
X75965Y677785D01*
X77181Y679604D01*
X77608Y681750D01*
X77181Y683896D01*
X75965Y685715D01*
X74146Y686931D01*
X72000Y687358D01*
D02*
G37*
G36*
X89250Y686858D02*
X87104Y686431D01*
X85285Y685215D01*
X84069Y683396D01*
X83642Y681250D01*
X84069Y679104D01*
X85285Y677285D01*
X87104Y676069D01*
X89250Y675642D01*
X91396Y676069D01*
X93215Y677285D01*
X94431Y679104D01*
X94858Y681250D01*
X94431Y683396D01*
X93215Y685215D01*
X91396Y686431D01*
X89250Y686858D01*
D02*
G37*
G36*
X141750Y877858D02*
X139604Y877431D01*
X138717Y876838D01*
X113750D01*
X111994Y876489D01*
X110506Y875494D01*
X39256Y804244D01*
X38261Y802756D01*
X37912Y801000D01*
Y737783D01*
X37319Y736896D01*
X36892Y734750D01*
X37319Y732604D01*
X38535Y730785D01*
X40354Y729569D01*
X42500Y729142D01*
X44646Y729569D01*
X46465Y730785D01*
X47681Y732604D01*
X48108Y734750D01*
X47681Y736896D01*
X47088Y737783D01*
Y799100D01*
X115651Y867662D01*
X138717D01*
X139604Y867069D01*
X140650Y866861D01*
X158662Y848849D01*
Y823283D01*
X158069Y822396D01*
X157642Y820250D01*
X158069Y818104D01*
X158662Y817217D01*
Y701606D01*
X158261Y701006D01*
X157912Y699250D01*
Y683033D01*
X157319Y682146D01*
X156892Y680000D01*
X157319Y677854D01*
X158535Y676035D01*
X160354Y674819D01*
X162500Y674392D01*
X164646Y674819D01*
X166465Y676035D01*
X167681Y677854D01*
X168108Y680000D01*
X167681Y682146D01*
X167088Y683033D01*
Y697645D01*
X167489Y698244D01*
X167838Y700000D01*
Y817217D01*
X168431Y818104D01*
X168858Y820250D01*
X168431Y822396D01*
X167838Y823283D01*
Y850750D01*
X167489Y852506D01*
X166494Y853994D01*
X147139Y873350D01*
X146931Y874396D01*
X145715Y876215D01*
X143896Y877431D01*
X141750Y877858D01*
D02*
G37*
G36*
X644270Y679455D02*
Y671270D01*
X652455D01*
X652294Y672490D01*
X651333Y674811D01*
X649804Y676804D01*
X647811Y678333D01*
X645490Y679294D01*
X644270Y679455D01*
D02*
G37*
G36*
X641730Y679455D02*
X640510Y679294D01*
X638189Y678333D01*
X636196Y676804D01*
X634667Y674811D01*
X633706Y672490D01*
X633545Y671270D01*
X641730D01*
Y679455D01*
D02*
G37*
G36*
X308250Y684800D02*
X289250D01*
Y665800D01*
X308250D01*
Y684800D01*
D02*
G37*
G36*
X641730Y668730D02*
X633545D01*
X633706Y667509D01*
X634667Y665189D01*
X636196Y663196D01*
X638189Y661667D01*
X640510Y660705D01*
X641730Y660545D01*
Y668730D01*
D02*
G37*
G36*
X652455D02*
X644270D01*
Y660545D01*
X645490Y660705D01*
X647811Y661667D01*
X649804Y663196D01*
X651333Y665189D01*
X652294Y667509D01*
X652455Y668730D01*
D02*
G37*
G36*
X298750Y659482D02*
X296270Y659156D01*
X293959Y658198D01*
X291975Y656675D01*
X290452Y654691D01*
X289494Y652380D01*
X289168Y649900D01*
X289494Y647420D01*
X290452Y645109D01*
X291975Y643124D01*
X293959Y641602D01*
X296270Y640645D01*
X298750Y640318D01*
X301230Y640645D01*
X303541Y641602D01*
X305525Y643124D01*
X307048Y645109D01*
X308006Y647420D01*
X308332Y649900D01*
X308006Y652380D01*
X307048Y654691D01*
X305525Y656675D01*
X303541Y658198D01*
X301230Y659156D01*
X298750Y659482D01*
D02*
G37*
G36*
X213000Y646108D02*
X210854Y645681D01*
X209035Y644465D01*
X207819Y642646D01*
X207392Y640500D01*
X207819Y638354D01*
X209035Y636535D01*
X210854Y635319D01*
X213000Y634892D01*
X215146Y635319D01*
X216965Y636535D01*
X218181Y638354D01*
X218608Y640500D01*
X218181Y642646D01*
X216965Y644465D01*
X215146Y645681D01*
X213000Y646108D01*
D02*
G37*
G36*
X300020Y634459D02*
Y625770D01*
X308709D01*
X308532Y627121D01*
X307520Y629563D01*
X305911Y631661D01*
X303813Y633270D01*
X301371Y634282D01*
X300020Y634459D01*
D02*
G37*
G36*
X297480D02*
X296129Y634282D01*
X293687Y633270D01*
X291589Y631661D01*
X289980Y629563D01*
X288968Y627121D01*
X288791Y625770D01*
X297480D01*
Y634459D01*
D02*
G37*
G36*
Y623230D02*
X288791D01*
X288968Y621879D01*
X289980Y619437D01*
X291589Y617339D01*
X293687Y615730D01*
X296129Y614718D01*
X297480Y614541D01*
Y623230D01*
D02*
G37*
G36*
X308709D02*
X300020D01*
Y614541D01*
X301371Y614718D01*
X303813Y615730D01*
X305911Y617339D01*
X307520Y619437D01*
X308532Y621879D01*
X308709Y623230D01*
D02*
G37*
G36*
X275000Y616608D02*
X272854Y616181D01*
X271035Y614965D01*
X269819Y613146D01*
X269392Y611000D01*
X269819Y608854D01*
X271035Y607035D01*
X272854Y605819D01*
X275000Y605392D01*
X277146Y605819D01*
X278965Y607035D01*
X280181Y608854D01*
X280608Y611000D01*
X280181Y613146D01*
X278965Y614965D01*
X277146Y616181D01*
X275000Y616608D01*
D02*
G37*
G36*
X49721Y604579D02*
X47575Y604152D01*
X45756Y602937D01*
X44540Y601117D01*
X44113Y598971D01*
X44540Y596825D01*
X45756Y595006D01*
X47575Y593790D01*
X49721Y593363D01*
X51867Y593790D01*
X53686Y595006D01*
X54902Y596825D01*
X55329Y598971D01*
X54902Y601117D01*
X53686Y602937D01*
X51867Y604152D01*
X49721Y604579D01*
D02*
G37*
G36*
X298750Y608682D02*
X296270Y608355D01*
X293959Y607398D01*
X291975Y605875D01*
X290452Y603891D01*
X289494Y601580D01*
X289168Y599100D01*
X289494Y596620D01*
X290452Y594309D01*
X291975Y592324D01*
X293959Y590802D01*
X296270Y589845D01*
X298750Y589518D01*
X301230Y589845D01*
X303541Y590802D01*
X305525Y592324D01*
X307048Y594309D01*
X308006Y596620D01*
X308332Y599100D01*
X308006Y601580D01*
X307048Y603891D01*
X305525Y605875D01*
X303541Y607398D01*
X301230Y608355D01*
X298750Y608682D01*
D02*
G37*
G36*
X83500Y593858D02*
X81354Y593431D01*
X79535Y592215D01*
X78319Y590396D01*
X77892Y588250D01*
X78319Y586104D01*
X79535Y584285D01*
X81354Y583069D01*
X83500Y582642D01*
X85646Y583069D01*
X87465Y584285D01*
X88681Y586104D01*
X89108Y588250D01*
X88681Y590396D01*
X87465Y592215D01*
X85646Y593431D01*
X83500Y593858D01*
D02*
G37*
G36*
X97000Y592358D02*
X94854Y591931D01*
X93035Y590715D01*
X91819Y588896D01*
X91392Y586750D01*
X91819Y584604D01*
X93035Y582785D01*
X94854Y581569D01*
X97000Y581142D01*
X99146Y581569D01*
X100965Y582785D01*
X102181Y584604D01*
X102608Y586750D01*
X102181Y588896D01*
X100965Y590715D01*
X99146Y591931D01*
X97000Y592358D01*
D02*
G37*
G36*
X462600Y983732D02*
X460120Y983406D01*
X457809Y982448D01*
X455825Y980926D01*
X454302Y978941D01*
X453345Y976630D01*
X453018Y974150D01*
X453345Y971670D01*
X454302Y969359D01*
X455825Y967375D01*
X457809Y965852D01*
X459541Y965134D01*
Y920367D01*
X159337Y620163D01*
X158674Y619170D01*
X158441Y618000D01*
X158441Y618000D01*
Y580096D01*
X158329Y580021D01*
X157059Y580700D01*
Y621733D01*
X439363Y904037D01*
X439363Y904037D01*
X440026Y905030D01*
X440259Y906200D01*
X440259Y906200D01*
Y965134D01*
X441991Y965852D01*
X443975Y967375D01*
X445498Y969359D01*
X446455Y971670D01*
X446782Y974150D01*
X446455Y976630D01*
X445498Y978941D01*
X443975Y980926D01*
X441991Y982448D01*
X439680Y983406D01*
X437200Y983732D01*
X434720Y983406D01*
X432409Y982448D01*
X430425Y980926D01*
X428902Y978941D01*
X427945Y976630D01*
X427618Y974150D01*
X427945Y971670D01*
X428902Y969359D01*
X430425Y967375D01*
X432409Y965852D01*
X434141Y965134D01*
Y907467D01*
X416171Y889496D01*
X415902Y889536D01*
X414859Y890800D01*
Y965134D01*
X416591Y965852D01*
X418576Y967375D01*
X420098Y969359D01*
X421055Y971670D01*
X421382Y974150D01*
X421055Y976630D01*
X420098Y978941D01*
X418576Y980926D01*
X416591Y982448D01*
X414280Y983406D01*
X411800Y983732D01*
X409320Y983406D01*
X407009Y982448D01*
X405025Y980926D01*
X403502Y978941D01*
X402545Y976630D01*
X402218Y974150D01*
X402545Y971670D01*
X403502Y969359D01*
X405025Y967375D01*
X407009Y965852D01*
X408741Y965134D01*
Y892067D01*
X142201Y625527D01*
X140794Y625916D01*
X140734Y626158D01*
X388563Y873987D01*
X389226Y874980D01*
X389459Y876150D01*
X389459Y876150D01*
Y964650D01*
X395900D01*
Y983650D01*
X376900D01*
Y964650D01*
X383341D01*
Y897663D01*
X382221Y897064D01*
X382046Y897181D01*
X379900Y897608D01*
X377754Y897181D01*
X375935Y895965D01*
X374719Y894146D01*
X374292Y892000D01*
X374719Y889854D01*
X375935Y888035D01*
X377754Y886819D01*
X379900Y886392D01*
X382046Y886819D01*
X382221Y886936D01*
X383341Y886338D01*
Y877417D01*
X261024Y755100D01*
X259778Y755650D01*
X259431Y757396D01*
X258215Y759215D01*
X256396Y760431D01*
X254250Y760858D01*
X252104Y760431D01*
X250285Y759215D01*
X248899Y759427D01*
X247393Y760434D01*
X245247Y760861D01*
X243101Y760434D01*
X241282Y759218D01*
X240066Y757399D01*
X239639Y755253D01*
X240066Y753107D01*
X241282Y751288D01*
X243101Y750072D01*
X245247Y749645D01*
X247393Y750072D01*
X249212Y751288D01*
X250598Y751076D01*
X252104Y750069D01*
X253850Y749722D01*
X254400Y748476D01*
X134837Y628913D01*
X134174Y627920D01*
X133941Y626750D01*
X133941Y626750D01*
Y573017D01*
X113337Y552413D01*
X112674Y551421D01*
X112441Y550250D01*
X112441Y550250D01*
Y392017D01*
X98069Y377645D01*
X97000Y377858D01*
X94854Y377431D01*
X93035Y376215D01*
X91819Y374396D01*
X91392Y372250D01*
X91819Y370104D01*
X93035Y368285D01*
X94854Y367069D01*
X97000Y366642D01*
X99146Y367069D01*
X100810Y368181D01*
X101575Y368048D01*
X102178Y367814D01*
X102319Y367104D01*
X103535Y365285D01*
X105354Y364069D01*
X107500Y363642D01*
X109400Y364020D01*
X110154Y363517D01*
X110516Y363123D01*
X110392Y362500D01*
X110819Y360354D01*
X112035Y358535D01*
X113854Y357319D01*
X116000Y356892D01*
X118146Y357319D01*
X119148Y357989D01*
X119495Y357922D01*
X120473Y357346D01*
X120819Y355604D01*
X122035Y353785D01*
X123854Y352569D01*
X126000Y352142D01*
X128146Y352569D01*
X129216Y353284D01*
X129676Y353591D01*
X130591Y352676D01*
X130284Y352216D01*
X129569Y351146D01*
X129142Y349000D01*
X129569Y346854D01*
X130785Y345035D01*
X132604Y343819D01*
X134750Y343392D01*
X136896Y343819D01*
X138715Y345035D01*
X139931Y346854D01*
X140358Y349000D01*
X139931Y351146D01*
X138715Y352965D01*
X136896Y354181D01*
X134750Y354608D01*
X132604Y354181D01*
X131534Y353466D01*
X131074Y353159D01*
X130159Y354075D01*
X130466Y354534D01*
X131181Y355604D01*
X131608Y357750D01*
X131181Y359896D01*
X129965Y361715D01*
X128146Y362931D01*
X126000Y363358D01*
X123854Y362931D01*
X122879Y362279D01*
X121783Y362774D01*
X121586Y364059D01*
X122451Y364911D01*
X123425Y364718D01*
X125571Y365145D01*
X127390Y366360D01*
X128605Y368179D01*
X129032Y370325D01*
X128647Y372263D01*
X129663Y373279D01*
X129663Y373279D01*
X130326Y374272D01*
X130559Y375442D01*
X130559Y375443D01*
Y483472D01*
X131829Y484192D01*
X131941Y484124D01*
Y420250D01*
X131941Y420250D01*
X132174Y419080D01*
X132837Y418087D01*
X166441Y384483D01*
Y330767D01*
X22087Y186413D01*
X21424Y185420D01*
X21191Y184250D01*
X21191Y184250D01*
Y131571D01*
X20285Y130965D01*
X19069Y129146D01*
X18642Y127000D01*
X19069Y124854D01*
X20285Y123035D01*
X22104Y121819D01*
X24250Y121392D01*
X26396Y121819D01*
X28215Y123035D01*
X29431Y124854D01*
X29858Y127000D01*
X29431Y129146D01*
X28215Y130965D01*
X27309Y131571D01*
Y182983D01*
X171663Y327337D01*
X172326Y328330D01*
X172559Y329500D01*
X172559Y329500D01*
Y385750D01*
X172559Y385750D01*
X172494Y386077D01*
X173629Y386881D01*
X173936Y386698D01*
Y326623D01*
X41907Y194593D01*
X41189Y193518D01*
X40936Y192250D01*
Y121500D01*
X41189Y120232D01*
X41907Y119157D01*
X45657Y115407D01*
X46732Y114689D01*
X48000Y114436D01*
X79250D01*
X80518Y114689D01*
X81593Y115407D01*
X86731Y120545D01*
X87500Y120392D01*
X89646Y120819D01*
X91465Y122035D01*
X92681Y123854D01*
X93108Y126000D01*
X92681Y128146D01*
X91465Y129965D01*
X89646Y131181D01*
X87500Y131608D01*
X85354Y131181D01*
X83535Y129965D01*
X82319Y128146D01*
X81892Y126000D01*
X82045Y125231D01*
X77877Y121064D01*
X49373D01*
X47564Y122873D01*
Y190877D01*
X179593Y322907D01*
X180311Y323982D01*
X180564Y325250D01*
Y388500D01*
X180311Y389768D01*
X179593Y390843D01*
X147814Y422623D01*
Y471325D01*
X149084Y471710D01*
X149535Y471035D01*
X150441Y470429D01*
Y423500D01*
X150441Y423500D01*
X150674Y422329D01*
X151337Y421337D01*
X182441Y390233D01*
Y320517D01*
X55337Y193413D01*
X54674Y192421D01*
X54441Y191250D01*
X54441Y191250D01*
Y133321D01*
X53535Y132715D01*
X52319Y130896D01*
X51892Y128750D01*
X52319Y126604D01*
X53535Y124785D01*
X55354Y123569D01*
X57500Y123142D01*
X59646Y123569D01*
X61465Y124785D01*
X62681Y126604D01*
X63108Y128750D01*
X62681Y130896D01*
X61465Y132715D01*
X60559Y133321D01*
Y189983D01*
X187663Y317087D01*
X187663Y317087D01*
X188326Y318079D01*
X188559Y319250D01*
Y391500D01*
X188326Y392671D01*
X187663Y393663D01*
X156559Y424767D01*
Y470429D01*
X157465Y471035D01*
X158681Y472854D01*
X159108Y475000D01*
X158681Y477146D01*
X157465Y478965D01*
X155646Y480181D01*
X153500Y480608D01*
X151354Y480181D01*
X150764Y479787D01*
X150420Y479967D01*
X149735Y480626D01*
X150108Y482500D01*
X149681Y484646D01*
X148465Y486465D01*
X146646Y487681D01*
X144500Y488108D01*
X142354Y487681D01*
X140978Y486762D01*
X140063Y487677D01*
X140181Y487854D01*
X140608Y490000D01*
X140181Y492146D01*
X138965Y493965D01*
X137146Y495181D01*
X135000Y495608D01*
X132854Y495181D01*
X131829Y494496D01*
X130559Y495175D01*
Y542483D01*
X163663Y575587D01*
X163663Y575587D01*
X164326Y576580D01*
X164559Y577750D01*
X164559Y577750D01*
Y616733D01*
X464763Y916937D01*
X465426Y917930D01*
X465659Y919100D01*
X465659Y919100D01*
Y965134D01*
X467391Y965852D01*
X469375Y967375D01*
X470898Y969359D01*
X471856Y971670D01*
X472182Y974150D01*
X471856Y976630D01*
X470898Y978941D01*
X469375Y980926D01*
X467391Y982448D01*
X465080Y983406D01*
X462600Y983732D01*
D02*
G37*
G36*
X272750Y591108D02*
X270604Y590681D01*
X268785Y589465D01*
X267569Y587646D01*
X267142Y585500D01*
X267569Y583354D01*
X268785Y581535D01*
X270604Y580319D01*
X272750Y579892D01*
X274896Y580319D01*
X276715Y581535D01*
X277931Y583354D01*
X278358Y585500D01*
X277931Y587646D01*
X276715Y589465D01*
X274896Y590681D01*
X272750Y591108D01*
D02*
G37*
G36*
X126250Y583608D02*
X124104Y583181D01*
X122285Y581965D01*
X121069Y580146D01*
X120642Y578000D01*
X121069Y575854D01*
X122285Y574035D01*
X124104Y572819D01*
X126250Y572392D01*
X128396Y572819D01*
X130215Y574035D01*
X131431Y575854D01*
X131858Y578000D01*
X131431Y580146D01*
X130215Y581965D01*
X128396Y583181D01*
X126250Y583608D01*
D02*
G37*
G36*
X82000Y580858D02*
X79854Y580431D01*
X78035Y579215D01*
X76819Y577396D01*
X76392Y575250D01*
X76819Y573104D01*
X78035Y571285D01*
X79854Y570069D01*
X82000Y569642D01*
X84146Y570069D01*
X85965Y571285D01*
X87181Y573104D01*
X87608Y575250D01*
X87181Y577396D01*
X85965Y579215D01*
X84146Y580431D01*
X82000Y580858D01*
D02*
G37*
G36*
X298750Y583282D02*
X296270Y582956D01*
X293959Y581998D01*
X291975Y580475D01*
X290452Y578491D01*
X289494Y576180D01*
X289168Y573700D01*
X289494Y571220D01*
X290452Y568909D01*
X291975Y566925D01*
X293959Y565402D01*
X296270Y564445D01*
X298750Y564118D01*
X301230Y564445D01*
X303541Y565402D01*
X305525Y566925D01*
X307048Y568909D01*
X308006Y571220D01*
X308332Y573700D01*
X308006Y576180D01*
X307048Y578491D01*
X305525Y580475D01*
X303541Y581998D01*
X301230Y582956D01*
X298750Y583282D01*
D02*
G37*
G36*
X367000Y560986D02*
X364390Y560643D01*
X361957Y559635D01*
X359868Y558032D01*
X358265Y555943D01*
X357258Y553511D01*
X356914Y550900D01*
X357258Y548290D01*
X358265Y545857D01*
X359868Y543768D01*
X361957Y542165D01*
X364390Y541158D01*
X367000Y540814D01*
X369611Y541158D01*
X372043Y542165D01*
X374132Y543768D01*
X375735Y545857D01*
X376743Y548290D01*
X377086Y550900D01*
X376743Y553511D01*
X375735Y555943D01*
X374132Y558032D01*
X372043Y559635D01*
X369611Y560643D01*
X367000Y560986D01*
D02*
G37*
G36*
X245000Y548358D02*
X242854Y547931D01*
X241035Y546715D01*
X239819Y544896D01*
X239392Y542750D01*
X239819Y540604D01*
X241035Y538785D01*
X242854Y537569D01*
X245000Y537142D01*
X247146Y537569D01*
X248965Y538785D01*
X250181Y540604D01*
X250608Y542750D01*
X250181Y544896D01*
X248965Y546715D01*
X247146Y547931D01*
X245000Y548358D01*
D02*
G37*
G36*
X141500Y542608D02*
X139354Y542181D01*
X137535Y540965D01*
X136319Y539146D01*
X135892Y537000D01*
X136319Y534854D01*
X137535Y533035D01*
X139354Y531819D01*
X141500Y531392D01*
X143646Y531819D01*
X145465Y533035D01*
X146681Y534854D01*
X147108Y537000D01*
X146681Y539146D01*
X145465Y540965D01*
X143646Y542181D01*
X141500Y542608D01*
D02*
G37*
G36*
X367000Y535586D02*
X364390Y535243D01*
X361957Y534235D01*
X359868Y532632D01*
X358265Y530543D01*
X357258Y528111D01*
X356914Y525500D01*
X357258Y522890D01*
X358265Y520457D01*
X359868Y518368D01*
X361957Y516765D01*
X364390Y515758D01*
X367000Y515414D01*
X369611Y515758D01*
X372043Y516765D01*
X374132Y518368D01*
X375735Y520457D01*
X376743Y522890D01*
X377086Y525500D01*
X376743Y528111D01*
X375735Y530543D01*
X374132Y532632D01*
X372043Y534235D01*
X369611Y535243D01*
X367000Y535586D01*
D02*
G37*
G36*
X377000Y510100D02*
X357000D01*
Y490100D01*
X377000D01*
Y510100D01*
D02*
G37*
G36*
X167250Y497858D02*
X165104Y497431D01*
X163285Y496215D01*
X162069Y494396D01*
X161642Y492250D01*
X162069Y490104D01*
X163285Y488285D01*
X165104Y487069D01*
X167250Y486642D01*
X169396Y487069D01*
X171215Y488285D01*
X172431Y490104D01*
X172858Y492250D01*
X172431Y494396D01*
X171215Y496215D01*
X169396Y497431D01*
X167250Y497858D01*
D02*
G37*
G36*
X182500Y493358D02*
X180354Y492931D01*
X178535Y491715D01*
X177319Y489896D01*
X176892Y487750D01*
X177319Y485604D01*
X178535Y483785D01*
X180354Y482569D01*
X182500Y482142D01*
X184646Y482569D01*
X186465Y483785D01*
X187681Y485604D01*
X188108Y487750D01*
X187681Y489896D01*
X186465Y491715D01*
X184646Y492931D01*
X182500Y493358D01*
D02*
G37*
G36*
X242512Y490131D02*
X240366Y489705D01*
X238547Y488489D01*
X237331Y486670D01*
X236904Y484524D01*
X237331Y482378D01*
X238547Y480558D01*
X240366Y479343D01*
X242512Y478916D01*
X244658Y479343D01*
X246477Y480558D01*
X247693Y482378D01*
X248120Y484524D01*
X247693Y486670D01*
X246477Y488489D01*
X244658Y489705D01*
X242512Y490131D01*
D02*
G37*
G36*
X256500Y488358D02*
X254354Y487931D01*
X252535Y486715D01*
X251319Y484896D01*
X250892Y482750D01*
X251319Y480604D01*
X252535Y478785D01*
X254354Y477569D01*
X256500Y477142D01*
X258646Y477569D01*
X260465Y478785D01*
X261681Y480604D01*
X262108Y482750D01*
X261681Y484896D01*
X260465Y486715D01*
X258646Y487931D01*
X256500Y488358D01*
D02*
G37*
G36*
X265250Y479108D02*
X263104Y478681D01*
X261285Y477465D01*
X260069Y475646D01*
X259642Y473500D01*
X260069Y471354D01*
X261285Y469535D01*
X263104Y468319D01*
X265250Y467892D01*
X267396Y468319D01*
X269215Y469535D01*
X270431Y471354D01*
X270858Y473500D01*
X270431Y475646D01*
X269215Y477465D01*
X267396Y478681D01*
X265250Y479108D01*
D02*
G37*
G36*
X242750Y465108D02*
X240604Y464681D01*
X238785Y463465D01*
X237569Y461646D01*
X237142Y459500D01*
X237569Y457354D01*
X238785Y455535D01*
X240604Y454319D01*
X242750Y453892D01*
X244896Y454319D01*
X246715Y455535D01*
X247931Y457354D01*
X248358Y459500D01*
X247931Y461646D01*
X246715Y463465D01*
X244896Y464681D01*
X242750Y465108D01*
D02*
G37*
G36*
X95250Y464858D02*
X93104Y464431D01*
X91285Y463215D01*
X90069Y461396D01*
X89642Y459250D01*
X90069Y457104D01*
X91285Y455285D01*
X93104Y454069D01*
X95250Y453642D01*
X97396Y454069D01*
X99215Y455285D01*
X100431Y457104D01*
X100858Y459250D01*
X100431Y461396D01*
X99215Y463215D01*
X97396Y464431D01*
X95250Y464858D01*
D02*
G37*
G36*
X257750Y459108D02*
X255604Y458681D01*
X253785Y457465D01*
X252569Y455646D01*
X252142Y453500D01*
X252569Y451354D01*
X253785Y449535D01*
X255604Y448319D01*
X257750Y447892D01*
X259896Y448319D01*
X261715Y449535D01*
X262931Y451354D01*
X263358Y453500D01*
X262931Y455646D01*
X261715Y457465D01*
X259896Y458681D01*
X257750Y459108D01*
D02*
G37*
G36*
X104250Y455858D02*
X102104Y455431D01*
X100285Y454215D01*
X99069Y452396D01*
X98642Y450250D01*
X99069Y448104D01*
X100285Y446285D01*
X102104Y445069D01*
X104250Y444642D01*
X106396Y445069D01*
X108215Y446285D01*
X109431Y448104D01*
X109858Y450250D01*
X109431Y452396D01*
X108215Y454215D01*
X106396Y455431D01*
X104250Y455858D01*
D02*
G37*
G36*
X254108Y439500D02*
X251962Y439073D01*
X250143Y437857D01*
X248927Y436038D01*
X248500Y433892D01*
X248927Y431746D01*
X250143Y429926D01*
X251962Y428711D01*
X254108Y428284D01*
X256254Y428711D01*
X258074Y429926D01*
X259289Y431746D01*
X259716Y433892D01*
X259289Y436038D01*
X258074Y437857D01*
X256254Y439073D01*
X254108Y439500D01*
D02*
G37*
G36*
X88250Y437108D02*
X86104Y436681D01*
X84285Y435465D01*
X83069Y433646D01*
X82642Y431500D01*
X83069Y429354D01*
X84285Y427535D01*
X86104Y426319D01*
X88250Y425892D01*
X90396Y426319D01*
X92215Y427535D01*
X93431Y429354D01*
X93858Y431500D01*
X93431Y433646D01*
X92215Y435465D01*
X90396Y436681D01*
X88250Y437108D01*
D02*
G37*
G36*
X203500Y434858D02*
X201354Y434431D01*
X199535Y433215D01*
X198319Y431396D01*
X197892Y429250D01*
X198319Y427104D01*
X199535Y425285D01*
X201354Y424069D01*
X203500Y423642D01*
X205646Y424069D01*
X207465Y425285D01*
X208681Y427104D01*
X209108Y429250D01*
X208681Y431396D01*
X207465Y433215D01*
X205646Y434431D01*
X203500Y434858D01*
D02*
G37*
G36*
X548750Y430358D02*
X546604Y429931D01*
X544785Y428715D01*
X543569Y426896D01*
X543142Y424750D01*
X543569Y422604D01*
X544785Y420785D01*
X546604Y419569D01*
X548750Y419142D01*
X550896Y419569D01*
X552715Y420785D01*
X553931Y422604D01*
X554358Y424750D01*
X553931Y426896D01*
X552715Y428715D01*
X550896Y429931D01*
X548750Y430358D01*
D02*
G37*
G36*
X191500Y427858D02*
X189354Y427431D01*
X187535Y426215D01*
X186319Y424396D01*
X185892Y422250D01*
X186319Y420104D01*
X187535Y418285D01*
X189354Y417069D01*
X191500Y416642D01*
X193646Y417069D01*
X195465Y418285D01*
X196681Y420104D01*
X197108Y422250D01*
X196681Y424396D01*
X195465Y426215D01*
X193646Y427431D01*
X191500Y427858D01*
D02*
G37*
G36*
X666250Y415858D02*
X664104Y415431D01*
X662285Y414215D01*
X661069Y412396D01*
X660642Y410250D01*
X661069Y408104D01*
X662285Y406285D01*
X664104Y405069D01*
X666250Y404642D01*
X668396Y405069D01*
X670215Y406285D01*
X671431Y408104D01*
X671858Y410250D01*
X671431Y412396D01*
X670215Y414215D01*
X668396Y415431D01*
X666250Y415858D01*
D02*
G37*
G36*
X264750D02*
X262604Y415431D01*
X260785Y414215D01*
X259569Y412396D01*
X259142Y410250D01*
X259569Y408104D01*
X260785Y406285D01*
X262604Y405069D01*
X264750Y404642D01*
X266896Y405069D01*
X268715Y406285D01*
X269931Y408104D01*
X270358Y410250D01*
X269931Y412396D01*
X268715Y414215D01*
X266896Y415431D01*
X264750Y415858D01*
D02*
G37*
G36*
X306000Y397858D02*
X303854Y397431D01*
X302035Y396215D01*
X300819Y394396D01*
X300392Y392250D01*
X300819Y390104D01*
X302035Y388285D01*
X303854Y387069D01*
X306000Y386642D01*
X308146Y387069D01*
X309965Y388285D01*
X311181Y390104D01*
X311608Y392250D01*
X311181Y394396D01*
X309965Y396215D01*
X308146Y397431D01*
X306000Y397858D01*
D02*
G37*
G36*
X293250Y397608D02*
X291104Y397181D01*
X289285Y395965D01*
X288069Y394146D01*
X287642Y392000D01*
X288069Y389854D01*
X289285Y388035D01*
X291104Y386819D01*
X293250Y386392D01*
X295396Y386819D01*
X297215Y388035D01*
X298431Y389854D01*
X298858Y392000D01*
X298431Y394146D01*
X297215Y395965D01*
X295396Y397181D01*
X293250Y397608D01*
D02*
G37*
G36*
X263000Y395108D02*
X260854Y394681D01*
X259035Y393465D01*
X257819Y391646D01*
X257392Y389500D01*
X257819Y387354D01*
X259035Y385535D01*
X260854Y384319D01*
X263000Y383892D01*
X265146Y384319D01*
X266965Y385535D01*
X268181Y387354D01*
X268608Y389500D01*
X268181Y391646D01*
X266965Y393465D01*
X265146Y394681D01*
X263000Y395108D01*
D02*
G37*
G36*
X402750Y386850D02*
X382750D01*
Y366850D01*
X402750D01*
Y386850D01*
D02*
G37*
G36*
X149000Y374108D02*
X146854Y373681D01*
X145035Y372465D01*
X143819Y370646D01*
X143392Y368500D01*
X143819Y366354D01*
X144177Y365819D01*
X143413Y364676D01*
X142500Y364858D01*
X140354Y364431D01*
X138535Y363215D01*
X137319Y361396D01*
X136892Y359250D01*
X137319Y357104D01*
X138535Y355285D01*
X140354Y354069D01*
X142500Y353642D01*
X144646Y354069D01*
X146465Y355285D01*
X147681Y357104D01*
X148108Y359250D01*
X147681Y361396D01*
X147324Y361931D01*
X148087Y363074D01*
X149000Y362892D01*
X151146Y363319D01*
X152965Y364535D01*
X154181Y366354D01*
X154608Y368500D01*
X154181Y370646D01*
X152965Y372465D01*
X151146Y373681D01*
X149000Y374108D01*
D02*
G37*
G36*
X394020Y361914D02*
Y352720D01*
X403214D01*
X403019Y354202D01*
X401957Y356766D01*
X400267Y358967D01*
X398065Y360657D01*
X395502Y361719D01*
X394020Y361914D01*
D02*
G37*
G36*
X391480D02*
X389999Y361719D01*
X387435Y360657D01*
X385233Y358967D01*
X383543Y356766D01*
X382481Y354202D01*
X382286Y352720D01*
X391480D01*
Y361914D01*
D02*
G37*
G36*
X60500Y360358D02*
X58354Y359931D01*
X56535Y358715D01*
X55319Y356896D01*
X54892Y354750D01*
X55319Y352604D01*
X56535Y350785D01*
X58354Y349569D01*
X60500Y349142D01*
X62646Y349569D01*
X64465Y350785D01*
X65681Y352604D01*
X66108Y354750D01*
X65681Y356896D01*
X64465Y358715D01*
X62646Y359931D01*
X60500Y360358D01*
D02*
G37*
G36*
X403214Y350180D02*
X394020D01*
Y340986D01*
X395502Y341181D01*
X398065Y342243D01*
X400267Y343933D01*
X401957Y346134D01*
X403019Y348699D01*
X403214Y350180D01*
D02*
G37*
G36*
X391480D02*
X382286D01*
X382481Y348699D01*
X383543Y346134D01*
X385233Y343933D01*
X387435Y342243D01*
X389999Y341181D01*
X391480Y340986D01*
Y350180D01*
D02*
G37*
G36*
X213000Y351858D02*
X210854Y351431D01*
X209035Y350215D01*
X207819Y348396D01*
X207392Y346250D01*
X207819Y344104D01*
X209035Y342285D01*
X210854Y341069D01*
X213000Y340642D01*
X215146Y341069D01*
X216965Y342285D01*
X218181Y344104D01*
X218608Y346250D01*
X218181Y348396D01*
X216965Y350215D01*
X215146Y351431D01*
X213000Y351858D01*
D02*
G37*
G36*
X200250Y342608D02*
X198104Y342181D01*
X196285Y340965D01*
X195069Y339146D01*
X194642Y337000D01*
X195069Y334854D01*
X196285Y333035D01*
X198104Y331819D01*
X200250Y331392D01*
X202396Y331819D01*
X204215Y333035D01*
X205431Y334854D01*
X205858Y337000D01*
X205431Y339146D01*
X204215Y340965D01*
X202396Y342181D01*
X200250Y342608D01*
D02*
G37*
G36*
X225500Y341358D02*
X223354Y340931D01*
X221535Y339715D01*
X220319Y337896D01*
X219892Y335750D01*
X220319Y333604D01*
X221535Y331785D01*
X223354Y330569D01*
X225500Y330142D01*
X227646Y330569D01*
X229465Y331785D01*
X230681Y333604D01*
X231108Y335750D01*
X230681Y337896D01*
X229465Y339715D01*
X227646Y340931D01*
X225500Y341358D01*
D02*
G37*
G36*
X95020Y324714D02*
Y315520D01*
X104214D01*
X104019Y317001D01*
X102957Y319566D01*
X101267Y321767D01*
X99066Y323457D01*
X96502Y324519D01*
X95020Y324714D01*
D02*
G37*
G36*
X92480D02*
X90998Y324519D01*
X88434Y323457D01*
X86233Y321767D01*
X84543Y319566D01*
X83481Y317001D01*
X83286Y315520D01*
X92480D01*
Y324714D01*
D02*
G37*
G36*
X129150Y324250D02*
X109150D01*
Y304250D01*
X129150D01*
Y324250D01*
D02*
G37*
G36*
X68350Y324336D02*
X65739Y323993D01*
X63307Y322985D01*
X61218Y321382D01*
X59615Y319293D01*
X58607Y316861D01*
X58264Y314250D01*
X58607Y311639D01*
X59615Y309207D01*
X61218Y307118D01*
X63307Y305515D01*
X65739Y304507D01*
X68350Y304164D01*
X70960Y304507D01*
X73393Y305515D01*
X75482Y307118D01*
X77085Y309207D01*
X78093Y311639D01*
X78436Y314250D01*
X78093Y316861D01*
X77085Y319293D01*
X75482Y321382D01*
X73393Y322985D01*
X70960Y323993D01*
X68350Y324336D01*
D02*
G37*
G36*
X104214Y312980D02*
X95020D01*
Y303786D01*
X96502Y303981D01*
X99066Y305043D01*
X101267Y306733D01*
X102957Y308934D01*
X104019Y311499D01*
X104214Y312980D01*
D02*
G37*
G36*
X92480D02*
X83286D01*
X83481Y311499D01*
X84543Y308934D01*
X86233Y306733D01*
X88434Y305043D01*
X90998Y303981D01*
X92480Y303786D01*
Y312980D01*
D02*
G37*
G36*
X463270Y306705D02*
Y298520D01*
X471455D01*
X471294Y299740D01*
X470333Y302061D01*
X468804Y304054D01*
X466811Y305583D01*
X464490Y306544D01*
X463270Y306705D01*
D02*
G37*
G36*
X460730Y306705D02*
X459509Y306544D01*
X457189Y305583D01*
X455196Y304054D01*
X453667Y302061D01*
X452705Y299740D01*
X452545Y298520D01*
X460730D01*
Y306705D01*
D02*
G37*
G36*
X521000Y306250D02*
X503000D01*
Y288250D01*
X521000D01*
Y306250D01*
D02*
G37*
G36*
X471455Y295980D02*
X463270D01*
Y287795D01*
X464490Y287955D01*
X466811Y288917D01*
X468804Y290446D01*
X470333Y292439D01*
X471294Y294760D01*
X471455Y295980D01*
D02*
G37*
G36*
X460730D02*
X452545D01*
X452705Y294760D01*
X453667Y292439D01*
X455196Y290446D01*
X457189Y288917D01*
X459509Y287955D01*
X460730Y287795D01*
Y295980D01*
D02*
G37*
G36*
X611520Y88012D02*
Y67500D01*
X622547D01*
Y75882D01*
X622128Y79065D01*
X620900Y82031D01*
X618945Y84577D01*
X616399Y86532D01*
X613433Y87760D01*
X611520Y88012D01*
D02*
G37*
G36*
X608980Y88012D02*
X607067Y87760D01*
X604101Y86532D01*
X601555Y84577D01*
X599600Y82031D01*
X598372Y79065D01*
X597953Y75882D01*
Y67500D01*
X608980D01*
Y88012D01*
D02*
G37*
G36*
X645250Y87634D02*
X642208Y87234D01*
X639374Y86060D01*
X636940Y84192D01*
X635072Y81758D01*
X633898Y78924D01*
X633498Y75882D01*
Y56578D01*
X633898Y53536D01*
X635072Y50702D01*
X636940Y48268D01*
X639374Y46400D01*
X642208Y45226D01*
X645250Y44826D01*
X648292Y45226D01*
X651126Y46400D01*
X653560Y48268D01*
X655428Y50702D01*
X656602Y53536D01*
X657002Y56578D01*
Y75882D01*
X656602Y78924D01*
X655428Y81758D01*
X653560Y84192D01*
X651126Y86060D01*
X648292Y87234D01*
X645250Y87634D01*
D02*
G37*
G36*
X622547Y64960D02*
X611520D01*
Y44448D01*
X613433Y44700D01*
X616399Y45928D01*
X618945Y47883D01*
X620900Y50429D01*
X622128Y53395D01*
X622547Y56578D01*
Y64960D01*
D02*
G37*
G36*
X608980D02*
X597953D01*
Y56578D01*
X598372Y53395D01*
X599600Y50429D01*
X601555Y47883D01*
X604101Y45928D01*
X607067Y44700D01*
X608980Y44448D01*
Y64960D01*
D02*
G37*
%LPD*%
G36*
X508250Y867000D02*
X470000D01*
Y891000D01*
X508250D01*
Y867000D01*
D02*
G37*
G36*
X388210Y966661D02*
X388040Y966601D01*
X387890Y966501D01*
X387760Y966361D01*
X387650Y966181D01*
X387560Y965961D01*
X387490Y965701D01*
X387440Y965401D01*
X387410Y965061D01*
X387400Y964681D01*
X385400D01*
X385390Y965061D01*
X385360Y965401D01*
X385310Y965701D01*
X385240Y965961D01*
X385150Y966181D01*
X385040Y966361D01*
X384910Y966501D01*
X384760Y966601D01*
X384590Y966661D01*
X384400Y966681D01*
X388400D01*
X388210Y966661D01*
D02*
G37*
%LPC*%
G36*
X394020Y311114D02*
Y301920D01*
X403214D01*
X403019Y303402D01*
X401957Y305965D01*
X400267Y308167D01*
X398065Y309857D01*
X395502Y310919D01*
X394020Y311114D01*
D02*
G37*
G36*
X391480D02*
X389999Y310919D01*
X387435Y309857D01*
X385233Y308167D01*
X383543Y305965D01*
X382481Y303402D01*
X382286Y301920D01*
X391480D01*
Y311114D01*
D02*
G37*
G36*
X403214Y299380D02*
X394020D01*
Y290186D01*
X395502Y290381D01*
X398065Y291443D01*
X400267Y293133D01*
X401957Y295334D01*
X403019Y297899D01*
X403214Y299380D01*
D02*
G37*
G36*
X391480D02*
X382286D01*
X382481Y297899D01*
X383543Y295334D01*
X385233Y293133D01*
X387435Y291443D01*
X389999Y290381D01*
X391480Y290186D01*
Y299380D01*
D02*
G37*
G36*
X394020Y285714D02*
Y276520D01*
X403214D01*
X403019Y278001D01*
X401957Y280565D01*
X400267Y282767D01*
X398065Y284457D01*
X395502Y285519D01*
X394020Y285714D01*
D02*
G37*
G36*
X391480D02*
X389999Y285519D01*
X387435Y284457D01*
X385233Y282767D01*
X383543Y280565D01*
X382481Y278001D01*
X382286Y276520D01*
X391480D01*
Y285714D01*
D02*
G37*
G36*
X403214Y273980D02*
X394020D01*
Y264786D01*
X395502Y264981D01*
X398065Y266043D01*
X400267Y267733D01*
X401957Y269935D01*
X403019Y272498D01*
X403214Y273980D01*
D02*
G37*
G36*
X391480D02*
X382286D01*
X382481Y272498D01*
X383543Y269935D01*
X385233Y267733D01*
X387435Y266043D01*
X389999Y264981D01*
X391480Y264786D01*
Y273980D01*
D02*
G37*
G36*
X392750Y259936D02*
X390140Y259593D01*
X387707Y258585D01*
X385618Y256982D01*
X384015Y254893D01*
X383007Y252460D01*
X382664Y249850D01*
X383007Y247239D01*
X384015Y244807D01*
X385618Y242718D01*
X387707Y241115D01*
X390140Y240107D01*
X392750Y239764D01*
X395360Y240107D01*
X397793Y241115D01*
X399882Y242718D01*
X401485Y244807D01*
X402493Y247239D01*
X402836Y249850D01*
X402493Y252460D01*
X401485Y254893D01*
X399882Y256982D01*
X397793Y258585D01*
X395360Y259593D01*
X392750Y259936D01*
D02*
G37*
G36*
Y234536D02*
X390140Y234193D01*
X387707Y233185D01*
X385618Y231582D01*
X384015Y229493D01*
X383007Y227061D01*
X382664Y224450D01*
X383007Y221840D01*
X384015Y219407D01*
X385618Y217318D01*
X387707Y215715D01*
X390140Y214707D01*
X392750Y214364D01*
X395360Y214707D01*
X397793Y215715D01*
X399882Y217318D01*
X401485Y219407D01*
X402493Y221840D01*
X402836Y224450D01*
X402493Y227061D01*
X401485Y229493D01*
X399882Y231582D01*
X397793Y233185D01*
X395360Y234193D01*
X392750Y234536D01*
D02*
G37*
G36*
X234000Y199858D02*
X231854Y199431D01*
X230035Y198215D01*
X228819Y196396D01*
X228392Y194250D01*
X228819Y192104D01*
X230035Y190285D01*
X231854Y189069D01*
X234000Y188642D01*
X236146Y189069D01*
X237965Y190285D01*
X239181Y192104D01*
X239608Y194250D01*
X239181Y196396D01*
X237965Y198215D01*
X236146Y199431D01*
X234000Y199858D01*
D02*
G37*
G36*
X200750Y198358D02*
X198604Y197931D01*
X196785Y196715D01*
X195569Y194896D01*
X195142Y192750D01*
X195569Y190604D01*
X196785Y188785D01*
X198604Y187569D01*
X200750Y187142D01*
X202896Y187569D01*
X204715Y188785D01*
X205931Y190604D01*
X206358Y192750D01*
X205931Y194896D01*
X204715Y196715D01*
X202896Y197931D01*
X200750Y198358D01*
D02*
G37*
G36*
X406250Y160108D02*
X404104Y159681D01*
X402285Y158465D01*
X401069Y156646D01*
X400642Y154500D01*
X401069Y152354D01*
X402285Y150535D01*
X404104Y149319D01*
X406250Y148892D01*
X408396Y149319D01*
X410215Y150535D01*
X411431Y152354D01*
X411858Y154500D01*
X411431Y156646D01*
X410215Y158465D01*
X408396Y159681D01*
X406250Y160108D01*
D02*
G37*
G36*
X414250Y132608D02*
X412104Y132181D01*
X410285Y130965D01*
X409069Y129146D01*
X408642Y127000D01*
X409069Y124854D01*
X410285Y123035D01*
X412104Y121819D01*
X414250Y121392D01*
X416396Y121819D01*
X418215Y123035D01*
X419431Y124854D01*
X419858Y127000D01*
X419431Y129146D01*
X418215Y130965D01*
X416396Y132181D01*
X414250Y132608D01*
D02*
G37*
G36*
X271020Y87147D02*
Y66635D01*
X282047D01*
Y75017D01*
X281628Y78200D01*
X280400Y81166D01*
X278445Y83712D01*
X275899Y85667D01*
X272933Y86895D01*
X271020Y87147D01*
D02*
G37*
G36*
X268480Y87147D02*
X266567Y86895D01*
X263601Y85667D01*
X261055Y83712D01*
X259100Y81166D01*
X257872Y78200D01*
X257453Y75017D01*
Y66635D01*
X268480D01*
Y87147D01*
D02*
G37*
G36*
X234750Y86770D02*
X231708Y86369D01*
X228874Y85195D01*
X226440Y83327D01*
X224572Y80893D01*
X223398Y78059D01*
X222997Y75017D01*
Y55713D01*
X223398Y52671D01*
X224572Y49837D01*
X226440Y47403D01*
X228874Y45535D01*
X231708Y44361D01*
X234750Y43960D01*
X237792Y44361D01*
X240626Y45535D01*
X243060Y47403D01*
X244928Y49837D01*
X246102Y52671D01*
X246502Y55713D01*
Y75017D01*
X246102Y78059D01*
X244928Y80893D01*
X243060Y83327D01*
X240626Y85195D01*
X237792Y86369D01*
X234750Y86770D01*
D02*
G37*
G36*
X199750D02*
X196708Y86369D01*
X193874Y85195D01*
X191440Y83327D01*
X189572Y80893D01*
X188398Y78059D01*
X187997Y75017D01*
Y55713D01*
X188398Y52671D01*
X189572Y49837D01*
X191440Y47403D01*
X193874Y45535D01*
X196708Y44361D01*
X199750Y43960D01*
X202792Y44361D01*
X205626Y45535D01*
X208060Y47403D01*
X209928Y49837D01*
X211102Y52671D01*
X211502Y55713D01*
Y75017D01*
X211102Y78059D01*
X209928Y80893D01*
X208060Y83327D01*
X205626Y85195D01*
X202792Y86369D01*
X199750Y86770D01*
D02*
G37*
G36*
X282047Y64095D02*
X271020D01*
Y43583D01*
X272933Y43835D01*
X275899Y45063D01*
X278445Y47018D01*
X280400Y49564D01*
X281628Y52530D01*
X282047Y55713D01*
Y64095D01*
D02*
G37*
G36*
X268480D02*
X257453D01*
Y55713D01*
X257872Y52530D01*
X259100Y49564D01*
X261055Y47018D01*
X263601Y45063D01*
X266567Y43835D01*
X268480Y43583D01*
Y64095D01*
D02*
G37*
G36*
X417250Y56250D02*
X397250D01*
Y36250D01*
X417250D01*
Y56250D01*
D02*
G37*
G36*
X381850Y56336D02*
X379240Y55993D01*
X376807Y54985D01*
X374718Y53382D01*
X373115Y51293D01*
X372107Y48861D01*
X371764Y46250D01*
X372107Y43639D01*
X373115Y41207D01*
X374718Y39118D01*
X376807Y37515D01*
X379240Y36507D01*
X381850Y36164D01*
X384460Y36507D01*
X386893Y37515D01*
X388982Y39118D01*
X390585Y41207D01*
X391593Y43639D01*
X391936Y46250D01*
X391593Y48861D01*
X390585Y51293D01*
X388982Y53382D01*
X386893Y54985D01*
X384460Y55993D01*
X381850Y56336D01*
D02*
G37*
G36*
X356450D02*
X353839Y55993D01*
X351407Y54985D01*
X349318Y53382D01*
X347715Y51293D01*
X346707Y48861D01*
X346364Y46250D01*
X346707Y43639D01*
X347715Y41207D01*
X349318Y39118D01*
X351407Y37515D01*
X353839Y36507D01*
X356450Y36164D01*
X359061Y36507D01*
X361493Y37515D01*
X363582Y39118D01*
X365185Y41207D01*
X366193Y43639D01*
X366536Y46250D01*
X366193Y48861D01*
X365185Y51293D01*
X363582Y53382D01*
X361493Y54985D01*
X359061Y55993D01*
X356450Y56336D01*
D02*
G37*
%LPD*%
D10*
X144500Y421250D02*
Y482500D01*
Y421250D02*
X177250Y388500D01*
Y325250D02*
Y388500D01*
X44250Y192250D02*
X177250Y325250D01*
X44250Y121500D02*
Y192250D01*
X48000Y117750D02*
X79250D01*
X87500Y126000D01*
X44250Y121500D02*
X48000Y117750D01*
D11*
X154000Y575907D02*
Y623000D01*
X143500Y571064D02*
Y622500D01*
X119500Y547064D02*
X143500Y571064D01*
X119500Y381250D02*
Y547064D01*
X123500Y545407D02*
X154000Y575907D01*
X161500Y577750D02*
Y618000D01*
X127500Y543750D02*
X161500Y577750D01*
X123500Y379593D02*
Y545407D01*
X127500Y375442D02*
Y543750D01*
X135000Y420250D02*
Y490000D01*
Y420250D02*
X169500Y385750D01*
X153500Y423500D02*
Y475000D01*
Y423500D02*
X185500Y391500D01*
X115500Y550250D02*
X137000Y571750D01*
X115500Y390750D02*
Y550250D01*
X107500Y369250D02*
X119500Y381250D01*
X116000Y372093D02*
X123500Y379593D01*
X97000Y372250D02*
X115500Y390750D01*
X123425Y371367D02*
X127500Y375442D01*
X123425Y370325D02*
Y371367D01*
X116000Y362500D02*
Y372093D01*
X57500Y128750D02*
Y191250D01*
X185500Y319250D02*
Y391500D01*
X57500Y191250D02*
X185500Y319250D01*
X24250Y127000D02*
Y184250D01*
X169500Y329500D01*
Y385750D01*
X348250Y1037750D02*
X379800Y1006200D01*
X108500D02*
X140050Y1037750D01*
X348250D01*
X66250Y1023050D02*
Y1034750D01*
X76250Y1044750D02*
X362000D01*
X66250Y1034750D02*
X76250Y1044750D01*
X66250Y1023050D02*
X83100Y1006200D01*
X387750Y1019000D02*
X635250D01*
X362000Y1044750D02*
X387750Y1019000D01*
X635250D02*
X648050Y1006200D01*
X648900D01*
X379800D02*
X623500D01*
X154000Y623000D02*
X437200Y906200D01*
X161500Y618000D02*
X462600Y919100D01*
Y974150D01*
X437200Y906200D02*
Y974150D01*
X411800Y890800D02*
Y974150D01*
X143500Y622500D02*
X411800Y890800D01*
X137000Y571750D02*
Y626750D01*
X386400Y876150D02*
Y974150D01*
X137000Y626750D02*
X386400Y876150D01*
D104*
X162500Y680000D02*
Y699250D01*
X42500Y734750D02*
Y801000D01*
X113750Y872250D02*
X141750D01*
X42500Y801000D02*
X113750Y872250D01*
X162500Y699250D02*
X163250Y700000D01*
Y820250D01*
Y850750D01*
X141750Y872250D02*
X163250Y850750D01*
D105*
X623500Y1057000D02*
X648900D01*
X602000D02*
X623500D01*
X591250Y1067750D02*
X602000Y1057000D01*
X336750Y1067750D02*
X591250D01*
X108500Y1057000D02*
X326000D01*
X336750Y1067750D01*
X83100Y1057000D02*
X108500D01*
X601750Y958858D02*
Y982250D01*
X623443Y955343D02*
X623500Y955400D01*
X605265Y955343D02*
X623443D01*
X601750Y958858D02*
X605265Y955343D01*
X588500Y995500D02*
X601750Y982250D01*
X347500Y995500D02*
X588500D01*
X170500Y965000D02*
X317000D01*
X347500Y995500D01*
X108500Y955400D02*
X160900D01*
X170500Y965000D01*
X83100Y955400D02*
X108500D01*
D106*
X83100Y1057000D02*
D03*
X108500D02*
D03*
X83100Y1006200D02*
D03*
X108500D02*
D03*
X83100Y980800D02*
D03*
X108500D02*
D03*
X83100Y955400D02*
D03*
X108500Y1031600D02*
D03*
X83100D02*
D03*
X623500Y955400D02*
D03*
X648900Y1006200D02*
D03*
X623500D02*
D03*
X648900Y1031600D02*
D03*
X623500D02*
D03*
X648900Y1057000D02*
D03*
X623500Y980800D02*
D03*
X648900D02*
D03*
X298750Y624500D02*
D03*
X411800Y974150D02*
D03*
X437200D02*
D03*
X462600D02*
D03*
D107*
X108500Y955400D02*
D03*
X623500Y1057000D02*
D03*
X386400Y974150D02*
D03*
D108*
X352100Y697250D02*
D03*
X93750Y314250D02*
D03*
X392750Y275250D02*
D03*
Y300650D02*
D03*
Y351450D02*
D03*
D110*
X269750Y65365D02*
D03*
X610250Y66230D02*
D03*
D114*
X462000Y297250D02*
D03*
X643000Y670000D02*
D03*
D117*
X657125Y240000D02*
D03*
X171250Y691250D02*
D03*
X50750Y584500D02*
D03*
X34250Y556500D02*
D03*
X287250Y802000D02*
D03*
X266250Y802250D02*
D03*
X299500Y514500D02*
D03*
X287625D02*
D03*
X275750D02*
D03*
Y503750D02*
D03*
X287625D02*
D03*
X299500D02*
D03*
X245125Y658500D02*
D03*
Y669250D02*
D03*
X268875D02*
D03*
X257000D02*
D03*
Y658500D02*
D03*
X268875D02*
D03*
X176000Y467375D02*
D03*
X165250D02*
D03*
X154750Y539250D02*
D03*
X44000Y666125D02*
D03*
Y678000D02*
D03*
Y689875D02*
D03*
X54750D02*
D03*
Y678000D02*
D03*
Y666125D02*
D03*
X237750Y990375D02*
D03*
Y1002250D02*
D03*
Y1014125D02*
D03*
X248500D02*
D03*
Y1002250D02*
D03*
Y990375D02*
D03*
X59750Y903375D02*
D03*
Y915250D02*
D03*
Y927125D02*
D03*
X70500D02*
D03*
Y915250D02*
D03*
Y903375D02*
D03*
X20250Y860625D02*
D03*
Y872500D02*
D03*
Y884375D02*
D03*
X31000D02*
D03*
Y872500D02*
D03*
Y860625D02*
D03*
X18500Y462125D02*
D03*
Y474000D02*
D03*
Y485875D02*
D03*
X29250D02*
D03*
Y474000D02*
D03*
Y462125D02*
D03*
X165250Y443625D02*
D03*
Y455500D02*
D03*
X176000D02*
D03*
Y443625D02*
D03*
X339625Y270000D02*
D03*
X351500D02*
D03*
X363375D02*
D03*
Y259250D02*
D03*
X351500D02*
D03*
X339625D02*
D03*
X158375Y180750D02*
D03*
X170250D02*
D03*
X182125D02*
D03*
Y170000D02*
D03*
X170250D02*
D03*
X158375D02*
D03*
X306125Y79000D02*
D03*
X318000D02*
D03*
X329875D02*
D03*
Y68250D02*
D03*
X318000D02*
D03*
X306125D02*
D03*
X28625Y256750D02*
D03*
X40500D02*
D03*
X52375D02*
D03*
Y246000D02*
D03*
X40500D02*
D03*
X28625D02*
D03*
X505375Y142750D02*
D03*
X517250D02*
D03*
X529125D02*
D03*
Y132000D02*
D03*
X517250D02*
D03*
X505375D02*
D03*
X503625Y203000D02*
D03*
X515500D02*
D03*
X527375D02*
D03*
Y192250D02*
D03*
X515500D02*
D03*
X503625D02*
D03*
X633375Y251000D02*
D03*
X645250D02*
D03*
X657125D02*
D03*
X645250Y240000D02*
D03*
X633375D02*
D03*
X597125Y251000D02*
D03*
X609000D02*
D03*
X620875D02*
D03*
Y240000D02*
D03*
X609000D02*
D03*
X597125D02*
D03*
X560625Y251000D02*
D03*
X572500D02*
D03*
X584375D02*
D03*
Y240000D02*
D03*
X572500D02*
D03*
X560625D02*
D03*
X492875Y572000D02*
D03*
X504750D02*
D03*
X516625D02*
D03*
Y561250D02*
D03*
X504750D02*
D03*
X492875D02*
D03*
X413375Y621000D02*
D03*
X425250D02*
D03*
X437125D02*
D03*
Y610250D02*
D03*
X425250D02*
D03*
X413375D02*
D03*
X351375Y648500D02*
D03*
X363250D02*
D03*
X375125D02*
D03*
Y637750D02*
D03*
X363250D02*
D03*
X351375D02*
D03*
X425125Y776500D02*
D03*
X437000D02*
D03*
X448875D02*
D03*
Y765750D02*
D03*
X437000D02*
D03*
X425125D02*
D03*
X385625Y819750D02*
D03*
X397500D02*
D03*
X409375D02*
D03*
Y809000D02*
D03*
X397500D02*
D03*
X385625D02*
D03*
X104750Y775000D02*
D03*
X117000Y774750D02*
D03*
X116750Y785750D02*
D03*
X104750D02*
D03*
X477500Y872500D02*
D03*
X489375D02*
D03*
X501250D02*
D03*
Y883250D02*
D03*
X489375D02*
D03*
X477500D02*
D03*
D118*
X162500Y680000D02*
D03*
X135000Y490000D02*
D03*
X144500Y482500D02*
D03*
X153500Y475000D02*
D03*
X123425Y370325D02*
D03*
X97000Y372250D02*
D03*
X87500Y126000D02*
D03*
X24250Y127000D02*
D03*
X57500Y128750D02*
D03*
X107500Y369250D02*
D03*
X116000Y362500D02*
D03*
X141750Y872250D02*
D03*
X163250Y820250D02*
D03*
X42500Y734750D02*
D03*
M02*
