G04*
G04 #@! TF.GenerationSoftware,Altium Limited,Altium Designer,20.0.13 (296)*
G04*
G04 Layer_Color=65535*
%FSLAX44Y44*%
%MOMM*%
G71*
G01*
G75*
%ADD10C,0.2500*%
%ADD11C,0.2000*%
%ADD12C,0.1500*%
%ADD13C,0.1270*%
%ADD14C,0.4000*%
%ADD15C,0.6096*%
%ADD16C,0.6000*%
%ADD17C,0.3000*%
%ADD18C,0.2540*%
%ADD19C,0.1520*%
%ADD20C,0.1524*%
%ADD21R,2.8000X0.5500*%
%ADD22R,2.8000X0.5500*%
D10*
X379000Y107050D02*
G03*
X379000Y107050I-1250J0D01*
G01*
X237550Y763650D02*
G03*
X237550Y763650I-1250J0D01*
G01*
X328550Y480750D02*
G03*
X328550Y480750I-1250J0D01*
G01*
X655500Y400750D02*
G03*
X655500Y400750I-1250J0D01*
G01*
X362400Y929650D02*
G03*
X362400Y929650I-1250J0D01*
G01*
X470900D02*
G03*
X470900Y929650I-1250J0D01*
G01*
D11*
X466750Y354250D02*
G03*
X466750Y354250I-1000J0D01*
G01*
X585000Y672750D02*
G03*
X585000Y672750I-1000J0D01*
G01*
X268950Y327250D02*
G03*
X268950Y327250I-1000J0D01*
G01*
X605500Y795750D02*
G03*
X605500Y795750I-1000J0D01*
G01*
X207250Y574900D02*
G03*
X207250Y574900I-1000J0D01*
G01*
X537000Y297250D02*
G03*
X537000Y297250I-50000J0D01*
G01*
X693000Y695000D02*
G03*
X693000Y695000I-50000J0D01*
G01*
X360750Y961400D02*
G03*
X360750Y974100I0J6350D01*
G01*
X469250Y961400D02*
G03*
X469250Y974100I0J6350D01*
G01*
X354300Y487400D02*
Y563600D01*
X379700Y487400D02*
Y563600D01*
X354300D02*
X379700D01*
X354300Y487400D02*
X379700D01*
X605000Y887500D02*
Y895500D01*
X589000Y887500D02*
Y895500D01*
X439250Y888500D02*
Y898500D01*
X527393Y1043250D02*
X538393D01*
Y1023250D02*
Y1043250D01*
X527393Y1023250D02*
X538393D01*
X527393D02*
Y1043250D01*
X474679D02*
X485679D01*
Y1023250D02*
Y1043250D01*
X474679Y1023250D02*
X485679D01*
X474679D02*
Y1043250D01*
X421965D02*
X432964D01*
Y1023250D02*
Y1043250D01*
X421965Y1023250D02*
X432964D01*
X421965D02*
Y1043250D01*
X553750D02*
X564750D01*
Y1023250D02*
Y1043250D01*
X553750Y1023250D02*
X564750D01*
X553750D02*
Y1043250D01*
X501036D02*
X512036D01*
Y1023250D02*
Y1043250D01*
X501036Y1023250D02*
X512036D01*
X501036D02*
Y1043250D01*
X448322D02*
X459322D01*
Y1023250D02*
Y1043250D01*
X448322Y1023250D02*
X459322D01*
X448322D02*
Y1043250D01*
X395607D02*
X406607D01*
Y1023250D02*
Y1043250D01*
X395607Y1023250D02*
X406607D01*
X395607D02*
Y1043250D01*
X369250D02*
X380250D01*
Y1023250D02*
Y1043250D01*
X369250Y1023250D02*
X380250D01*
X369250D02*
Y1043250D01*
X339000Y511750D02*
Y514750D01*
X348000Y511750D02*
Y514750D01*
X362750Y109600D02*
Y159600D01*
X344750Y109600D02*
Y159600D01*
Y109600D02*
X362750D01*
X344750Y159600D02*
X362750D01*
X476250Y0D02*
Y194500D01*
X418250Y252500D02*
X476250Y194500D01*
X418250Y252500D02*
Y328250D01*
X359750D02*
X418250D01*
X302750Y271250D02*
X359750Y328250D01*
X156000Y271250D02*
X302750D01*
X145500Y260750D02*
X156000Y271250D01*
X145500Y0D02*
Y260750D01*
X57700Y1049700D02*
X70400D01*
X57700Y922700D02*
Y1049700D01*
Y922700D02*
X70400D01*
X23834Y981967D02*
X57700D01*
X23834Y990434D02*
X57700D01*
X23834Y1015834D02*
X57700D01*
X19600Y1011600D02*
X23834Y1015834D01*
X19600Y1011600D02*
X23834Y1007367D01*
X57700D01*
X19600Y986200D02*
X23834Y990434D01*
X19600Y986200D02*
X23834Y981967D01*
Y931167D02*
X57700D01*
X23834Y939634D02*
X57700D01*
X23834Y965034D02*
X57700D01*
X19600Y960800D02*
X23834Y965034D01*
X19600Y960800D02*
X23834Y956567D01*
X57700D01*
X19600Y935400D02*
X23834Y939634D01*
X19600Y935400D02*
X23834Y931167D01*
X121200Y922700D02*
Y1049700D01*
X70400Y922700D02*
Y1049700D01*
Y922700D02*
X121200D01*
X70400Y1049700D02*
X121200D01*
X23834Y1032767D02*
X57700D01*
X19600Y1037000D02*
X23834Y1032767D01*
X19600Y1037000D02*
X23834Y1041234D01*
X57700D01*
X339400Y684550D02*
X415600D01*
X339400Y709950D02*
X415600D01*
X339400Y684550D02*
Y709950D01*
X415600Y684550D02*
Y709950D01*
X55650Y301550D02*
X131850D01*
X55650Y326950D02*
X131850D01*
X55650Y301550D02*
Y326950D01*
X131850Y301550D02*
Y326950D01*
X410500Y110250D02*
X413500D01*
X410500Y119250D02*
X413500D01*
X410500Y136000D02*
X413500D01*
X410500Y145000D02*
X413500D01*
X343750Y33550D02*
X419950D01*
X343750Y58950D02*
X419950D01*
X343750Y33550D02*
Y58950D01*
X419950Y33550D02*
Y58950D01*
X268500Y137000D02*
X271500D01*
X268500Y146000D02*
X271500D01*
X268250Y122000D02*
X271250D01*
X268250Y131000D02*
X271250D01*
X440250Y869500D02*
X443250D01*
X440250Y878500D02*
X443250D01*
X364250Y888000D02*
Y898000D01*
X433250Y588000D02*
X436250D01*
X433250Y597000D02*
X436250D01*
X178250Y33450D02*
Y106410D01*
Y33450D02*
X289920D01*
X290630Y34160D01*
Y106410D01*
X178250D02*
X290630D01*
X50000Y707000D02*
Y710000D01*
X41000Y707000D02*
Y710000D01*
X52250Y761500D02*
X55250D01*
X52250Y770500D02*
X55250D01*
X59000Y884500D02*
X62000D01*
X59000Y875500D02*
X62000D01*
X68750Y812250D02*
X71750D01*
X68750Y821250D02*
X71750D01*
X94750Y844750D02*
Y847750D01*
X103750Y844750D02*
Y847750D01*
X215000Y721000D02*
X218000D01*
X215000Y730000D02*
X218000D01*
X178000Y802500D02*
Y805500D01*
X187000Y802500D02*
Y805500D01*
X110500Y844750D02*
Y847750D01*
X119500Y844750D02*
Y847750D01*
X93500Y707500D02*
Y710500D01*
X84500Y707500D02*
Y710500D01*
X433000Y580000D02*
X436000D01*
X433000Y571000D02*
X436000D01*
X170750Y845750D02*
Y848750D01*
X179750Y845750D02*
Y848750D01*
X167500Y736000D02*
Y739000D01*
X158500Y736000D02*
Y739000D01*
X196000Y875500D02*
Y878500D01*
X187000Y875500D02*
Y878500D01*
X202250Y697500D02*
X205250D01*
X202250Y706500D02*
X205250D01*
X130250Y663000D02*
Y669000D01*
X102250Y663000D02*
Y669000D01*
X130250D01*
X187000Y845750D02*
Y848750D01*
X196000Y845750D02*
Y848750D01*
X180000Y875500D02*
Y878500D01*
X171000Y875500D02*
Y878500D01*
X344250Y792200D02*
Y852800D01*
X217250Y792200D02*
X344250D01*
X217250D02*
Y852800D01*
X344250D01*
X450250Y48000D02*
Y50000D01*
X436250Y48000D02*
Y50000D01*
X207500Y147000D02*
X216500D01*
Y139000D02*
Y147000D01*
X207500Y117000D02*
X216500D01*
Y125000D01*
X236750Y573750D02*
X239750D01*
X236750Y582750D02*
X239750D01*
X254750Y525250D02*
X257750D01*
X254750Y534250D02*
X257750D01*
X274750Y465750D02*
X324750D01*
X274750Y447750D02*
X324750D01*
Y465750D01*
X274750Y447750D02*
Y465750D01*
X661500Y351750D02*
Y374250D01*
X557500D02*
X661500D01*
X557500Y351750D02*
Y374250D01*
X17750Y57000D02*
X27750D01*
X51000D02*
X61000D01*
X84250D02*
X94250D01*
X92998Y97000D02*
Y100000D01*
X83998Y97000D02*
Y100000D01*
X61248Y97000D02*
Y100000D01*
X52247Y97000D02*
Y100000D01*
X27998Y97000D02*
Y100000D01*
X18997Y97000D02*
Y100000D01*
X398250Y888250D02*
X401250D01*
X398250Y897250D02*
X401250D01*
X52500Y786000D02*
X55500D01*
X52500Y777000D02*
X55500D01*
X171000Y587000D02*
X174000D01*
X171000Y596000D02*
X174000D01*
X156194Y648750D02*
X159194D01*
X156194Y657750D02*
X159194D01*
X353750Y854500D02*
X381750D01*
Y860500D01*
X353750Y854500D02*
Y860500D01*
X57000Y707500D02*
Y710500D01*
X66000Y707500D02*
Y710500D01*
X547500Y65500D02*
Y68500D01*
X556500Y65500D02*
Y68500D01*
X651600Y1049700D02*
X740500D01*
Y922700D02*
Y1049700D01*
X651600Y922700D02*
X740500D01*
X600800D02*
Y1049700D01*
X651600Y922700D02*
Y1049700D01*
X600800D02*
X651600D01*
X600800Y922700D02*
X651600D01*
X511250Y71750D02*
X521250D01*
X286050Y688000D02*
X311450D01*
Y561000D02*
Y688000D01*
X286050Y561000D02*
Y688000D01*
Y561000D02*
X311450D01*
X473000Y800000D02*
Y806000D01*
X506000Y800000D02*
Y806000D01*
X437250Y497250D02*
X536750D01*
X443000Y644750D02*
Y745000D01*
X545750Y293750D02*
Y300750D01*
X542250Y297250D02*
X549250D01*
X639500Y753750D02*
X646500D01*
X643000Y750250D02*
Y757250D01*
X536750Y297250D02*
Y497250D01*
X437000Y297000D02*
Y497000D01*
X443000Y745000D02*
X643000D01*
X443000Y644750D02*
X643000D01*
X360750Y941250D02*
X463750D01*
X360750Y994250D02*
X463750D01*
X360750Y941250D02*
Y961400D01*
Y974100D02*
Y994250D01*
X463750Y941250D02*
Y994250D01*
X469250Y941250D02*
X572250D01*
X469250Y994250D02*
X572250D01*
X469250Y941250D02*
Y961400D01*
Y974100D02*
Y994250D01*
X572250Y941250D02*
Y994250D01*
X158500Y707750D02*
Y710750D01*
X167500Y707750D02*
Y710750D01*
Y794750D02*
Y797750D01*
X158500Y794750D02*
Y797750D01*
Y766500D02*
Y769500D01*
X167500Y766500D02*
Y769500D01*
X377670Y477249D02*
X383001Y469251D01*
Y477249D02*
X377670Y469251D01*
X385667D02*
Y477249D01*
X389666D01*
X390999Y475916D01*
Y473250D01*
X389666Y471917D01*
X385667D01*
X393665Y469251D02*
X396330D01*
X394997D01*
Y477249D01*
X393665Y475916D01*
X624499Y882253D02*
X616501D01*
Y886252D01*
X617834Y887585D01*
X620500D01*
X621833Y886252D01*
Y882253D01*
Y884919D02*
X624499Y887585D01*
Y890251D02*
Y892916D01*
Y891584D01*
X616501D01*
X617834Y890251D01*
X616501Y896915D02*
Y902247D01*
X617834D01*
X623166Y896915D01*
X624499D01*
X462587Y897249D02*
Y891917D01*
X465253Y889251D01*
X467918Y891917D01*
Y897249D01*
X470584D02*
Y889251D01*
X474583D01*
X475916Y890584D01*
Y895916D01*
X474583Y897249D01*
X470584D01*
X483913D02*
X481247Y895916D01*
X478582Y893250D01*
Y890584D01*
X479915Y889251D01*
X482580D01*
X483913Y890584D01*
Y891917D01*
X482580Y893250D01*
X478582D01*
X537141Y1049836D02*
X529144D01*
Y1053834D01*
X530477Y1055167D01*
X533143D01*
X534476Y1053834D01*
Y1049836D01*
Y1052501D02*
X537141Y1055167D01*
X529144Y1057833D02*
Y1063165D01*
X530477D01*
X535808Y1057833D01*
X537141D01*
X484177Y1051585D02*
X476180D01*
Y1055584D01*
X477512Y1056917D01*
X480178D01*
X481511Y1055584D01*
Y1051585D01*
Y1054251D02*
X484177Y1056917D01*
X476180Y1064914D02*
Y1059583D01*
X480178D01*
X478845Y1062249D01*
Y1063582D01*
X480178Y1064914D01*
X482844D01*
X484177Y1063582D01*
Y1060916D01*
X482844Y1059583D01*
X430963Y1049836D02*
X422966D01*
Y1053834D01*
X424299Y1055167D01*
X426964D01*
X428297Y1053834D01*
Y1049836D01*
Y1052501D02*
X430963Y1055167D01*
X424299Y1057833D02*
X422966Y1059166D01*
Y1061832D01*
X424299Y1063165D01*
X425631D01*
X426964Y1061832D01*
Y1060499D01*
Y1061832D01*
X428297Y1063165D01*
X429630D01*
X430963Y1061832D01*
Y1059166D01*
X429630Y1057833D01*
X562999Y1049585D02*
X555001D01*
Y1053584D01*
X556334Y1054917D01*
X559000D01*
X560333Y1053584D01*
Y1049585D01*
Y1052251D02*
X562999Y1054917D01*
X556334Y1057583D02*
X555001Y1058916D01*
Y1061582D01*
X556334Y1062915D01*
X557667D01*
X559000Y1061582D01*
X560333Y1062915D01*
X561666D01*
X562999Y1061582D01*
Y1058916D01*
X561666Y1057583D01*
X560333D01*
X559000Y1058916D01*
X557667Y1057583D01*
X556334D01*
X559000Y1058916D02*
Y1061582D01*
X511534Y1049085D02*
X503537D01*
Y1053084D01*
X504870Y1054417D01*
X507535D01*
X508868Y1053084D01*
Y1049085D01*
Y1051751D02*
X511534Y1054417D01*
X503537Y1062414D02*
X504870Y1059749D01*
X507535Y1057083D01*
X510201D01*
X511534Y1058416D01*
Y1061082D01*
X510201Y1062414D01*
X508868D01*
X507535Y1061082D01*
Y1057083D01*
X457820Y1050585D02*
X449823D01*
Y1054584D01*
X451156Y1055917D01*
X453821D01*
X455154Y1054584D01*
Y1050585D01*
Y1053251D02*
X457820Y1055917D01*
Y1062582D02*
X449823D01*
X453821Y1058583D01*
Y1063914D01*
X404606Y1049085D02*
X396608D01*
Y1053084D01*
X397941Y1054417D01*
X400607D01*
X401940Y1053084D01*
Y1049085D01*
Y1051751D02*
X404606Y1054417D01*
Y1062414D02*
Y1057083D01*
X399274Y1062414D01*
X397941D01*
X396608Y1061082D01*
Y1058416D01*
X397941Y1057083D01*
X378999Y1052168D02*
X371001D01*
Y1056167D01*
X372334Y1057500D01*
X375000D01*
X376333Y1056167D01*
Y1052168D01*
Y1054834D02*
X378999Y1057500D01*
Y1060166D02*
Y1062832D01*
Y1061499D01*
X371001D01*
X372334Y1060166D01*
X160001Y63582D02*
X167999D01*
Y67580D01*
X166666Y68913D01*
X161334D01*
X160001Y67580D01*
Y63582D01*
X161334Y76911D02*
X160001Y75578D01*
Y72912D01*
X161334Y71579D01*
X166666D01*
X167999Y72912D01*
Y75578D01*
X166666Y76911D01*
X164000D01*
Y74245D01*
X167999Y84908D02*
Y79577D01*
X162667Y84908D01*
X161334D01*
X160001Y83575D01*
Y80910D01*
X161334Y79577D01*
X499418Y761666D02*
X498086Y762999D01*
X495420D01*
X494087Y761666D01*
Y756334D01*
X495420Y755001D01*
X498086D01*
X499418Y756334D01*
X502084Y761666D02*
X503417Y762999D01*
X506083D01*
X507416Y761666D01*
Y760333D01*
X506083Y759000D01*
X504750D01*
X506083D01*
X507416Y757667D01*
Y756334D01*
X506083Y755001D01*
X503417D01*
X502084Y756334D01*
X515413Y762999D02*
X512747Y761666D01*
X510082Y759000D01*
Y756334D01*
X511414Y755001D01*
X514080D01*
X515413Y756334D01*
Y757667D01*
X514080Y759000D01*
X510082D01*
X474918Y514166D02*
X473586Y515499D01*
X470920D01*
X469587Y514166D01*
Y508834D01*
X470920Y507501D01*
X473586D01*
X474918Y508834D01*
X477584Y514166D02*
X478917Y515499D01*
X481583D01*
X482916Y514166D01*
Y512833D01*
X481583Y511500D01*
X480250D01*
X481583D01*
X482916Y510167D01*
Y508834D01*
X481583Y507501D01*
X478917D01*
X477584Y508834D01*
X490913Y515499D02*
X485582D01*
Y511500D01*
X488247Y512833D01*
X489580D01*
X490913Y511500D01*
Y508834D01*
X489580Y507501D01*
X486914D01*
X485582Y508834D01*
X314087Y893749D02*
Y888417D01*
X316753Y885751D01*
X319418Y888417D01*
Y893749D01*
X322084D02*
Y885751D01*
X326083D01*
X327416Y887084D01*
Y892416D01*
X326083Y893749D01*
X322084D01*
X335413D02*
X330082D01*
Y889750D01*
X332747Y891083D01*
X334080D01*
X335413Y889750D01*
Y887084D01*
X334080Y885751D01*
X331414D01*
X330082Y887084D01*
X272418Y825999D02*
X277750D01*
X275084D01*
Y818001D01*
X280416D02*
X283082D01*
X281749D01*
Y825999D01*
X280416Y824666D01*
X119499Y807337D02*
X111501D01*
Y811336D01*
X112834Y812668D01*
X115500D01*
X116833Y811336D01*
Y807337D01*
Y810003D02*
X119499Y812668D01*
Y819333D02*
X111501D01*
X115500Y815334D01*
Y820666D01*
X119499Y827330D02*
X111501D01*
X115500Y823332D01*
Y828663D01*
X102749Y807337D02*
X94751D01*
Y811336D01*
X96084Y812668D01*
X98750D01*
X100083Y811336D01*
Y807337D01*
Y810003D02*
X102749Y812668D01*
Y819333D02*
X94751D01*
X98750Y815334D01*
Y820666D01*
X96084Y823332D02*
X94751Y824665D01*
Y827330D01*
X96084Y828663D01*
X97417D01*
X98750Y827330D01*
Y825997D01*
Y827330D01*
X100083Y828663D01*
X101416D01*
X102749Y827330D01*
Y824665D01*
X101416Y823332D01*
X433337Y853751D02*
Y861749D01*
X437336D01*
X438668Y860416D01*
Y857750D01*
X437336Y856417D01*
X433337D01*
X436003D02*
X438668Y853751D01*
X445333D02*
Y861749D01*
X441334Y857750D01*
X446666D01*
X454663Y853751D02*
X449332D01*
X454663Y859083D01*
Y860416D01*
X453330Y861749D01*
X450664D01*
X449332Y860416D01*
X92499Y671420D02*
X84501D01*
Y675418D01*
X85834Y676751D01*
X88500D01*
X89833Y675418D01*
Y671420D01*
Y674085D02*
X92499Y676751D01*
Y683416D02*
X84501D01*
X88500Y679417D01*
Y684749D01*
X92499Y687414D02*
Y690080D01*
Y688747D01*
X84501D01*
X85834Y687414D01*
X212499Y867837D02*
X204501D01*
Y871835D01*
X205834Y873168D01*
X208500D01*
X209833Y871835D01*
Y867837D01*
Y870502D02*
X212499Y873168D01*
Y879833D02*
X204501D01*
X208500Y875834D01*
Y881166D01*
X205834Y883831D02*
X204501Y885164D01*
Y887830D01*
X205834Y889163D01*
X211166D01*
X212499Y887830D01*
Y885164D01*
X211166Y883831D01*
X205834D01*
X454503Y588501D02*
Y596499D01*
X458502D01*
X459835Y595166D01*
Y592500D01*
X458502Y591167D01*
X454503D01*
X457169D02*
X459835Y588501D01*
X462501D02*
X465167D01*
X463834D01*
Y596499D01*
X462501Y595166D01*
X469165D02*
X470498Y596499D01*
X473164D01*
X474497Y595166D01*
Y593833D01*
X473164Y592500D01*
X474497Y591167D01*
Y589834D01*
X473164Y588501D01*
X470498D01*
X469165Y589834D01*
Y591167D01*
X470498Y592500D01*
X469165Y593833D01*
Y595166D01*
X470498Y592500D02*
X473164D01*
X359087Y72249D02*
X364418Y64251D01*
Y72249D02*
X359087Y64251D01*
X367084D02*
Y72249D01*
X371083D01*
X372416Y70916D01*
Y68250D01*
X371083Y66917D01*
X367084D01*
X379080Y64251D02*
Y72249D01*
X375082Y68250D01*
X380413D01*
X433753Y137751D02*
Y145749D01*
X437752D01*
X439085Y144416D01*
Y141750D01*
X437752Y140417D01*
X433753D01*
X436419D02*
X439085Y137751D01*
X441751D02*
X444417D01*
X443084D01*
Y145749D01*
X441751Y144416D01*
X453747Y145749D02*
X451081Y144416D01*
X448415Y141750D01*
Y139084D01*
X449748Y137751D01*
X452414D01*
X453747Y139084D01*
Y140417D01*
X452414Y141750D01*
X448415D01*
X432253Y110501D02*
Y118499D01*
X436252D01*
X437585Y117166D01*
Y114500D01*
X436252Y113167D01*
X432253D01*
X434919D02*
X437585Y110501D01*
X440251D02*
X442916D01*
X441584D01*
Y118499D01*
X440251Y117166D01*
X452247Y118499D02*
X446915D01*
Y114500D01*
X449581Y115833D01*
X450914D01*
X452247Y114500D01*
Y111834D01*
X450914Y110501D01*
X448248D01*
X446915Y111834D01*
X229753Y139001D02*
Y146999D01*
X233752D01*
X235085Y145666D01*
Y143000D01*
X233752Y141667D01*
X229753D01*
X232419D02*
X235085Y139001D01*
X237751D02*
X240416D01*
X239083D01*
Y146999D01*
X237751Y145666D01*
X244415D02*
X245748Y146999D01*
X248414D01*
X249747Y145666D01*
Y144333D01*
X248414Y143000D01*
X247081D01*
X248414D01*
X249747Y141667D01*
Y140334D01*
X248414Y139001D01*
X245748D01*
X244415Y140334D01*
X466249Y38253D02*
X458251D01*
Y42252D01*
X459584Y43585D01*
X462250D01*
X463583Y42252D01*
Y38253D01*
Y40919D02*
X466249Y43585D01*
Y46251D02*
Y48917D01*
Y47584D01*
X458251D01*
X459584Y46251D01*
X466249Y58247D02*
Y52915D01*
X460917Y58247D01*
X459584D01*
X458251Y56914D01*
Y54248D01*
X459584Y52915D01*
X231586Y124251D02*
Y132249D01*
X235585D01*
X236918Y130916D01*
Y128250D01*
X235585Y126917D01*
X231586D01*
X234252D02*
X236918Y124251D01*
X239584D02*
X242249D01*
X240917D01*
Y132249D01*
X239584Y130916D01*
X246248Y124251D02*
X248914D01*
X247581D01*
Y132249D01*
X246248Y130916D01*
X167302Y344207D02*
X169968D01*
X168635D01*
Y336210D01*
X167302D01*
X169968D01*
X179298Y342874D02*
X177965Y344207D01*
X175299D01*
X173967Y342874D01*
Y341542D01*
X175299Y340209D01*
X177965D01*
X179298Y338876D01*
Y337543D01*
X177965Y336210D01*
X175299D01*
X173967Y337543D01*
X185963Y344207D02*
X183297D01*
X181964Y342874D01*
Y337543D01*
X183297Y336210D01*
X185963D01*
X187296Y337543D01*
Y342874D01*
X185963Y344207D01*
X189961Y336210D02*
X192627D01*
X191294D01*
Y344207D01*
X189961Y342874D01*
X573501Y61170D02*
X581499D01*
Y65168D01*
X580166Y66501D01*
X574834D01*
X573501Y65168D01*
Y61170D01*
X574834Y74499D02*
X573501Y73166D01*
Y70500D01*
X574834Y69167D01*
X580166D01*
X581499Y70500D01*
Y73166D01*
X580166Y74499D01*
X577500D01*
Y71833D01*
X581499Y77165D02*
Y79830D01*
Y78498D01*
X573501D01*
X574834Y77165D01*
X341587Y100499D02*
Y92501D01*
X345586D01*
X346918Y93834D01*
Y99166D01*
X345586Y100499D01*
X341587D01*
X349584D02*
Y92501D01*
X353583D01*
X354916Y93834D01*
Y99166D01*
X353583Y100499D01*
X349584D01*
X362913Y92501D02*
X357582D01*
X362913Y97833D01*
Y99166D01*
X361580Y100499D01*
X358914D01*
X357582Y99166D01*
X191462Y165149D02*
Y157152D01*
X195461D01*
X196794Y158485D01*
Y163817D01*
X195461Y165149D01*
X191462D01*
X199459Y163817D02*
X200792Y165149D01*
X203458D01*
X204791Y163817D01*
Y162484D01*
X203458Y161151D01*
X202125D01*
X203458D01*
X204791Y159818D01*
Y158485D01*
X203458Y157152D01*
X200792D01*
X199459Y158485D01*
X368086Y414249D02*
Y406251D01*
X372084D01*
X373417Y407584D01*
Y412916D01*
X372084Y414249D01*
X368086D01*
X381414Y406251D02*
X376083D01*
X381414Y411583D01*
Y412916D01*
X380082Y414249D01*
X377416D01*
X376083Y412916D01*
X420668Y92666D02*
X419336Y93999D01*
X416670D01*
X415337Y92666D01*
Y87334D01*
X416670Y86001D01*
X419336D01*
X420668Y87334D01*
X423334Y92666D02*
X424667Y93999D01*
X427333D01*
X428666Y92666D01*
Y91333D01*
X427333Y90000D01*
X426000D01*
X427333D01*
X428666Y88667D01*
Y87334D01*
X427333Y86001D01*
X424667D01*
X423334Y87334D01*
X431332Y92666D02*
X432664Y93999D01*
X435330D01*
X436663Y92666D01*
Y91333D01*
X435330Y90000D01*
X433997D01*
X435330D01*
X436663Y88667D01*
Y87334D01*
X435330Y86001D01*
X432664D01*
X431332Y87334D01*
X282834Y247168D02*
X281501Y245835D01*
Y243170D01*
X282834Y241837D01*
X288166D01*
X289499Y243170D01*
Y245835D01*
X288166Y247168D01*
X282834Y249834D02*
X281501Y251167D01*
Y253833D01*
X282834Y255166D01*
X284167D01*
X285500Y253833D01*
Y252500D01*
Y253833D01*
X286833Y255166D01*
X288166D01*
X289499Y253833D01*
Y251167D01*
X288166Y249834D01*
X289499Y263163D02*
Y257832D01*
X284167Y263163D01*
X282834D01*
X281501Y261830D01*
Y259165D01*
X282834Y257832D01*
X283446Y353302D02*
X282113Y354635D01*
X279447D01*
X278114Y353302D01*
Y347971D01*
X279447Y346638D01*
X282113D01*
X283446Y347971D01*
X286111Y353302D02*
X287444Y354635D01*
X290110D01*
X291443Y353302D01*
Y351970D01*
X290110Y350637D01*
X288777D01*
X290110D01*
X291443Y349304D01*
Y347971D01*
X290110Y346638D01*
X287444D01*
X286111Y347971D01*
X294109Y346638D02*
X296775D01*
X295442D01*
Y354635D01*
X294109Y353302D01*
X312834Y256917D02*
X311501Y255584D01*
Y252918D01*
X312834Y251586D01*
X318166D01*
X319499Y252918D01*
Y255584D01*
X318166Y256917D01*
X312834Y259583D02*
X311501Y260916D01*
Y263582D01*
X312834Y264914D01*
X314167D01*
X315500Y263582D01*
Y262249D01*
Y263582D01*
X316833Y264914D01*
X318166D01*
X319499Y263582D01*
Y260916D01*
X318166Y259583D01*
X229087Y588501D02*
Y596499D01*
X233085D01*
X234418Y595166D01*
Y592500D01*
X233085Y591167D01*
X229087D01*
X231753D02*
X234418Y588501D01*
X237084Y595166D02*
X238417Y596499D01*
X241083D01*
X242416Y595166D01*
Y593833D01*
X241083Y592500D01*
X239750D01*
X241083D01*
X242416Y591167D01*
Y589834D01*
X241083Y588501D01*
X238417D01*
X237084Y589834D01*
X245082D02*
X246415Y588501D01*
X249080D01*
X250413Y589834D01*
Y595166D01*
X249080Y596499D01*
X246415D01*
X245082Y595166D01*
Y593833D01*
X246415Y592500D01*
X250413D01*
X79501Y874585D02*
X87499Y879917D01*
X79501D02*
X87499Y874585D01*
X79501Y887915D02*
Y882583D01*
X83500D01*
X82167Y885249D01*
Y886582D01*
X83500Y887915D01*
X86166D01*
X87499Y886582D01*
Y883916D01*
X86166Y882583D01*
X178251Y648335D02*
X186249Y653667D01*
X178251D02*
X186249Y648335D01*
Y660332D02*
X178251D01*
X182250Y656333D01*
Y661665D01*
X319751Y617585D02*
X327749Y622917D01*
X319751D02*
X327749Y617585D01*
X321084Y625583D02*
X319751Y626916D01*
Y629582D01*
X321084Y630914D01*
X322417D01*
X323750Y629582D01*
Y628249D01*
Y629582D01*
X325083Y630914D01*
X326416D01*
X327749Y629582D01*
Y626916D01*
X326416Y625583D01*
X686249Y350503D02*
X678251D01*
Y354502D01*
X679584Y355835D01*
X682250D01*
X683583Y354502D01*
Y350503D01*
Y353169D02*
X686249Y355835D01*
Y358501D02*
Y361166D01*
Y359833D01*
X678251D01*
X679584Y358501D01*
Y365165D02*
X678251Y366498D01*
Y369164D01*
X679584Y370497D01*
X684916D01*
X686249Y369164D01*
Y366498D01*
X684916Y365165D01*
X679584D01*
X679001Y464664D02*
X686999D01*
Y460665D01*
X685666Y459333D01*
X683000D01*
X681667Y460665D01*
Y464664D01*
Y461998D02*
X679001Y459333D01*
X680334Y456667D02*
X679001Y455334D01*
Y452668D01*
X680334Y451335D01*
X685666D01*
X686999Y452668D01*
Y455334D01*
X685666Y456667D01*
X684333D01*
X683000Y455334D01*
Y451335D01*
X487000Y282666D02*
X485667Y283999D01*
X483001D01*
X481668Y282666D01*
Y277334D01*
X483001Y276001D01*
X485667D01*
X487000Y277334D01*
X489666Y276001D02*
X492332D01*
X490999D01*
Y283999D01*
X489666Y282666D01*
X83587Y342749D02*
X88918Y334751D01*
Y342749D02*
X83587Y334751D01*
X91584D02*
Y342749D01*
X95583D01*
X96916Y341416D01*
Y338750D01*
X95583Y337417D01*
X91584D01*
X99582Y341416D02*
X100914Y342749D01*
X103580D01*
X104913Y341416D01*
Y340083D01*
X103580Y338750D01*
X102247D01*
X103580D01*
X104913Y337417D01*
Y336084D01*
X103580Y334751D01*
X100914D01*
X99582Y336084D01*
X13918Y752666D02*
X12586Y753999D01*
X9920D01*
X8587Y752666D01*
Y747334D01*
X9920Y746001D01*
X12586D01*
X13918Y747334D01*
X21916Y746001D02*
X16584D01*
X21916Y751333D01*
Y752666D01*
X20583Y753999D01*
X17917D01*
X16584Y752666D01*
X24582D02*
X25915Y753999D01*
X28580D01*
X29913Y752666D01*
Y747334D01*
X28580Y746001D01*
X25915D01*
X24582Y747334D01*
Y752666D01*
X31086Y910999D02*
X36417Y903001D01*
Y910999D02*
X31086Y903001D01*
X44415D02*
X39083D01*
X44415Y908333D01*
Y909666D01*
X43082Y910999D01*
X40416D01*
X39083Y909666D01*
X423251Y686087D02*
X431249Y691418D01*
X423251D02*
X431249Y686087D01*
Y694084D02*
X423251D01*
Y698083D01*
X424584Y699416D01*
X427250D01*
X428583Y698083D01*
Y694084D01*
X431249Y707413D02*
Y702082D01*
X425917Y707413D01*
X424584D01*
X423251Y706080D01*
Y703415D01*
X424584Y702082D01*
X662168Y909499D02*
X667500Y901501D01*
Y909499D02*
X662168Y901501D01*
X670166D02*
X672832D01*
X671499D01*
Y909499D01*
X670166Y908166D01*
X534420Y866749D02*
Y861417D01*
X537085Y858751D01*
X539751Y861417D01*
Y866749D01*
X542417Y858751D02*
Y866749D01*
X546416D01*
X547749Y865416D01*
Y862750D01*
X546416Y861417D01*
X542417D01*
X545083D02*
X547749Y858751D01*
X550415D02*
X553080D01*
X551748D01*
Y866749D01*
X550415Y865416D01*
X41999Y67913D02*
X36667D01*
X34001Y65247D01*
X36667Y62582D01*
X41999D01*
Y59916D02*
X34001D01*
Y55917D01*
X35334Y54584D01*
X40666D01*
X41999Y55917D01*
Y59916D01*
X34001Y47920D02*
X41999D01*
X38000Y51918D01*
Y46587D01*
X109499Y67663D02*
X104167D01*
X101501Y64997D01*
X104167Y62332D01*
X109499D01*
Y59666D02*
X101501D01*
Y55667D01*
X102834Y54334D01*
X108166D01*
X109499Y55667D01*
Y59666D01*
X108166Y51668D02*
X109499Y50335D01*
Y47670D01*
X108166Y46337D01*
X106833D01*
X105500Y47670D01*
Y49002D01*
Y47670D01*
X104167Y46337D01*
X102834D01*
X101501Y47670D01*
Y50335D01*
X102834Y51668D01*
X77499Y67663D02*
X72167D01*
X69501Y64997D01*
X72167Y62332D01*
X77499D01*
Y59666D02*
X69501D01*
Y55667D01*
X70834Y54334D01*
X76166D01*
X77499Y55667D01*
Y59666D01*
X69501Y46337D02*
Y51668D01*
X74833Y46337D01*
X76166D01*
X77499Y47670D01*
Y50335D01*
X76166Y51668D01*
X506170Y106999D02*
Y101667D01*
X508835Y99001D01*
X511501Y101667D01*
Y106999D01*
X514167D02*
Y99001D01*
X518166D01*
X519499Y100334D01*
Y105666D01*
X518166Y106999D01*
X514167D01*
X522164Y99001D02*
X524830D01*
X523498D01*
Y106999D01*
X522164Y105666D01*
X137918Y487999D02*
Y481334D01*
X139251Y480001D01*
X141917D01*
X143250Y481334D01*
Y487999D01*
X145916Y480001D02*
X148582D01*
X147249D01*
Y487999D01*
X145916Y486666D01*
X584167Y971166D02*
X582834Y972499D01*
X580168D01*
X578835Y971166D01*
Y969833D01*
X580168Y968500D01*
X582834D01*
X584167Y967167D01*
Y965834D01*
X582834Y964501D01*
X580168D01*
X578835Y965834D01*
X592165Y964501D02*
X586833D01*
X592165Y969833D01*
Y971166D01*
X590832Y972499D01*
X588166D01*
X586833Y971166D01*
X346000Y970666D02*
X344667Y971999D01*
X342001D01*
X340668Y970666D01*
Y969333D01*
X342001Y968000D01*
X344667D01*
X346000Y966667D01*
Y965334D01*
X344667Y964001D01*
X342001D01*
X340668Y965334D01*
X348666Y964001D02*
X351332D01*
X349999D01*
Y971999D01*
X348666Y970666D01*
X163249Y867087D02*
X155251D01*
Y871086D01*
X156584Y872418D01*
X159250D01*
X160583Y871086D01*
Y867087D01*
Y869753D02*
X163249Y872418D01*
X156584Y875084D02*
X155251Y876417D01*
Y879083D01*
X156584Y880416D01*
X157917D01*
X159250Y879083D01*
Y877750D01*
Y879083D01*
X160583Y880416D01*
X161916D01*
X163249Y879083D01*
Y876417D01*
X161916Y875084D01*
X156584Y883082D02*
X155251Y884415D01*
Y887080D01*
X156584Y888413D01*
X157917D01*
X159250Y887080D01*
X160583Y888413D01*
X161916D01*
X163249Y887080D01*
Y884415D01*
X161916Y883082D01*
X160583D01*
X159250Y884415D01*
X157917Y883082D01*
X156584D01*
X159250Y884415D02*
Y887080D01*
X210749Y836587D02*
X202751D01*
Y840585D01*
X204084Y841918D01*
X206750D01*
X208083Y840585D01*
Y836587D01*
Y839253D02*
X210749Y841918D01*
X204084Y844584D02*
X202751Y845917D01*
Y848583D01*
X204084Y849916D01*
X205417D01*
X206750Y848583D01*
Y847250D01*
Y848583D01*
X208083Y849916D01*
X209416D01*
X210749Y848583D01*
Y845917D01*
X209416Y844584D01*
X202751Y852582D02*
Y857913D01*
X204084D01*
X209416Y852582D01*
X210749D01*
X162499Y837337D02*
X154501D01*
Y841336D01*
X155834Y842669D01*
X158500D01*
X159833Y841336D01*
Y837337D01*
Y840003D02*
X162499Y842669D01*
X155834Y845334D02*
X154501Y846667D01*
Y849333D01*
X155834Y850666D01*
X157167D01*
X158500Y849333D01*
Y848000D01*
Y849333D01*
X159833Y850666D01*
X161166D01*
X162499Y849333D01*
Y846667D01*
X161166Y845334D01*
X154501Y858663D02*
X155834Y855997D01*
X158500Y853332D01*
X161166D01*
X162499Y854665D01*
Y857330D01*
X161166Y858663D01*
X159833D01*
X158500Y857330D01*
Y853332D01*
X391087Y870751D02*
Y878749D01*
X395085D01*
X396418Y877416D01*
Y874750D01*
X395085Y873417D01*
X391087D01*
X393753D02*
X396418Y870751D01*
X399084Y877416D02*
X400417Y878749D01*
X403083D01*
X404416Y877416D01*
Y876083D01*
X403083Y874750D01*
X401750D01*
X403083D01*
X404416Y873417D01*
Y872084D01*
X403083Y870751D01*
X400417D01*
X399084Y872084D01*
X412413Y878749D02*
X407082D01*
Y874750D01*
X409747Y876083D01*
X411080D01*
X412413Y874750D01*
Y872084D01*
X411080Y870751D01*
X408414D01*
X407082Y872084D01*
X235837Y721001D02*
Y728999D01*
X239835D01*
X241168Y727666D01*
Y725000D01*
X239835Y723667D01*
X235837D01*
X238503D02*
X241168Y721001D01*
X243834Y727666D02*
X245167Y728999D01*
X247833D01*
X249166Y727666D01*
Y726333D01*
X247833Y725000D01*
X246500D01*
X247833D01*
X249166Y723667D01*
Y722334D01*
X247833Y721001D01*
X245167D01*
X243834Y722334D01*
X255830Y721001D02*
Y728999D01*
X251832Y725000D01*
X257163D01*
X65249Y668337D02*
X57251D01*
Y672336D01*
X58584Y673668D01*
X61250D01*
X62583Y672336D01*
Y668337D01*
Y671003D02*
X65249Y673668D01*
X58584Y676334D02*
X57251Y677667D01*
Y680333D01*
X58584Y681666D01*
X59917D01*
X61250Y680333D01*
Y679000D01*
Y680333D01*
X62583Y681666D01*
X63916D01*
X65249Y680333D01*
Y677667D01*
X63916Y676334D01*
X58584Y684332D02*
X57251Y685665D01*
Y688330D01*
X58584Y689663D01*
X59917D01*
X61250Y688330D01*
Y686998D01*
Y688330D01*
X62583Y689663D01*
X63916D01*
X65249Y688330D01*
Y685665D01*
X63916Y684332D01*
X49999Y668337D02*
X42001D01*
Y672336D01*
X43334Y673668D01*
X46000D01*
X47333Y672336D01*
Y668337D01*
Y671003D02*
X49999Y673668D01*
X43334Y676334D02*
X42001Y677667D01*
Y680333D01*
X43334Y681666D01*
X44667D01*
X46000Y680333D01*
Y679000D01*
Y680333D01*
X47333Y681666D01*
X48666D01*
X49999Y680333D01*
Y677667D01*
X48666Y676334D01*
X49999Y689663D02*
Y684332D01*
X44667Y689663D01*
X43334D01*
X42001Y688330D01*
Y685665D01*
X43334Y684332D01*
X13420Y777251D02*
Y785249D01*
X17418D01*
X18751Y783916D01*
Y781250D01*
X17418Y779917D01*
X13420D01*
X16085D02*
X18751Y777251D01*
X21417Y783916D02*
X22750Y785249D01*
X25416D01*
X26749Y783916D01*
Y782583D01*
X25416Y781250D01*
X24083D01*
X25416D01*
X26749Y779917D01*
Y778584D01*
X25416Y777251D01*
X22750D01*
X21417Y778584D01*
X29415Y777251D02*
X32080D01*
X30747D01*
Y785249D01*
X29415Y783916D01*
X13337Y761501D02*
Y769499D01*
X17335D01*
X18668Y768166D01*
Y765500D01*
X17335Y764167D01*
X13337D01*
X16003D02*
X18668Y761501D01*
X21334Y768166D02*
X22667Y769499D01*
X25333D01*
X26666Y768166D01*
Y766833D01*
X25333Y765500D01*
X24000D01*
X25333D01*
X26666Y764167D01*
Y762834D01*
X25333Y761501D01*
X22667D01*
X21334Y762834D01*
X29332Y768166D02*
X30665Y769499D01*
X33330D01*
X34663Y768166D01*
Y762834D01*
X33330Y761501D01*
X30665D01*
X29332Y762834D01*
Y768166D01*
X453337Y571251D02*
Y579249D01*
X457336D01*
X458668Y577916D01*
Y575250D01*
X457336Y573917D01*
X453337D01*
X456003D02*
X458668Y571251D01*
X466666D02*
X461334D01*
X466666Y576583D01*
Y577916D01*
X465333Y579249D01*
X462667D01*
X461334Y577916D01*
X474663Y579249D02*
X469332D01*
Y575250D01*
X471997Y576583D01*
X473330D01*
X474663Y575250D01*
Y572584D01*
X473330Y571251D01*
X470664D01*
X469332Y572584D01*
X34001Y109163D02*
X41999D01*
Y105164D01*
X40666Y103832D01*
X38000D01*
X36667Y105164D01*
Y109163D01*
Y106497D02*
X34001Y103832D01*
Y95834D02*
Y101166D01*
X39333Y95834D01*
X40666D01*
X41999Y97167D01*
Y99833D01*
X40666Y101166D01*
X34001Y89170D02*
X41999D01*
X38000Y93168D01*
Y87837D01*
X329249Y501587D02*
X321251D01*
Y505586D01*
X322584Y506918D01*
X325250D01*
X326583Y505586D01*
Y501587D01*
Y504253D02*
X329249Y506918D01*
Y514916D02*
Y509584D01*
X323917Y514916D01*
X322584D01*
X321251Y513583D01*
Y510917D01*
X322584Y509584D01*
Y517582D02*
X321251Y518915D01*
Y521580D01*
X322584Y522913D01*
X323917D01*
X325250Y521580D01*
Y520247D01*
Y521580D01*
X326583Y522913D01*
X327916D01*
X329249Y521580D01*
Y518915D01*
X327916Y517582D01*
X100501Y108663D02*
X108499D01*
Y104664D01*
X107166Y103332D01*
X104500D01*
X103167Y104664D01*
Y108663D01*
Y105997D02*
X100501Y103332D01*
Y95334D02*
Y100666D01*
X105833Y95334D01*
X107166D01*
X108499Y96667D01*
Y99333D01*
X107166Y100666D01*
X100501Y87337D02*
Y92668D01*
X105833Y87337D01*
X107166D01*
X108499Y88670D01*
Y91335D01*
X107166Y92668D01*
X68501Y108330D02*
X76499D01*
Y104332D01*
X75166Y102999D01*
X72500D01*
X71167Y104332D01*
Y108330D01*
Y105665D02*
X68501Y102999D01*
Y95001D02*
Y100333D01*
X73833Y95001D01*
X75166D01*
X76499Y96334D01*
Y99000D01*
X75166Y100333D01*
X68501Y92336D02*
Y89670D01*
Y91003D01*
X76499D01*
X75166Y92336D01*
X260087Y513001D02*
Y520999D01*
X264086D01*
X265418Y519666D01*
Y517000D01*
X264086Y515667D01*
X260087D01*
X262753D02*
X265418Y513001D01*
X273416D02*
X268084D01*
X273416Y518333D01*
Y519666D01*
X272083Y520999D01*
X269417D01*
X268084Y519666D01*
X276082D02*
X277414Y520999D01*
X280080D01*
X281413Y519666D01*
Y514334D01*
X280080Y513001D01*
X277414D01*
X276082Y514334D01*
Y519666D01*
X540003Y93001D02*
Y100999D01*
X544002D01*
X545335Y99666D01*
Y97000D01*
X544002Y95667D01*
X540003D01*
X542669D02*
X545335Y93001D01*
X548001D02*
X550666D01*
X549333D01*
Y100999D01*
X548001Y99666D01*
X554665Y94334D02*
X555998Y93001D01*
X558664D01*
X559997Y94334D01*
Y99666D01*
X558664Y100999D01*
X555998D01*
X554665Y99666D01*
Y98333D01*
X555998Y97000D01*
X559997D01*
X608249Y567832D02*
X600251D01*
Y562500D01*
Y559834D02*
Y557168D01*
Y558501D01*
X608249D01*
X606916Y559834D01*
X140250Y1067499D02*
X137584D01*
X138917D01*
Y1060834D01*
X137584Y1059501D01*
X136251D01*
X134918Y1060834D01*
X142916Y1059501D02*
X145582D01*
X144249D01*
Y1067499D01*
X142916Y1066166D01*
X99503Y748249D02*
X102169D01*
X100836D01*
Y740251D01*
X99503D01*
X102169D01*
X111499Y746916D02*
X110167Y748249D01*
X107501D01*
X106168Y746916D01*
Y741584D01*
X107501Y740251D01*
X110167D01*
X111499Y741584D01*
X119497Y740251D02*
X114165D01*
X119497Y745583D01*
Y746916D01*
X118164Y748249D01*
X115498D01*
X114165Y746916D01*
X260001Y486086D02*
Y488752D01*
Y487419D01*
X267999D01*
Y486086D01*
Y488752D01*
X261334Y498082D02*
X260001Y496749D01*
Y494084D01*
X261334Y492751D01*
X266666D01*
X267999Y494084D01*
Y496749D01*
X266666Y498082D01*
X267999Y500748D02*
Y503414D01*
Y502081D01*
X260001D01*
X261334Y500748D01*
X673001Y271920D02*
X680999D01*
Y275918D01*
X679666Y277251D01*
X674334D01*
X673001Y275918D01*
Y271920D01*
Y279917D02*
X680999D01*
Y283916D01*
X679666Y285249D01*
X674334D01*
X673001Y283916D01*
Y279917D01*
X680999Y287915D02*
Y290580D01*
Y289247D01*
X673001D01*
X674334Y287915D01*
X599251Y456168D02*
X607249D01*
Y460167D01*
X605916Y461500D01*
X600584D01*
X599251Y460167D01*
Y456168D01*
X607249Y464166D02*
Y466832D01*
Y465499D01*
X599251D01*
X600584Y464166D01*
X38566Y449418D02*
X37233Y450751D01*
X34567D01*
X33234Y449418D01*
Y444087D01*
X34567Y442754D01*
X37233D01*
X38566Y444087D01*
X41231Y449418D02*
X42564Y450751D01*
X45230D01*
X46563Y449418D01*
Y448086D01*
X45230Y446753D01*
X43897D01*
X45230D01*
X46563Y445420D01*
Y444087D01*
X45230Y442754D01*
X42564D01*
X41231Y444087D01*
X49229Y449418D02*
X50562Y450751D01*
X53228D01*
X54560Y449418D01*
Y444087D01*
X53228Y442754D01*
X50562D01*
X49229Y444087D01*
Y449418D01*
X63084Y637418D02*
X61751Y636086D01*
Y633420D01*
X63084Y632087D01*
X68416D01*
X69749Y633420D01*
Y636086D01*
X68416Y637418D01*
X69749Y645416D02*
Y640084D01*
X64417Y645416D01*
X63084D01*
X61751Y644083D01*
Y641417D01*
X63084Y640084D01*
Y648082D02*
X61751Y649415D01*
Y652080D01*
X63084Y653413D01*
X64417D01*
X65750Y652080D01*
X67083Y653413D01*
X68416D01*
X69749Y652080D01*
Y649415D01*
X68416Y648082D01*
X67083D01*
X65750Y649415D01*
X64417Y648082D01*
X63084D01*
X65750Y649415D02*
Y652080D01*
X44918Y363416D02*
X43586Y364749D01*
X40920D01*
X39587Y363416D01*
Y358084D01*
X40920Y356751D01*
X43586D01*
X44918Y358084D01*
X52916Y356751D02*
X47584D01*
X52916Y362083D01*
Y363416D01*
X51583Y364749D01*
X48917D01*
X47584Y363416D01*
X55582Y364749D02*
X60913D01*
Y363416D01*
X55582Y358084D01*
Y356751D01*
X125418Y727166D02*
X124086Y728499D01*
X121420D01*
X120087Y727166D01*
Y721834D01*
X121420Y720501D01*
X124086D01*
X125418Y721834D01*
X133416Y720501D02*
X128084D01*
X133416Y725833D01*
Y727166D01*
X132083Y728499D01*
X129417D01*
X128084Y727166D01*
X141413Y728499D02*
X138747Y727166D01*
X136082Y724500D01*
Y721834D01*
X137415Y720501D01*
X140080D01*
X141413Y721834D01*
Y723167D01*
X140080Y724500D01*
X136082D01*
X19918Y839166D02*
X18585Y840499D01*
X15920D01*
X14587Y839166D01*
Y833834D01*
X15920Y832501D01*
X18585D01*
X19918Y833834D01*
X27916Y832501D02*
X22584D01*
X27916Y837833D01*
Y839166D01*
X26583Y840499D01*
X23917D01*
X22584Y839166D01*
X35913Y840499D02*
X30582D01*
Y836500D01*
X33247Y837833D01*
X34580D01*
X35913Y836500D01*
Y833834D01*
X34580Y832501D01*
X31915D01*
X30582Y833834D01*
X63918Y802166D02*
X62586Y803499D01*
X59920D01*
X58587Y802166D01*
Y796834D01*
X59920Y795501D01*
X62586D01*
X63918Y796834D01*
X71916Y795501D02*
X66584D01*
X71916Y800833D01*
Y802166D01*
X70583Y803499D01*
X67917D01*
X66584Y802166D01*
X78580Y795501D02*
Y803499D01*
X74582Y799500D01*
X79913D01*
X114418Y899666D02*
X113085Y900999D01*
X110420D01*
X109087Y899666D01*
Y894334D01*
X110420Y893001D01*
X113085D01*
X114418Y894334D01*
X122416Y893001D02*
X117084D01*
X122416Y898333D01*
Y899666D01*
X121083Y900999D01*
X118417D01*
X117084Y899666D01*
X125082D02*
X126414Y900999D01*
X129080D01*
X130413Y899666D01*
Y898333D01*
X129080Y897000D01*
X127747D01*
X129080D01*
X130413Y895667D01*
Y894334D01*
X129080Y893001D01*
X126414D01*
X125082Y894334D01*
X92416Y656332D02*
X93749Y657664D01*
Y660330D01*
X92416Y661663D01*
X87084D01*
X85751Y660330D01*
Y657664D01*
X87084Y656332D01*
X85751Y648334D02*
Y653666D01*
X91083Y648334D01*
X92416D01*
X93749Y649667D01*
Y652333D01*
X92416Y653666D01*
X85751Y640337D02*
Y645668D01*
X91083Y640337D01*
X92416D01*
X93749Y641670D01*
Y644335D01*
X92416Y645668D01*
X148416Y812249D02*
X149749Y813582D01*
Y816247D01*
X148416Y817580D01*
X143084D01*
X141751Y816247D01*
Y813582D01*
X143084Y812249D01*
X141751Y804251D02*
Y809583D01*
X147083Y804251D01*
X148416D01*
X149749Y805584D01*
Y808250D01*
X148416Y809583D01*
X141751Y801585D02*
Y798920D01*
Y800253D01*
X149749D01*
X148416Y801585D01*
X122335Y636166D02*
X121002Y637499D01*
X118336D01*
X117003Y636166D01*
Y630834D01*
X118336Y629501D01*
X121002D01*
X122335Y630834D01*
X125001Y629501D02*
X127666D01*
X126334D01*
Y637499D01*
X125001Y636166D01*
X131665Y630834D02*
X132998Y629501D01*
X135664D01*
X136997Y630834D01*
Y636166D01*
X135664Y637499D01*
X132998D01*
X131665Y636166D01*
Y634833D01*
X132998Y633500D01*
X136997D01*
X87834Y602835D02*
X86501Y601502D01*
Y598836D01*
X87834Y597503D01*
X93166D01*
X94499Y598836D01*
Y601502D01*
X93166Y602835D01*
X94499Y605501D02*
Y608166D01*
Y606834D01*
X86501D01*
X87834Y605501D01*
Y612165D02*
X86501Y613498D01*
Y616164D01*
X87834Y617497D01*
X89167D01*
X90500Y616164D01*
X91833Y617497D01*
X93166D01*
X94499Y616164D01*
Y613498D01*
X93166Y612165D01*
X91833D01*
X90500Y613498D01*
X89167Y612165D01*
X87834D01*
X90500Y613498D02*
Y616164D01*
X155585Y669416D02*
X154252Y670749D01*
X151586D01*
X150253Y669416D01*
Y664084D01*
X151586Y662751D01*
X154252D01*
X155585Y664084D01*
X158251Y662751D02*
X160916D01*
X159584D01*
Y670749D01*
X158251Y669416D01*
X164915Y670749D02*
X170247D01*
Y669416D01*
X164915Y664084D01*
Y662751D01*
X197084Y646835D02*
X195751Y645502D01*
Y642836D01*
X197084Y641503D01*
X202416D01*
X203749Y642836D01*
Y645502D01*
X202416Y646835D01*
X203749Y649501D02*
Y652166D01*
Y650834D01*
X195751D01*
X197084Y649501D01*
X195751Y661497D02*
X197084Y658831D01*
X199750Y656165D01*
X202416D01*
X203749Y657498D01*
Y660164D01*
X202416Y661497D01*
X201083D01*
X199750Y660164D01*
Y656165D01*
X177415Y572834D02*
X178748Y571501D01*
X181414D01*
X182747Y572834D01*
Y578166D01*
X181414Y579499D01*
X178748D01*
X177415Y578166D01*
X174749Y579499D02*
X172084D01*
X173416D01*
Y571501D01*
X174749Y572834D01*
X162753Y571501D02*
X168085D01*
Y575500D01*
X165419Y574167D01*
X164086D01*
X162753Y575500D01*
Y578166D01*
X164086Y579499D01*
X166752D01*
X168085Y578166D01*
X227584Y650085D02*
X226251Y648752D01*
Y646086D01*
X227584Y644753D01*
X232916D01*
X234249Y646086D01*
Y648752D01*
X232916Y650085D01*
X234249Y652751D02*
Y655416D01*
Y654084D01*
X226251D01*
X227584Y652751D01*
X234249Y663414D02*
X226251D01*
X230250Y659415D01*
Y664747D01*
X227835Y704916D02*
X226502Y706249D01*
X223836D01*
X222503Y704916D01*
Y699584D01*
X223836Y698251D01*
X226502D01*
X227835Y699584D01*
X230500Y698251D02*
X233166D01*
X231833D01*
Y706249D01*
X230500Y704916D01*
X237165D02*
X238498Y706249D01*
X241164D01*
X242497Y704916D01*
Y703583D01*
X241164Y702250D01*
X239831D01*
X241164D01*
X242497Y700917D01*
Y699584D01*
X241164Y698251D01*
X238498D01*
X237165Y699584D01*
X180084Y769585D02*
X178751Y768252D01*
Y765586D01*
X180084Y764253D01*
X185416D01*
X186749Y765586D01*
Y768252D01*
X185416Y769585D01*
X186749Y772251D02*
Y774916D01*
Y773584D01*
X178751D01*
X180084Y772251D01*
X186749Y784247D02*
Y778915D01*
X181417Y784247D01*
X180084D01*
X178751Y782914D01*
Y780248D01*
X180084Y778915D01*
X207168Y361916D02*
X205835Y363249D01*
X203169D01*
X201836Y361916D01*
Y356584D01*
X203169Y355251D01*
X205835D01*
X207168Y356584D01*
X209834Y355251D02*
X212499D01*
X211166D01*
Y363249D01*
X209834Y361916D01*
X216498Y355251D02*
X219164D01*
X217831D01*
Y363249D01*
X216498Y361916D01*
X262084Y376585D02*
X260751Y375252D01*
Y372586D01*
X262084Y371253D01*
X267416D01*
X268749Y372586D01*
Y375252D01*
X267416Y376585D01*
X268749Y379251D02*
Y381917D01*
Y380584D01*
X260751D01*
X262084Y379251D01*
Y385915D02*
X260751Y387248D01*
Y389914D01*
X262084Y391247D01*
X267416D01*
X268749Y389914D01*
Y387248D01*
X267416Y385915D01*
X262084D01*
X392834Y839167D02*
X391501Y837834D01*
Y835168D01*
X392834Y833836D01*
X398166D01*
X399499Y835168D01*
Y837834D01*
X398166Y839167D01*
Y841833D02*
X399499Y843166D01*
Y845832D01*
X398166Y847165D01*
X392834D01*
X391501Y845832D01*
Y843166D01*
X392834Y841833D01*
X394167D01*
X395500Y843166D01*
Y847165D01*
X201334Y761167D02*
X200001Y759834D01*
Y757168D01*
X201334Y755835D01*
X206666D01*
X207999Y757168D01*
Y759834D01*
X206666Y761167D01*
X201334Y763833D02*
X200001Y765166D01*
Y767832D01*
X201334Y769165D01*
X202667D01*
X204000Y767832D01*
X205333Y769165D01*
X206666D01*
X207999Y767832D01*
Y765166D01*
X206666Y763833D01*
X205333D01*
X204000Y765166D01*
X202667Y763833D01*
X201334D01*
X204000Y765166D02*
Y767832D01*
X263417Y577666D02*
X262084Y578999D01*
X259418D01*
X258085Y577666D01*
Y572334D01*
X259418Y571001D01*
X262084D01*
X263417Y572334D01*
X266083Y578999D02*
X271415D01*
Y577666D01*
X266083Y572334D01*
Y571001D01*
X375084Y790417D02*
X373751Y789084D01*
Y786419D01*
X375084Y785086D01*
X380416D01*
X381749Y786419D01*
Y789084D01*
X380416Y790417D01*
X373751Y798415D02*
X375084Y795749D01*
X377750Y793083D01*
X380416D01*
X381749Y794416D01*
Y797082D01*
X380416Y798415D01*
X379083D01*
X377750Y797082D01*
Y793083D01*
X355834Y445667D02*
X354501Y444334D01*
Y441668D01*
X355834Y440336D01*
X361166D01*
X362499Y441668D01*
Y444334D01*
X361166Y445667D01*
X354501Y453665D02*
Y448333D01*
X358500D01*
X357167Y450999D01*
Y452332D01*
X358500Y453665D01*
X361166D01*
X362499Y452332D01*
Y449666D01*
X361166Y448333D01*
X656584Y692167D02*
X655251Y690834D01*
Y688168D01*
X656584Y686835D01*
X661916D01*
X663249Y688168D01*
Y690834D01*
X661916Y692167D01*
X663249Y698832D02*
X655251D01*
X659250Y694833D01*
Y700164D01*
X501917Y846166D02*
X500584Y847499D01*
X497918D01*
X496586Y846166D01*
Y840834D01*
X497918Y839501D01*
X500584D01*
X501917Y840834D01*
X509915Y839501D02*
X504583D01*
X509915Y844833D01*
Y846166D01*
X508582Y847499D01*
X505916D01*
X504583Y846166D01*
D12*
X294513Y234905D02*
G03*
X278600Y234800I-7877J-12168D01*
G01*
X278487Y203796D02*
G03*
X294400Y203900I7877J12168D01*
G01*
X405905Y81488D02*
G03*
X405800Y97400I-12168J7877D01*
G01*
X374795Y97513D02*
G03*
X374900Y81600I12168J-7877D01*
G01*
X195988Y775796D02*
G03*
X211900Y775900I7877J12168D01*
G01*
X212013Y806905D02*
G03*
X196100Y806800I-7877J-12168D01*
G01*
X113870Y715688D02*
G03*
X113975Y699775I12168J-7877D01*
G01*
X144979Y699663D02*
G03*
X144875Y715575I-12168J7877D01*
G01*
X19046Y806512D02*
G03*
X19150Y790600I12168J-7877D01*
G01*
X50155Y790487D02*
G03*
X50050Y806400I-12168J7877D01*
G01*
X351237Y775796D02*
G03*
X367150Y775900I7877J12168D01*
G01*
X367262Y806905D02*
G03*
X351350Y806800I-7877J-12168D01*
G01*
X11295Y826012D02*
G03*
X11400Y810100I12168J-7877D01*
G01*
X42405Y809987D02*
G03*
X42300Y825900I-12168J7877D01*
G01*
X293013Y336455D02*
G03*
X277100Y336350I-7877J-12168D01*
G01*
X276987Y305345D02*
G03*
X292900Y305450I7877J12168D01*
G01*
X237013Y636655D02*
G03*
X221100Y636550I-7877J-12168D01*
G01*
X220988Y605546D02*
G03*
X236900Y605650I7877J12168D01*
G01*
X205263Y634655D02*
G03*
X189350Y634550I-7877J-12168D01*
G01*
X189237Y603545D02*
G03*
X205150Y603650I7877J12168D01*
G01*
X237845Y564762D02*
G03*
X237950Y548850I12168J-7877D01*
G01*
X268955Y548737D02*
G03*
X268850Y564650I-12168J7877D01*
G01*
X333487Y431096D02*
G03*
X349400Y431200I7877J12168D01*
G01*
X349512Y462205D02*
G03*
X333600Y462100I-7877J-12168D01*
G01*
X253762Y397655D02*
G03*
X237850Y397550I-7877J-12168D01*
G01*
X237738Y366545D02*
G03*
X253650Y366650I7877J12168D01*
G01*
X66405Y371487D02*
G03*
X66300Y387400I-12168J7877D01*
G01*
X35296Y387513D02*
G03*
X35400Y371600I12168J-7877D01*
G01*
X58987Y591095D02*
G03*
X74900Y591200I7877J12168D01*
G01*
X75012Y622205D02*
G03*
X59100Y622100I-7877J-12168D01*
G01*
X132762Y622405D02*
G03*
X116850Y622300I-7877J-12168D01*
G01*
X116737Y591296D02*
G03*
X132650Y591400I7877J12168D01*
G01*
X115763Y622155D02*
G03*
X99850Y622050I-7877J-12168D01*
G01*
X99738Y591045D02*
G03*
X115650Y591150I7877J12168D01*
G01*
X192500Y389000D02*
G03*
X192423Y369016I14270J-10047D01*
G01*
X228500Y369000D02*
G03*
X228576Y388984I-14270J10047D01*
G01*
X146763Y855905D02*
G03*
X130850Y855800I-7877J-12168D01*
G01*
X130737Y824796D02*
G03*
X146650Y824900I7877J12168D01*
G01*
X68155Y741737D02*
G03*
X68050Y757650I-12168J7877D01*
G01*
X37046Y757762D02*
G03*
X37150Y741850I12168J-7877D01*
G01*
X52000Y431750D02*
G03*
X32016Y431826I-10047J-14270D01*
G01*
X32000Y395750D02*
G03*
X51984Y395673I10047J14270D01*
G01*
X278500Y204000D02*
Y234750D01*
X294500Y204000D02*
Y234750D01*
X283900Y220900D02*
X289200D01*
X283900Y218100D02*
X289200D01*
X375000Y97500D02*
X405750D01*
X375000Y81500D02*
X405750D01*
X391900Y86800D02*
Y92100D01*
X389100Y86800D02*
Y92100D01*
X673750Y377750D02*
Y408500D01*
Y377750D02*
X689750D01*
Y408500D01*
X673750D02*
X689750D01*
X679750Y395250D02*
X684000D01*
Y391250D02*
Y395250D01*
X679750Y391250D02*
X684000D01*
X679750D02*
Y395250D01*
X201400Y790100D02*
X206700D01*
X201400Y792900D02*
X206700D01*
X212000Y776000D02*
Y806750D01*
X196000Y776000D02*
Y806750D01*
X128175Y704975D02*
Y710275D01*
X130975Y704975D02*
Y710275D01*
X114075Y699675D02*
X144825D01*
X114075Y715675D02*
X144825D01*
X33351Y795800D02*
Y801100D01*
X36150Y795800D02*
Y801100D01*
X19250Y790500D02*
X50000D01*
X19250Y806500D02*
X50000D01*
X147250Y867500D02*
Y888000D01*
X94750Y867500D02*
Y888000D01*
Y867500D02*
X147250D01*
X94750Y888000D02*
X147250D01*
X123000Y872750D02*
Y882750D01*
X119300Y872750D02*
Y882750D01*
X356650Y790100D02*
X361950D01*
X356650Y792900D02*
X361950D01*
X367250Y776000D02*
Y806750D01*
X351250Y776000D02*
Y806750D01*
X25600Y815300D02*
Y820600D01*
X28400Y815300D02*
Y820600D01*
X11500Y810000D02*
X42250D01*
X11500Y826000D02*
X42250D01*
X282300Y322150D02*
X287600D01*
X282300Y319350D02*
X287600D01*
X277000Y305500D02*
Y336250D01*
X293000Y305500D02*
Y336250D01*
X689750Y413500D02*
Y444249D01*
X673750D02*
X689750D01*
X673750Y413500D02*
Y444249D01*
Y413500D02*
X689750D01*
X679500Y426749D02*
X683750D01*
X679500D02*
Y430749D01*
X683750D01*
Y426749D02*
Y430749D01*
X221000Y605750D02*
Y636500D01*
X237000Y605750D02*
Y636500D01*
X226400Y622650D02*
X231700D01*
X226400Y619850D02*
X231700D01*
X189250Y603750D02*
Y634500D01*
X205250Y603750D02*
Y634500D01*
X194650Y620650D02*
X199950D01*
X194650Y617850D02*
X199950D01*
X238000Y548750D02*
X268750D01*
X238000Y564750D02*
X268750D01*
X251850Y554150D02*
Y559450D01*
X254650Y554150D02*
Y559450D01*
X349500Y431250D02*
Y462000D01*
X333500Y431250D02*
Y462000D01*
X338800Y445100D02*
X344100D01*
X338800Y447900D02*
X344100D01*
X237750Y366750D02*
Y397500D01*
X253750Y366750D02*
Y397500D01*
X243150Y383650D02*
X248450D01*
X243150Y380850D02*
X248450D01*
X35500Y387500D02*
X66250D01*
X35500Y371500D02*
X66250D01*
X52400Y376800D02*
Y382100D01*
X49600Y376800D02*
Y382100D01*
X75000Y591250D02*
Y622000D01*
X59000Y591250D02*
Y622000D01*
X64300Y605100D02*
X69600D01*
X64300Y607900D02*
X69600D01*
X116750Y591500D02*
Y622250D01*
X132750Y591500D02*
Y622250D01*
X122150Y608400D02*
X127450D01*
X122150Y605600D02*
X127450D01*
X99750Y591250D02*
Y622000D01*
X115750Y591250D02*
Y622000D01*
X105150Y608150D02*
X110450D01*
X105150Y605350D02*
X110450D01*
X192500Y389000D02*
X228500D01*
X192500Y369000D02*
X228500D01*
X212500Y374900D02*
Y383000D01*
X208500Y375000D02*
Y383000D01*
X130750Y825000D02*
Y855750D01*
X146750Y825000D02*
Y855750D01*
X136150Y841900D02*
X141450D01*
X136150Y839100D02*
X141450D01*
X37250Y757750D02*
X68000D01*
X37250Y741750D02*
X68000D01*
X54150Y747050D02*
Y752350D01*
X51350Y747050D02*
Y752350D01*
X38000Y411750D02*
X46000D01*
X38000Y415750D02*
X46100D01*
X52000Y395750D02*
Y431750D01*
X32000Y395750D02*
Y431750D01*
D13*
X385164Y391850D02*
G03*
X385164Y391850I-1414J0D01*
G01*
X520250Y365750D02*
X538250Y383750D01*
Y468750D01*
X435250Y383750D02*
Y468750D01*
Y383750D02*
X453250Y365750D01*
X471050D01*
X502450D02*
X520250D01*
X435250Y468750D02*
X471050D01*
X502450D02*
X538250D01*
X304250Y218650D02*
Y223850D01*
X331250Y218650D02*
Y223850D01*
X345250Y201850D02*
Y398350D01*
Y201850D02*
X405250D01*
Y398350D01*
X345250D02*
X405250D01*
X554500Y745250D02*
X572500Y727250D01*
X469500Y745250D02*
X554500D01*
X469500Y642250D02*
X554500D01*
X572500Y660250D01*
Y678050D01*
Y709450D02*
Y727250D01*
X469500Y642250D02*
Y678050D01*
Y709450D02*
Y745250D01*
X588750Y34320D02*
X666130D01*
Y107280D01*
X588750D02*
X666130D01*
X588750Y34320D02*
Y107280D01*
X161850Y1069850D02*
X320650D01*
X161850Y1049850D02*
Y1069850D01*
Y920750D02*
Y1049850D01*
Y900750D02*
Y920750D01*
X320650Y900750D02*
Y920750D01*
Y1049850D01*
Y1069850D01*
Y920750D02*
X332050D01*
Y1049850D01*
X320650D02*
X332050D01*
X150450Y920750D02*
X161850D01*
X150450D02*
Y1049850D01*
X161850D01*
X292050Y900750D02*
X320650D01*
X161850D02*
X190450D01*
X190210Y900740D02*
X291910D01*
X190210D02*
Y900760D01*
X271000Y226750D02*
Y301750D01*
X168000Y226750D02*
Y301750D01*
X541000Y851250D02*
X576000D01*
X541000Y838850D02*
Y851250D01*
Y786250D02*
X576000D01*
X541000D02*
Y798650D01*
X570450Y431550D02*
X639050D01*
X570450Y489950D02*
X639050D01*
X210850Y550500D02*
X216250D01*
X76250D02*
X81650D01*
X210850Y410500D02*
X216250D01*
X76250D02*
X81650D01*
X216250Y545100D02*
Y550500D01*
X76250Y545100D02*
Y550500D01*
X216250Y410500D02*
Y415900D01*
X76250Y410500D02*
Y415900D01*
X130950Y760220D02*
Y764240D01*
X130890Y760160D02*
X130950Y760220D01*
X126930Y760160D02*
X130890D01*
X130980Y796240D02*
Y800200D01*
X126900Y800260D02*
X130920D01*
X90900Y760230D02*
Y764190D01*
X90960Y760170D02*
X94980D01*
X90970Y800280D02*
X94930D01*
X90910Y796200D02*
Y800220D01*
D14*
X342700Y940250D02*
G03*
X342700Y940250I-2000J0D01*
G01*
D15*
X649430Y434080D02*
G03*
X649430Y434080I-1500J0D01*
G01*
D16*
X373750Y951250D02*
G03*
X373750Y951250I-3000J0D01*
G01*
X482250D02*
G03*
X482250Y951250I-3000J0D01*
G01*
D17*
X0Y175000D02*
X702500D01*
D18*
X146864Y601488D02*
Y624602D01*
Y601488D02*
X181916D01*
Y643398D01*
X164644D02*
X181916D01*
X146864Y636540D02*
Y643398D01*
X154230D01*
X82386Y846148D02*
Y869262D01*
X47334D02*
X82386D01*
X47334Y827352D02*
Y869262D01*
Y827352D02*
X64606D01*
X82386D02*
Y834210D01*
X75020Y827352D02*
X82386D01*
X320040Y571788D02*
X326704D01*
X323372Y575121D02*
Y568456D01*
X330037Y575121D02*
X331703Y576787D01*
X335035D01*
X336701Y575121D01*
Y573455D01*
X335035Y571788D01*
X333369D01*
X335035D01*
X336701Y570122D01*
Y568456D01*
X335035Y566790D01*
X331703D01*
X330037Y568456D01*
X340034Y573455D02*
X343366Y566790D01*
X346698Y573455D01*
X322540Y675040D02*
Y685037D01*
X327538D01*
X329204Y683371D01*
Y680038D01*
X327538Y678372D01*
X322540D01*
X325872D02*
X329204Y675040D01*
X556290Y915287D02*
X562954D01*
Y913621D01*
X556290Y906956D01*
Y905290D01*
X536204Y915537D02*
X532872Y913871D01*
X529540Y910538D01*
Y907206D01*
X531206Y905540D01*
X534538D01*
X536204Y907206D01*
Y908872D01*
X534538Y910538D01*
X529540D01*
X508038Y905540D02*
Y915537D01*
X503040Y910538D01*
X509705D01*
X484954Y915787D02*
X478290D01*
Y910788D01*
X481622Y912455D01*
X483288D01*
X484954Y910788D01*
Y907456D01*
X483288Y905790D01*
X479956D01*
X478290Y907456D01*
X445040Y913871D02*
X446706Y915537D01*
X450038D01*
X451704Y913871D01*
Y912205D01*
X450038Y910538D01*
X448372D01*
X450038D01*
X451704Y908872D01*
Y907206D01*
X450038Y905540D01*
X446706D01*
X445040Y907206D01*
X426954Y905540D02*
X420290D01*
X426954Y912205D01*
Y913871D01*
X425288Y915537D01*
X421956D01*
X420290Y913871D01*
X395540Y905540D02*
X398872D01*
X397206D01*
Y915537D01*
X395540Y913871D01*
X368540D02*
X370206Y915537D01*
X373538D01*
X375205Y913871D01*
Y907206D01*
X373538Y905540D01*
X370206D01*
X368540Y907206D01*
Y913871D01*
X349204Y726621D02*
X347538Y728287D01*
X344206D01*
X342540Y726621D01*
Y719956D01*
X344206Y718290D01*
X347538D01*
X349204Y719956D01*
Y723288D01*
X345872D01*
X372530Y718290D02*
Y728287D01*
X377529D01*
X379195Y726621D01*
Y723288D01*
X377529Y721622D01*
X372530D01*
X375863D02*
X379195Y718290D01*
X392524Y723288D02*
X399188D01*
X395856Y726621D02*
Y719956D01*
X402521Y726621D02*
X404187Y728287D01*
X407519D01*
X409185Y726621D01*
Y724955D01*
X407519Y723288D01*
X405853D01*
X407519D01*
X409185Y721622D01*
Y719956D01*
X407519Y718290D01*
X404187D01*
X402521Y719956D01*
X412518Y718290D02*
Y719956D01*
X414184D01*
Y718290D01*
X412518D01*
X420848Y726621D02*
X422514Y728287D01*
X425846D01*
X427513Y726621D01*
Y724955D01*
X425846Y723288D01*
X424180D01*
X425846D01*
X427513Y721622D01*
Y719956D01*
X425846Y718290D01*
X422514D01*
X420848Y719956D01*
X51290Y292787D02*
X57955D01*
X54622D01*
Y282790D01*
X61287Y292787D02*
X67951Y282790D01*
Y292787D02*
X61287Y282790D01*
X97942Y291121D02*
X96276Y292787D01*
X92943D01*
X91277Y291121D01*
Y284456D01*
X92943Y282790D01*
X96276D01*
X97942Y284456D01*
Y287788D01*
X94609D01*
X121267Y282790D02*
Y292787D01*
X126266D01*
X127932Y291121D01*
Y287788D01*
X126266Y286122D01*
X121267D01*
X124600D02*
X127932Y282790D01*
X131264Y292787D02*
X137929Y282790D01*
Y292787D02*
X131264Y282790D01*
X388290Y531037D02*
Y521040D01*
X393288D01*
X394954Y522706D01*
Y524372D01*
Y526038D01*
X393288Y527705D01*
X388290D01*
X399953D02*
X403285D01*
X404951Y526038D01*
Y521040D01*
X399953D01*
X398287Y522706D01*
X399953Y524372D01*
X404951D01*
X409950Y529371D02*
Y527705D01*
X408284D01*
X411616D01*
X409950D01*
Y522706D01*
X411616Y521040D01*
X426611Y526038D02*
X433275D01*
X429943Y529371D02*
Y522706D01*
X605454Y132621D02*
X603788Y134287D01*
X600456D01*
X598790Y132621D01*
Y125956D01*
X600456Y124290D01*
X603788D01*
X605454Y125956D01*
Y129288D01*
X602122D01*
X628780D02*
X635445D01*
X632113Y132621D02*
Y125956D01*
X645442Y124290D02*
X638777D01*
X645442Y130955D01*
Y132621D01*
X643775Y134287D01*
X640443D01*
X638777Y132621D01*
X653772Y124290D02*
Y134287D01*
X648774Y129288D01*
X655438D01*
X195290Y16956D02*
Y23621D01*
X198622Y26953D01*
X201954Y23621D01*
Y16956D01*
Y21955D01*
X195290D01*
X225280Y26953D02*
Y16956D01*
X230279D01*
X231945Y18622D01*
Y20288D01*
X230279Y21955D01*
X225280D01*
X230279D01*
X231945Y23621D01*
Y25287D01*
X230279Y26953D01*
X225280D01*
X261935Y25287D02*
X260269Y26953D01*
X256937D01*
X255271Y25287D01*
Y18622D01*
X256937Y16956D01*
X260269D01*
X261935Y18622D01*
Y21955D01*
X258603D01*
X265268Y15290D02*
X271932D01*
X275264Y16956D02*
X278596D01*
X276930D01*
Y23621D01*
X275264D01*
X283595Y16956D02*
X288593D01*
X290259Y18622D01*
X288593Y20288D01*
X285261D01*
X283595Y21955D01*
X285261Y23621D01*
X290259D01*
X295258Y16956D02*
X298590D01*
X300256Y18622D01*
Y21955D01*
X298590Y23621D01*
X295258D01*
X293592Y21955D01*
Y18622D01*
X295258Y16956D01*
X335290Y26787D02*
X341954D01*
X338622D01*
Y16790D01*
X350285D02*
X346953D01*
X345287Y18456D01*
Y21788D01*
X346953Y23454D01*
X350285D01*
X351951Y21788D01*
Y20122D01*
X345287D01*
X355284Y23454D02*
Y16790D01*
Y20122D01*
X356950Y21788D01*
X358616Y23454D01*
X360282D01*
X365280Y16790D02*
Y23454D01*
X366946D01*
X368613Y21788D01*
Y16790D01*
Y21788D01*
X370279Y23454D01*
X371945Y21788D01*
Y16790D01*
X375277D02*
X378609D01*
X376943D01*
Y23454D01*
X375277D01*
X383608Y16790D02*
Y23454D01*
X388606D01*
X390272Y21788D01*
Y16790D01*
X395271Y23454D02*
X398603D01*
X400269Y21788D01*
Y16790D01*
X395271D01*
X393605Y18456D01*
X395271Y20122D01*
X400269D01*
X405267Y25121D02*
Y23454D01*
X403601D01*
X406934D01*
X405267D01*
Y18456D01*
X406934Y16790D01*
X413598D02*
X416930D01*
X418596Y18456D01*
Y21788D01*
X416930Y23454D01*
X413598D01*
X411932Y21788D01*
Y18456D01*
X413598Y16790D01*
X421929Y23454D02*
Y16790D01*
Y20122D01*
X423595Y21788D01*
X425261Y23454D01*
X426927D01*
D19*
X669770Y501000D02*
Y527900D01*
Y501000D02*
X670000D01*
X669770Y604100D02*
Y631000D01*
X670000D01*
X540230Y501000D02*
Y527900D01*
X540000Y501000D02*
X540230D01*
Y604100D02*
Y631000D01*
X540000D02*
X540230D01*
X540000D02*
X540230D01*
D20*
X540000Y501000D02*
X670000D01*
X540000Y631000D02*
X670000D01*
D21*
X116250Y666250D02*
D03*
D22*
X367750Y857251D02*
D03*
M02*
