G04*
G04 #@! TF.GenerationSoftware,Altium Limited,Altium Designer,20.0.13 (296)*
G04*
G04 Layer_Color=16711935*
%FSLAX44Y44*%
%MOMM*%
G71*
G01*
G75*
%ADD57R,1.9200X1.4700*%
%ADD91C,1.7200*%
%ADD92R,1.7200X1.7200*%
%ADD93C,1.7032*%
%ADD94R,1.7032X1.7032*%
%ADD95R,1.7200X1.7200*%
%ADD96C,1.8032*%
%ADD97R,1.8032X1.8032*%
%ADD98O,2.1336X4.0640*%
%ADD99R,1.6012X1.6012*%
%ADD100C,3.4532*%
%ADD101C,1.6012*%
%ADD102C,1.5200*%
%ADD103R,1.5200X1.5200*%
%ADD104R,1.5200X1.5200*%
%ADD105C,0.9032*%
D57*
X668250Y839500D02*
D03*
Y810000D02*
D03*
D91*
X367000Y525500D02*
D03*
Y550900D02*
D03*
X377500Y697250D02*
D03*
X352100D02*
D03*
X93750Y314250D02*
D03*
X68350D02*
D03*
X381850Y46250D02*
D03*
X356450D02*
D03*
D92*
X367000Y500100D02*
D03*
D93*
X83100Y1037000D02*
D03*
X108500D02*
D03*
X83100Y986200D02*
D03*
X108500D02*
D03*
X83100Y960800D02*
D03*
X108500D02*
D03*
X83100Y935400D02*
D03*
X108500Y1011600D02*
D03*
X83100D02*
D03*
X638900Y935400D02*
D03*
X613500D02*
D03*
X638900Y986200D02*
D03*
X613500D02*
D03*
X638900Y1011600D02*
D03*
X613500D02*
D03*
X638900Y1037000D02*
D03*
X613500Y960800D02*
D03*
X638900D02*
D03*
X298750Y573700D02*
D03*
Y599100D02*
D03*
Y624500D02*
D03*
Y649900D02*
D03*
X399550Y929650D02*
D03*
X424950D02*
D03*
X450350D02*
D03*
X374150Y1005850D02*
D03*
X399550D02*
D03*
X424950D02*
D03*
X450350D02*
D03*
X508050Y929650D02*
D03*
X533450D02*
D03*
X558850D02*
D03*
X482650Y1005850D02*
D03*
X508050D02*
D03*
X533450D02*
D03*
X558850D02*
D03*
D94*
X108500Y935400D02*
D03*
X613500Y1037000D02*
D03*
X298750Y675300D02*
D03*
X374150Y929650D02*
D03*
X482650D02*
D03*
D95*
X402900Y697250D02*
D03*
X119150Y314250D02*
D03*
X407250Y46250D02*
D03*
D96*
X392750Y224450D02*
D03*
Y249850D02*
D03*
Y275250D02*
D03*
Y300650D02*
D03*
Y351450D02*
D03*
D97*
Y376850D02*
D03*
D98*
X199750Y75360D02*
D03*
X234750D02*
D03*
X269750D02*
D03*
X610250Y76230D02*
D03*
X645250D02*
D03*
D99*
X285700Y940250D02*
D03*
D100*
X298400Y1003750D02*
D03*
X184100D02*
D03*
D101*
X273000Y914850D02*
D03*
X260300Y940250D02*
D03*
X247600Y914850D02*
D03*
X234900Y940250D02*
D03*
X222200Y914850D02*
D03*
X209500Y940250D02*
D03*
X196800Y914850D02*
D03*
D102*
X462000Y297250D02*
D03*
X643000Y670000D02*
D03*
D103*
X512000Y297250D02*
D03*
D104*
X643000Y720000D02*
D03*
D105*
X421250Y98250D02*
D03*
X242000Y411000D02*
D03*
M02*
