G04*
G04 #@! TF.GenerationSoftware,Altium Limited,Altium Designer,20.0.13 (296)*
G04*
G04 Layer_Physical_Order=2*
G04 Layer_Color=36540*
%FSLAX44Y44*%
%MOMM*%
G71*
G01*
G75*
%ADD10C,0.2000*%
%ADD12C,0.2500*%
%ADD18C,0.3000*%
%ADD109O,1.9304X3.8608*%
%ADD110R,1.5000X1.5000*%
%ADD111C,1.5000*%
%ADD112C,1.6000*%
%ADD116C,1.3980*%
%ADD117C,1.4000*%
%ADD120C,0.8000*%
%ADD121C,0.7000*%
G36*
X698931Y3569D02*
X478289D01*
Y194250D01*
X478134Y195030D01*
X477692Y195692D01*
X420289Y253095D01*
Y328000D01*
X420134Y328780D01*
X419692Y329442D01*
X419030Y329884D01*
X418250Y330039D01*
X359750D01*
X359750Y330039D01*
X358970Y329884D01*
X358308Y329442D01*
X358308Y329442D01*
X301905Y273039D01*
X156000D01*
X155220Y272884D01*
X154558Y272442D01*
X144058Y261942D01*
X143616Y261280D01*
X143461Y260500D01*
Y3569D01*
X3569D01*
Y1076432D01*
X698931D01*
X698931Y3569D01*
D02*
G37*
G36*
X418250Y252250D02*
X476250Y194250D01*
Y3569D01*
X145500D01*
Y260500D01*
X156000Y271000D01*
X302750D01*
X359750Y328000D01*
X418250D01*
Y252250D01*
D02*
G37*
%LPC*%
G36*
X326750Y1050309D02*
X326750Y1050309D01*
X158250D01*
X158250Y1050309D01*
X157079Y1050076D01*
X156087Y1049413D01*
X156087Y1049413D01*
X108733Y1002059D01*
X106144D01*
X105713Y1003329D01*
X107161Y1004439D01*
X108770Y1006537D01*
X109782Y1008979D01*
X109959Y1010330D01*
X100000D01*
X90041D01*
X90218Y1008979D01*
X91230Y1006537D01*
X92839Y1004439D01*
X94287Y1003329D01*
X93856Y1002059D01*
X86500D01*
X85330Y1001826D01*
X84337Y1001163D01*
X78176Y995002D01*
X77080Y995455D01*
X74600Y995782D01*
X72120Y995455D01*
X69809Y994498D01*
X67825Y992975D01*
X66302Y990991D01*
X65345Y988680D01*
X65018Y986200D01*
X65345Y983720D01*
X66302Y981409D01*
X67825Y979425D01*
X69809Y977902D01*
X72120Y976945D01*
X74600Y976618D01*
X77080Y976945D01*
X79391Y977902D01*
X81376Y979425D01*
X82898Y981409D01*
X83855Y983720D01*
X84182Y986200D01*
X83855Y988680D01*
X82898Y990991D01*
X82863Y991037D01*
X87767Y995941D01*
X95374D01*
X95627Y994671D01*
X95209Y994498D01*
X93225Y992975D01*
X91702Y990991D01*
X90744Y988680D01*
X90418Y986200D01*
X90744Y983720D01*
X91702Y981409D01*
X93225Y979425D01*
X95209Y977902D01*
X97520Y976945D01*
X100000Y976618D01*
X102480Y976945D01*
X104791Y977902D01*
X106776Y979425D01*
X108298Y981409D01*
X109016Y983141D01*
X113450D01*
X113450Y983141D01*
X114621Y983374D01*
X115613Y984037D01*
X165767Y1034191D01*
X313233D01*
X324691Y1022733D01*
Y999250D01*
X324691Y999250D01*
X324924Y998080D01*
X325587Y997087D01*
X338637Y984037D01*
X338637Y984037D01*
X339629Y983374D01*
X340800Y983141D01*
X604484D01*
X604962Y981988D01*
X571337Y948363D01*
X570674Y947371D01*
X570441Y946200D01*
X570441Y946200D01*
Y930571D01*
X569535Y929965D01*
X568929Y929059D01*
X485000D01*
X485000Y929059D01*
X483829Y928826D01*
X482837Y928163D01*
X432337Y877663D01*
X431674Y876671D01*
X431441Y875500D01*
X431441Y875500D01*
Y636267D01*
X418337Y623163D01*
X417674Y622170D01*
X417441Y621000D01*
X417441Y621000D01*
Y599321D01*
X416535Y598715D01*
X415319Y596896D01*
X414892Y594750D01*
X415319Y592604D01*
X416535Y590785D01*
X418354Y589569D01*
X420500Y589142D01*
X422646Y589569D01*
X424465Y590785D01*
X425681Y592604D01*
X426108Y594750D01*
X425681Y596896D01*
X424465Y598715D01*
X423559Y599321D01*
Y619733D01*
X436663Y632837D01*
X436663Y632837D01*
X437326Y633829D01*
X437559Y635000D01*
X437559Y635000D01*
Y874233D01*
X486267Y922941D01*
X568929D01*
X569535Y922035D01*
X571354Y920819D01*
X573500Y920392D01*
X575646Y920819D01*
X577465Y922035D01*
X578681Y923854D01*
X579108Y926000D01*
X578681Y928146D01*
X577465Y929965D01*
X576559Y930571D01*
Y944933D01*
X609288Y977662D01*
X611020Y976945D01*
X613500Y976618D01*
X615980Y976945D01*
X618291Y977902D01*
X620275Y979425D01*
X621798Y981409D01*
X622755Y983720D01*
X623082Y986200D01*
X622755Y988680D01*
X621798Y990991D01*
X620275Y992975D01*
X618391Y994421D01*
X618389Y994562D01*
X619214Y995691D01*
X625083D01*
X630362Y990412D01*
X629645Y988680D01*
X629318Y986200D01*
X629645Y983720D01*
X630602Y981409D01*
X632124Y979425D01*
X634109Y977902D01*
X636420Y976945D01*
X638900Y976618D01*
X641380Y976945D01*
X643112Y977662D01*
X654941Y965833D01*
Y923767D01*
X647483Y916309D01*
X570821D01*
X570215Y917215D01*
X568396Y918431D01*
X566250Y918858D01*
X564104Y918431D01*
X562285Y917215D01*
X561679Y916309D01*
X485750D01*
X484579Y916076D01*
X483587Y915413D01*
X444837Y876663D01*
X444174Y875670D01*
X443941Y874500D01*
X443941Y874500D01*
Y629267D01*
X435337Y620663D01*
X434674Y619670D01*
X434441Y618500D01*
X434441Y618500D01*
Y599571D01*
X433535Y598965D01*
X432319Y597146D01*
X431892Y595000D01*
X432319Y592854D01*
X433535Y591035D01*
X435354Y589819D01*
X437500Y589392D01*
X439646Y589819D01*
X441465Y591035D01*
X442681Y592854D01*
X443108Y595000D01*
X442681Y597146D01*
X441465Y598965D01*
X440559Y599571D01*
Y617233D01*
X449163Y625837D01*
X449163Y625837D01*
X449826Y626829D01*
X450059Y628000D01*
Y873233D01*
X466691Y889865D01*
X467961Y889339D01*
Y867000D01*
X468116Y866220D01*
X468558Y865558D01*
X469220Y865116D01*
X470000Y864961D01*
X508250D01*
X509030Y865116D01*
X509692Y865558D01*
X510134Y866220D01*
X510289Y867000D01*
Y891000D01*
X510134Y891780D01*
X509692Y892442D01*
X509030Y892884D01*
X508250Y893039D01*
X471661D01*
X471135Y894309D01*
X487017Y910191D01*
X561679D01*
X562285Y909285D01*
X564104Y908069D01*
X566250Y907642D01*
X568396Y908069D01*
X570215Y909285D01*
X570821Y910191D01*
X648750D01*
X648750Y910191D01*
X649921Y910424D01*
X650913Y911087D01*
X660163Y920337D01*
X660163Y920337D01*
X660826Y921329D01*
X661059Y922500D01*
X661059Y922500D01*
Y967100D01*
X661059Y967100D01*
X660826Y968270D01*
X660163Y969263D01*
X647438Y981988D01*
X648155Y983720D01*
X648482Y986200D01*
X648155Y988680D01*
X647198Y990991D01*
X645675Y992975D01*
X643691Y994498D01*
X641380Y995455D01*
X638900Y995782D01*
X636420Y995455D01*
X634688Y994738D01*
X628513Y1000913D01*
X627520Y1001576D01*
X626350Y1001809D01*
X626350Y1001809D01*
X619285D01*
X618887Y1003079D01*
X620661Y1004439D01*
X622270Y1006537D01*
X623282Y1008979D01*
X623459Y1010330D01*
X613500D01*
X603540D01*
X603718Y1008979D01*
X604730Y1006537D01*
X606339Y1004439D01*
X608112Y1003079D01*
X607715Y1001809D01*
X348267D01*
X343309Y1006767D01*
Y1033750D01*
X343309Y1033750D01*
X343076Y1034921D01*
X342413Y1035913D01*
X328913Y1049413D01*
X327920Y1050076D01*
X326750Y1050309D01*
D02*
G37*
G36*
X623000Y1046500D02*
X604000D01*
Y1027500D01*
X623000D01*
Y1046500D01*
D02*
G37*
G36*
X638900Y1046582D02*
X636420Y1046255D01*
X634109Y1045298D01*
X632124Y1043775D01*
X630602Y1041791D01*
X629645Y1039480D01*
X629318Y1037000D01*
X629645Y1034520D01*
X630602Y1032209D01*
X632124Y1030225D01*
X634109Y1028702D01*
X636420Y1027745D01*
X638900Y1027418D01*
X641380Y1027745D01*
X643691Y1028702D01*
X645675Y1030225D01*
X647198Y1032209D01*
X648155Y1034520D01*
X648482Y1037000D01*
X648155Y1039480D01*
X647198Y1041791D01*
X645675Y1043775D01*
X643691Y1045298D01*
X641380Y1046255D01*
X638900Y1046582D01*
D02*
G37*
G36*
X100000D02*
X97520Y1046255D01*
X95209Y1045298D01*
X93225Y1043775D01*
X91702Y1041791D01*
X90744Y1039480D01*
X90418Y1037000D01*
X90744Y1034520D01*
X91702Y1032209D01*
X93225Y1030225D01*
X95209Y1028702D01*
X97520Y1027745D01*
X100000Y1027418D01*
X102480Y1027745D01*
X104791Y1028702D01*
X106776Y1030225D01*
X108298Y1032209D01*
X109256Y1034520D01*
X109582Y1037000D01*
X109256Y1039480D01*
X108298Y1041791D01*
X106776Y1043775D01*
X104791Y1045298D01*
X102480Y1046255D01*
X100000Y1046582D01*
D02*
G37*
G36*
X74600D02*
X72120Y1046255D01*
X69809Y1045298D01*
X67825Y1043775D01*
X66302Y1041791D01*
X65345Y1039480D01*
X65018Y1037000D01*
X65345Y1034520D01*
X66302Y1032209D01*
X67825Y1030225D01*
X69809Y1028702D01*
X72120Y1027745D01*
X74600Y1027418D01*
X77080Y1027745D01*
X79391Y1028702D01*
X81376Y1030225D01*
X82898Y1032209D01*
X83855Y1034520D01*
X84182Y1037000D01*
X83855Y1039480D01*
X82898Y1041791D01*
X81376Y1043775D01*
X79391Y1045298D01*
X77080Y1046255D01*
X74600Y1046582D01*
D02*
G37*
G36*
X554600Y1033182D02*
X552120Y1032856D01*
X549809Y1031898D01*
X547824Y1030376D01*
X546302Y1028391D01*
X545344Y1026080D01*
X545018Y1023600D01*
X545344Y1021120D01*
X546302Y1018809D01*
X547824Y1016825D01*
X549809Y1015302D01*
X552120Y1014345D01*
X554600Y1014018D01*
X557080Y1014345D01*
X559391Y1015302D01*
X561375Y1016825D01*
X562898Y1018809D01*
X563855Y1021120D01*
X564182Y1023600D01*
X563855Y1026080D01*
X562898Y1028391D01*
X561375Y1030376D01*
X559391Y1031898D01*
X557080Y1032856D01*
X554600Y1033182D01*
D02*
G37*
G36*
X529200D02*
X526720Y1032856D01*
X524409Y1031898D01*
X522424Y1030376D01*
X520902Y1028391D01*
X519944Y1026080D01*
X519618Y1023600D01*
X519944Y1021120D01*
X520902Y1018809D01*
X522424Y1016825D01*
X524409Y1015302D01*
X526720Y1014345D01*
X529200Y1014018D01*
X531680Y1014345D01*
X533991Y1015302D01*
X535975Y1016825D01*
X537498Y1018809D01*
X538455Y1021120D01*
X538782Y1023600D01*
X538455Y1026080D01*
X537498Y1028391D01*
X535975Y1030376D01*
X533991Y1031898D01*
X531680Y1032856D01*
X529200Y1033182D01*
D02*
G37*
G36*
X503800D02*
X501320Y1032856D01*
X499009Y1031898D01*
X497024Y1030376D01*
X495502Y1028391D01*
X494544Y1026080D01*
X494218Y1023600D01*
X494544Y1021120D01*
X495502Y1018809D01*
X497024Y1016825D01*
X499009Y1015302D01*
X501320Y1014345D01*
X503800Y1014018D01*
X506280Y1014345D01*
X508591Y1015302D01*
X510575Y1016825D01*
X512098Y1018809D01*
X513055Y1021120D01*
X513382Y1023600D01*
X513055Y1026080D01*
X512098Y1028391D01*
X510575Y1030376D01*
X508591Y1031898D01*
X506280Y1032856D01*
X503800Y1033182D01*
D02*
G37*
G36*
X478400D02*
X475920Y1032856D01*
X473609Y1031898D01*
X471624Y1030376D01*
X470102Y1028391D01*
X469144Y1026080D01*
X468818Y1023600D01*
X469144Y1021120D01*
X470102Y1018809D01*
X471624Y1016825D01*
X473609Y1015302D01*
X475920Y1014345D01*
X478400Y1014018D01*
X480880Y1014345D01*
X483191Y1015302D01*
X485175Y1016825D01*
X486698Y1018809D01*
X487655Y1021120D01*
X487982Y1023600D01*
X487655Y1026080D01*
X486698Y1028391D01*
X485175Y1030376D01*
X483191Y1031898D01*
X480880Y1032856D01*
X478400Y1033182D01*
D02*
G37*
G36*
X438400D02*
X435920Y1032856D01*
X433609Y1031898D01*
X431625Y1030376D01*
X430102Y1028391D01*
X429145Y1026080D01*
X428818Y1023600D01*
X429145Y1021120D01*
X430102Y1018809D01*
X431625Y1016825D01*
X433609Y1015302D01*
X435920Y1014345D01*
X438400Y1014018D01*
X440880Y1014345D01*
X443191Y1015302D01*
X445176Y1016825D01*
X446698Y1018809D01*
X447655Y1021120D01*
X447982Y1023600D01*
X447655Y1026080D01*
X446698Y1028391D01*
X445176Y1030376D01*
X443191Y1031898D01*
X440880Y1032856D01*
X438400Y1033182D01*
D02*
G37*
G36*
X413000D02*
X410520Y1032856D01*
X408209Y1031898D01*
X406225Y1030376D01*
X404702Y1028391D01*
X403745Y1026080D01*
X403418Y1023600D01*
X403745Y1021120D01*
X404702Y1018809D01*
X406225Y1016825D01*
X408209Y1015302D01*
X410520Y1014345D01*
X413000Y1014018D01*
X415480Y1014345D01*
X417791Y1015302D01*
X419776Y1016825D01*
X421298Y1018809D01*
X422256Y1021120D01*
X422582Y1023600D01*
X422256Y1026080D01*
X421298Y1028391D01*
X419776Y1030376D01*
X417791Y1031898D01*
X415480Y1032856D01*
X413000Y1033182D01*
D02*
G37*
G36*
X387600D02*
X385120Y1032856D01*
X382809Y1031898D01*
X380825Y1030376D01*
X379302Y1028391D01*
X378345Y1026080D01*
X378018Y1023600D01*
X378345Y1021120D01*
X379302Y1018809D01*
X380825Y1016825D01*
X382809Y1015302D01*
X385120Y1014345D01*
X387600Y1014018D01*
X390080Y1014345D01*
X392391Y1015302D01*
X394375Y1016825D01*
X395898Y1018809D01*
X396856Y1021120D01*
X397182Y1023600D01*
X396856Y1026080D01*
X395898Y1028391D01*
X394375Y1030376D01*
X392391Y1031898D01*
X390080Y1032856D01*
X387600Y1033182D01*
D02*
G37*
G36*
X362200D02*
X359720Y1032856D01*
X357409Y1031898D01*
X355425Y1030376D01*
X353902Y1028391D01*
X352945Y1026080D01*
X352618Y1023600D01*
X352945Y1021120D01*
X353902Y1018809D01*
X355425Y1016825D01*
X357409Y1015302D01*
X359720Y1014345D01*
X362200Y1014018D01*
X364680Y1014345D01*
X366991Y1015302D01*
X368975Y1016825D01*
X370498Y1018809D01*
X371455Y1021120D01*
X371782Y1023600D01*
X371455Y1026080D01*
X370498Y1028391D01*
X368975Y1030376D01*
X366991Y1031898D01*
X364680Y1032856D01*
X362200Y1033182D01*
D02*
G37*
G36*
X614770Y1021559D02*
Y1012870D01*
X623459D01*
X623282Y1014221D01*
X622270Y1016663D01*
X620661Y1018761D01*
X618563Y1020370D01*
X616121Y1021382D01*
X614770Y1021559D01*
D02*
G37*
G36*
X612230D02*
X610879Y1021382D01*
X608437Y1020370D01*
X606339Y1018761D01*
X604730Y1016663D01*
X603718Y1014221D01*
X603540Y1012870D01*
X612230D01*
Y1021559D01*
D02*
G37*
G36*
X101270D02*
Y1012870D01*
X109959D01*
X109782Y1014221D01*
X108770Y1016663D01*
X107161Y1018761D01*
X105063Y1020370D01*
X102621Y1021382D01*
X101270Y1021559D01*
D02*
G37*
G36*
X98730Y1021560D02*
X97379Y1021382D01*
X94937Y1020370D01*
X92839Y1018761D01*
X91230Y1016663D01*
X90218Y1014221D01*
X90041Y1012870D01*
X98730D01*
Y1021560D01*
D02*
G37*
G36*
X638900Y1021182D02*
X636420Y1020855D01*
X634109Y1019898D01*
X632124Y1018375D01*
X630602Y1016391D01*
X629645Y1014080D01*
X629318Y1011600D01*
X629645Y1009120D01*
X630602Y1006809D01*
X632124Y1004825D01*
X634109Y1003302D01*
X636420Y1002345D01*
X638900Y1002018D01*
X641380Y1002345D01*
X643691Y1003302D01*
X645675Y1004825D01*
X647198Y1006809D01*
X648155Y1009120D01*
X648482Y1011600D01*
X648155Y1014080D01*
X647198Y1016391D01*
X645675Y1018375D01*
X643691Y1019898D01*
X641380Y1020855D01*
X638900Y1021182D01*
D02*
G37*
G36*
X74600D02*
X72120Y1020855D01*
X69809Y1019898D01*
X67825Y1018375D01*
X66302Y1016391D01*
X65345Y1014080D01*
X65018Y1011600D01*
X65345Y1009120D01*
X66302Y1006809D01*
X67825Y1004825D01*
X69809Y1003302D01*
X72120Y1002345D01*
X74600Y1002018D01*
X77080Y1002345D01*
X79391Y1003302D01*
X81376Y1004825D01*
X82898Y1006809D01*
X83855Y1009120D01*
X84182Y1011600D01*
X83855Y1014080D01*
X82898Y1016391D01*
X81376Y1018375D01*
X79391Y1019898D01*
X77080Y1020855D01*
X74600Y1021182D01*
D02*
G37*
G36*
X298400Y1022088D02*
X294822Y1021736D01*
X291382Y1020692D01*
X288212Y1018998D01*
X285433Y1016717D01*
X283152Y1013938D01*
X281458Y1010768D01*
X280414Y1007328D01*
X280062Y1003750D01*
X280414Y1000172D01*
X281458Y996732D01*
X283152Y993562D01*
X285433Y990783D01*
X288212Y988502D01*
X291382Y986808D01*
X294822Y985764D01*
X298400Y985412D01*
X301978Y985764D01*
X305418Y986808D01*
X308588Y988502D01*
X311367Y990783D01*
X313648Y993562D01*
X315342Y996732D01*
X316386Y1000172D01*
X316738Y1003750D01*
X316386Y1007328D01*
X315342Y1010768D01*
X313648Y1013938D01*
X311367Y1016717D01*
X308588Y1018998D01*
X305418Y1020692D01*
X301978Y1021736D01*
X298400Y1022088D01*
D02*
G37*
G36*
X184100D02*
X180522Y1021736D01*
X177082Y1020692D01*
X173912Y1018998D01*
X171133Y1016717D01*
X168852Y1013938D01*
X167158Y1010768D01*
X166114Y1007328D01*
X165762Y1003750D01*
X166114Y1000172D01*
X167158Y996732D01*
X168852Y993562D01*
X171133Y990783D01*
X173912Y988502D01*
X177082Y986808D01*
X180522Y985764D01*
X184100Y985412D01*
X187678Y985764D01*
X191118Y986808D01*
X194288Y988502D01*
X197067Y990783D01*
X199348Y993562D01*
X201042Y996732D01*
X202086Y1000172D01*
X202438Y1003750D01*
X202086Y1007328D01*
X201042Y1010768D01*
X199348Y1013938D01*
X197067Y1016717D01*
X194288Y1018998D01*
X191118Y1020692D01*
X187678Y1021736D01*
X184100Y1022088D01*
D02*
G37*
G36*
X614770Y970759D02*
Y962070D01*
X623459D01*
X623282Y963421D01*
X622270Y965863D01*
X620661Y967961D01*
X618563Y969570D01*
X616121Y970582D01*
X614770Y970759D01*
D02*
G37*
G36*
X612230D02*
X610879Y970582D01*
X608437Y969570D01*
X606339Y967961D01*
X604730Y965863D01*
X603718Y963421D01*
X603540Y962070D01*
X612230D01*
Y970759D01*
D02*
G37*
G36*
X101270D02*
Y962070D01*
X109959D01*
X109782Y963421D01*
X108770Y965863D01*
X107161Y967961D01*
X105063Y969570D01*
X102621Y970582D01*
X101270Y970759D01*
D02*
G37*
G36*
X98730Y970760D02*
X97379Y970582D01*
X94937Y969570D01*
X92839Y967961D01*
X91230Y965863D01*
X90218Y963421D01*
X90041Y962070D01*
X98730D01*
Y970760D01*
D02*
G37*
G36*
X638900Y970382D02*
X636420Y970055D01*
X634109Y969098D01*
X632124Y967576D01*
X630602Y965591D01*
X629645Y963280D01*
X629318Y960800D01*
X629645Y958320D01*
X630602Y956009D01*
X632124Y954025D01*
X634109Y952502D01*
X636420Y951545D01*
X638900Y951218D01*
X641380Y951545D01*
X643691Y952502D01*
X645675Y954025D01*
X647198Y956009D01*
X648155Y958320D01*
X648482Y960800D01*
X648155Y963280D01*
X647198Y965591D01*
X645675Y967576D01*
X643691Y969098D01*
X641380Y970055D01*
X638900Y970382D01*
D02*
G37*
G36*
X74600D02*
X72120Y970055D01*
X69809Y969098D01*
X67825Y967576D01*
X66302Y965591D01*
X65345Y963280D01*
X65018Y960800D01*
X65345Y958320D01*
X66302Y956009D01*
X67825Y954025D01*
X69809Y952502D01*
X72120Y951545D01*
X74600Y951218D01*
X77080Y951545D01*
X79391Y952502D01*
X81376Y954025D01*
X82898Y956009D01*
X83855Y958320D01*
X84182Y960800D01*
X83855Y963280D01*
X82898Y965591D01*
X81376Y967576D01*
X79391Y969098D01*
X77080Y970055D01*
X74600Y970382D01*
D02*
G37*
G36*
X109959Y959530D02*
X101270D01*
Y950841D01*
X102621Y951018D01*
X105063Y952030D01*
X107161Y953639D01*
X108770Y955737D01*
X109782Y958179D01*
X109959Y959530D01*
D02*
G37*
G36*
X623459Y959530D02*
X614770D01*
Y950841D01*
X616121Y951018D01*
X618563Y952030D01*
X620661Y953639D01*
X622270Y955737D01*
X623282Y958179D01*
X623459Y959530D01*
D02*
G37*
G36*
X612230D02*
X603540D01*
X603718Y958179D01*
X604730Y955737D01*
X606339Y953639D01*
X608437Y952030D01*
X610879Y951018D01*
X612230Y950841D01*
Y959530D01*
D02*
G37*
G36*
X98730Y959530D02*
X90041D01*
X90218Y958179D01*
X91230Y955737D01*
X92839Y953639D01*
X94937Y952030D01*
X97379Y951018D01*
X98730Y950841D01*
Y959530D01*
D02*
G37*
G36*
X487900Y956900D02*
X468900D01*
Y937900D01*
X487900D01*
Y956900D01*
D02*
G37*
G36*
X371700D02*
X352700D01*
Y937900D01*
X371700D01*
Y956900D01*
D02*
G37*
G36*
X554600Y956982D02*
X552120Y956656D01*
X549809Y955698D01*
X547824Y954176D01*
X546302Y952191D01*
X545344Y949880D01*
X545018Y947400D01*
X545344Y944920D01*
X546302Y942609D01*
X547824Y940625D01*
X549809Y939102D01*
X552120Y938145D01*
X554600Y937818D01*
X557080Y938145D01*
X559391Y939102D01*
X561375Y940625D01*
X562898Y942609D01*
X563855Y944920D01*
X564182Y947400D01*
X563855Y949880D01*
X562898Y952191D01*
X561375Y954176D01*
X559391Y955698D01*
X557080Y956656D01*
X554600Y956982D01*
D02*
G37*
G36*
X529200D02*
X526720Y956656D01*
X524409Y955698D01*
X522424Y954176D01*
X520902Y952191D01*
X519944Y949880D01*
X519618Y947400D01*
X519944Y944920D01*
X520902Y942609D01*
X522424Y940625D01*
X524409Y939102D01*
X526720Y938145D01*
X529200Y937818D01*
X531680Y938145D01*
X533991Y939102D01*
X535975Y940625D01*
X537498Y942609D01*
X538455Y944920D01*
X538782Y947400D01*
X538455Y949880D01*
X537498Y952191D01*
X535975Y954176D01*
X533991Y955698D01*
X531680Y956656D01*
X529200Y956982D01*
D02*
G37*
G36*
X503800D02*
X501320Y956656D01*
X499009Y955698D01*
X497024Y954176D01*
X495502Y952191D01*
X494544Y949880D01*
X494218Y947400D01*
X494544Y944920D01*
X495502Y942609D01*
X497024Y940625D01*
X499009Y939102D01*
X501320Y938145D01*
X503800Y937818D01*
X506280Y938145D01*
X508591Y939102D01*
X510575Y940625D01*
X512098Y942609D01*
X513055Y944920D01*
X513382Y947400D01*
X513055Y949880D01*
X512098Y952191D01*
X510575Y954176D01*
X508591Y955698D01*
X506280Y956656D01*
X503800Y956982D01*
D02*
G37*
G36*
X438400D02*
X435920Y956656D01*
X433609Y955698D01*
X431625Y954176D01*
X430102Y952191D01*
X429145Y949880D01*
X428818Y947400D01*
X429145Y944920D01*
X430102Y942609D01*
X431625Y940625D01*
X433609Y939102D01*
X435920Y938145D01*
X438400Y937818D01*
X440880Y938145D01*
X443191Y939102D01*
X445176Y940625D01*
X446698Y942609D01*
X447655Y944920D01*
X447982Y947400D01*
X447655Y949880D01*
X446698Y952191D01*
X445176Y954176D01*
X443191Y955698D01*
X440880Y956656D01*
X438400Y956982D01*
D02*
G37*
G36*
X413000D02*
X410520Y956656D01*
X408209Y955698D01*
X406225Y954176D01*
X404702Y952191D01*
X403745Y949880D01*
X403418Y947400D01*
X403745Y944920D01*
X404702Y942609D01*
X406225Y940625D01*
X408209Y939102D01*
X410520Y938145D01*
X413000Y937818D01*
X415480Y938145D01*
X417791Y939102D01*
X419776Y940625D01*
X421298Y942609D01*
X422256Y944920D01*
X422582Y947400D01*
X422256Y949880D01*
X421298Y952191D01*
X419776Y954176D01*
X417791Y955698D01*
X415480Y956656D01*
X413000Y956982D01*
D02*
G37*
G36*
X387600D02*
X385120Y956656D01*
X382809Y955698D01*
X380825Y954176D01*
X379302Y952191D01*
X378345Y949880D01*
X378018Y947400D01*
X378345Y944920D01*
X379302Y942609D01*
X380825Y940625D01*
X382809Y939102D01*
X385120Y938145D01*
X387600Y937818D01*
X390080Y938145D01*
X392391Y939102D01*
X394375Y940625D01*
X395898Y942609D01*
X396856Y944920D01*
X397182Y947400D01*
X396856Y949880D01*
X395898Y952191D01*
X394375Y954176D01*
X392391Y955698D01*
X390080Y956656D01*
X387600Y956982D01*
D02*
G37*
G36*
X294690Y949240D02*
X276710D01*
Y931260D01*
X294690D01*
Y949240D01*
D02*
G37*
G36*
X109500Y944900D02*
X90500D01*
Y925900D01*
X109500D01*
Y944900D01*
D02*
G37*
G36*
X638900Y944982D02*
X636420Y944656D01*
X634109Y943698D01*
X632124Y942176D01*
X630602Y940191D01*
X629645Y937880D01*
X629318Y935400D01*
X629645Y932920D01*
X630602Y930609D01*
X632124Y928625D01*
X634109Y927102D01*
X636420Y926145D01*
X638900Y925818D01*
X641380Y926145D01*
X643691Y927102D01*
X645675Y928625D01*
X647198Y930609D01*
X648155Y932920D01*
X648482Y935400D01*
X648155Y937880D01*
X647198Y940191D01*
X645675Y942176D01*
X643691Y943698D01*
X641380Y944656D01*
X638900Y944982D01*
D02*
G37*
G36*
X613500D02*
X611020Y944656D01*
X608709Y943698D01*
X606725Y942176D01*
X605202Y940191D01*
X604244Y937880D01*
X603918Y935400D01*
X604244Y932920D01*
X605202Y930609D01*
X606725Y928625D01*
X608709Y927102D01*
X611020Y926145D01*
X613500Y925818D01*
X615980Y926145D01*
X618291Y927102D01*
X620275Y928625D01*
X621798Y930609D01*
X622755Y932920D01*
X623082Y935400D01*
X622755Y937880D01*
X621798Y940191D01*
X620275Y942176D01*
X618291Y943698D01*
X615980Y944656D01*
X613500Y944982D01*
D02*
G37*
G36*
X74600D02*
X72120Y944656D01*
X69809Y943698D01*
X67825Y942176D01*
X66302Y940191D01*
X65345Y937880D01*
X65018Y935400D01*
X65345Y932920D01*
X66302Y930609D01*
X67825Y928625D01*
X69809Y927102D01*
X72120Y926145D01*
X74600Y925818D01*
X77080Y926145D01*
X79391Y927102D01*
X81376Y928625D01*
X82898Y930609D01*
X83855Y932920D01*
X84182Y935400D01*
X83855Y937880D01*
X82898Y940191D01*
X81376Y942176D01*
X79391Y943698D01*
X77080Y944656D01*
X74600Y944982D01*
D02*
G37*
G36*
X273000Y923918D02*
X270653Y923609D01*
X268466Y922703D01*
X266588Y921262D01*
X265147Y919384D01*
X264241Y917197D01*
X263932Y914850D01*
X264241Y912503D01*
X265147Y910316D01*
X266588Y908438D01*
X268466Y906997D01*
X270653Y906091D01*
X273000Y905782D01*
X275347Y906091D01*
X277534Y906997D01*
X279412Y908438D01*
X280853Y910316D01*
X281759Y912503D01*
X282068Y914850D01*
X281759Y917197D01*
X280853Y919384D01*
X279412Y921262D01*
X277534Y922703D01*
X275347Y923609D01*
X273000Y923918D01*
D02*
G37*
G36*
X247600D02*
X245253Y923609D01*
X243066Y922703D01*
X241188Y921262D01*
X239747Y919384D01*
X238841Y917197D01*
X238532Y914850D01*
X238841Y912503D01*
X239747Y910316D01*
X241188Y908438D01*
X243066Y906997D01*
X245253Y906091D01*
X247600Y905782D01*
X249947Y906091D01*
X252134Y906997D01*
X254012Y908438D01*
X255453Y910316D01*
X256359Y912503D01*
X256668Y914850D01*
X256359Y917197D01*
X255453Y919384D01*
X254012Y921262D01*
X252134Y922703D01*
X249947Y923609D01*
X247600Y923918D01*
D02*
G37*
G36*
X196800D02*
X194453Y923609D01*
X192266Y922703D01*
X190388Y921262D01*
X188947Y919384D01*
X188041Y917197D01*
X187732Y914850D01*
X188041Y912503D01*
X188947Y910316D01*
X190388Y908438D01*
X192266Y906997D01*
X194453Y906091D01*
X196800Y905782D01*
X199147Y906091D01*
X201334Y906997D01*
X203212Y908438D01*
X204653Y910316D01*
X205559Y912503D01*
X205868Y914850D01*
X205559Y917197D01*
X204653Y919384D01*
X203212Y921262D01*
X201334Y922703D01*
X199147Y923609D01*
X196800Y923918D01*
D02*
G37*
G36*
X396250Y900108D02*
X394104Y899681D01*
X392285Y898465D01*
X391679Y897559D01*
X359000D01*
X359000Y897559D01*
X357830Y897326D01*
X356837Y896663D01*
X310733Y850559D01*
X143250D01*
X143250Y850559D01*
X142079Y850326D01*
X141087Y849663D01*
X141087Y849663D01*
X121569Y830145D01*
X120500Y830358D01*
X118354Y829931D01*
X116535Y828715D01*
X115319Y826896D01*
X114892Y824750D01*
X115319Y822604D01*
X116535Y820785D01*
X118354Y819569D01*
X120500Y819142D01*
X122646Y819569D01*
X124465Y820785D01*
X125681Y822604D01*
X126108Y824750D01*
X125895Y825819D01*
X144517Y844441D01*
X312000D01*
X312000Y844441D01*
X313171Y844674D01*
X314163Y845337D01*
X360267Y891441D01*
X391679D01*
X392285Y890535D01*
X394104Y889319D01*
X396250Y888892D01*
X398396Y889319D01*
X400215Y890535D01*
X401431Y892354D01*
X401858Y894500D01*
X401431Y896646D01*
X400215Y898465D01*
X398396Y899681D01*
X396250Y900108D01*
D02*
G37*
G36*
X295674Y966984D02*
X231826D01*
X230558Y966731D01*
X229483Y966013D01*
X217407Y953937D01*
X216689Y952862D01*
X216436Y951594D01*
Y947860D01*
X215166Y947234D01*
X214034Y948103D01*
X211847Y949009D01*
X209500Y949318D01*
X207153Y949009D01*
X204966Y948103D01*
X203088Y946662D01*
X201647Y944784D01*
X200741Y942597D01*
X200432Y940250D01*
X200741Y937903D01*
X201647Y935716D01*
X203088Y933838D01*
X204966Y932397D01*
X207153Y931491D01*
X209500Y931182D01*
X211847Y931491D01*
X214034Y932397D01*
X215315Y933380D01*
X216076Y933273D01*
X216618Y933016D01*
X216733Y932915D01*
X217407Y931907D01*
X218186Y931127D01*
Y922918D01*
X217666Y922703D01*
X215788Y921262D01*
X214347Y919384D01*
X213441Y917197D01*
X213132Y914850D01*
X213441Y912503D01*
X214347Y910316D01*
X215788Y908438D01*
X217666Y906997D01*
X219853Y906091D01*
X222200Y905782D01*
X224547Y906091D01*
X226734Y906997D01*
X228612Y908438D01*
X230053Y910316D01*
X230959Y912503D01*
X231268Y914850D01*
X230959Y917197D01*
X230053Y919384D01*
X228612Y921262D01*
X226734Y922703D01*
X224814Y923498D01*
Y929509D01*
X225987Y929995D01*
X228315Y927667D01*
X229390Y926949D01*
X230658Y926696D01*
X250060D01*
X251328Y926949D01*
X252403Y927667D01*
X256733Y931997D01*
X257953Y931491D01*
X260300Y931182D01*
X262647Y931491D01*
X264834Y932397D01*
X266712Y933838D01*
X268153Y935716D01*
X269059Y937903D01*
X269368Y940250D01*
X269059Y942597D01*
X268153Y944784D01*
X266712Y946662D01*
X264834Y948103D01*
X262647Y949009D01*
X260300Y949318D01*
X257953Y949009D01*
X255766Y948103D01*
X253888Y946662D01*
X252447Y944784D01*
X251541Y942597D01*
X251232Y940250D01*
X251541Y937903D01*
X252047Y936683D01*
X248687Y933324D01*
X242518D01*
X241891Y934594D01*
X242753Y935716D01*
X243659Y937903D01*
X243968Y940250D01*
X243659Y942597D01*
X242753Y944784D01*
X241312Y946662D01*
X239434Y948103D01*
X237247Y949009D01*
X234900Y949318D01*
X232553Y949009D01*
X230366Y948103D01*
X230164Y947948D01*
X228787Y948492D01*
X228717Y948917D01*
X235236Y955436D01*
X292264D01*
X306666Y941033D01*
Y898092D01*
X305854Y897931D01*
X304035Y896715D01*
X302819Y894896D01*
X302392Y892750D01*
X302819Y890604D01*
X304035Y888785D01*
X305854Y887569D01*
X308000Y887142D01*
X310146Y887569D01*
X311649Y888573D01*
X312500Y888703D01*
X313351Y888573D01*
X314854Y887569D01*
X317000Y887142D01*
X319146Y887569D01*
X320965Y888785D01*
X322181Y890604D01*
X322608Y892750D01*
X322181Y894896D01*
X320965Y896715D01*
X319146Y897931D01*
X318334Y898092D01*
Y942576D01*
X318214Y943179D01*
Y944444D01*
X317961Y945712D01*
X317243Y946787D01*
X298017Y966013D01*
X296942Y966731D01*
X296732Y966773D01*
X295674Y966984D01*
D02*
G37*
G36*
X335500Y898108D02*
X333354Y897681D01*
X331535Y896465D01*
X330319Y894646D01*
X329892Y892500D01*
X330105Y891431D01*
X307483Y868809D01*
X140500D01*
X139330Y868576D01*
X138337Y867913D01*
X138337Y867913D01*
X104312Y833888D01*
X103649Y832896D01*
X103416Y831725D01*
X103416Y831725D01*
Y829930D01*
X102310Y829190D01*
X101094Y827371D01*
X100667Y825225D01*
X101094Y823079D01*
X102310Y821260D01*
X104129Y820044D01*
X106275Y819617D01*
X108421Y820044D01*
X110240Y821260D01*
X111456Y823079D01*
X111883Y825225D01*
X111456Y827371D01*
X110240Y829190D01*
X109972Y829370D01*
X109868Y830792D01*
X141767Y862691D01*
X308750D01*
X308750Y862691D01*
X309921Y862924D01*
X310913Y863587D01*
X334431Y887105D01*
X335500Y886892D01*
X337646Y887319D01*
X339465Y888535D01*
X340681Y890354D01*
X341108Y892500D01*
X340681Y894646D01*
X339465Y896465D01*
X337646Y897681D01*
X335500Y898108D01*
D02*
G37*
G36*
X596500Y865358D02*
X594354Y864931D01*
X592535Y863715D01*
X591319Y861896D01*
X590892Y859750D01*
X591319Y857604D01*
X592535Y855785D01*
X594354Y854569D01*
X596500Y854142D01*
X598646Y854569D01*
X600465Y855785D01*
X601681Y857604D01*
X602108Y859750D01*
X601681Y861896D01*
X600465Y863715D01*
X598646Y864931D01*
X596500Y865358D01*
D02*
G37*
G36*
X628500Y862108D02*
X626354Y861681D01*
X624535Y860465D01*
X623319Y858646D01*
X622892Y856500D01*
X623319Y854354D01*
X624535Y852535D01*
X626354Y851319D01*
X628500Y850892D01*
X630646Y851319D01*
X632465Y852535D01*
X633681Y854354D01*
X634108Y856500D01*
X633681Y858646D01*
X632465Y860465D01*
X630646Y861681D01*
X628500Y862108D01*
D02*
G37*
G36*
X164000Y839358D02*
X161854Y838931D01*
X160035Y837715D01*
X158819Y835896D01*
X158392Y833750D01*
X158819Y831604D01*
X160035Y829785D01*
X161854Y828569D01*
X164000Y828142D01*
X166146Y828569D01*
X167965Y829785D01*
X169181Y831604D01*
X169608Y833750D01*
X169181Y835896D01*
X167965Y837715D01*
X166146Y838931D01*
X164000Y839358D01*
D02*
G37*
G36*
X163250Y825858D02*
X161104Y825431D01*
X159285Y824215D01*
X158069Y822396D01*
X157642Y820250D01*
X158069Y818104D01*
X159285Y816285D01*
X161104Y815069D01*
X163250Y814642D01*
X165396Y815069D01*
X167215Y816285D01*
X168431Y818104D01*
X168858Y820250D01*
X168431Y822396D01*
X167215Y824215D01*
X165396Y825431D01*
X163250Y825858D01*
D02*
G37*
G36*
X254237Y761287D02*
X252091Y760860D01*
X250398Y759729D01*
X249212Y759218D01*
X247393Y760434D01*
X245247Y760861D01*
X243101Y760434D01*
X241282Y759218D01*
X240066Y757399D01*
X239639Y755253D01*
X240066Y753107D01*
X241282Y751288D01*
X243101Y750072D01*
X243375Y750018D01*
Y746433D01*
X226150Y729209D01*
X187342D01*
X187181Y730021D01*
X185965Y731840D01*
X184146Y733056D01*
X182000Y733483D01*
X179854Y733056D01*
X178035Y731840D01*
X176819Y730021D01*
X176392Y727875D01*
X176819Y725729D01*
X177823Y724226D01*
X177953Y723375D01*
X177823Y722524D01*
X176819Y721021D01*
X176392Y718875D01*
X176819Y716729D01*
X178035Y714910D01*
X179854Y713694D01*
X182000Y713267D01*
X184146Y713694D01*
X185965Y714910D01*
X187181Y716729D01*
X187342Y717541D01*
X229610D01*
X230878Y717794D01*
X231953Y718512D01*
X256580Y743139D01*
X257298Y744213D01*
X257551Y745482D01*
Y751279D01*
X258202Y751714D01*
X259418Y753533D01*
X259845Y755679D01*
X259418Y757825D01*
X258202Y759645D01*
X256383Y760860D01*
X254237Y761287D01*
D02*
G37*
G36*
X146000Y801858D02*
X143854Y801431D01*
X142035Y800215D01*
X140819Y798396D01*
X140392Y796250D01*
X140819Y794104D01*
X142035Y792285D01*
X143854Y791069D01*
X146000Y790642D01*
X146769Y790795D01*
X193659Y743905D01*
X193319Y743396D01*
X192892Y741250D01*
X193319Y739104D01*
X194535Y737285D01*
X196354Y736069D01*
X198500Y735642D01*
X200646Y736069D01*
X202465Y737285D01*
X203681Y739104D01*
X204108Y741250D01*
X203681Y743396D01*
X202465Y745215D01*
X200646Y746431D01*
X200284Y746503D01*
X199982Y746954D01*
X151455Y795481D01*
X151608Y796250D01*
X151181Y798396D01*
X149965Y800215D01*
X148146Y801431D01*
X146000Y801858D01*
D02*
G37*
G36*
X42500Y740358D02*
X40354Y739931D01*
X38535Y738715D01*
X37319Y736896D01*
X36892Y734750D01*
X37319Y732604D01*
X38535Y730785D01*
X40354Y729569D01*
X42500Y729142D01*
X44646Y729569D01*
X46465Y730785D01*
X47681Y732604D01*
X48108Y734750D01*
X47681Y736896D01*
X46465Y738715D01*
X44646Y739931D01*
X42500Y740358D01*
D02*
G37*
G36*
X652000Y729000D02*
X634000D01*
Y711000D01*
X652000D01*
Y729000D01*
D02*
G37*
G36*
X353370Y707714D02*
Y698520D01*
X362564D01*
X362369Y700002D01*
X361307Y702565D01*
X359617Y704767D01*
X357416Y706457D01*
X354851Y707519D01*
X353370Y707714D01*
D02*
G37*
G36*
X350830Y707714D02*
X349348Y707519D01*
X346785Y706457D01*
X344583Y704767D01*
X342893Y702565D01*
X341831Y700002D01*
X341636Y698520D01*
X350830D01*
Y707714D01*
D02*
G37*
G36*
X412900Y707250D02*
X392900D01*
Y687250D01*
X412900D01*
Y707250D01*
D02*
G37*
G36*
X377500Y707336D02*
X374889Y706993D01*
X372457Y705985D01*
X370368Y704382D01*
X368765Y702293D01*
X367757Y699861D01*
X367414Y697250D01*
X367757Y694640D01*
X368765Y692207D01*
X370368Y690118D01*
X372457Y688515D01*
X374889Y687507D01*
X377500Y687164D01*
X380111Y687507D01*
X382543Y688515D01*
X384632Y690118D01*
X386235Y692207D01*
X387243Y694640D01*
X387586Y697250D01*
X387243Y699861D01*
X386235Y702293D01*
X384632Y704382D01*
X382543Y705985D01*
X380111Y706993D01*
X377500Y707336D01*
D02*
G37*
G36*
X350830Y695980D02*
X341636D01*
X341831Y694499D01*
X342893Y691935D01*
X344583Y689733D01*
X346785Y688043D01*
X349348Y686981D01*
X350830Y686786D01*
Y695980D01*
D02*
G37*
G36*
X362564D02*
X353370D01*
Y686786D01*
X354851Y686981D01*
X357416Y688043D01*
X359617Y689733D01*
X361307Y691935D01*
X362369Y694499D01*
X362564Y695980D01*
D02*
G37*
G36*
X162500Y685608D02*
X160354Y685181D01*
X158535Y683965D01*
X157319Y682146D01*
X156892Y680000D01*
X157319Y677854D01*
X158535Y676035D01*
X160354Y674819D01*
X162500Y674392D01*
X164646Y674819D01*
X166465Y676035D01*
X167681Y677854D01*
X168108Y680000D01*
X167681Y682146D01*
X166465Y683965D01*
X164646Y685181D01*
X162500Y685608D01*
D02*
G37*
G36*
X644270Y679455D02*
Y671270D01*
X652455D01*
X652294Y672490D01*
X651333Y674811D01*
X649804Y676804D01*
X647811Y678333D01*
X645490Y679294D01*
X644270Y679455D01*
D02*
G37*
G36*
X641730Y679455D02*
X640510Y679294D01*
X638189Y678333D01*
X636196Y676804D01*
X634667Y674811D01*
X633706Y672490D01*
X633545Y671270D01*
X641730D01*
Y679455D01*
D02*
G37*
G36*
Y668730D02*
X633545D01*
X633706Y667509D01*
X634667Y665189D01*
X636196Y663196D01*
X638189Y661667D01*
X640510Y660705D01*
X641730Y660545D01*
Y668730D01*
D02*
G37*
G36*
X652455D02*
X644270D01*
Y660545D01*
X645490Y660705D01*
X647811Y661667D01*
X649804Y663196D01*
X651333Y665189D01*
X652294Y667509D01*
X652455Y668730D01*
D02*
G37*
G36*
X298750Y659482D02*
X296270Y659156D01*
X293959Y658198D01*
X291975Y656675D01*
X290452Y654691D01*
X289494Y652380D01*
X289168Y649900D01*
X289494Y647420D01*
X290212Y645688D01*
X201337Y556813D01*
X200674Y555821D01*
X200441Y554650D01*
X200441Y554650D01*
Y439071D01*
X199535Y438465D01*
X198319Y436646D01*
X197892Y434500D01*
X198319Y432354D01*
X199535Y430535D01*
X201354Y429319D01*
X203500Y428892D01*
X205646Y429319D01*
X207465Y430535D01*
X208681Y432354D01*
X209108Y434500D01*
X208681Y436646D01*
X207465Y438465D01*
X206559Y439071D01*
Y553383D01*
X294538Y641362D01*
X296270Y640645D01*
X298750Y640318D01*
X301230Y640645D01*
X303541Y641602D01*
X305525Y643124D01*
X307048Y645109D01*
X308006Y647420D01*
X308332Y649900D01*
X308006Y652380D01*
X307048Y654691D01*
X305525Y656675D01*
X303541Y658198D01*
X301230Y659156D01*
X298750Y659482D01*
D02*
G37*
G36*
X412900Y656750D02*
X392900D01*
Y636750D01*
X412900D01*
Y656750D01*
D02*
G37*
G36*
X377500Y656836D02*
X374889Y656493D01*
X372457Y655485D01*
X370368Y653882D01*
X368765Y651793D01*
X367757Y649361D01*
X367414Y646750D01*
X367757Y644140D01*
X368765Y641707D01*
X370368Y639618D01*
X372457Y638015D01*
X374889Y637008D01*
X377500Y636664D01*
X380111Y637008D01*
X382543Y638015D01*
X384632Y639618D01*
X386235Y641707D01*
X387243Y644140D01*
X387586Y646750D01*
X387243Y649361D01*
X386235Y651793D01*
X384632Y653882D01*
X382543Y655485D01*
X380111Y656493D01*
X377500Y656836D01*
D02*
G37*
G36*
X352100D02*
X349490Y656493D01*
X347057Y655485D01*
X344968Y653882D01*
X343365Y651793D01*
X342357Y649361D01*
X342014Y646750D01*
X342357Y644140D01*
X343365Y641707D01*
X344968Y639618D01*
X347057Y638015D01*
X349490Y637008D01*
X352100Y636664D01*
X354711Y637008D01*
X357143Y638015D01*
X359232Y639618D01*
X360835Y641707D01*
X361843Y644140D01*
X362186Y646750D01*
X361843Y649361D01*
X360835Y651793D01*
X359232Y653882D01*
X357143Y655485D01*
X354711Y656493D01*
X352100Y656836D01*
D02*
G37*
G36*
X213000Y646108D02*
X210854Y645681D01*
X209035Y644465D01*
X207819Y642646D01*
X207392Y640500D01*
X207819Y638354D01*
X209035Y636535D01*
X210854Y635319D01*
X213000Y634892D01*
X215146Y635319D01*
X216965Y636535D01*
X218181Y638354D01*
X218608Y640500D01*
X218181Y642646D01*
X216965Y644465D01*
X215146Y645681D01*
X213000Y646108D01*
D02*
G37*
G36*
X248750Y638858D02*
X246604Y638431D01*
X244785Y637215D01*
X243569Y635396D01*
X243142Y633250D01*
X243569Y631104D01*
X244785Y629285D01*
X246604Y628069D01*
X248750Y627642D01*
X250896Y628069D01*
X252715Y629285D01*
X253931Y631104D01*
X254358Y633250D01*
X253931Y635396D01*
X252715Y637215D01*
X250896Y638431D01*
X248750Y638858D01*
D02*
G37*
G36*
X300020Y634459D02*
Y625770D01*
X308709D01*
X308532Y627121D01*
X307520Y629563D01*
X305911Y631661D01*
X303813Y633270D01*
X301371Y634282D01*
X300020Y634459D01*
D02*
G37*
G36*
X297480D02*
X296129Y634282D01*
X293687Y633270D01*
X291589Y631661D01*
X289980Y629563D01*
X288968Y627121D01*
X288791Y625770D01*
X297480D01*
Y634459D01*
D02*
G37*
G36*
Y623230D02*
X288791D01*
X288968Y621879D01*
X289980Y619437D01*
X291589Y617339D01*
X293687Y615730D01*
X296129Y614718D01*
X297480Y614541D01*
Y623230D01*
D02*
G37*
G36*
X308709D02*
X300020D01*
Y614541D01*
X301371Y614718D01*
X303813Y615730D01*
X305911Y617339D01*
X307520Y619437D01*
X308532Y621879D01*
X308709Y623230D01*
D02*
G37*
G36*
X49721Y604579D02*
X47575Y604152D01*
X45756Y602937D01*
X44540Y601117D01*
X44113Y598971D01*
X44540Y596825D01*
X45756Y595006D01*
X47575Y593790D01*
X49721Y593363D01*
X51867Y593790D01*
X53686Y595006D01*
X54902Y596825D01*
X55329Y598971D01*
X54902Y601117D01*
X53686Y602937D01*
X51867Y604152D01*
X49721Y604579D01*
D02*
G37*
G36*
X298750Y608682D02*
X296270Y608355D01*
X293959Y607398D01*
X291975Y605875D01*
X290452Y603891D01*
X289494Y601580D01*
X289168Y599100D01*
X289494Y596620D01*
X290452Y594309D01*
X291975Y592324D01*
X293959Y590802D01*
X296270Y589845D01*
X298750Y589518D01*
X301230Y589845D01*
X303541Y590802D01*
X305525Y592324D01*
X307048Y594309D01*
X308006Y596620D01*
X308332Y599100D01*
X308006Y601580D01*
X307048Y603891D01*
X305525Y605875D01*
X303541Y607398D01*
X301230Y608355D01*
X298750Y608682D01*
D02*
G37*
G36*
X272750Y591108D02*
X270604Y590681D01*
X268785Y589465D01*
X267569Y587646D01*
X267142Y585500D01*
X267569Y583354D01*
X268785Y581535D01*
X270604Y580319D01*
X272750Y579892D01*
X274896Y580319D01*
X276715Y581535D01*
X277931Y583354D01*
X278358Y585500D01*
X277931Y587646D01*
X276715Y589465D01*
X274896Y590681D01*
X272750Y591108D01*
D02*
G37*
G36*
X298750Y583282D02*
X296270Y582956D01*
X293959Y581998D01*
X291975Y580475D01*
X290452Y578491D01*
X289494Y576180D01*
X289168Y573700D01*
X289494Y571220D01*
X290452Y568909D01*
X291975Y566925D01*
X293959Y565402D01*
X296270Y564445D01*
X298750Y564118D01*
X301230Y564445D01*
X303541Y565402D01*
X305525Y566925D01*
X307048Y568909D01*
X308006Y571220D01*
X308332Y573700D01*
X308006Y576180D01*
X307048Y578491D01*
X305525Y580475D01*
X303541Y581998D01*
X301230Y582956D01*
X298750Y583282D01*
D02*
G37*
G36*
X127000Y750608D02*
X124854Y750181D01*
X123035Y748965D01*
X121819Y747146D01*
X121392Y745000D01*
X121819Y742854D01*
X123035Y741035D01*
X124854Y739819D01*
X127000Y739392D01*
X128069Y739605D01*
X146691Y720983D01*
Y566017D01*
X141033Y560359D01*
X140947Y560369D01*
X139809Y560931D01*
Y719000D01*
X139809Y719000D01*
X139576Y720171D01*
X138913Y721163D01*
X135288Y724788D01*
X134296Y725451D01*
X133125Y725684D01*
X133125Y725684D01*
X126448D01*
X125840Y726595D01*
X124021Y727811D01*
X121875Y728237D01*
X120184Y727901D01*
X119063Y728777D01*
X119108Y729000D01*
X118681Y731146D01*
X117465Y732965D01*
X115646Y734181D01*
X113500Y734608D01*
X111354Y734181D01*
X109535Y732965D01*
X108579Y731535D01*
X107309Y731920D01*
Y738500D01*
X107076Y739670D01*
X106413Y740663D01*
X100913Y746163D01*
X99921Y746826D01*
X98750Y747059D01*
X98750Y747059D01*
X77500D01*
X77500Y747059D01*
X76329Y746826D01*
X75337Y746163D01*
X34087Y704913D01*
X33424Y703921D01*
X33191Y702750D01*
X33191Y702750D01*
Y579500D01*
X33191Y579500D01*
X33424Y578330D01*
X34087Y577337D01*
X50587Y560837D01*
X50587Y560837D01*
X51580Y560174D01*
X52750Y559941D01*
X52750Y559941D01*
X90500D01*
X90500Y559941D01*
X91671Y560174D01*
X92663Y560837D01*
X98913Y567087D01*
X98913Y567087D01*
X99576Y568079D01*
X99809Y569250D01*
X99809Y569250D01*
Y582012D01*
X100965Y582785D01*
X102181Y584604D01*
X102608Y586750D01*
X102181Y588896D01*
X100965Y590715D01*
X99146Y591931D01*
X97000Y592358D01*
X94854Y591931D01*
X93035Y590715D01*
X91819Y588896D01*
X91392Y586750D01*
X91819Y584604D01*
X93035Y582785D01*
X93691Y582346D01*
Y570517D01*
X89233Y566059D01*
X54017D01*
X39309Y580767D01*
Y609549D01*
X40401Y609975D01*
X40579Y610000D01*
X41907Y608981D01*
X43498Y608322D01*
X45171Y608102D01*
X45205Y608095D01*
X68460D01*
Y608061D01*
X68776Y607930D01*
X68907Y607614D01*
X68941D01*
Y585250D01*
X68941Y585250D01*
X69174Y584080D01*
X69837Y583087D01*
X76605Y576319D01*
X76392Y575250D01*
X76819Y573104D01*
X78035Y571285D01*
X79854Y570069D01*
X82000Y569642D01*
X84146Y570069D01*
X85965Y571285D01*
X87181Y573104D01*
X87608Y575250D01*
X87181Y577396D01*
X85965Y579215D01*
X84146Y580431D01*
X82000Y580858D01*
X80931Y580645D01*
X75059Y586517D01*
Y594840D01*
X76198Y595401D01*
X76242Y595367D01*
X77833Y594709D01*
X79505Y594488D01*
X79540Y594481D01*
X79995Y593883D01*
X79775Y592376D01*
X79535Y592215D01*
X78319Y590396D01*
X77892Y588250D01*
X78319Y586104D01*
X79535Y584285D01*
X81354Y583069D01*
X83500Y582642D01*
X85646Y583069D01*
X87465Y584285D01*
X88681Y586104D01*
X89108Y588250D01*
X88681Y590396D01*
X87465Y592215D01*
X86559Y592821D01*
Y594000D01*
X86552Y594035D01*
X86332Y595707D01*
X85673Y597298D01*
X84624Y598665D01*
X83258Y599713D01*
X81667Y600372D01*
X81954Y601561D01*
X105360D01*
X105395Y601568D01*
X107067Y601788D01*
X108658Y602447D01*
X108897Y602631D01*
X110444Y602217D01*
X110727Y601532D01*
X111776Y600166D01*
X113142Y599118D01*
X114733Y598459D01*
X116405Y598238D01*
X116440Y598232D01*
X122960D01*
Y598197D01*
X123276Y598066D01*
X123407Y597750D01*
X123441D01*
Y582738D01*
X122285Y581965D01*
X121069Y580146D01*
X120642Y578000D01*
X121069Y575854D01*
X122285Y574035D01*
X124104Y572819D01*
X126250Y572392D01*
X128396Y572819D01*
X128571Y572936D01*
X129691Y572337D01*
Y571017D01*
X117712Y559038D01*
X117712Y559038D01*
X104182Y545508D01*
X104158Y545532D01*
X103842Y545401D01*
X103525Y545532D01*
X103501Y545508D01*
X100234Y548775D01*
X100205Y548795D01*
X98866Y549822D01*
X97275Y550481D01*
X95568Y550705D01*
X93861Y550481D01*
X92270Y549822D01*
X90932Y548795D01*
X90902Y548775D01*
X90882Y548745D01*
X89855Y547407D01*
X89196Y545816D01*
X88972Y544109D01*
X89196Y542402D01*
X89855Y540811D01*
X90882Y539473D01*
X90902Y539443D01*
X93271Y537074D01*
X93752Y536566D01*
X93752Y535078D01*
X86087Y527413D01*
X85424Y526421D01*
X85191Y525250D01*
X85191Y525250D01*
Y436071D01*
X84285Y435465D01*
X83069Y433646D01*
X82642Y431500D01*
X83069Y429354D01*
X84285Y427535D01*
X86104Y426319D01*
X88250Y425892D01*
X90396Y426319D01*
X92215Y427535D01*
X93431Y429354D01*
X93858Y431500D01*
X93431Y433646D01*
X92775Y434628D01*
X93568Y435727D01*
X95250Y435392D01*
X97396Y435819D01*
X99215Y437035D01*
X100431Y438854D01*
X100858Y441000D01*
X100431Y443146D01*
X100035Y443738D01*
X100799Y444881D01*
X102000Y444642D01*
X104146Y445069D01*
X105965Y446285D01*
X107181Y448104D01*
X107608Y450250D01*
X107592Y450330D01*
X107809Y451422D01*
Y518483D01*
X151913Y562587D01*
X151913Y562587D01*
X152576Y563579D01*
X152809Y564750D01*
X152809Y564750D01*
Y722250D01*
X152809Y722250D01*
X152576Y723420D01*
X151913Y724413D01*
X151913Y724413D01*
X132395Y743931D01*
X132608Y745000D01*
X132181Y747146D01*
X130965Y748965D01*
X129146Y750181D01*
X127000Y750608D01*
D02*
G37*
G36*
X248500Y564358D02*
X246354Y563931D01*
X244535Y562715D01*
X243319Y560896D01*
X242892Y558750D01*
X243319Y556604D01*
X244535Y554785D01*
X246354Y553569D01*
X248500Y553142D01*
X250646Y553569D01*
X252465Y554785D01*
X253681Y556604D01*
X254108Y558750D01*
X253681Y560896D01*
X252465Y562715D01*
X250646Y563931D01*
X248500Y564358D01*
D02*
G37*
G36*
X328500Y552108D02*
X326354Y551681D01*
X324535Y550465D01*
X324099Y549814D01*
X300513D01*
X299768Y550311D01*
X298500Y550564D01*
X297232Y550311D01*
X296157Y549593D01*
X257769Y511205D01*
X257000Y511358D01*
X254854Y510931D01*
X253035Y509715D01*
X251819Y507896D01*
X251392Y505750D01*
X251819Y503604D01*
X253035Y501785D01*
X254854Y500569D01*
X257000Y500142D01*
X257953Y500332D01*
X257969Y500335D01*
X258354Y499181D01*
X258285Y499135D01*
X256535Y497965D01*
X255319Y496146D01*
X254892Y494000D01*
X255319Y491854D01*
X256535Y490035D01*
X257364Y489481D01*
X256868Y488284D01*
X256500Y488358D01*
X254354Y487931D01*
X252535Y486715D01*
X251929Y485809D01*
X249885D01*
X249885Y485809D01*
X249293Y485691D01*
X247854Y486412D01*
X247777Y486800D01*
X246562Y488619D01*
X244742Y489835D01*
X242596Y490261D01*
X240450Y489835D01*
X238631Y488619D01*
X238025Y487713D01*
X235904D01*
X234733Y487480D01*
X233741Y486817D01*
X233741Y486817D01*
X213337Y466413D01*
X212674Y465420D01*
X212441Y464250D01*
X212441Y464250D01*
Y363517D01*
X202587Y353663D01*
X201924Y352671D01*
X201691Y351500D01*
X201691Y351500D01*
Y344821D01*
X200785Y344215D01*
X199569Y342396D01*
X199142Y340250D01*
X199569Y338104D01*
X200785Y336285D01*
X202604Y335069D01*
X204750Y334642D01*
X206896Y335069D01*
X208715Y336285D01*
X209931Y338104D01*
X210358Y340250D01*
X209931Y342396D01*
X208715Y344215D01*
X207809Y344821D01*
Y350233D01*
X217421Y359846D01*
X218368Y359591D01*
X218691Y359363D01*
Y348321D01*
X217785Y347715D01*
X216569Y345896D01*
X216142Y343750D01*
X216569Y341604D01*
X217785Y339785D01*
X219604Y338569D01*
X221750Y338142D01*
X223896Y338569D01*
X225715Y339785D01*
X226931Y341604D01*
X227358Y343750D01*
X226931Y345896D01*
X225715Y347715D01*
X224809Y348321D01*
Y453348D01*
X227518Y456057D01*
X228691Y455571D01*
Y340071D01*
X227785Y339465D01*
X226569Y337646D01*
X226142Y335500D01*
X226569Y333354D01*
X227785Y331535D01*
X229604Y330319D01*
X231750Y329892D01*
X233896Y330319D01*
X235715Y331535D01*
X236931Y333354D01*
X237358Y335500D01*
X236931Y337646D01*
X235715Y339465D01*
X234809Y340071D01*
Y453582D01*
X236079Y453967D01*
X236535Y453285D01*
X238354Y452069D01*
X240500Y451642D01*
X242646Y452069D01*
X244465Y453285D01*
X245681Y455104D01*
X246108Y457250D01*
X245895Y458319D01*
X249767Y462191D01*
X265983D01*
X302941Y425233D01*
Y396821D01*
X302035Y396215D01*
X300819Y394396D01*
X300392Y392250D01*
X300819Y390104D01*
X302035Y388285D01*
X303854Y387069D01*
X306000Y386642D01*
X308146Y387069D01*
X309965Y388285D01*
X311181Y390104D01*
X311608Y392250D01*
X311181Y394396D01*
X309965Y396215D01*
X309059Y396821D01*
Y426500D01*
X308826Y427671D01*
X308163Y428663D01*
X269413Y467413D01*
X268869Y467776D01*
X268740Y469109D01*
X268782Y469245D01*
X269215Y469535D01*
X270431Y471354D01*
X270858Y473500D01*
X270431Y475646D01*
X269215Y477465D01*
X267396Y478681D01*
X265250Y479108D01*
X263104Y478681D01*
X261285Y477465D01*
X260679Y476559D01*
X259420D01*
X259035Y477829D01*
X260465Y478785D01*
X261681Y480604D01*
X262108Y482750D01*
X261681Y484896D01*
X260465Y486715D01*
X259636Y487269D01*
X260132Y488465D01*
X260500Y488392D01*
X262646Y488819D01*
X264465Y490035D01*
X265681Y491854D01*
X266108Y494000D01*
X265955Y494769D01*
X274647Y503461D01*
X275365Y504536D01*
X275618Y505804D01*
Y508935D01*
X291119Y524436D01*
X388250D01*
X389518Y524689D01*
X390593Y525407D01*
X404623Y539436D01*
X417099D01*
X417535Y538785D01*
X419354Y537569D01*
X421500Y537142D01*
X423646Y537569D01*
X425465Y538785D01*
X426681Y540604D01*
X427108Y542750D01*
X426681Y544896D01*
X425465Y546715D01*
X423646Y547931D01*
X421500Y548358D01*
X419354Y547931D01*
X417535Y546715D01*
X417099Y546064D01*
X403250D01*
X401982Y545811D01*
X400907Y545093D01*
X386878Y531064D01*
X289747D01*
X288560Y530827D01*
X288482Y530883D01*
X288050Y532114D01*
X299144Y543208D01*
X299250Y543186D01*
X324099D01*
X324535Y542535D01*
X326354Y541319D01*
X328500Y540892D01*
X330646Y541319D01*
X332465Y542535D01*
X333681Y544354D01*
X334108Y546500D01*
X333681Y548646D01*
X332465Y550465D01*
X330646Y551681D01*
X328500Y552108D01*
D02*
G37*
G36*
X308250Y684800D02*
X289250D01*
Y670486D01*
X277657Y658893D01*
X276939Y657818D01*
X276686Y656550D01*
Y646373D01*
X189157Y558843D01*
X188439Y557768D01*
X188186Y556500D01*
Y544901D01*
X187535Y544465D01*
X186319Y542646D01*
X185892Y540500D01*
X186319Y538354D01*
X187535Y536535D01*
X189354Y535319D01*
X191500Y534892D01*
X193646Y535319D01*
X195465Y536535D01*
X196681Y538354D01*
X197108Y540500D01*
X196681Y542646D01*
X195465Y544465D01*
X194814Y544901D01*
Y555127D01*
X282343Y642657D01*
X283061Y643732D01*
X283314Y645000D01*
Y655178D01*
X293936Y665800D01*
X308250D01*
Y684800D01*
D02*
G37*
G36*
X178500Y527358D02*
X176354Y526931D01*
X174535Y525715D01*
X173319Y523896D01*
X172892Y521750D01*
X173319Y519604D01*
X174535Y517785D01*
X176354Y516569D01*
X178500Y516142D01*
X180646Y516569D01*
X182465Y517785D01*
X183681Y519604D01*
X184108Y521750D01*
X183681Y523896D01*
X182465Y525715D01*
X180646Y526931D01*
X178500Y527358D01*
D02*
G37*
G36*
X191250Y522358D02*
X189104Y521931D01*
X187285Y520715D01*
X186069Y518896D01*
X185642Y516750D01*
X186069Y514604D01*
X187285Y512785D01*
X189104Y511569D01*
X191250Y511142D01*
X193396Y511569D01*
X195215Y512785D01*
X196431Y514604D01*
X196858Y516750D01*
X196431Y518896D01*
X195215Y520715D01*
X193396Y521931D01*
X191250Y522358D01*
D02*
G37*
G36*
X169250Y518108D02*
X167104Y517681D01*
X165285Y516465D01*
X164069Y514646D01*
X163642Y512500D01*
X164069Y510354D01*
X165285Y508535D01*
X167104Y507319D01*
X169250Y506892D01*
X171396Y507319D01*
X173215Y508535D01*
X174431Y510354D01*
X174858Y512500D01*
X174431Y514646D01*
X173215Y516465D01*
X171396Y517681D01*
X169250Y518108D01*
D02*
G37*
G36*
X187500Y479608D02*
X185354Y479181D01*
X183535Y477965D01*
X182319Y476146D01*
X181892Y474000D01*
X182319Y471854D01*
X183535Y470035D01*
X185354Y468819D01*
X187500Y468392D01*
X189646Y468819D01*
X191465Y470035D01*
X192681Y471854D01*
X193108Y474000D01*
X192681Y476146D01*
X191465Y477965D01*
X189646Y479181D01*
X187500Y479608D01*
D02*
G37*
G36*
X190000Y464608D02*
X187854Y464181D01*
X186035Y462965D01*
X184819Y461146D01*
X184392Y459000D01*
X184819Y456854D01*
X186035Y455035D01*
X187854Y453819D01*
X190000Y453392D01*
X192146Y453819D01*
X193965Y455035D01*
X195181Y456854D01*
X195608Y459000D01*
X195181Y461146D01*
X193965Y462965D01*
X192146Y464181D01*
X190000Y464608D01*
D02*
G37*
G36*
X257750Y459108D02*
X255604Y458681D01*
X253785Y457465D01*
X252569Y455646D01*
X252142Y453500D01*
X252295Y452731D01*
X240407Y440843D01*
X239689Y439768D01*
X239436Y438500D01*
Y424750D01*
X239689Y423482D01*
X240407Y422407D01*
X254907Y407907D01*
X255982Y407189D01*
X257250Y406936D01*
X260349D01*
X260785Y406285D01*
X262604Y405069D01*
X264750Y404642D01*
X266896Y405069D01*
X268715Y406285D01*
X269931Y408104D01*
X270358Y410250D01*
X269931Y412396D01*
X268715Y414215D01*
X266896Y415431D01*
X264750Y415858D01*
X262604Y415431D01*
X260785Y414215D01*
X260349Y413564D01*
X258623D01*
X246064Y426123D01*
Y437127D01*
X256981Y448045D01*
X257750Y447892D01*
X259896Y448319D01*
X261715Y449535D01*
X262931Y451354D01*
X263358Y453500D01*
X262931Y455646D01*
X261715Y457465D01*
X259896Y458681D01*
X257750Y459108D01*
D02*
G37*
G36*
X242000Y416608D02*
X239854Y416181D01*
X238035Y414965D01*
X236819Y413146D01*
X236392Y411000D01*
X236819Y408854D01*
X238035Y407035D01*
X239854Y405819D01*
X242000Y405392D01*
X244146Y405819D01*
X245965Y407035D01*
X247181Y408854D01*
X247608Y411000D01*
X247181Y413146D01*
X245965Y414965D01*
X244146Y416181D01*
X242000Y416608D01*
D02*
G37*
G36*
X548750Y430358D02*
X546604Y429931D01*
X544785Y428715D01*
X543569Y426896D01*
X543142Y424750D01*
X543569Y422604D01*
X544785Y420785D01*
X546604Y419569D01*
X548750Y419142D01*
X549218Y419235D01*
X560727Y407727D01*
X561884Y406953D01*
X563250Y406681D01*
X662020D01*
X662285Y406285D01*
X664104Y405069D01*
X666250Y404642D01*
X668396Y405069D01*
X670215Y406285D01*
X671431Y408104D01*
X671858Y410250D01*
X671431Y412396D01*
X670215Y414215D01*
X668396Y415431D01*
X666250Y415858D01*
X664104Y415431D01*
X662285Y414215D01*
X662020Y413819D01*
X564728D01*
X554265Y424282D01*
X554358Y424750D01*
X553931Y426896D01*
X552715Y428715D01*
X550896Y429931D01*
X548750Y430358D01*
D02*
G37*
G36*
X254108Y439500D02*
X251962Y439073D01*
X250143Y437857D01*
X248927Y436038D01*
X248500Y433892D01*
X248927Y431746D01*
X250143Y429926D01*
X251962Y428711D01*
X254108Y428284D01*
X256254Y428711D01*
X258074Y429926D01*
X258679Y430833D01*
X268591D01*
X289235Y410190D01*
Y395890D01*
X288069Y394146D01*
X287642Y392000D01*
X288069Y389854D01*
X289285Y388035D01*
X291104Y386819D01*
X293250Y386392D01*
X295396Y386819D01*
X297215Y388035D01*
X298431Y389854D01*
X298858Y392000D01*
X298431Y394146D01*
X297215Y395965D01*
X295396Y397181D01*
X295352Y397190D01*
Y411457D01*
X295119Y412627D01*
X294456Y413619D01*
X294456Y413620D01*
X272021Y436055D01*
X271029Y436718D01*
X269858Y436951D01*
X269858Y436950D01*
X258679D01*
X258074Y437857D01*
X256254Y439073D01*
X254108Y439500D01*
D02*
G37*
G36*
X263000Y395108D02*
X260854Y394681D01*
X259035Y393465D01*
X257819Y391646D01*
X257392Y389500D01*
X257819Y387354D01*
X259035Y385535D01*
X260854Y384319D01*
X263000Y383892D01*
X265146Y384319D01*
X266965Y385535D01*
X268181Y387354D01*
X268608Y389500D01*
X268181Y391646D01*
X266965Y393465D01*
X265146Y394681D01*
X263000Y395108D01*
D02*
G37*
G36*
X108500Y378108D02*
X106354Y377681D01*
X104535Y376465D01*
X103972Y375623D01*
X102444D01*
X102215Y375965D01*
X100396Y377181D01*
X98250Y377608D01*
X96104Y377181D01*
X94285Y375965D01*
X94052Y375617D01*
X92782D01*
X92215Y376465D01*
X90396Y377681D01*
X88250Y378108D01*
X86104Y377681D01*
X84285Y376465D01*
X83069Y374646D01*
X82642Y372500D01*
X83069Y370354D01*
X84285Y368535D01*
X86104Y367319D01*
X88250Y366892D01*
X90396Y367319D01*
X92215Y368535D01*
X92448Y368883D01*
X93718D01*
X94285Y368035D01*
X96104Y366819D01*
X98250Y366392D01*
X100396Y366819D01*
X102215Y368035D01*
X102778Y368877D01*
X104306D01*
X104535Y368535D01*
X106354Y367319D01*
X108500Y366892D01*
X110646Y367319D01*
X110835Y367445D01*
X111978Y366682D01*
X111892Y366250D01*
X112319Y364104D01*
X113535Y362285D01*
X115354Y361069D01*
X117500Y360642D01*
X119646Y361069D01*
X121465Y362285D01*
X122681Y364104D01*
X123108Y366250D01*
X122681Y368396D01*
X121465Y370215D01*
X119646Y371431D01*
X117500Y371858D01*
X115354Y371431D01*
X115165Y371305D01*
X114022Y372068D01*
X114108Y372500D01*
X113681Y374646D01*
X112465Y376465D01*
X110646Y377681D01*
X108500Y378108D01*
D02*
G37*
G36*
X149000Y379358D02*
X146854Y378931D01*
X145035Y377715D01*
X143819Y375896D01*
X143392Y373750D01*
X143819Y371604D01*
X145035Y369785D01*
X146854Y368569D01*
X149000Y368142D01*
X151146Y368569D01*
X152965Y369785D01*
X154181Y371604D01*
X154608Y373750D01*
X154181Y375896D01*
X152965Y377715D01*
X151146Y378931D01*
X149000Y379358D01*
D02*
G37*
G36*
X402750Y386850D02*
X382750D01*
Y366850D01*
X402750D01*
Y386850D01*
D02*
G37*
G36*
X142500Y364858D02*
X140354Y364431D01*
X138535Y363215D01*
X137319Y361396D01*
X136892Y359250D01*
X137319Y357104D01*
X138535Y355285D01*
X140354Y354069D01*
X142500Y353642D01*
X144646Y354069D01*
X146465Y355285D01*
X147681Y357104D01*
X148108Y359250D01*
X147681Y361396D01*
X146465Y363215D01*
X144646Y364431D01*
X142500Y364858D01*
D02*
G37*
G36*
X394020Y361914D02*
Y352720D01*
X403214D01*
X403019Y354202D01*
X401957Y356766D01*
X400267Y358967D01*
X398065Y360657D01*
X395502Y361719D01*
X394020Y361914D01*
D02*
G37*
G36*
X391480D02*
X389999Y361719D01*
X387435Y360657D01*
X385233Y358967D01*
X383543Y356766D01*
X382481Y354202D01*
X382286Y352720D01*
X391480D01*
Y361914D01*
D02*
G37*
G36*
X126250Y360358D02*
X124104Y359931D01*
X122285Y358715D01*
X121069Y356896D01*
X120642Y354750D01*
X121069Y352604D01*
X122285Y350785D01*
X124104Y349569D01*
X126250Y349142D01*
X128396Y349569D01*
X130215Y350785D01*
X131431Y352604D01*
X131858Y354750D01*
X131431Y356896D01*
X130215Y358715D01*
X128396Y359931D01*
X126250Y360358D01*
D02*
G37*
G36*
X66500Y354358D02*
X64354Y353931D01*
X62535Y352715D01*
X61319Y350896D01*
X60892Y348750D01*
X61319Y346604D01*
X62535Y344785D01*
X64354Y343569D01*
X66500Y343142D01*
X68646Y343569D01*
X70465Y344785D01*
X71681Y346604D01*
X72108Y348750D01*
X71681Y350896D01*
X70465Y352715D01*
X68646Y353931D01*
X66500Y354358D01*
D02*
G37*
G36*
X403214Y350180D02*
X394020D01*
Y340986D01*
X395502Y341181D01*
X398065Y342243D01*
X400267Y343933D01*
X401957Y346134D01*
X403019Y348699D01*
X403214Y350180D01*
D02*
G37*
G36*
X391480D02*
X382286D01*
X382481Y348699D01*
X383543Y346134D01*
X385233Y343933D01*
X387435Y342243D01*
X389999Y341181D01*
X391480Y340986D01*
Y350180D01*
D02*
G37*
G36*
X134500Y351108D02*
X132354Y350681D01*
X130535Y349465D01*
X129319Y347646D01*
X128892Y345500D01*
X129319Y343354D01*
X130535Y341535D01*
X132354Y340319D01*
X134500Y339892D01*
X136646Y340319D01*
X138465Y341535D01*
X139681Y343354D01*
X140108Y345500D01*
X139681Y347646D01*
X138465Y349465D01*
X136646Y350681D01*
X134500Y351108D01*
D02*
G37*
G36*
X95020Y324714D02*
Y315520D01*
X104214D01*
X104019Y317001D01*
X102957Y319566D01*
X101267Y321767D01*
X99066Y323457D01*
X96502Y324519D01*
X95020Y324714D01*
D02*
G37*
G36*
X92480D02*
X90998Y324519D01*
X88434Y323457D01*
X86233Y321767D01*
X84543Y319566D01*
X83481Y317001D01*
X83286Y315520D01*
X92480D01*
Y324714D01*
D02*
G37*
G36*
X129150Y324250D02*
X109150D01*
Y304250D01*
X129150D01*
Y324250D01*
D02*
G37*
G36*
X68350Y324336D02*
X65739Y323993D01*
X63307Y322985D01*
X61218Y321382D01*
X59615Y319293D01*
X58607Y316861D01*
X58264Y314250D01*
X58607Y311639D01*
X59615Y309207D01*
X61218Y307118D01*
X63307Y305515D01*
X65739Y304507D01*
X68350Y304164D01*
X70960Y304507D01*
X73393Y305515D01*
X75482Y307118D01*
X77085Y309207D01*
X78093Y311639D01*
X78436Y314250D01*
X78093Y316861D01*
X77085Y319293D01*
X75482Y321382D01*
X73393Y322985D01*
X70960Y323993D01*
X68350Y324336D01*
D02*
G37*
G36*
X104214Y312980D02*
X95020D01*
Y303786D01*
X96502Y303981D01*
X99066Y305043D01*
X101267Y306733D01*
X102957Y308934D01*
X104019Y311499D01*
X104214Y312980D01*
D02*
G37*
G36*
X92480D02*
X83286D01*
X83481Y311499D01*
X84543Y308934D01*
X86233Y306733D01*
X88434Y305043D01*
X90998Y303981D01*
X92480Y303786D01*
Y312980D01*
D02*
G37*
G36*
X463270Y306705D02*
Y298520D01*
X471455D01*
X471294Y299740D01*
X470333Y302061D01*
X468804Y304054D01*
X466811Y305583D01*
X464490Y306544D01*
X463270Y306705D01*
D02*
G37*
G36*
X460730Y306705D02*
X459509Y306544D01*
X457189Y305583D01*
X455196Y304054D01*
X453667Y302061D01*
X452705Y299740D01*
X452545Y298520D01*
X460730D01*
Y306705D01*
D02*
G37*
G36*
X521000Y306250D02*
X503000D01*
Y288250D01*
X521000D01*
Y306250D01*
D02*
G37*
G36*
X471455Y295980D02*
X463270D01*
Y287795D01*
X464490Y287955D01*
X466811Y288917D01*
X468804Y290446D01*
X470333Y292439D01*
X471294Y294760D01*
X471455Y295980D01*
D02*
G37*
G36*
X460730D02*
X452545D01*
X452705Y294760D01*
X453667Y292439D01*
X455196Y290446D01*
X457189Y288917D01*
X459509Y287955D01*
X460730Y287795D01*
Y295980D01*
D02*
G37*
G36*
X57500Y134358D02*
X55354Y133931D01*
X53535Y132715D01*
X52319Y130896D01*
X51892Y128750D01*
X52319Y126604D01*
X53535Y124785D01*
X55354Y123569D01*
X57500Y123142D01*
X59646Y123569D01*
X61465Y124785D01*
X62681Y126604D01*
X63108Y128750D01*
X62681Y130896D01*
X61465Y132715D01*
X59646Y133931D01*
X57500Y134358D01*
D02*
G37*
G36*
X24250Y132608D02*
X22104Y132181D01*
X20285Y130965D01*
X19069Y129146D01*
X18642Y127000D01*
X19069Y124854D01*
X20285Y123035D01*
X22104Y121819D01*
X24250Y121392D01*
X26396Y121819D01*
X28215Y123035D01*
X29431Y124854D01*
X29858Y127000D01*
X29431Y129146D01*
X28215Y130965D01*
X26396Y132181D01*
X24250Y132608D01*
D02*
G37*
G36*
X87500Y131608D02*
X85354Y131181D01*
X83535Y129965D01*
X82319Y128146D01*
X81892Y126000D01*
X82319Y123854D01*
X83535Y122035D01*
X85354Y120819D01*
X87500Y120392D01*
X89646Y120819D01*
X91465Y122035D01*
X92681Y123854D01*
X93108Y126000D01*
X92681Y128146D01*
X91465Y129965D01*
X89646Y131181D01*
X87500Y131608D01*
D02*
G37*
G36*
X611520Y87152D02*
Y66640D01*
X622547D01*
Y75022D01*
X622128Y78205D01*
X620900Y81171D01*
X618945Y83717D01*
X616399Y85672D01*
X613433Y86900D01*
X611520Y87152D01*
D02*
G37*
G36*
X608980Y87152D02*
X607067Y86900D01*
X604101Y85672D01*
X601555Y83717D01*
X599600Y81171D01*
X598372Y78205D01*
X597953Y75022D01*
Y66640D01*
X608980D01*
Y87152D01*
D02*
G37*
G36*
X645250Y86775D02*
X642208Y86374D01*
X639374Y85200D01*
X636940Y83332D01*
X635072Y80898D01*
X633898Y78064D01*
X633498Y75022D01*
Y55718D01*
X633898Y52676D01*
X635072Y49842D01*
X636940Y47408D01*
X639374Y45540D01*
X642208Y44366D01*
X645250Y43966D01*
X648292Y44366D01*
X651126Y45540D01*
X653560Y47408D01*
X655428Y49842D01*
X656602Y52676D01*
X657002Y55718D01*
Y75022D01*
X656602Y78064D01*
X655428Y80898D01*
X653560Y83332D01*
X651126Y85200D01*
X648292Y86374D01*
X645250Y86775D01*
D02*
G37*
G36*
X622547Y64100D02*
X611520D01*
Y43588D01*
X613433Y43840D01*
X616399Y45068D01*
X618945Y47023D01*
X620900Y49569D01*
X622128Y52535D01*
X622547Y55718D01*
Y64100D01*
D02*
G37*
G36*
X608980D02*
X597953D01*
Y55718D01*
X598372Y52535D01*
X599600Y49569D01*
X601555Y47023D01*
X604101Y45068D01*
X607067Y43840D01*
X608980Y43588D01*
Y64100D01*
D02*
G37*
%LPD*%
G36*
X508250Y867000D02*
X470000D01*
Y891000D01*
X508250D01*
Y867000D01*
D02*
G37*
G36*
X86079Y740563D02*
X86152Y739671D01*
X84535Y738590D01*
X83319Y736771D01*
X82892Y734625D01*
X83319Y732479D01*
X84535Y730660D01*
X85441Y730054D01*
Y720500D01*
X85441Y720500D01*
X85674Y719330D01*
X86337Y718337D01*
X99354Y705320D01*
X121109Y683565D01*
X121132Y683394D01*
X120693Y682334D01*
X120555Y682229D01*
X116980D01*
X116945Y682222D01*
X115273Y682002D01*
X113682Y681343D01*
X112316Y680295D01*
X111267Y678928D01*
X110608Y677337D01*
X110384Y675630D01*
X110608Y673923D01*
X111267Y672332D01*
X112316Y670966D01*
X113682Y669918D01*
X115273Y669258D01*
X114986Y668069D01*
X108854D01*
X108819Y668062D01*
X107147Y667842D01*
X105556Y667183D01*
X104190Y666135D01*
X103141Y664768D01*
X102483Y663177D01*
X102258Y661470D01*
X102483Y659763D01*
X103030Y658442D01*
X102704Y657710D01*
X102257Y657239D01*
X81954D01*
X81667Y658428D01*
X83258Y659087D01*
X84624Y660136D01*
X85673Y661502D01*
X86332Y663093D01*
X86552Y664765D01*
X86559Y664800D01*
Y674233D01*
X88181Y675855D01*
X89250Y675642D01*
X91396Y676069D01*
X93215Y677285D01*
X94431Y679104D01*
X94858Y681250D01*
X94431Y683396D01*
X93215Y685215D01*
X91396Y686431D01*
X89250Y686858D01*
X87104Y686431D01*
X85285Y685215D01*
X84069Y683396D01*
X83642Y681250D01*
X83855Y680181D01*
X81337Y677663D01*
X80674Y676671D01*
X80441Y675500D01*
X80441Y675500D01*
Y664800D01*
X80407D01*
X80276Y664484D01*
X79960Y664353D01*
Y664319D01*
X79960D01*
X79925Y664312D01*
X78253Y664092D01*
X76662Y663433D01*
X76329Y663177D01*
X75059Y663804D01*
Y672093D01*
Y677179D01*
X75965Y677785D01*
X77181Y679604D01*
X77608Y681750D01*
X77181Y683896D01*
X75965Y685715D01*
X74146Y686931D01*
X72000Y687358D01*
X69854Y686931D01*
X68035Y685715D01*
X66819Y683896D01*
X66392Y681750D01*
X66819Y679604D01*
X68035Y677785D01*
X68941Y677179D01*
Y672093D01*
Y650094D01*
X68907D01*
X68776Y649778D01*
X68460Y649647D01*
Y649613D01*
X45205D01*
X45171Y649606D01*
X43498Y649386D01*
X41907Y648727D01*
X40579Y647707D01*
X40401Y647733D01*
X39309Y648158D01*
Y701483D01*
X78767Y740941D01*
X85941D01*
X86079Y740563D01*
D02*
G37*
%LPC*%
G36*
X394020Y311114D02*
Y301920D01*
X403214D01*
X403019Y303402D01*
X401957Y305965D01*
X400267Y308167D01*
X398065Y309857D01*
X395502Y310919D01*
X394020Y311114D01*
D02*
G37*
G36*
X391480D02*
X389999Y310919D01*
X387435Y309857D01*
X385233Y308167D01*
X383543Y305965D01*
X382481Y303402D01*
X382286Y301920D01*
X391480D01*
Y311114D01*
D02*
G37*
G36*
X403214Y299380D02*
X394020D01*
Y290186D01*
X395502Y290381D01*
X398065Y291443D01*
X400267Y293133D01*
X401957Y295334D01*
X403019Y297899D01*
X403214Y299380D01*
D02*
G37*
G36*
X391480D02*
X382286D01*
X382481Y297899D01*
X383543Y295334D01*
X385233Y293133D01*
X387435Y291443D01*
X389999Y290381D01*
X391480Y290186D01*
Y299380D01*
D02*
G37*
G36*
X394020Y285714D02*
Y276520D01*
X403214D01*
X403019Y278001D01*
X401957Y280565D01*
X400267Y282767D01*
X398065Y284457D01*
X395502Y285519D01*
X394020Y285714D01*
D02*
G37*
G36*
X391480D02*
X389999Y285519D01*
X387435Y284457D01*
X385233Y282767D01*
X383543Y280565D01*
X382481Y278001D01*
X382286Y276520D01*
X391480D01*
Y285714D01*
D02*
G37*
G36*
X403214Y273980D02*
X394020D01*
Y264786D01*
X395502Y264981D01*
X398065Y266043D01*
X400267Y267733D01*
X401957Y269935D01*
X403019Y272498D01*
X403214Y273980D01*
D02*
G37*
G36*
X391480D02*
X382286D01*
X382481Y272498D01*
X383543Y269935D01*
X385233Y267733D01*
X387435Y266043D01*
X389999Y264981D01*
X391480Y264786D01*
Y273980D01*
D02*
G37*
G36*
X392750Y259936D02*
X390140Y259593D01*
X387707Y258585D01*
X385618Y256982D01*
X384015Y254893D01*
X383007Y252460D01*
X382664Y249850D01*
X383007Y247239D01*
X384015Y244807D01*
X385618Y242718D01*
X387707Y241115D01*
X390140Y240107D01*
X392750Y239764D01*
X395360Y240107D01*
X397793Y241115D01*
X399882Y242718D01*
X401485Y244807D01*
X402493Y247239D01*
X402836Y249850D01*
X402493Y252460D01*
X401485Y254893D01*
X399882Y256982D01*
X397793Y258585D01*
X395360Y259593D01*
X392750Y259936D01*
D02*
G37*
G36*
Y234536D02*
X390140Y234193D01*
X387707Y233185D01*
X385618Y231582D01*
X384015Y229493D01*
X383007Y227061D01*
X382664Y224450D01*
X383007Y221840D01*
X384015Y219407D01*
X385618Y217318D01*
X387707Y215715D01*
X390140Y214707D01*
X392750Y214364D01*
X395360Y214707D01*
X397793Y215715D01*
X399882Y217318D01*
X401485Y219407D01*
X402493Y221840D01*
X402836Y224450D01*
X402493Y227061D01*
X401485Y229493D01*
X399882Y231582D01*
X397793Y233185D01*
X395360Y234193D01*
X392750Y234536D01*
D02*
G37*
G36*
X234000Y199858D02*
X231854Y199431D01*
X230035Y198215D01*
X228819Y196396D01*
X228392Y194250D01*
X228819Y192104D01*
X230035Y190285D01*
X231854Y189069D01*
X234000Y188642D01*
X236146Y189069D01*
X237965Y190285D01*
X238401Y190936D01*
X365127D01*
X400795Y155269D01*
X400642Y154500D01*
X401069Y152354D01*
X402285Y150535D01*
X404104Y149319D01*
X406250Y148892D01*
X408396Y149319D01*
X410215Y150535D01*
X411431Y152354D01*
X411858Y154500D01*
X411431Y156646D01*
X410215Y158465D01*
X408396Y159681D01*
X406250Y160108D01*
X405481Y159955D01*
X368843Y196593D01*
X367768Y197311D01*
X367558Y197353D01*
X366500Y197564D01*
X238401D01*
X237965Y198215D01*
X236146Y199431D01*
X234000Y199858D01*
D02*
G37*
G36*
X200750Y198358D02*
X198604Y197931D01*
X196785Y196715D01*
X195569Y194896D01*
X195142Y192750D01*
X195569Y190604D01*
X196785Y188785D01*
X198604Y187569D01*
X200750Y187142D01*
X201519Y187295D01*
X217907Y170907D01*
X218982Y170189D01*
X220250Y169936D01*
X344878D01*
X415795Y99019D01*
X415642Y98250D01*
X416069Y96104D01*
X417285Y94285D01*
X419104Y93069D01*
X421250Y92642D01*
X423396Y93069D01*
X425215Y94285D01*
X426431Y96104D01*
X426858Y98250D01*
X426431Y100396D01*
X425215Y102215D01*
X423396Y103431D01*
X421250Y103858D01*
X420481Y103705D01*
X348593Y175593D01*
X347518Y176311D01*
X347308Y176353D01*
X346250Y176564D01*
X221623D01*
X206205Y191981D01*
X206358Y192750D01*
X205931Y194896D01*
X204715Y196715D01*
X202896Y197931D01*
X200750Y198358D01*
D02*
G37*
G36*
X273270Y87517D02*
Y67005D01*
X284297D01*
Y75387D01*
X283878Y78570D01*
X282650Y81536D01*
X280695Y84082D01*
X278149Y86037D01*
X275183Y87265D01*
X273270Y87517D01*
D02*
G37*
G36*
X270730D02*
X268817Y87265D01*
X265851Y86037D01*
X263305Y84082D01*
X261350Y81536D01*
X260122Y78570D01*
X259703Y75387D01*
Y67005D01*
X270730D01*
Y87517D01*
D02*
G37*
G36*
X237000Y87140D02*
X233958Y86739D01*
X231124Y85565D01*
X228690Y83697D01*
X226822Y81263D01*
X225648Y78429D01*
X225247Y75387D01*
Y56083D01*
X225648Y53041D01*
X226822Y50207D01*
X228690Y47773D01*
X231124Y45905D01*
X233958Y44731D01*
X237000Y44331D01*
X240042Y44731D01*
X242876Y45905D01*
X245310Y47773D01*
X247178Y50207D01*
X248352Y53041D01*
X248752Y56083D01*
Y75387D01*
X248352Y78429D01*
X247178Y81263D01*
X245310Y83697D01*
X242876Y85565D01*
X240042Y86739D01*
X237000Y87140D01*
D02*
G37*
G36*
X202000D02*
X198958Y86739D01*
X196124Y85565D01*
X193690Y83697D01*
X191822Y81263D01*
X190648Y78429D01*
X190247Y75387D01*
Y56083D01*
X190648Y53041D01*
X191822Y50207D01*
X193690Y47773D01*
X196124Y45905D01*
X198958Y44731D01*
X202000Y44331D01*
X205042Y44731D01*
X207876Y45905D01*
X210310Y47773D01*
X212178Y50207D01*
X213352Y53041D01*
X213752Y56083D01*
Y75387D01*
X213352Y78429D01*
X212178Y81263D01*
X210310Y83697D01*
X207876Y85565D01*
X205042Y86739D01*
X202000Y87140D01*
D02*
G37*
G36*
X270730Y64465D02*
X259703D01*
Y56083D01*
X260122Y52900D01*
X261350Y49934D01*
X263305Y47388D01*
X265851Y45433D01*
X268817Y44205D01*
X270730Y43953D01*
Y64465D01*
D02*
G37*
G36*
X284297D02*
X273270D01*
Y43953D01*
X275183Y44205D01*
X278149Y45433D01*
X280695Y47388D01*
X282650Y49934D01*
X283878Y52900D01*
X284297Y56083D01*
Y64465D01*
D02*
G37*
G36*
X417250Y56250D02*
X397250D01*
Y36250D01*
X417250D01*
Y56250D01*
D02*
G37*
G36*
X381850Y56336D02*
X379240Y55993D01*
X376807Y54985D01*
X374718Y53382D01*
X373115Y51293D01*
X372107Y48861D01*
X371764Y46250D01*
X372107Y43639D01*
X373115Y41207D01*
X374718Y39118D01*
X376807Y37515D01*
X379240Y36507D01*
X381850Y36164D01*
X384460Y36507D01*
X386893Y37515D01*
X388982Y39118D01*
X390585Y41207D01*
X391593Y43639D01*
X391936Y46250D01*
X391593Y48861D01*
X390585Y51293D01*
X388982Y53382D01*
X386893Y54985D01*
X384460Y55993D01*
X381850Y56336D01*
D02*
G37*
G36*
X356450D02*
X353839Y55993D01*
X351407Y54985D01*
X349318Y53382D01*
X347715Y51293D01*
X346707Y48861D01*
X346364Y46250D01*
X346707Y43639D01*
X347715Y41207D01*
X349318Y39118D01*
X351407Y37515D01*
X353839Y36507D01*
X356450Y36164D01*
X359061Y36507D01*
X361493Y37515D01*
X363582Y39118D01*
X365185Y41207D01*
X366193Y43639D01*
X366536Y46250D01*
X366193Y48861D01*
X365185Y51293D01*
X363582Y53382D01*
X361493Y54985D01*
X359061Y55993D01*
X356450Y56336D01*
D02*
G37*
%LPD*%
D10*
X68460Y646554D02*
G03*
X72000Y650094I0J3540D01*
G01*
X45205Y646554D02*
G03*
X45205Y639474I0J-3540D01*
G01*
X69047Y632394D02*
G03*
X69047Y639474I0J3540D01*
G01*
X45205Y632394D02*
G03*
X45205Y625314I0J-3540D01*
G01*
X69006Y618234D02*
G03*
X69006Y625314I0J3540D01*
G01*
X45205Y618234D02*
G03*
X45205Y611154I0J-3540D01*
G01*
X72000Y607614D02*
G03*
X68460Y611154I-3540J0D01*
G01*
X101339Y543345D02*
G03*
X106345Y543345I2503J2503D01*
G01*
X98071Y546612D02*
G03*
X93065Y546612I-2503J-2503D01*
G01*
X93065Y546612D02*
G03*
X93065Y541606I2503J-2503D01*
G01*
X96332Y533332D02*
G03*
X96332Y538339I-2503J2503D01*
G01*
X121284Y679170D02*
G03*
X123787Y685213I0J3540D01*
G01*
X116980Y679170D02*
G03*
X116980Y672090I0J-3540D01*
G01*
X125210Y665010D02*
G03*
X125210Y672090I0J3540D01*
G01*
X108854Y665010D02*
G03*
X108854Y657930I0J-3540D01*
G01*
X125210Y650850D02*
G03*
X125210Y657930I0J3540D01*
G01*
X113536Y650850D02*
G03*
X113536Y643770I0J-3540D01*
G01*
X125210Y636690D02*
G03*
X125210Y643770I0J3540D01*
G01*
X116440Y636690D02*
G03*
X116440Y629610I0J-3540D01*
G01*
X125210Y622530D02*
G03*
X125210Y629610I0J3540D01*
G01*
X116440Y622530D02*
G03*
X116440Y615450I0J-3540D01*
G01*
X125210Y608370D02*
G03*
X125210Y615450I0J3540D01*
G01*
X116440Y608370D02*
G03*
X116440Y601290I0J-3540D01*
G01*
X126500Y597750D02*
G03*
X122960Y601290I-3540J0D01*
G01*
X79960Y661260D02*
G03*
X83500Y664800I0J3540D01*
G01*
X79960Y661260D02*
G03*
X79960Y654180I0J-3540D01*
G01*
X102456Y647100D02*
G03*
X102456Y654180I0J3540D01*
G01*
X79540Y647100D02*
G03*
X79540Y640020I0J-3540D01*
G01*
X105360Y632940D02*
G03*
X105360Y640020I0J3540D01*
G01*
X79540Y632940D02*
G03*
X79540Y625860I0J-3540D01*
G01*
X105360Y618780D02*
G03*
X105360Y625860I0J3540D01*
G01*
X79540Y618780D02*
G03*
X79540Y611700I0J-3540D01*
G01*
X105360Y604620D02*
G03*
X105360Y611700I0J3540D01*
G01*
X79540Y604620D02*
G03*
X79540Y597540I0J-3540D01*
G01*
X83500Y594000D02*
G03*
X79960Y597540I-3540J0D01*
G01*
X434500Y875500D02*
X485000Y926000D01*
X573500Y946200D02*
X613500Y986200D01*
X485000Y926000D02*
X573500D01*
Y946200D01*
X437500Y618500D02*
X447000Y628000D01*
X437500Y595000D02*
Y618500D01*
X203500Y434500D02*
Y554650D01*
X298750Y649900D01*
X95250Y519000D02*
X136750Y560500D01*
X95250Y441000D02*
Y519000D01*
X88250Y431500D02*
Y525250D01*
X104750Y451422D02*
Y519750D01*
X102000Y450250D02*
X103353D01*
X104525Y451422D01*
X638900Y986200D02*
X658000Y967100D01*
Y922500D02*
Y967100D01*
X566250Y913250D02*
X648750D01*
X658000Y922500D01*
X447000Y628000D02*
Y874500D01*
X74600Y986200D02*
Y987100D01*
X86500Y999000D02*
X110000D01*
X74600Y987100D02*
X86500Y999000D01*
X158250Y1047250D02*
X326750D01*
X110000Y999000D02*
X158250Y1047250D01*
X340250Y1005500D02*
Y1033750D01*
X326750Y1047250D02*
X340250Y1033750D01*
Y1005500D02*
X347000Y998750D01*
X340800Y986200D02*
X613500D01*
X314500Y1037250D02*
X327750Y1024000D01*
Y999250D02*
Y1024000D01*
Y999250D02*
X340800Y986200D01*
X626350Y998750D02*
X638900Y986200D01*
X347000Y998750D02*
X626350D01*
X100000Y986200D02*
X113450D01*
X164500Y1037250D02*
X314500D01*
X113450Y986200D02*
X164500Y1037250D01*
X447000Y874500D02*
X485750Y913250D01*
X566250D01*
X434500Y635000D02*
Y875500D01*
X420500Y594750D02*
Y621000D01*
X434500Y635000D01*
X312000Y847500D02*
X359000Y894500D01*
X396250D01*
X133125Y722625D02*
X136750Y719000D01*
X122000Y722625D02*
X133125D01*
X121995Y722630D02*
X122000Y722625D01*
X121875Y722630D02*
X121995D01*
X221750Y343750D02*
Y454615D01*
X249885Y482750D01*
X204750Y340250D02*
Y351500D01*
X215500Y362250D01*
X231750Y457692D02*
X247558Y473500D01*
X231750Y335500D02*
Y457692D01*
X235904Y484654D02*
X242596D01*
X249885Y482750D02*
X256500D01*
X215500Y464250D02*
X235904Y484654D01*
X136750Y560500D02*
Y719000D01*
X106475Y831725D02*
X140500Y865750D01*
X308750D02*
X335500Y892500D01*
X140500Y865750D02*
X308750D01*
X254108Y433892D02*
X269858D01*
X292293Y392957D02*
Y411457D01*
X269858Y433892D02*
X292293Y411457D01*
X143250Y847500D02*
X312000D01*
X120500Y824750D02*
X143250Y847500D01*
X106275Y825225D02*
X106475Y825425D01*
X247558Y473500D02*
X265250D01*
X240500Y457250D02*
X248500Y465250D01*
X267250D01*
X306000Y426500D01*
X215500Y362250D02*
Y464250D01*
X126250Y578000D02*
X126500Y578250D01*
Y596750D01*
X104525Y451422D02*
X104750D01*
X149750Y564750D02*
Y722250D01*
X104750Y519750D02*
X149750Y564750D01*
X72000Y585250D02*
Y606614D01*
Y650094D02*
Y672093D01*
X45205Y646554D02*
X68460D01*
X45205Y639474D02*
X69047D01*
X45205Y632394D02*
X69047D01*
X45205Y625314D02*
X69006D01*
X45205Y618234D02*
X69006D01*
X45205Y611154D02*
X68460D01*
X72000Y606614D02*
Y607614D01*
Y672093D02*
Y681750D01*
X127000Y745000D02*
X149750Y722250D01*
X106345Y543345D02*
X119875Y556875D01*
X98071Y546612D02*
X101339Y543345D01*
X93065Y546612D02*
Y546612D01*
X93065Y546612D02*
X93065Y546612D01*
X93065Y546612D02*
Y546612D01*
Y541606D02*
X96332Y538339D01*
X95625Y532625D02*
X96332Y533332D01*
X119875Y556875D02*
X132750Y569750D01*
X88250Y525250D02*
X95625Y532625D01*
X101517Y707483D02*
X123787Y685213D01*
X123787Y685213D02*
X123787Y685213D01*
X116980Y679170D02*
X121284D01*
X116980Y672090D02*
X125210D01*
X108854Y665010D02*
X125210D01*
X108854Y657930D02*
X125210D01*
X113536Y650850D02*
X125210D01*
X113536Y643770D02*
X125210D01*
X116440Y636690D02*
X125210D01*
X116440Y629610D02*
X125210D01*
X116440Y622530D02*
X125210D01*
X116440Y615450D02*
X125210D01*
X116440Y608370D02*
X125210D01*
X116440Y601290D02*
X122960D01*
X126500Y596750D02*
Y597750D01*
X88500Y720500D02*
X101517Y707483D01*
X36250Y579500D02*
X52750Y563000D01*
X36250Y702750D02*
X77500Y744000D01*
X36250Y579500D02*
Y702750D01*
X77500Y744000D02*
X98750D01*
X104250Y718500D02*
Y738500D01*
X98750Y744000D02*
X104250Y738500D01*
X83500Y664800D02*
Y675241D01*
X79960Y661260D02*
X79960D01*
X79960Y654180D02*
X102456D01*
X79540Y647100D02*
X102456D01*
X79540Y640020D02*
X105360D01*
X79540Y632940D02*
X105360D01*
X79540Y625860D02*
X105360D01*
X79540Y618780D02*
X105360D01*
X79540Y611700D02*
X105360D01*
X79540Y604620D02*
X105360D01*
X79540Y597540D02*
X79960D01*
X83500Y593000D02*
Y594000D01*
Y675241D02*
Y675500D01*
X88500Y720500D02*
Y734625D01*
X83500Y675500D02*
X89250Y681250D01*
X132750Y569750D02*
Y696250D01*
X113500Y715500D02*
Y729000D01*
Y715500D02*
X132750Y696250D01*
X127000Y745000D02*
Y745000D01*
X83500Y588250D02*
Y593000D01*
X72000Y585250D02*
X82000Y575250D01*
X52750Y563000D02*
X90500D01*
X96750Y569250D02*
Y586500D01*
X90500Y563000D02*
X96750Y569250D01*
Y586500D02*
X97000Y586750D01*
X106475Y825425D02*
Y831725D01*
X292293Y392957D02*
X293250Y392000D01*
X306000Y392250D02*
Y426500D01*
D12*
X403250Y542750D02*
X421500D01*
X388250Y527750D02*
X403250Y542750D01*
X299250Y546500D02*
X328500D01*
X298500Y547250D02*
X299250Y546500D01*
X257000Y505750D02*
X298500Y547250D01*
X289747Y527750D02*
X388250D01*
X260500Y494000D02*
X272304Y505804D01*
Y510307D01*
X289747Y527750D01*
X191500Y556500D02*
X280000Y645000D01*
X220250Y173250D02*
X346250D01*
X421250Y98250D01*
X257250Y410250D02*
X264750D01*
X242750Y424750D02*
X257250Y410250D01*
X242750Y424750D02*
Y438500D01*
X257750Y453500D01*
X197639Y742111D02*
X198500Y741250D01*
X197639Y742111D02*
Y744611D01*
X146000Y796250D02*
X197639Y744611D01*
X229610Y720855D02*
X254237Y745482D01*
Y755679D01*
X246688Y745061D02*
Y752594D01*
X245247Y754035D02*
X246688Y752594D01*
X227523Y725895D02*
X246688Y745061D01*
X245247Y754035D02*
Y755253D01*
X280000Y656550D02*
X298750Y675300D01*
X280000Y645000D02*
Y656550D01*
X191500Y540500D02*
Y556500D01*
X200750Y192750D02*
X220250Y173250D01*
X366500Y194250D02*
X406250Y154500D01*
X234000Y194250D02*
X366500D01*
X221500Y915550D02*
Y932500D01*
X219750Y934250D02*
Y951594D01*
Y934250D02*
X221500Y932500D01*
Y915550D02*
X222200Y914850D01*
X219750Y951594D02*
X231826Y963670D01*
X224660Y949546D02*
X233864Y958750D01*
X224660Y936009D02*
X230658Y930010D01*
X250060D01*
X224660Y936009D02*
Y949546D01*
X295674Y963670D02*
X314900Y944444D01*
X315020Y895948D02*
Y942576D01*
X314900Y942696D02*
Y944444D01*
X231826Y963670D02*
X295674D01*
X314900Y942696D02*
X315020Y942576D01*
X233864Y958750D02*
X293636D01*
X309980Y895948D02*
Y942406D01*
X293636Y958750D02*
X309980Y942406D01*
X185198Y725895D02*
X227523D01*
X185198Y720855D02*
X229610D01*
X182000Y727875D02*
X183218D01*
X182000Y718875D02*
X183218D01*
Y727875D02*
X185198Y725895D01*
X183218Y718875D02*
X185198Y720855D01*
X250060Y930010D02*
X260300Y940250D01*
X308000Y893968D02*
X309980Y895948D01*
X308000Y892750D02*
Y893968D01*
X317000Y892750D02*
Y893968D01*
X315020Y895948D02*
X317000Y893968D01*
D18*
X548750Y424750D02*
X563250Y410250D01*
X666250D01*
D109*
X610250Y65370D02*
D03*
X272000Y65735D02*
D03*
D110*
X298750Y675300D02*
D03*
D111*
X100000Y960800D02*
D03*
Y986200D02*
D03*
X74600D02*
D03*
X100000Y1011600D02*
D03*
X638900Y986200D02*
D03*
X613500D02*
D03*
Y1011600D02*
D03*
Y960800D02*
D03*
X298750Y624500D02*
D03*
Y649900D02*
D03*
D112*
X352100Y697250D02*
D03*
X93750Y314250D02*
D03*
X392750Y275250D02*
D03*
Y300650D02*
D03*
Y351450D02*
D03*
D116*
X260300Y940250D02*
D03*
X222200Y914850D02*
D03*
D117*
X462000Y297250D02*
D03*
X643000Y670000D02*
D03*
D120*
X346750Y754000D02*
D03*
X358625D02*
D03*
Y764750D02*
D03*
X346750D02*
D03*
X370500D02*
D03*
Y754000D02*
D03*
X492875Y572000D02*
D03*
Y561250D02*
D03*
X504750Y572000D02*
D03*
Y561250D02*
D03*
X516625Y572000D02*
D03*
Y561250D02*
D03*
X298125Y514000D02*
D03*
Y503250D02*
D03*
X310000Y514000D02*
D03*
Y503250D02*
D03*
X520375Y726250D02*
D03*
X532250D02*
D03*
X508500Y737000D02*
D03*
Y726250D02*
D03*
X532250Y737000D02*
D03*
X520375D02*
D03*
X268875Y658500D02*
D03*
Y669250D02*
D03*
X158750Y518500D02*
D03*
Y508000D02*
D03*
X171250Y691250D02*
D03*
X477500Y883250D02*
D03*
X489375D02*
D03*
X245125Y669250D02*
D03*
X257000D02*
D03*
Y658500D02*
D03*
X245125D02*
D03*
X286250Y503250D02*
D03*
Y514000D02*
D03*
X657125Y240000D02*
D03*
X50750Y584500D02*
D03*
X34250Y556500D02*
D03*
X287250Y802000D02*
D03*
X266250Y802250D02*
D03*
X409500Y460875D02*
D03*
X398750D02*
D03*
X44000Y666125D02*
D03*
Y678000D02*
D03*
Y689875D02*
D03*
X54750D02*
D03*
Y678000D02*
D03*
Y666125D02*
D03*
X237750Y990375D02*
D03*
Y1002250D02*
D03*
Y1014125D02*
D03*
X248500D02*
D03*
Y1002250D02*
D03*
Y990375D02*
D03*
X85625Y899000D02*
D03*
X73750D02*
D03*
X61875D02*
D03*
Y909750D02*
D03*
X73750D02*
D03*
X85625D02*
D03*
X20250Y860625D02*
D03*
Y872500D02*
D03*
Y884375D02*
D03*
X31000D02*
D03*
Y872500D02*
D03*
Y860625D02*
D03*
X18500Y462125D02*
D03*
Y474000D02*
D03*
Y485875D02*
D03*
X29250D02*
D03*
Y474000D02*
D03*
Y462125D02*
D03*
X398750Y437125D02*
D03*
Y449000D02*
D03*
X409500D02*
D03*
Y437125D02*
D03*
X20000Y231125D02*
D03*
Y243000D02*
D03*
Y254875D02*
D03*
X30750D02*
D03*
Y243000D02*
D03*
Y231125D02*
D03*
X506625Y32500D02*
D03*
X518500D02*
D03*
X530375D02*
D03*
Y21750D02*
D03*
X518500D02*
D03*
X506625D02*
D03*
X478125Y227500D02*
D03*
X490000D02*
D03*
X501875D02*
D03*
Y216750D02*
D03*
X490000D02*
D03*
X478125D02*
D03*
X633375Y251000D02*
D03*
X645250D02*
D03*
X657125D02*
D03*
X645250Y240000D02*
D03*
X633375D02*
D03*
X597125Y251000D02*
D03*
X609000D02*
D03*
X620875D02*
D03*
Y240000D02*
D03*
X609000D02*
D03*
X597125D02*
D03*
X560625Y251000D02*
D03*
X572500D02*
D03*
X584375D02*
D03*
Y240000D02*
D03*
X572500D02*
D03*
X560625D02*
D03*
X477500Y872500D02*
D03*
X489375D02*
D03*
X501250D02*
D03*
Y883250D02*
D03*
D121*
X573500Y926000D02*
D03*
X437500Y595000D02*
D03*
X203500Y434500D02*
D03*
X421500Y542750D02*
D03*
X328500Y546500D02*
D03*
X95250Y441000D02*
D03*
X102000Y450250D02*
D03*
X566250Y913250D02*
D03*
X420500Y594750D02*
D03*
X260500Y494000D02*
D03*
X257000Y505750D02*
D03*
X105590Y774690D02*
D03*
Y786070D02*
D03*
X116430Y774690D02*
D03*
Y786070D02*
D03*
X396250Y894500D02*
D03*
X204750Y340250D02*
D03*
X221750Y343750D02*
D03*
X231750Y335500D02*
D03*
X242596Y484654D02*
D03*
X120500Y824750D02*
D03*
X106275Y825225D02*
D03*
X240500Y457250D02*
D03*
X421250Y98250D02*
D03*
X254108Y433892D02*
D03*
X198500Y741250D02*
D03*
X126250Y578000D02*
D03*
X254237Y755679D02*
D03*
X245247Y755253D02*
D03*
X191500Y540500D02*
D03*
X146000Y796250D02*
D03*
X256500Y482750D02*
D03*
X265250Y473500D02*
D03*
X335500Y892500D02*
D03*
X121875Y722630D02*
D03*
X88500Y734625D02*
D03*
X89250Y681250D02*
D03*
X72000Y681750D02*
D03*
X88250Y431500D02*
D03*
X104250Y718500D02*
D03*
X83500Y588250D02*
D03*
X97000Y586750D02*
D03*
X293250Y392000D02*
D03*
X306000Y392250D02*
D03*
X264750Y410250D02*
D03*
X257750Y453500D02*
D03*
X82000Y575250D02*
D03*
X127000Y745000D02*
D03*
X113500Y729000D02*
D03*
X666250Y410250D02*
D03*
X548750Y424750D02*
D03*
X200750Y192750D02*
D03*
X406250Y154500D02*
D03*
X234000Y194250D02*
D03*
X182000Y727875D02*
D03*
Y718875D02*
D03*
X317000Y892750D02*
D03*
X308000D02*
D03*
M02*
