G04*
G04 #@! TF.GenerationSoftware,Altium Limited,Altium Designer,20.0.13 (296)*
G04*
G04 Layer_Color=16711935*
%FSLAX44Y44*%
%MOMM*%
G71*
G01*
G75*
%ADD58R,1.9200X1.4700*%
%ADD87C,1.7032*%
%ADD88R,1.7032X1.7032*%
%ADD89C,1.7200*%
%ADD90R,1.7200X1.7200*%
%ADD91C,1.8032*%
%ADD92R,1.8032X1.8032*%
%ADD93O,2.1336X4.0640*%
%ADD94R,1.6012X1.6012*%
%ADD95C,3.4532*%
%ADD96C,1.6012*%
%ADD97C,1.5200*%
%ADD98R,1.5200X1.5200*%
%ADD99R,1.5200X1.5200*%
%ADD100R,1.7200X1.7200*%
%ADD119R,0.8032X0.7032*%
D58*
X668250Y839500D02*
D03*
Y810000D02*
D03*
D87*
X83100Y1057000D02*
D03*
X108500D02*
D03*
X83100Y1006200D02*
D03*
X108500D02*
D03*
X83100Y980800D02*
D03*
X108500D02*
D03*
X83100Y955400D02*
D03*
X108500Y1031600D02*
D03*
X83100D02*
D03*
X648900Y955400D02*
D03*
X623500D02*
D03*
X648900Y1006200D02*
D03*
X623500D02*
D03*
X648900Y1031600D02*
D03*
X623500D02*
D03*
X648900Y1057000D02*
D03*
X623500Y980800D02*
D03*
X648900D02*
D03*
X298750Y573700D02*
D03*
Y599100D02*
D03*
Y624500D02*
D03*
Y649900D02*
D03*
X411800Y974150D02*
D03*
X437200D02*
D03*
X462600D02*
D03*
X386400Y1050350D02*
D03*
X411800D02*
D03*
X437200D02*
D03*
X462600D02*
D03*
X520300Y974150D02*
D03*
X545700D02*
D03*
X571100D02*
D03*
X494900Y1050350D02*
D03*
X520300D02*
D03*
X545700D02*
D03*
X571100D02*
D03*
D88*
X108500Y955400D02*
D03*
X623500Y1057000D02*
D03*
X298750Y675300D02*
D03*
X386400Y974150D02*
D03*
X494900D02*
D03*
D89*
X377500Y697250D02*
D03*
X352100D02*
D03*
X93750Y314250D02*
D03*
X68350D02*
D03*
X381850Y46250D02*
D03*
X356450D02*
D03*
X367000Y550900D02*
D03*
Y525500D02*
D03*
D90*
X402900Y697250D02*
D03*
X119150Y314250D02*
D03*
X407250Y46250D02*
D03*
D91*
X392750Y224450D02*
D03*
Y249850D02*
D03*
Y275250D02*
D03*
Y300650D02*
D03*
Y351450D02*
D03*
D92*
Y376850D02*
D03*
D93*
X199750Y65365D02*
D03*
X234750D02*
D03*
X269750D02*
D03*
X610250Y66230D02*
D03*
X645250D02*
D03*
D94*
X285700Y940250D02*
D03*
D95*
X298400Y1003750D02*
D03*
X184100D02*
D03*
D96*
X273000Y914850D02*
D03*
X260300Y940250D02*
D03*
X247600Y914850D02*
D03*
X234900Y940250D02*
D03*
X222200Y914850D02*
D03*
X209500Y940250D02*
D03*
X196800Y914850D02*
D03*
D97*
X462000Y297250D02*
D03*
X643000Y670000D02*
D03*
D98*
X512000Y297250D02*
D03*
D99*
X643000Y720000D02*
D03*
D100*
X367000Y500100D02*
D03*
D119*
X463000Y1020750D02*
D03*
Y1030750D02*
D03*
X435000Y1020749D02*
D03*
Y1030749D02*
D03*
X407000Y1020749D02*
D03*
Y1030749D02*
D03*
X379000Y1020749D02*
D03*
Y1030749D02*
D03*
X579250Y1020749D02*
D03*
Y1030749D02*
D03*
X551250Y1020749D02*
D03*
Y1030749D02*
D03*
X523250Y1020749D02*
D03*
Y1030749D02*
D03*
X495250Y1020750D02*
D03*
Y1030750D02*
D03*
M02*
