G04*
G04 #@! TF.GenerationSoftware,Altium Limited,Altium Designer,20.0.13 (296)*
G04*
G04 Layer_Physical_Order=2*
G04 Layer_Color=36540*
%FSLAX44Y44*%
%MOMM*%
G71*
G01*
G75*
%ADD10C,0.2500*%
%ADD11C,0.2000*%
%ADD17C,0.3000*%
%ADD111C,1.6000*%
%ADD112C,1.5000*%
%ADD113R,1.5000X1.5000*%
%ADD115O,1.9304X3.8608*%
%ADD118C,1.3980*%
%ADD119C,1.4000*%
%ADD122C,0.7000*%
%ADD123C,0.8000*%
G36*
X698931Y3569D02*
X478289D01*
Y194250D01*
X478134Y195030D01*
X477692Y195692D01*
X420289Y253095D01*
Y328000D01*
X420134Y328780D01*
X419692Y329442D01*
X419030Y329884D01*
X418250Y330039D01*
X359750D01*
X359750Y330039D01*
X358970Y329884D01*
X358308Y329442D01*
X358308Y329442D01*
X301905Y273039D01*
X156000D01*
X155220Y272884D01*
X154558Y272442D01*
X144058Y261942D01*
X143616Y261280D01*
X143461Y260500D01*
Y3569D01*
X3569D01*
Y1076432D01*
X698931D01*
X698931Y3569D01*
D02*
G37*
G36*
X418250Y252250D02*
X476250Y194250D01*
Y3569D01*
X145500D01*
Y260500D01*
X156000Y271000D01*
X302750D01*
X359750Y328000D01*
X418250D01*
Y252250D01*
D02*
G37*
%LPC*%
G36*
X623000Y1046500D02*
X604000D01*
Y1027500D01*
X623000D01*
Y1046500D01*
D02*
G37*
G36*
X638900Y1046582D02*
X636420Y1046255D01*
X634109Y1045298D01*
X632124Y1043775D01*
X630602Y1041791D01*
X629645Y1039480D01*
X629318Y1037000D01*
X629645Y1034520D01*
X630602Y1032209D01*
X632124Y1030225D01*
X634109Y1028702D01*
X636420Y1027745D01*
X638900Y1027418D01*
X641380Y1027745D01*
X643691Y1028702D01*
X645675Y1030225D01*
X647198Y1032209D01*
X648155Y1034520D01*
X648482Y1037000D01*
X648155Y1039480D01*
X647198Y1041791D01*
X645675Y1043775D01*
X643691Y1045298D01*
X641380Y1046255D01*
X638900Y1046582D01*
D02*
G37*
G36*
X108500D02*
X106020Y1046255D01*
X103709Y1045298D01*
X101725Y1043775D01*
X100202Y1041791D01*
X99245Y1039480D01*
X98918Y1037000D01*
X99245Y1034520D01*
X100202Y1032209D01*
X101725Y1030225D01*
X103709Y1028702D01*
X106020Y1027745D01*
X108500Y1027418D01*
X110980Y1027745D01*
X113291Y1028702D01*
X115276Y1030225D01*
X116798Y1032209D01*
X117756Y1034520D01*
X118082Y1037000D01*
X117756Y1039480D01*
X116798Y1041791D01*
X115276Y1043775D01*
X113291Y1045298D01*
X110980Y1046255D01*
X108500Y1046582D01*
D02*
G37*
G36*
X83100D02*
X80620Y1046255D01*
X78309Y1045298D01*
X76325Y1043775D01*
X74802Y1041791D01*
X73845Y1039480D01*
X73518Y1037000D01*
X73845Y1034520D01*
X74802Y1032209D01*
X76325Y1030225D01*
X78309Y1028702D01*
X80620Y1027745D01*
X83100Y1027418D01*
X85580Y1027745D01*
X87891Y1028702D01*
X89876Y1030225D01*
X91398Y1032209D01*
X92356Y1034520D01*
X92682Y1037000D01*
X92356Y1039480D01*
X91398Y1041791D01*
X89876Y1043775D01*
X87891Y1045298D01*
X85580Y1046255D01*
X83100Y1046582D01*
D02*
G37*
G36*
X640170Y1021559D02*
Y1012870D01*
X648859D01*
X648681Y1014221D01*
X647670Y1016663D01*
X646060Y1018761D01*
X643963Y1020370D01*
X641521Y1021382D01*
X640170Y1021559D01*
D02*
G37*
G36*
X614770D02*
Y1012870D01*
X623459D01*
X623282Y1014221D01*
X622270Y1016663D01*
X620661Y1018761D01*
X618563Y1020370D01*
X616121Y1021382D01*
X614770Y1021559D01*
D02*
G37*
G36*
X637630D02*
X636279Y1021382D01*
X633837Y1020370D01*
X631739Y1018761D01*
X630130Y1016663D01*
X629118Y1014221D01*
X628941Y1012870D01*
X637630D01*
Y1021559D01*
D02*
G37*
G36*
X612230D02*
X610879Y1021382D01*
X608437Y1020370D01*
X606339Y1018761D01*
X604730Y1016663D01*
X603718Y1014221D01*
X603540Y1012870D01*
X612230D01*
Y1021559D01*
D02*
G37*
G36*
X109770D02*
Y1012870D01*
X118460D01*
X118282Y1014221D01*
X117270Y1016663D01*
X115661Y1018761D01*
X113563Y1020370D01*
X111121Y1021382D01*
X109770Y1021559D01*
D02*
G37*
G36*
X84370D02*
Y1012870D01*
X93060D01*
X92882Y1014221D01*
X91870Y1016663D01*
X90261Y1018761D01*
X88163Y1020370D01*
X85721Y1021382D01*
X84370Y1021559D01*
D02*
G37*
G36*
X107230D02*
X105879Y1021382D01*
X103437Y1020370D01*
X101340Y1018761D01*
X99730Y1016663D01*
X98719Y1014221D01*
X98541Y1012870D01*
X107230D01*
Y1021559D01*
D02*
G37*
G36*
X81830D02*
X80479Y1021382D01*
X78037Y1020370D01*
X75940Y1018761D01*
X74330Y1016663D01*
X73319Y1014221D01*
X73141Y1012870D01*
X81830D01*
Y1021559D01*
D02*
G37*
G36*
X118460Y1010330D02*
X109770D01*
Y1001641D01*
X111121Y1001818D01*
X113563Y1002830D01*
X115661Y1004439D01*
X117270Y1006537D01*
X118282Y1008979D01*
X118460Y1010330D01*
D02*
G37*
G36*
X93060D02*
X84370D01*
Y1001641D01*
X85721Y1001818D01*
X88163Y1002830D01*
X90261Y1004439D01*
X91870Y1006537D01*
X92882Y1008979D01*
X93060Y1010330D01*
D02*
G37*
G36*
X648859Y1010330D02*
X640170D01*
Y1001641D01*
X641521Y1001818D01*
X643963Y1002830D01*
X646060Y1004439D01*
X647670Y1006537D01*
X648681Y1008979D01*
X648859Y1010330D01*
D02*
G37*
G36*
X623459D02*
X614770D01*
Y1001641D01*
X616121Y1001818D01*
X618563Y1002830D01*
X620661Y1004439D01*
X622270Y1006537D01*
X623282Y1008979D01*
X623459Y1010330D01*
D02*
G37*
G36*
X637630D02*
X628941D01*
X629118Y1008979D01*
X630130Y1006537D01*
X631739Y1004439D01*
X633837Y1002830D01*
X636279Y1001818D01*
X637630Y1001641D01*
Y1010330D01*
D02*
G37*
G36*
X612230D02*
X603540D01*
X603718Y1008979D01*
X604730Y1006537D01*
X606339Y1004439D01*
X608437Y1002830D01*
X610879Y1001818D01*
X612230Y1001641D01*
Y1010330D01*
D02*
G37*
G36*
X107230Y1010330D02*
X98541D01*
X98719Y1008979D01*
X99730Y1006537D01*
X101340Y1004439D01*
X103437Y1002830D01*
X105879Y1001818D01*
X107230Y1001641D01*
Y1010330D01*
D02*
G37*
G36*
X81830D02*
X73141D01*
X73319Y1008979D01*
X74330Y1006537D01*
X75940Y1004439D01*
X78037Y1002830D01*
X80479Y1001818D01*
X81830Y1001641D01*
Y1010330D01*
D02*
G37*
G36*
X558850Y1015432D02*
X556370Y1015106D01*
X554059Y1014148D01*
X552074Y1012626D01*
X550552Y1010641D01*
X549594Y1008330D01*
X549268Y1005850D01*
X549594Y1003370D01*
X550552Y1001059D01*
X552074Y999075D01*
X554059Y997552D01*
X556370Y996595D01*
X558850Y996268D01*
X561330Y996595D01*
X563641Y997552D01*
X565625Y999075D01*
X567148Y1001059D01*
X568105Y1003370D01*
X568432Y1005850D01*
X568105Y1008330D01*
X567148Y1010641D01*
X565625Y1012626D01*
X563641Y1014148D01*
X561330Y1015106D01*
X558850Y1015432D01*
D02*
G37*
G36*
X533450D02*
X530970Y1015106D01*
X528659Y1014148D01*
X526674Y1012626D01*
X525152Y1010641D01*
X524194Y1008330D01*
X523868Y1005850D01*
X524194Y1003370D01*
X525152Y1001059D01*
X526674Y999075D01*
X528659Y997552D01*
X530970Y996595D01*
X533450Y996268D01*
X535930Y996595D01*
X538241Y997552D01*
X540225Y999075D01*
X541748Y1001059D01*
X542705Y1003370D01*
X543032Y1005850D01*
X542705Y1008330D01*
X541748Y1010641D01*
X540225Y1012626D01*
X538241Y1014148D01*
X535930Y1015106D01*
X533450Y1015432D01*
D02*
G37*
G36*
X508050D02*
X505570Y1015106D01*
X503259Y1014148D01*
X501274Y1012626D01*
X499752Y1010641D01*
X498794Y1008330D01*
X498468Y1005850D01*
X498794Y1003370D01*
X499752Y1001059D01*
X501274Y999075D01*
X503259Y997552D01*
X505570Y996595D01*
X508050Y996268D01*
X510530Y996595D01*
X512841Y997552D01*
X514825Y999075D01*
X516348Y1001059D01*
X517305Y1003370D01*
X517632Y1005850D01*
X517305Y1008330D01*
X516348Y1010641D01*
X514825Y1012626D01*
X512841Y1014148D01*
X510530Y1015106D01*
X508050Y1015432D01*
D02*
G37*
G36*
X482650D02*
X480170Y1015106D01*
X477859Y1014148D01*
X475874Y1012626D01*
X474352Y1010641D01*
X473394Y1008330D01*
X473068Y1005850D01*
X473394Y1003370D01*
X474352Y1001059D01*
X475874Y999075D01*
X477859Y997552D01*
X480170Y996595D01*
X482650Y996268D01*
X485130Y996595D01*
X487441Y997552D01*
X489425Y999075D01*
X490948Y1001059D01*
X491905Y1003370D01*
X492232Y1005850D01*
X491905Y1008330D01*
X490948Y1010641D01*
X489425Y1012626D01*
X487441Y1014148D01*
X485130Y1015106D01*
X482650Y1015432D01*
D02*
G37*
G36*
X450350D02*
X447870Y1015106D01*
X445559Y1014148D01*
X443575Y1012626D01*
X442052Y1010641D01*
X441095Y1008330D01*
X440768Y1005850D01*
X441095Y1003370D01*
X442052Y1001059D01*
X443575Y999075D01*
X445559Y997552D01*
X447870Y996595D01*
X450350Y996268D01*
X452830Y996595D01*
X455141Y997552D01*
X457126Y999075D01*
X458648Y1001059D01*
X459606Y1003370D01*
X459932Y1005850D01*
X459606Y1008330D01*
X458648Y1010641D01*
X457126Y1012626D01*
X455141Y1014148D01*
X452830Y1015106D01*
X450350Y1015432D01*
D02*
G37*
G36*
X424950D02*
X422470Y1015106D01*
X420159Y1014148D01*
X418175Y1012626D01*
X416652Y1010641D01*
X415695Y1008330D01*
X415368Y1005850D01*
X415695Y1003370D01*
X416652Y1001059D01*
X418175Y999075D01*
X420159Y997552D01*
X422470Y996595D01*
X424950Y996268D01*
X427430Y996595D01*
X429741Y997552D01*
X431726Y999075D01*
X433248Y1001059D01*
X434206Y1003370D01*
X434532Y1005850D01*
X434206Y1008330D01*
X433248Y1010641D01*
X431726Y1012626D01*
X429741Y1014148D01*
X427430Y1015106D01*
X424950Y1015432D01*
D02*
G37*
G36*
X399550D02*
X397070Y1015106D01*
X394759Y1014148D01*
X392775Y1012626D01*
X391252Y1010641D01*
X390295Y1008330D01*
X389968Y1005850D01*
X390295Y1003370D01*
X391252Y1001059D01*
X392775Y999075D01*
X394759Y997552D01*
X397070Y996595D01*
X399550Y996268D01*
X402030Y996595D01*
X404341Y997552D01*
X406326Y999075D01*
X407848Y1001059D01*
X408806Y1003370D01*
X409132Y1005850D01*
X408806Y1008330D01*
X407848Y1010641D01*
X406326Y1012626D01*
X404341Y1014148D01*
X402030Y1015106D01*
X399550Y1015432D01*
D02*
G37*
G36*
X374150D02*
X371670Y1015106D01*
X369359Y1014148D01*
X367375Y1012626D01*
X365852Y1010641D01*
X364895Y1008330D01*
X364568Y1005850D01*
X364895Y1003370D01*
X365852Y1001059D01*
X367375Y999075D01*
X369359Y997552D01*
X371670Y996595D01*
X374150Y996268D01*
X376630Y996595D01*
X378941Y997552D01*
X380926Y999075D01*
X382448Y1001059D01*
X383406Y1003370D01*
X383732Y1005850D01*
X383406Y1008330D01*
X382448Y1010641D01*
X380926Y1012626D01*
X378941Y1014148D01*
X376630Y1015106D01*
X374150Y1015432D01*
D02*
G37*
G36*
X298400Y1022088D02*
X294822Y1021736D01*
X291382Y1020692D01*
X288212Y1018998D01*
X285433Y1016717D01*
X283152Y1013938D01*
X281458Y1010768D01*
X280414Y1007328D01*
X280062Y1003750D01*
X280414Y1000172D01*
X281458Y996732D01*
X283152Y993562D01*
X285433Y990783D01*
X288212Y988502D01*
X291382Y986808D01*
X294822Y985764D01*
X298400Y985412D01*
X301978Y985764D01*
X305418Y986808D01*
X308588Y988502D01*
X311367Y990783D01*
X313648Y993562D01*
X315342Y996732D01*
X316386Y1000172D01*
X316738Y1003750D01*
X316386Y1007328D01*
X315342Y1010768D01*
X313648Y1013938D01*
X311367Y1016717D01*
X308588Y1018998D01*
X305418Y1020692D01*
X301978Y1021736D01*
X298400Y1022088D01*
D02*
G37*
G36*
X184100D02*
X180522Y1021736D01*
X177082Y1020692D01*
X173912Y1018998D01*
X171133Y1016717D01*
X168852Y1013938D01*
X167158Y1010768D01*
X166114Y1007328D01*
X165762Y1003750D01*
X166114Y1000172D01*
X167158Y996732D01*
X168852Y993562D01*
X171133Y990783D01*
X173912Y988502D01*
X177082Y986808D01*
X180522Y985764D01*
X184100Y985412D01*
X187678Y985764D01*
X191118Y986808D01*
X194288Y988502D01*
X197067Y990783D01*
X199348Y993562D01*
X201042Y996732D01*
X202086Y1000172D01*
X202438Y1003750D01*
X202086Y1007328D01*
X201042Y1010768D01*
X199348Y1013938D01*
X197067Y1016717D01*
X194288Y1018998D01*
X191118Y1020692D01*
X187678Y1021736D01*
X184100Y1022088D01*
D02*
G37*
G36*
X638900Y995782D02*
X636420Y995455D01*
X634109Y994498D01*
X632124Y992975D01*
X630602Y990991D01*
X629645Y988680D01*
X629318Y986200D01*
X629645Y983720D01*
X630602Y981409D01*
X632124Y979425D01*
X634109Y977902D01*
X636420Y976945D01*
X638900Y976618D01*
X641380Y976945D01*
X643691Y977902D01*
X645675Y979425D01*
X647198Y981409D01*
X648155Y983720D01*
X648482Y986200D01*
X648155Y988680D01*
X647198Y990991D01*
X645675Y992975D01*
X643691Y994498D01*
X641380Y995455D01*
X638900Y995782D01*
D02*
G37*
G36*
X613500D02*
X611020Y995455D01*
X608709Y994498D01*
X606725Y992975D01*
X605202Y990991D01*
X604244Y988680D01*
X603918Y986200D01*
X604244Y983720D01*
X605202Y981409D01*
X606725Y979425D01*
X608709Y977902D01*
X611020Y976945D01*
X613500Y976618D01*
X615980Y976945D01*
X618291Y977902D01*
X620275Y979425D01*
X621798Y981409D01*
X622755Y983720D01*
X623082Y986200D01*
X622755Y988680D01*
X621798Y990991D01*
X620275Y992975D01*
X618291Y994498D01*
X615980Y995455D01*
X613500Y995782D01*
D02*
G37*
G36*
X108500D02*
X106020Y995455D01*
X103709Y994498D01*
X101725Y992975D01*
X100202Y990991D01*
X99245Y988680D01*
X98918Y986200D01*
X99245Y983720D01*
X100202Y981409D01*
X101725Y979425D01*
X103709Y977902D01*
X106020Y976945D01*
X108500Y976618D01*
X110980Y976945D01*
X113291Y977902D01*
X115276Y979425D01*
X116798Y981409D01*
X117756Y983720D01*
X118082Y986200D01*
X117756Y988680D01*
X116798Y990991D01*
X115276Y992975D01*
X113291Y994498D01*
X110980Y995455D01*
X108500Y995782D01*
D02*
G37*
G36*
X83100D02*
X80620Y995455D01*
X78309Y994498D01*
X76325Y992975D01*
X74802Y990991D01*
X73845Y988680D01*
X73518Y986200D01*
X73845Y983720D01*
X74802Y981409D01*
X76325Y979425D01*
X78309Y977902D01*
X80620Y976945D01*
X83100Y976618D01*
X85580Y976945D01*
X87891Y977902D01*
X89876Y979425D01*
X91398Y981409D01*
X92356Y983720D01*
X92682Y986200D01*
X92356Y988680D01*
X91398Y990991D01*
X89876Y992975D01*
X87891Y994498D01*
X85580Y995455D01*
X83100Y995782D01*
D02*
G37*
G36*
X640170Y970759D02*
Y962070D01*
X648859D01*
X648681Y963421D01*
X647670Y965863D01*
X646060Y967961D01*
X643963Y969570D01*
X641521Y970582D01*
X640170Y970759D01*
D02*
G37*
G36*
X614770D02*
Y962070D01*
X623459D01*
X623282Y963421D01*
X622270Y965863D01*
X620661Y967961D01*
X618563Y969570D01*
X616121Y970582D01*
X614770Y970759D01*
D02*
G37*
G36*
X637630D02*
X636279Y970582D01*
X633837Y969570D01*
X631739Y967961D01*
X630130Y965863D01*
X629118Y963421D01*
X628941Y962070D01*
X637630D01*
Y970759D01*
D02*
G37*
G36*
X612230D02*
X610879Y970582D01*
X608437Y969570D01*
X606339Y967961D01*
X604730Y965863D01*
X603718Y963421D01*
X603540Y962070D01*
X612230D01*
Y970759D01*
D02*
G37*
G36*
X109770D02*
Y962070D01*
X118460D01*
X118282Y963421D01*
X117270Y965863D01*
X115661Y967961D01*
X113563Y969570D01*
X111121Y970582D01*
X109770Y970759D01*
D02*
G37*
G36*
X84370D02*
Y962070D01*
X93060D01*
X92882Y963421D01*
X91870Y965863D01*
X90261Y967961D01*
X88163Y969570D01*
X85721Y970582D01*
X84370Y970759D01*
D02*
G37*
G36*
X81830D02*
X80479Y970582D01*
X78037Y969570D01*
X75940Y967961D01*
X74330Y965863D01*
X73319Y963421D01*
X73141Y962070D01*
X81830D01*
Y970759D01*
D02*
G37*
G36*
X107230D02*
X105879Y970582D01*
X103437Y969570D01*
X101340Y967961D01*
X99730Y965863D01*
X98719Y963421D01*
X98541Y962070D01*
X107230D01*
Y970759D01*
D02*
G37*
G36*
X118460Y959530D02*
X109770D01*
Y950841D01*
X111121Y951018D01*
X113563Y952030D01*
X115661Y953639D01*
X117270Y955737D01*
X118282Y958179D01*
X118460Y959530D01*
D02*
G37*
G36*
X93060D02*
X84370D01*
Y950841D01*
X85721Y951018D01*
X88163Y952030D01*
X90261Y953639D01*
X91870Y955737D01*
X92882Y958179D01*
X93060Y959530D01*
D02*
G37*
G36*
X648859Y959530D02*
X640170D01*
Y950841D01*
X641521Y951018D01*
X643963Y952030D01*
X646060Y953639D01*
X647670Y955737D01*
X648681Y958179D01*
X648859Y959530D01*
D02*
G37*
G36*
X623459D02*
X614770D01*
Y950841D01*
X616121Y951018D01*
X618563Y952030D01*
X620661Y953639D01*
X622270Y955737D01*
X623282Y958179D01*
X623459Y959530D01*
D02*
G37*
G36*
X637630D02*
X628941D01*
X629118Y958179D01*
X630130Y955737D01*
X631739Y953639D01*
X633837Y952030D01*
X636279Y951018D01*
X637630Y950841D01*
Y959530D01*
D02*
G37*
G36*
X612230D02*
X603540D01*
X603718Y958179D01*
X604730Y955737D01*
X606339Y953639D01*
X608437Y952030D01*
X610879Y951018D01*
X612230Y950841D01*
Y959530D01*
D02*
G37*
G36*
X107230Y959530D02*
X98541D01*
X98719Y958179D01*
X99730Y955737D01*
X101340Y953639D01*
X103437Y952030D01*
X105879Y951018D01*
X107230Y950841D01*
Y959530D01*
D02*
G37*
G36*
X81830D02*
X73141D01*
X73319Y958179D01*
X74330Y955737D01*
X75940Y953639D01*
X78037Y952030D01*
X80479Y951018D01*
X81830Y950841D01*
Y959530D01*
D02*
G37*
G36*
X294690Y949240D02*
X276710D01*
Y931260D01*
X294690D01*
Y949240D01*
D02*
G37*
G36*
X118000Y944900D02*
X99000D01*
Y925900D01*
X118000D01*
Y944900D01*
D02*
G37*
G36*
X638900Y944982D02*
X636420Y944656D01*
X634109Y943698D01*
X632124Y942176D01*
X630602Y940191D01*
X629645Y937880D01*
X629318Y935400D01*
X629645Y932920D01*
X630602Y930609D01*
X632124Y928625D01*
X634109Y927102D01*
X636420Y926145D01*
X638900Y925818D01*
X641380Y926145D01*
X643691Y927102D01*
X645675Y928625D01*
X647198Y930609D01*
X648155Y932920D01*
X648482Y935400D01*
X648155Y937880D01*
X647198Y940191D01*
X645675Y942176D01*
X643691Y943698D01*
X641380Y944656D01*
X638900Y944982D01*
D02*
G37*
G36*
X613500D02*
X611020Y944656D01*
X608709Y943698D01*
X606725Y942176D01*
X605202Y940191D01*
X604244Y937880D01*
X603918Y935400D01*
X604244Y932920D01*
X605202Y930609D01*
X606725Y928625D01*
X608709Y927102D01*
X611020Y926145D01*
X613500Y925818D01*
X615980Y926145D01*
X618291Y927102D01*
X620275Y928625D01*
X621798Y930609D01*
X622755Y932920D01*
X623082Y935400D01*
X622755Y937880D01*
X621798Y940191D01*
X620275Y942176D01*
X618291Y943698D01*
X615980Y944656D01*
X613500Y944982D01*
D02*
G37*
G36*
X83100D02*
X80620Y944656D01*
X78309Y943698D01*
X76325Y942176D01*
X74802Y940191D01*
X73845Y937880D01*
X73518Y935400D01*
X73845Y932920D01*
X74802Y930609D01*
X76325Y928625D01*
X78309Y927102D01*
X80620Y926145D01*
X83100Y925818D01*
X85580Y926145D01*
X87891Y927102D01*
X89876Y928625D01*
X91398Y930609D01*
X92356Y932920D01*
X92682Y935400D01*
X92356Y937880D01*
X91398Y940191D01*
X89876Y942176D01*
X87891Y943698D01*
X85580Y944656D01*
X83100Y944982D01*
D02*
G37*
G36*
X492150Y939150D02*
X473150D01*
Y920150D01*
X492150D01*
Y939150D01*
D02*
G37*
G36*
X383650D02*
X364650D01*
Y920150D01*
X383650D01*
Y939150D01*
D02*
G37*
G36*
X558850Y939232D02*
X556370Y938906D01*
X554059Y937948D01*
X552074Y936426D01*
X550552Y934441D01*
X549594Y932130D01*
X549268Y929650D01*
X549594Y927170D01*
X550552Y924859D01*
X552074Y922875D01*
X554059Y921352D01*
X556370Y920395D01*
X558850Y920068D01*
X561330Y920395D01*
X563641Y921352D01*
X565625Y922875D01*
X567148Y924859D01*
X568105Y927170D01*
X568432Y929650D01*
X568105Y932130D01*
X567148Y934441D01*
X565625Y936426D01*
X563641Y937948D01*
X561330Y938906D01*
X558850Y939232D01*
D02*
G37*
G36*
X533450D02*
X530970Y938906D01*
X528659Y937948D01*
X526674Y936426D01*
X525152Y934441D01*
X524194Y932130D01*
X523868Y929650D01*
X524194Y927170D01*
X525152Y924859D01*
X526674Y922875D01*
X528659Y921352D01*
X530970Y920395D01*
X533450Y920068D01*
X535930Y920395D01*
X538241Y921352D01*
X540225Y922875D01*
X541748Y924859D01*
X542705Y927170D01*
X543032Y929650D01*
X542705Y932130D01*
X541748Y934441D01*
X540225Y936426D01*
X538241Y937948D01*
X535930Y938906D01*
X533450Y939232D01*
D02*
G37*
G36*
X508050D02*
X505570Y938906D01*
X503259Y937948D01*
X501274Y936426D01*
X499752Y934441D01*
X498794Y932130D01*
X498468Y929650D01*
X498794Y927170D01*
X499752Y924859D01*
X501274Y922875D01*
X503259Y921352D01*
X505570Y920395D01*
X508050Y920068D01*
X510530Y920395D01*
X512841Y921352D01*
X514825Y922875D01*
X516348Y924859D01*
X517305Y927170D01*
X517632Y929650D01*
X517305Y932130D01*
X516348Y934441D01*
X514825Y936426D01*
X512841Y937948D01*
X510530Y938906D01*
X508050Y939232D01*
D02*
G37*
G36*
X450350D02*
X447870Y938906D01*
X445559Y937948D01*
X443575Y936426D01*
X442052Y934441D01*
X441095Y932130D01*
X440768Y929650D01*
X441095Y927170D01*
X442052Y924859D01*
X443575Y922875D01*
X445559Y921352D01*
X447870Y920395D01*
X450350Y920068D01*
X452830Y920395D01*
X455141Y921352D01*
X457126Y922875D01*
X458648Y924859D01*
X459606Y927170D01*
X459932Y929650D01*
X459606Y932130D01*
X458648Y934441D01*
X457126Y936426D01*
X455141Y937948D01*
X452830Y938906D01*
X450350Y939232D01*
D02*
G37*
G36*
X424950D02*
X422470Y938906D01*
X420159Y937948D01*
X418175Y936426D01*
X416652Y934441D01*
X415695Y932130D01*
X415368Y929650D01*
X415695Y927170D01*
X416652Y924859D01*
X418175Y922875D01*
X420159Y921352D01*
X422470Y920395D01*
X424950Y920068D01*
X427430Y920395D01*
X429741Y921352D01*
X431726Y922875D01*
X433248Y924859D01*
X434206Y927170D01*
X434532Y929650D01*
X434206Y932130D01*
X433248Y934441D01*
X431726Y936426D01*
X429741Y937948D01*
X427430Y938906D01*
X424950Y939232D01*
D02*
G37*
G36*
X399550D02*
X397070Y938906D01*
X394759Y937948D01*
X392775Y936426D01*
X391252Y934441D01*
X390295Y932130D01*
X389968Y929650D01*
X390295Y927170D01*
X391252Y924859D01*
X392775Y922875D01*
X394759Y921352D01*
X397070Y920395D01*
X399550Y920068D01*
X402030Y920395D01*
X404341Y921352D01*
X406326Y922875D01*
X407848Y924859D01*
X408806Y927170D01*
X409132Y929650D01*
X408806Y932130D01*
X407848Y934441D01*
X406326Y936426D01*
X404341Y937948D01*
X402030Y938906D01*
X399550Y939232D01*
D02*
G37*
G36*
X273000Y923918D02*
X270653Y923609D01*
X268466Y922703D01*
X266588Y921262D01*
X265147Y919384D01*
X264241Y917197D01*
X263932Y914850D01*
X264241Y912503D01*
X265147Y910316D01*
X266588Y908438D01*
X268466Y906997D01*
X270653Y906091D01*
X273000Y905782D01*
X275347Y906091D01*
X277534Y906997D01*
X279412Y908438D01*
X280853Y910316D01*
X281759Y912503D01*
X282068Y914850D01*
X281759Y917197D01*
X280853Y919384D01*
X279412Y921262D01*
X277534Y922703D01*
X275347Y923609D01*
X273000Y923918D01*
D02*
G37*
G36*
X247600D02*
X245253Y923609D01*
X243066Y922703D01*
X241188Y921262D01*
X239747Y919384D01*
X238841Y917197D01*
X238532Y914850D01*
X238841Y912503D01*
X239747Y910316D01*
X241188Y908438D01*
X243066Y906997D01*
X245253Y906091D01*
X247600Y905782D01*
X249947Y906091D01*
X252134Y906997D01*
X254012Y908438D01*
X255453Y910316D01*
X256359Y912503D01*
X256668Y914850D01*
X256359Y917197D01*
X255453Y919384D01*
X254012Y921262D01*
X252134Y922703D01*
X249947Y923609D01*
X247600Y923918D01*
D02*
G37*
G36*
X196800D02*
X194453Y923609D01*
X192266Y922703D01*
X190388Y921262D01*
X188947Y919384D01*
X188041Y917197D01*
X187732Y914850D01*
X188041Y912503D01*
X188947Y910316D01*
X190388Y908438D01*
X192266Y906997D01*
X194453Y906091D01*
X196800Y905782D01*
X199147Y906091D01*
X201334Y906997D01*
X203212Y908438D01*
X204653Y910316D01*
X205559Y912503D01*
X205868Y914850D01*
X205559Y917197D01*
X204653Y919384D01*
X203212Y921262D01*
X201334Y922703D01*
X199147Y923609D01*
X196800Y923918D01*
D02*
G37*
G36*
X295674Y966984D02*
X231826D01*
X230558Y966731D01*
X229483Y966013D01*
X217407Y953937D01*
X216689Y952862D01*
X216436Y951594D01*
Y947860D01*
X215166Y947234D01*
X214034Y948103D01*
X211847Y949009D01*
X209500Y949318D01*
X207153Y949009D01*
X204966Y948103D01*
X203088Y946662D01*
X201647Y944784D01*
X200741Y942597D01*
X200432Y940250D01*
X200741Y937903D01*
X201647Y935716D01*
X203088Y933838D01*
X204966Y932397D01*
X207153Y931491D01*
X209500Y931182D01*
X211847Y931491D01*
X214034Y932397D01*
X215315Y933380D01*
X216076Y933273D01*
X216618Y933016D01*
X216733Y932915D01*
X217407Y931907D01*
X218186Y931127D01*
Y922918D01*
X217666Y922703D01*
X215788Y921262D01*
X214347Y919384D01*
X213441Y917197D01*
X213132Y914850D01*
X213441Y912503D01*
X214347Y910316D01*
X215788Y908438D01*
X217666Y906997D01*
X219853Y906091D01*
X222200Y905782D01*
X224547Y906091D01*
X226734Y906997D01*
X228612Y908438D01*
X230053Y910316D01*
X230959Y912503D01*
X231268Y914850D01*
X230959Y917197D01*
X230053Y919384D01*
X228612Y921262D01*
X226734Y922703D01*
X224814Y923498D01*
Y929509D01*
X225987Y929995D01*
X228315Y927667D01*
X229390Y926949D01*
X230658Y926696D01*
X250060D01*
X251328Y926949D01*
X252403Y927667D01*
X256733Y931997D01*
X257953Y931491D01*
X260300Y931182D01*
X262647Y931491D01*
X264834Y932397D01*
X266712Y933838D01*
X268153Y935716D01*
X269059Y937903D01*
X269368Y940250D01*
X269059Y942597D01*
X268153Y944784D01*
X266712Y946662D01*
X264834Y948103D01*
X262647Y949009D01*
X260300Y949318D01*
X257953Y949009D01*
X255766Y948103D01*
X253888Y946662D01*
X252447Y944784D01*
X251541Y942597D01*
X251232Y940250D01*
X251541Y937903D01*
X252047Y936683D01*
X248687Y933324D01*
X242518D01*
X241891Y934594D01*
X242753Y935716D01*
X243659Y937903D01*
X243968Y940250D01*
X243659Y942597D01*
X242753Y944784D01*
X241312Y946662D01*
X239434Y948103D01*
X237247Y949009D01*
X234900Y949318D01*
X232553Y949009D01*
X230366Y948103D01*
X230164Y947948D01*
X228787Y948492D01*
X228717Y948917D01*
X235236Y955436D01*
X292264D01*
X306666Y941033D01*
Y898092D01*
X305854Y897931D01*
X304035Y896715D01*
X302819Y894896D01*
X302392Y892750D01*
X302819Y890604D01*
X304035Y888785D01*
X305854Y887569D01*
X308000Y887142D01*
X310146Y887569D01*
X311649Y888573D01*
X312500Y888703D01*
X313351Y888573D01*
X314854Y887569D01*
X317000Y887142D01*
X319146Y887569D01*
X320965Y888785D01*
X322181Y890604D01*
X322608Y892750D01*
X322181Y894896D01*
X320965Y896715D01*
X319146Y897931D01*
X318334Y898092D01*
Y942576D01*
X318214Y943179D01*
Y944444D01*
X317961Y945712D01*
X317243Y946787D01*
X298017Y966013D01*
X296942Y966731D01*
X296732Y966773D01*
X295674Y966984D01*
D02*
G37*
G36*
X335500Y898108D02*
X333354Y897681D01*
X331535Y896465D01*
X330319Y894646D01*
X329892Y892500D01*
X330105Y891431D01*
X298733Y860059D01*
X131750D01*
X130580Y859826D01*
X129587Y859163D01*
X129587Y859163D01*
X104312Y833888D01*
X103649Y832896D01*
X103416Y831725D01*
X103416Y831725D01*
Y829930D01*
X102310Y829190D01*
X101094Y827371D01*
X100667Y825225D01*
X101094Y823079D01*
X102310Y821260D01*
X104129Y820044D01*
X106275Y819617D01*
X108421Y820044D01*
X110240Y821260D01*
X111456Y823079D01*
X111883Y825225D01*
X111456Y827371D01*
X110240Y829190D01*
X109972Y829370D01*
X109868Y830792D01*
X133017Y853941D01*
X300000D01*
X300000Y853941D01*
X301171Y854174D01*
X302163Y854837D01*
X334431Y887105D01*
X335500Y886892D01*
X337646Y887319D01*
X339465Y888535D01*
X340681Y890354D01*
X341108Y892500D01*
X340681Y894646D01*
X339465Y896465D01*
X337646Y897681D01*
X335500Y898108D01*
D02*
G37*
G36*
X409500Y878608D02*
X407354Y878181D01*
X405535Y876965D01*
X404929Y876059D01*
X337500D01*
X336329Y875826D01*
X335337Y875163D01*
X335337Y875163D01*
X310733Y850559D01*
X143250D01*
X143250Y850559D01*
X142079Y850326D01*
X141087Y849663D01*
X141087Y849663D01*
X121569Y830145D01*
X120500Y830358D01*
X118354Y829931D01*
X116535Y828715D01*
X115319Y826896D01*
X114892Y824750D01*
X115319Y822604D01*
X116535Y820785D01*
X118354Y819569D01*
X120500Y819142D01*
X122646Y819569D01*
X124465Y820785D01*
X125681Y822604D01*
X126108Y824750D01*
X125895Y825819D01*
X144517Y844441D01*
X312000D01*
X312000Y844441D01*
X313171Y844674D01*
X314163Y845337D01*
X338767Y869941D01*
X404929D01*
X405535Y869035D01*
X407354Y867819D01*
X409500Y867392D01*
X411646Y867819D01*
X413465Y869035D01*
X414681Y870854D01*
X415108Y873000D01*
X414681Y875146D01*
X413465Y876965D01*
X411646Y878181D01*
X409500Y878608D01*
D02*
G37*
G36*
X508250Y893039D02*
X470000D01*
X469220Y892884D01*
X468558Y892442D01*
X468116Y891780D01*
X467961Y891000D01*
Y867000D01*
X468116Y866220D01*
X468558Y865558D01*
X469220Y865116D01*
X470000Y864961D01*
X508250D01*
X509030Y865116D01*
X509692Y865558D01*
X510134Y866220D01*
X510289Y867000D01*
Y891000D01*
X510134Y891780D01*
X509692Y892442D01*
X509030Y892884D01*
X508250Y893039D01*
D02*
G37*
G36*
X164000Y839358D02*
X161854Y838931D01*
X160035Y837715D01*
X158819Y835896D01*
X158392Y833750D01*
X158819Y831604D01*
X160035Y829785D01*
X161854Y828569D01*
X164000Y828142D01*
X166146Y828569D01*
X167965Y829785D01*
X169181Y831604D01*
X169608Y833750D01*
X169181Y835896D01*
X167965Y837715D01*
X166146Y838931D01*
X164000Y839358D01*
D02*
G37*
G36*
X163250Y825858D02*
X161104Y825431D01*
X159285Y824215D01*
X158069Y822396D01*
X157642Y820250D01*
X158069Y818104D01*
X159285Y816285D01*
X161104Y815069D01*
X163250Y814642D01*
X165396Y815069D01*
X167215Y816285D01*
X168431Y818104D01*
X168858Y820250D01*
X168431Y822396D01*
X167215Y824215D01*
X165396Y825431D01*
X163250Y825858D01*
D02*
G37*
G36*
X254237Y761287D02*
X252091Y760860D01*
X250398Y759729D01*
X249212Y759218D01*
X247393Y760434D01*
X245247Y760861D01*
X243101Y760434D01*
X241282Y759218D01*
X240066Y757399D01*
X239639Y755253D01*
X240066Y753107D01*
X241282Y751288D01*
X243101Y750072D01*
X243375Y750018D01*
Y746433D01*
X226150Y729209D01*
X187342D01*
X187181Y730021D01*
X185965Y731840D01*
X184146Y733056D01*
X182000Y733483D01*
X179854Y733056D01*
X178035Y731840D01*
X176819Y730021D01*
X176392Y727875D01*
X176819Y725729D01*
X178035Y723910D01*
Y722840D01*
X176819Y721021D01*
X176392Y718875D01*
X176819Y716729D01*
X178035Y714910D01*
X179854Y713694D01*
X182000Y713267D01*
X184146Y713694D01*
X185965Y714910D01*
X187181Y716729D01*
X187342Y717541D01*
X229610D01*
X230878Y717794D01*
X231953Y718512D01*
X256580Y743139D01*
X257298Y744213D01*
X257551Y745482D01*
Y751279D01*
X258202Y751714D01*
X259418Y753533D01*
X259845Y755679D01*
X259418Y757825D01*
X258202Y759645D01*
X256383Y760860D01*
X254237Y761287D01*
D02*
G37*
G36*
X146000Y801858D02*
X143854Y801431D01*
X142035Y800215D01*
X140819Y798396D01*
X140392Y796250D01*
X140819Y794104D01*
X142035Y792285D01*
X143854Y791069D01*
X146000Y790642D01*
X146769Y790795D01*
X193659Y743905D01*
X193319Y743396D01*
X192892Y741250D01*
X193319Y739104D01*
X194535Y737285D01*
X196354Y736069D01*
X198500Y735642D01*
X200646Y736069D01*
X202465Y737285D01*
X203681Y739104D01*
X204108Y741250D01*
X203681Y743396D01*
X202465Y745215D01*
X200646Y746431D01*
X200284Y746503D01*
X199982Y746954D01*
X151455Y795481D01*
X151608Y796250D01*
X151181Y798396D01*
X149965Y800215D01*
X148146Y801431D01*
X146000Y801858D01*
D02*
G37*
G36*
X42500Y740358D02*
X40354Y739931D01*
X38535Y738715D01*
X37319Y736896D01*
X36892Y734750D01*
X37319Y732604D01*
X38535Y730785D01*
X40354Y729569D01*
X42500Y729142D01*
X44646Y729569D01*
X46465Y730785D01*
X47681Y732604D01*
X48108Y734750D01*
X47681Y736896D01*
X46465Y738715D01*
X44646Y739931D01*
X42500Y740358D01*
D02*
G37*
G36*
X652000Y729000D02*
X634000D01*
Y711000D01*
X652000D01*
Y729000D01*
D02*
G37*
G36*
X353370Y707714D02*
Y698520D01*
X362564D01*
X362369Y700002D01*
X361307Y702565D01*
X359617Y704767D01*
X357416Y706457D01*
X354851Y707519D01*
X353370Y707714D01*
D02*
G37*
G36*
X350830Y707714D02*
X349348Y707519D01*
X346785Y706457D01*
X344583Y704767D01*
X342893Y702565D01*
X341831Y700002D01*
X341636Y698520D01*
X350830D01*
Y707714D01*
D02*
G37*
G36*
X377500Y707336D02*
X374889Y706993D01*
X372457Y705985D01*
X370368Y704382D01*
X368765Y702293D01*
X367757Y699861D01*
X367414Y697250D01*
X367757Y694640D01*
X368765Y692207D01*
X370368Y690118D01*
X372457Y688515D01*
X374889Y687507D01*
X377500Y687164D01*
X380111Y687507D01*
X382095Y688329D01*
X391441Y678983D01*
Y486517D01*
X380483Y475559D01*
X353267D01*
X335809Y493017D01*
Y577500D01*
X335576Y578671D01*
X334913Y579663D01*
X326913Y587663D01*
X325920Y588326D01*
X324750Y588559D01*
X324750Y588559D01*
X301193D01*
X301110Y589829D01*
X301230Y589845D01*
X303541Y590802D01*
X305525Y592324D01*
X307048Y594309D01*
X308006Y596620D01*
X308332Y599100D01*
X308006Y601580D01*
X307048Y603891D01*
X305525Y605875D01*
X304488Y606671D01*
X304919Y607941D01*
X322733D01*
X344691Y585983D01*
Y531500D01*
X344691Y531500D01*
X344924Y530330D01*
X345587Y529337D01*
X351587Y523337D01*
X351587Y523337D01*
X352579Y522674D01*
X353750Y522441D01*
X357443D01*
X358265Y520457D01*
X359868Y518368D01*
X361957Y516765D01*
X364390Y515758D01*
X367000Y515414D01*
X369611Y515758D01*
X372043Y516765D01*
X374132Y518368D01*
X375735Y520457D01*
X376743Y522890D01*
X377086Y525500D01*
X376743Y528111D01*
X375735Y530543D01*
X374132Y532632D01*
X372043Y534235D01*
X369611Y535243D01*
X367000Y535586D01*
X364390Y535243D01*
X361957Y534235D01*
X359868Y532632D01*
X358265Y530543D01*
X357443Y528559D01*
X355017D01*
X350809Y532767D01*
Y587250D01*
X350809Y587250D01*
X350576Y588420D01*
X349913Y589413D01*
X326163Y613163D01*
X325171Y613826D01*
X324000Y614059D01*
X324000Y614059D01*
X303097D01*
X302845Y615329D01*
X303813Y615730D01*
X305911Y617339D01*
X307520Y619437D01*
X308532Y621879D01*
X308709Y623230D01*
X298750D01*
X288791D01*
X288968Y621879D01*
X289980Y619437D01*
X291589Y617339D01*
X293687Y615730D01*
X294655Y615329D01*
X294403Y614059D01*
X279571D01*
X278965Y614965D01*
X277146Y616181D01*
X275000Y616608D01*
X272854Y616181D01*
X271035Y614965D01*
X269819Y613146D01*
X269392Y611000D01*
X269819Y608854D01*
X271035Y607035D01*
X272854Y605819D01*
X275000Y605392D01*
X277146Y605819D01*
X278965Y607035D01*
X279571Y607941D01*
X292581D01*
X293012Y606671D01*
X291975Y605875D01*
X290452Y603891D01*
X289494Y601580D01*
X289168Y599100D01*
X289494Y596620D01*
X290452Y594309D01*
X291975Y592324D01*
X293959Y590802D01*
X296270Y589845D01*
X296390Y589829D01*
X296307Y588559D01*
X277321D01*
X276715Y589465D01*
X274896Y590681D01*
X272750Y591108D01*
X270604Y590681D01*
X268785Y589465D01*
X267569Y587646D01*
X267142Y585500D01*
X267569Y583354D01*
X268785Y581535D01*
X270604Y580319D01*
X272750Y579892D01*
X274896Y580319D01*
X276715Y581535D01*
X277321Y582441D01*
X292450D01*
X292881Y581171D01*
X291975Y580475D01*
X290452Y578491D01*
X289494Y576180D01*
X289168Y573700D01*
X289494Y571220D01*
X290452Y568909D01*
X291975Y566925D01*
X293959Y565402D01*
X296270Y564445D01*
X298750Y564118D01*
X301230Y564445D01*
X303541Y565402D01*
X305525Y566925D01*
X307048Y568909D01*
X308006Y571220D01*
X308332Y573700D01*
X308006Y576180D01*
X307048Y578491D01*
X305525Y580475D01*
X304619Y581171D01*
X305050Y582441D01*
X323483D01*
X329691Y576233D01*
Y491750D01*
X329691Y491750D01*
X329924Y490579D01*
X330587Y489587D01*
X349837Y470337D01*
X349837Y470337D01*
X350830Y469674D01*
X352000Y469441D01*
X352000Y469441D01*
X381750D01*
X381750Y469441D01*
X382920Y469674D01*
X383913Y470337D01*
X396663Y483087D01*
X396663Y483087D01*
X397326Y484079D01*
X397559Y485250D01*
Y680250D01*
X397326Y681421D01*
X396663Y682413D01*
X396663Y682413D01*
X393096Y685980D01*
X393622Y687250D01*
X393838Y687250D01*
X393838Y687250D01*
X393871Y687250D01*
X412900D01*
Y707250D01*
X392900D01*
X392900Y688221D01*
Y688188D01*
D01*
X392900Y687972D01*
X392532Y687819D01*
X391630Y687446D01*
X386421Y692655D01*
X387243Y694640D01*
X387586Y697250D01*
X387243Y699861D01*
X386235Y702293D01*
X384632Y704382D01*
X382543Y705985D01*
X380111Y706993D01*
X377500Y707336D01*
D02*
G37*
G36*
X350830Y695980D02*
X341636D01*
X341831Y694499D01*
X342893Y691935D01*
X344583Y689733D01*
X346785Y688043D01*
X349348Y686981D01*
X350830Y686786D01*
Y695980D01*
D02*
G37*
G36*
X362564D02*
X353370D01*
Y686786D01*
X354851Y686981D01*
X357416Y688043D01*
X359617Y689733D01*
X361307Y691935D01*
X362369Y694499D01*
X362564Y695980D01*
D02*
G37*
G36*
X162500Y685608D02*
X160354Y685181D01*
X158535Y683965D01*
X157319Y682146D01*
X156892Y680000D01*
X157319Y677854D01*
X158535Y676035D01*
X160354Y674819D01*
X162500Y674392D01*
X164646Y674819D01*
X166465Y676035D01*
X167681Y677854D01*
X168108Y680000D01*
X167681Y682146D01*
X166465Y683965D01*
X164646Y685181D01*
X162500Y685608D01*
D02*
G37*
G36*
X644270Y679455D02*
Y671270D01*
X652455D01*
X652294Y672490D01*
X651333Y674811D01*
X649804Y676804D01*
X647811Y678333D01*
X645490Y679294D01*
X644270Y679455D01*
D02*
G37*
G36*
X641730Y679455D02*
X640510Y679294D01*
X638189Y678333D01*
X636196Y676804D01*
X634667Y674811D01*
X633706Y672490D01*
X633545Y671270D01*
X641730D01*
Y679455D01*
D02*
G37*
G36*
Y668730D02*
X633545D01*
X633706Y667509D01*
X634667Y665189D01*
X636196Y663196D01*
X638189Y661667D01*
X640510Y660705D01*
X641730Y660545D01*
Y668730D01*
D02*
G37*
G36*
X652455D02*
X644270D01*
Y660545D01*
X645490Y660705D01*
X647811Y661667D01*
X649804Y663196D01*
X651333Y665189D01*
X652294Y667509D01*
X652455Y668730D01*
D02*
G37*
G36*
X298750Y659482D02*
X296270Y659156D01*
X293959Y658198D01*
X291975Y656675D01*
X290452Y654691D01*
X289494Y652380D01*
X289168Y649900D01*
X289494Y647420D01*
X290212Y645688D01*
X201337Y556813D01*
X200674Y555821D01*
X200441Y554650D01*
X200441Y554650D01*
Y439071D01*
X199535Y438465D01*
X198319Y436646D01*
X197892Y434500D01*
X198319Y432354D01*
X199535Y430535D01*
X201354Y429319D01*
X203500Y428892D01*
X205646Y429319D01*
X207465Y430535D01*
X208681Y432354D01*
X209108Y434500D01*
X208681Y436646D01*
X207465Y438465D01*
X206559Y439071D01*
Y553383D01*
X294538Y641362D01*
X296270Y640645D01*
X298750Y640318D01*
X301230Y640645D01*
X303541Y641602D01*
X305525Y643124D01*
X307048Y645109D01*
X308006Y647420D01*
X308332Y649900D01*
X308006Y652380D01*
X307048Y654691D01*
X305525Y656675D01*
X303541Y658198D01*
X301230Y659156D01*
X298750Y659482D01*
D02*
G37*
G36*
X213000Y646108D02*
X210854Y645681D01*
X209035Y644465D01*
X207819Y642646D01*
X207392Y640500D01*
X207819Y638354D01*
X209035Y636535D01*
X210854Y635319D01*
X213000Y634892D01*
X215146Y635319D01*
X216965Y636535D01*
X218181Y638354D01*
X218608Y640500D01*
X218181Y642646D01*
X216965Y644465D01*
X215146Y645681D01*
X213000Y646108D01*
D02*
G37*
G36*
X300020Y634459D02*
Y625770D01*
X308709D01*
X308532Y627121D01*
X307520Y629563D01*
X305911Y631661D01*
X303813Y633270D01*
X301371Y634282D01*
X300020Y634459D01*
D02*
G37*
G36*
X297480D02*
X296129Y634282D01*
X293687Y633270D01*
X291589Y631661D01*
X289980Y629563D01*
X288968Y627121D01*
X288791Y625770D01*
X297480D01*
Y634459D01*
D02*
G37*
G36*
X49721Y604579D02*
X47575Y604152D01*
X45756Y602937D01*
X44540Y601117D01*
X44113Y598971D01*
X44540Y596825D01*
X45756Y595006D01*
X47575Y593790D01*
X49721Y593363D01*
X51867Y593790D01*
X53686Y595006D01*
X54902Y596825D01*
X55329Y598971D01*
X54902Y601117D01*
X53686Y602937D01*
X51867Y604152D01*
X49721Y604579D01*
D02*
G37*
G36*
X410500Y598108D02*
X408354Y597681D01*
X406535Y596465D01*
X405319Y594646D01*
X404892Y592500D01*
X405319Y590354D01*
X406535Y588535D01*
X408354Y587319D01*
X410500Y586892D01*
X412646Y587319D01*
X414465Y588535D01*
X415681Y590354D01*
X416108Y592500D01*
X415681Y594646D01*
X414465Y596465D01*
X412646Y597681D01*
X410500Y598108D01*
D02*
G37*
G36*
X410250Y581108D02*
X408104Y580681D01*
X406285Y579465D01*
X405069Y577646D01*
X404642Y575500D01*
X405069Y573354D01*
X406285Y571535D01*
X408104Y570319D01*
X410250Y569892D01*
X412396Y570319D01*
X414215Y571535D01*
X415431Y573354D01*
X415858Y575500D01*
X415431Y577646D01*
X414215Y579465D01*
X412396Y580681D01*
X410250Y581108D01*
D02*
G37*
G36*
X127000Y750608D02*
X124854Y750181D01*
X123035Y748965D01*
X121819Y747146D01*
X121392Y745000D01*
X121819Y742854D01*
X123035Y741035D01*
X124854Y739819D01*
X127000Y739392D01*
X128069Y739605D01*
X146691Y720983D01*
Y566017D01*
X141033Y560359D01*
X140947Y560369D01*
X139809Y560931D01*
Y719000D01*
X139809Y719000D01*
X139576Y720171D01*
X138913Y721163D01*
X135288Y724788D01*
X134296Y725451D01*
X133125Y725684D01*
X133125Y725684D01*
X126448D01*
X125840Y726595D01*
X124021Y727811D01*
X121875Y728237D01*
X120184Y727901D01*
X119063Y728777D01*
X119108Y729000D01*
X118681Y731146D01*
X117465Y732965D01*
X115646Y734181D01*
X113500Y734608D01*
X111354Y734181D01*
X109535Y732965D01*
X108579Y731535D01*
X107309Y731920D01*
Y738500D01*
X107076Y739670D01*
X106413Y740663D01*
X100913Y746163D01*
X99921Y746826D01*
X98750Y747059D01*
X98750Y747059D01*
X77500D01*
X77500Y747059D01*
X76329Y746826D01*
X75337Y746163D01*
X34087Y704913D01*
X33424Y703921D01*
X33191Y702750D01*
X33191Y702750D01*
Y579500D01*
X33191Y579500D01*
X33424Y578330D01*
X34087Y577337D01*
X50587Y560837D01*
X50587Y560837D01*
X51580Y560174D01*
X52750Y559941D01*
X52750Y559941D01*
X90500D01*
X90500Y559941D01*
X91671Y560174D01*
X92663Y560837D01*
X98913Y567087D01*
X98913Y567087D01*
X99576Y568079D01*
X99809Y569250D01*
X99809Y569250D01*
Y582012D01*
X100965Y582785D01*
X102181Y584604D01*
X102608Y586750D01*
X102181Y588896D01*
X100965Y590715D01*
X99146Y591931D01*
X97000Y592358D01*
X94854Y591931D01*
X93035Y590715D01*
X91819Y588896D01*
X91392Y586750D01*
X91819Y584604D01*
X93035Y582785D01*
X93691Y582346D01*
Y570517D01*
X89233Y566059D01*
X54017D01*
X39309Y580767D01*
Y609549D01*
X40401Y609975D01*
X40579Y610000D01*
X41907Y608981D01*
X43498Y608322D01*
X45171Y608102D01*
X45205Y608095D01*
X68460D01*
Y608061D01*
X68776Y607930D01*
X68907Y607614D01*
X68941D01*
Y585250D01*
X68941Y585250D01*
X69174Y584080D01*
X69837Y583087D01*
X76605Y576319D01*
X76392Y575250D01*
X76819Y573104D01*
X78035Y571285D01*
X79854Y570069D01*
X82000Y569642D01*
X84146Y570069D01*
X85965Y571285D01*
X87181Y573104D01*
X87608Y575250D01*
X87181Y577396D01*
X85965Y579215D01*
X84146Y580431D01*
X82000Y580858D01*
X80931Y580645D01*
X75059Y586517D01*
Y594840D01*
X76198Y595401D01*
X76242Y595367D01*
X77833Y594709D01*
X79505Y594488D01*
X79540Y594481D01*
X79995Y593883D01*
X79775Y592376D01*
X79535Y592215D01*
X78319Y590396D01*
X77892Y588250D01*
X78319Y586104D01*
X79535Y584285D01*
X81354Y583069D01*
X83500Y582642D01*
X85646Y583069D01*
X87465Y584285D01*
X88681Y586104D01*
X89108Y588250D01*
X88681Y590396D01*
X87465Y592215D01*
X86559Y592821D01*
Y594000D01*
X86552Y594035D01*
X86332Y595707D01*
X85673Y597298D01*
X84624Y598665D01*
X83258Y599713D01*
X81667Y600372D01*
X81954Y601561D01*
X105360D01*
X105395Y601568D01*
X107067Y601788D01*
X108658Y602447D01*
X108897Y602631D01*
X110444Y602217D01*
X110727Y601532D01*
X111776Y600166D01*
X113142Y599118D01*
X114733Y598459D01*
X116405Y598238D01*
X116440Y598232D01*
X122960D01*
Y598197D01*
X123276Y598066D01*
X123407Y597750D01*
X123441D01*
Y582738D01*
X122285Y581965D01*
X121069Y580146D01*
X120642Y578000D01*
X121069Y575854D01*
X122285Y574035D01*
X124104Y572819D01*
X126250Y572392D01*
X128396Y572819D01*
X128571Y572936D01*
X129691Y572337D01*
Y571017D01*
X117712Y559038D01*
X117712Y559038D01*
X104182Y545508D01*
X104158Y545532D01*
X103842Y545401D01*
X103525Y545532D01*
X103501Y545508D01*
X100234Y548775D01*
X100205Y548795D01*
X98866Y549822D01*
X97275Y550481D01*
X95568Y550705D01*
X93861Y550481D01*
X92270Y549822D01*
X90932Y548795D01*
X90902Y548775D01*
X90882Y548745D01*
X89855Y547407D01*
X89196Y545816D01*
X88972Y544109D01*
X89196Y542402D01*
X89855Y540811D01*
X90882Y539473D01*
X90902Y539443D01*
X93271Y537074D01*
X93752Y536566D01*
X93752Y535078D01*
X86087Y527413D01*
X85424Y526421D01*
X85191Y525250D01*
X85191Y525250D01*
Y436071D01*
X84285Y435465D01*
X83069Y433646D01*
X82642Y431500D01*
X83069Y429354D01*
X84285Y427535D01*
X86104Y426319D01*
X88250Y425892D01*
X90396Y426319D01*
X92215Y427535D01*
X93431Y429354D01*
X93858Y431500D01*
X93431Y433646D01*
X92215Y435465D01*
X91309Y436071D01*
Y453922D01*
X92429Y454520D01*
X93104Y454069D01*
X95250Y453642D01*
X96258Y453843D01*
X97022Y452700D01*
X96819Y452396D01*
X96392Y450250D01*
X96819Y448104D01*
X98035Y446285D01*
X99854Y445069D01*
X102000Y444642D01*
X104146Y445069D01*
X105965Y446285D01*
X107181Y448104D01*
X107608Y450250D01*
X107592Y450330D01*
X107809Y451422D01*
Y518483D01*
X151913Y562587D01*
X151913Y562587D01*
X152576Y563579D01*
X152809Y564750D01*
X152809Y564750D01*
Y722250D01*
X152809Y722250D01*
X152576Y723420D01*
X151913Y724413D01*
X151913Y724413D01*
X132395Y743931D01*
X132608Y745000D01*
X132181Y747146D01*
X130965Y748965D01*
X129146Y750181D01*
X127000Y750608D01*
D02*
G37*
G36*
X367000Y560986D02*
X364390Y560643D01*
X361957Y559635D01*
X359868Y558032D01*
X358265Y555943D01*
X357258Y553511D01*
X356914Y550900D01*
X357258Y548290D01*
X358265Y545857D01*
X359868Y543768D01*
X361957Y542165D01*
X364390Y541158D01*
X367000Y540814D01*
X369611Y541158D01*
X372043Y542165D01*
X374132Y543768D01*
X375735Y545857D01*
X376743Y548290D01*
X377086Y550900D01*
X376743Y553511D01*
X375735Y555943D01*
X374132Y558032D01*
X372043Y559635D01*
X369611Y560643D01*
X367000Y560986D01*
D02*
G37*
G36*
X245000Y548358D02*
X242854Y547931D01*
X241035Y546715D01*
X239819Y544896D01*
X239392Y542750D01*
X239819Y540604D01*
X241035Y538785D01*
X242854Y537569D01*
X245000Y537142D01*
X247146Y537569D01*
X248965Y538785D01*
X250181Y540604D01*
X250608Y542750D01*
X250181Y544896D01*
X248965Y546715D01*
X247146Y547931D01*
X245000Y548358D01*
D02*
G37*
G36*
X308250Y684800D02*
X289250D01*
Y670486D01*
X277657Y658893D01*
X276939Y657818D01*
X276686Y656550D01*
Y646373D01*
X189157Y558843D01*
X188439Y557768D01*
X188186Y556500D01*
Y544901D01*
X187535Y544465D01*
X186319Y542646D01*
X185892Y540500D01*
X186319Y538354D01*
X187535Y536535D01*
X189354Y535319D01*
X191500Y534892D01*
X193646Y535319D01*
X195465Y536535D01*
X196681Y538354D01*
X197108Y540500D01*
X196681Y542646D01*
X195465Y544465D01*
X194814Y544901D01*
Y555127D01*
X282343Y642657D01*
X283061Y643732D01*
X283314Y645000D01*
Y655178D01*
X293936Y665800D01*
X308250D01*
Y684800D01*
D02*
G37*
G36*
X252750Y514608D02*
X250604Y514181D01*
X248785Y512965D01*
X247569Y511146D01*
X247142Y509000D01*
X247569Y506854D01*
X248785Y505035D01*
X250604Y503819D01*
X252750Y503392D01*
X254896Y503819D01*
X256715Y505035D01*
X257931Y506854D01*
X258358Y509000D01*
X257931Y511146D01*
X256715Y512965D01*
X254896Y514181D01*
X252750Y514608D01*
D02*
G37*
G36*
X377000Y510100D02*
X357000D01*
Y490100D01*
X377000D01*
Y510100D01*
D02*
G37*
G36*
X252500Y500108D02*
X250354Y499681D01*
X248535Y498465D01*
X247319Y496646D01*
X246892Y494500D01*
X247319Y492354D01*
X248535Y490535D01*
X250354Y489319D01*
X252500Y488892D01*
X254646Y489319D01*
X256465Y490535D01*
X257681Y492354D01*
X258108Y494500D01*
X257681Y496646D01*
X256465Y498465D01*
X254646Y499681D01*
X252500Y500108D01*
D02*
G37*
G36*
X257750Y459108D02*
X255604Y458681D01*
X253785Y457465D01*
X252569Y455646D01*
X252142Y453500D01*
X252295Y452731D01*
X240407Y440843D01*
X239689Y439768D01*
X239436Y438500D01*
Y424750D01*
X239689Y423482D01*
X240407Y422407D01*
X254907Y407907D01*
X255982Y407189D01*
X257250Y406936D01*
X260349D01*
X260785Y406285D01*
X262604Y405069D01*
X264750Y404642D01*
X266896Y405069D01*
X268715Y406285D01*
X269931Y408104D01*
X270358Y410250D01*
X270042Y411836D01*
X271213Y412462D01*
X288654Y395021D01*
X288069Y394146D01*
X287642Y392000D01*
X288069Y389854D01*
X289285Y388035D01*
X291104Y386819D01*
X293250Y386392D01*
X295396Y386819D01*
X297215Y388035D01*
X298431Y389854D01*
X298858Y392000D01*
X298431Y394146D01*
X297215Y395965D01*
X295396Y397181D01*
X294843Y397291D01*
X294456Y397870D01*
X259503Y432822D01*
X259716Y433892D01*
X259289Y436038D01*
X258074Y437857D01*
X256254Y439073D01*
X254108Y439500D01*
X251962Y439073D01*
X250143Y437857D01*
X248927Y436038D01*
X248500Y433892D01*
X248927Y431746D01*
X250143Y429926D01*
X251962Y428711D01*
X254108Y428284D01*
X255177Y428497D01*
X266961Y416713D01*
X266336Y415542D01*
X264750Y415858D01*
X262604Y415431D01*
X260785Y414215D01*
X260349Y413564D01*
X258623D01*
X246064Y426123D01*
Y437127D01*
X256981Y448045D01*
X257750Y447892D01*
X259896Y448319D01*
X261715Y449535D01*
X262931Y451354D01*
X263358Y453500D01*
X262931Y455646D01*
X261715Y457465D01*
X259896Y458681D01*
X257750Y459108D01*
D02*
G37*
G36*
X242000Y416608D02*
X239854Y416181D01*
X238035Y414965D01*
X236819Y413146D01*
X236392Y411000D01*
X236819Y408854D01*
X238035Y407035D01*
X239854Y405819D01*
X242000Y405392D01*
X244146Y405819D01*
X245965Y407035D01*
X247181Y408854D01*
X247608Y411000D01*
X247181Y413146D01*
X245965Y414965D01*
X244146Y416181D01*
X242000Y416608D01*
D02*
G37*
G36*
X548750Y430358D02*
X546604Y429931D01*
X544785Y428715D01*
X543569Y426896D01*
X543142Y424750D01*
X543569Y422604D01*
X544785Y420785D01*
X546604Y419569D01*
X548750Y419142D01*
X549218Y419235D01*
X560727Y407727D01*
X561884Y406953D01*
X563250Y406681D01*
X662020D01*
X662285Y406285D01*
X664104Y405069D01*
X666250Y404642D01*
X668396Y405069D01*
X670215Y406285D01*
X671431Y408104D01*
X671858Y410250D01*
X671431Y412396D01*
X670215Y414215D01*
X668396Y415431D01*
X666250Y415858D01*
X664104Y415431D01*
X662285Y414215D01*
X662020Y413819D01*
X564728D01*
X554265Y424282D01*
X554358Y424750D01*
X553931Y426896D01*
X552715Y428715D01*
X550896Y429931D01*
X548750Y430358D01*
D02*
G37*
G36*
X191250Y522358D02*
X189104Y521931D01*
X187285Y520715D01*
X186069Y518896D01*
X185642Y516750D01*
X186069Y514604D01*
X187285Y512785D01*
X188191Y512179D01*
Y326267D01*
X55337Y193413D01*
X54674Y192421D01*
X54441Y191250D01*
X54441Y191250D01*
Y133321D01*
X53535Y132715D01*
X52319Y130896D01*
X51892Y128750D01*
X52319Y126604D01*
X53535Y124785D01*
X55354Y123569D01*
X57500Y123142D01*
X59646Y123569D01*
X61465Y124785D01*
X62681Y126604D01*
X63108Y128750D01*
X62681Y130896D01*
X61465Y132715D01*
X60559Y133321D01*
Y189983D01*
X193413Y322837D01*
X193413Y322837D01*
X194076Y323829D01*
X194309Y325000D01*
Y341383D01*
X195579Y341838D01*
X197104Y340819D01*
X199250Y340392D01*
X201396Y340819D01*
X203215Y342035D01*
X204431Y343854D01*
X204858Y346000D01*
X204645Y347069D01*
X206936Y349360D01*
X207922Y348551D01*
X207819Y348396D01*
X207392Y346250D01*
X207819Y344104D01*
X209035Y342285D01*
X210854Y341069D01*
X213000Y340642D01*
X215146Y341069D01*
X216965Y342285D01*
X218181Y344104D01*
X218608Y346250D01*
X218395Y347319D01*
X221171Y350095D01*
X222441Y349569D01*
Y340321D01*
X221535Y339715D01*
X220319Y337896D01*
X219892Y335750D01*
X220319Y333604D01*
X221535Y331785D01*
X223354Y330569D01*
X225500Y330142D01*
X227646Y330569D01*
X229465Y331785D01*
X230681Y333604D01*
X231108Y335750D01*
X230681Y337896D01*
X229465Y339715D01*
X228559Y340321D01*
Y450175D01*
X234063Y455679D01*
X235278Y455311D01*
X235319Y455104D01*
X236535Y453285D01*
X238354Y452069D01*
X240500Y451642D01*
X242646Y452069D01*
X244465Y453285D01*
X245681Y455104D01*
X246108Y457250D01*
X245895Y458319D01*
X249767Y462191D01*
X265983D01*
X302941Y425233D01*
Y396821D01*
X302035Y396215D01*
X300819Y394396D01*
X300392Y392250D01*
X300819Y390104D01*
X302035Y388285D01*
X303854Y387069D01*
X306000Y386642D01*
X308146Y387069D01*
X309965Y388285D01*
X311181Y390104D01*
X311608Y392250D01*
X311181Y394396D01*
X309965Y396215D01*
X309059Y396821D01*
Y426500D01*
X308826Y427671D01*
X308163Y428663D01*
X269413Y467413D01*
X268869Y467776D01*
X268740Y469109D01*
X268782Y469245D01*
X269215Y469535D01*
X270431Y471354D01*
X270858Y473500D01*
X270431Y475646D01*
X269215Y477465D01*
X267396Y478681D01*
X265250Y479108D01*
X263104Y478681D01*
X261285Y477465D01*
X260679Y476559D01*
X259420D01*
X259035Y477829D01*
X260465Y478785D01*
X261681Y480604D01*
X262108Y482750D01*
X261681Y484896D01*
X260465Y486715D01*
X258646Y487931D01*
X256500Y488358D01*
X254354Y487931D01*
X252535Y486715D01*
X251781Y485588D01*
X245664D01*
X244627Y486780D01*
X244622Y486815D01*
X244858Y488000D01*
X244431Y490146D01*
X243215Y491965D01*
X241396Y493181D01*
X239250Y493608D01*
X237104Y493181D01*
X235285Y491965D01*
X234069Y490146D01*
X233642Y488000D01*
X233855Y486931D01*
X213337Y466413D01*
X212674Y465420D01*
X212441Y464250D01*
X212441Y464250D01*
Y363517D01*
X200319Y351395D01*
X199250Y351608D01*
X197104Y351181D01*
X195579Y350162D01*
X194309Y350617D01*
Y512179D01*
X195215Y512785D01*
X196431Y514604D01*
X196858Y516750D01*
X196431Y518896D01*
X195215Y520715D01*
X193396Y521931D01*
X191250Y522358D01*
D02*
G37*
G36*
X263000Y395108D02*
X260854Y394681D01*
X259035Y393465D01*
X257819Y391646D01*
X257392Y389500D01*
X257819Y387354D01*
X259035Y385535D01*
X260854Y384319D01*
X263000Y383892D01*
X265146Y384319D01*
X266965Y385535D01*
X268181Y387354D01*
X268608Y389500D01*
X268181Y391646D01*
X266965Y393465D01*
X265146Y394681D01*
X263000Y395108D01*
D02*
G37*
G36*
X108500Y378108D02*
X106354Y377681D01*
X104535Y376465D01*
X103972Y375623D01*
X102444D01*
X102215Y375965D01*
X100396Y377181D01*
X98250Y377608D01*
X96104Y377181D01*
X94285Y375965D01*
X94052Y375617D01*
X92782D01*
X92215Y376465D01*
X90396Y377681D01*
X88250Y378108D01*
X86104Y377681D01*
X84285Y376465D01*
X83069Y374646D01*
X82642Y372500D01*
X83069Y370354D01*
X84285Y368535D01*
X86104Y367319D01*
X88250Y366892D01*
X90396Y367319D01*
X92215Y368535D01*
X92448Y368883D01*
X93718D01*
X94285Y368035D01*
X96104Y366819D01*
X98250Y366392D01*
X100396Y366819D01*
X102215Y368035D01*
X102778Y368877D01*
X104306D01*
X104535Y368535D01*
X106354Y367319D01*
X108500Y366892D01*
X110646Y367319D01*
X110835Y367445D01*
X111978Y366682D01*
X111892Y366250D01*
X112319Y364104D01*
X113535Y362285D01*
X115354Y361069D01*
X117500Y360642D01*
X119646Y361069D01*
X121465Y362285D01*
X122681Y364104D01*
X123108Y366250D01*
X122681Y368396D01*
X121465Y370215D01*
X119646Y371431D01*
X117500Y371858D01*
X115354Y371431D01*
X115165Y371305D01*
X114022Y372068D01*
X114108Y372500D01*
X113681Y374646D01*
X112465Y376465D01*
X110646Y377681D01*
X108500Y378108D01*
D02*
G37*
G36*
X149000Y379358D02*
X146854Y378931D01*
X145035Y377715D01*
X143819Y375896D01*
X143392Y373750D01*
X143819Y371604D01*
X145035Y369785D01*
X146854Y368569D01*
X149000Y368142D01*
X151146Y368569D01*
X152965Y369785D01*
X154181Y371604D01*
X154608Y373750D01*
X154181Y375896D01*
X152965Y377715D01*
X151146Y378931D01*
X149000Y379358D01*
D02*
G37*
G36*
X402750Y386850D02*
X382750D01*
Y366850D01*
X402750D01*
Y386850D01*
D02*
G37*
G36*
X142500Y364858D02*
X140354Y364431D01*
X138535Y363215D01*
X137319Y361396D01*
X136892Y359250D01*
X137319Y357104D01*
X138535Y355285D01*
X140354Y354069D01*
X142500Y353642D01*
X144646Y354069D01*
X146465Y355285D01*
X147681Y357104D01*
X148108Y359250D01*
X147681Y361396D01*
X146465Y363215D01*
X144646Y364431D01*
X142500Y364858D01*
D02*
G37*
G36*
X394020Y361914D02*
Y352720D01*
X403214D01*
X403019Y354202D01*
X401957Y356766D01*
X400267Y358967D01*
X398065Y360657D01*
X395502Y361719D01*
X394020Y361914D01*
D02*
G37*
G36*
X391480D02*
X389999Y361719D01*
X387435Y360657D01*
X385233Y358967D01*
X383543Y356766D01*
X382481Y354202D01*
X382286Y352720D01*
X391480D01*
Y361914D01*
D02*
G37*
G36*
X126250Y360358D02*
X124104Y359931D01*
X122285Y358715D01*
X121069Y356896D01*
X120642Y354750D01*
X121069Y352604D01*
X122285Y350785D01*
X124104Y349569D01*
X126250Y349142D01*
X128396Y349569D01*
X130215Y350785D01*
X131431Y352604D01*
X131858Y354750D01*
X131431Y356896D01*
X130215Y358715D01*
X128396Y359931D01*
X126250Y360358D01*
D02*
G37*
G36*
X60500D02*
X58354Y359931D01*
X56535Y358715D01*
X55319Y356896D01*
X54892Y354750D01*
X55319Y352604D01*
X56535Y350785D01*
X58354Y349569D01*
X60500Y349142D01*
X62646Y349569D01*
X64465Y350785D01*
X65681Y352604D01*
X66108Y354750D01*
X65681Y356896D01*
X64465Y358715D01*
X62646Y359931D01*
X60500Y360358D01*
D02*
G37*
G36*
X403214Y350180D02*
X394020D01*
Y340986D01*
X395502Y341181D01*
X398065Y342243D01*
X400267Y343933D01*
X401957Y346134D01*
X403019Y348699D01*
X403214Y350180D01*
D02*
G37*
G36*
X391480D02*
X382286D01*
X382481Y348699D01*
X383543Y346134D01*
X385233Y343933D01*
X387435Y342243D01*
X389999Y341181D01*
X391480Y340986D01*
Y350180D01*
D02*
G37*
G36*
X134500Y351108D02*
X132354Y350681D01*
X130535Y349465D01*
X129319Y347646D01*
X128892Y345500D01*
X129319Y343354D01*
X130535Y341535D01*
X132354Y340319D01*
X134500Y339892D01*
X136646Y340319D01*
X138465Y341535D01*
X139681Y343354D01*
X140108Y345500D01*
X139681Y347646D01*
X138465Y349465D01*
X136646Y350681D01*
X134500Y351108D01*
D02*
G37*
G36*
X95020Y324714D02*
Y315520D01*
X104214D01*
X104019Y317001D01*
X102957Y319566D01*
X101267Y321767D01*
X99066Y323457D01*
X96502Y324519D01*
X95020Y324714D01*
D02*
G37*
G36*
X92480D02*
X90998Y324519D01*
X88434Y323457D01*
X86233Y321767D01*
X84543Y319566D01*
X83481Y317001D01*
X83286Y315520D01*
X92480D01*
Y324714D01*
D02*
G37*
G36*
X129150Y324250D02*
X109150D01*
Y304250D01*
X129150D01*
Y324250D01*
D02*
G37*
G36*
X68350Y324336D02*
X65739Y323993D01*
X63307Y322985D01*
X61218Y321382D01*
X59615Y319293D01*
X58607Y316861D01*
X58264Y314250D01*
X58607Y311639D01*
X59615Y309207D01*
X61218Y307118D01*
X63307Y305515D01*
X65739Y304507D01*
X68350Y304164D01*
X70960Y304507D01*
X73393Y305515D01*
X75482Y307118D01*
X77085Y309207D01*
X78093Y311639D01*
X78436Y314250D01*
X78093Y316861D01*
X77085Y319293D01*
X75482Y321382D01*
X73393Y322985D01*
X70960Y323993D01*
X68350Y324336D01*
D02*
G37*
G36*
X104214Y312980D02*
X95020D01*
Y303786D01*
X96502Y303981D01*
X99066Y305043D01*
X101267Y306733D01*
X102957Y308934D01*
X104019Y311499D01*
X104214Y312980D01*
D02*
G37*
G36*
X92480D02*
X83286D01*
X83481Y311499D01*
X84543Y308934D01*
X86233Y306733D01*
X88434Y305043D01*
X90998Y303981D01*
X92480Y303786D01*
Y312980D01*
D02*
G37*
G36*
X463270Y306705D02*
Y298520D01*
X471455D01*
X471294Y299740D01*
X470333Y302061D01*
X468804Y304054D01*
X466811Y305583D01*
X464490Y306544D01*
X463270Y306705D01*
D02*
G37*
G36*
X460730Y306705D02*
X459509Y306544D01*
X457189Y305583D01*
X455196Y304054D01*
X453667Y302061D01*
X452705Y299740D01*
X452545Y298520D01*
X460730D01*
Y306705D01*
D02*
G37*
G36*
X521000Y306250D02*
X503000D01*
Y288250D01*
X521000D01*
Y306250D01*
D02*
G37*
G36*
X471455Y295980D02*
X463270D01*
Y287795D01*
X464490Y287955D01*
X466811Y288917D01*
X468804Y290446D01*
X470333Y292439D01*
X471294Y294760D01*
X471455Y295980D01*
D02*
G37*
G36*
X460730D02*
X452545D01*
X452705Y294760D01*
X453667Y292439D01*
X455196Y290446D01*
X457189Y288917D01*
X459509Y287955D01*
X460730Y287795D01*
Y295980D01*
D02*
G37*
G36*
X167250Y518608D02*
X165104Y518181D01*
X163285Y516965D01*
X162069Y515146D01*
X161642Y513000D01*
X162069Y510854D01*
X163285Y509035D01*
X164191Y508429D01*
Y328517D01*
X22087Y186413D01*
X21424Y185420D01*
X21191Y184250D01*
X21191Y184250D01*
Y131571D01*
X20285Y130965D01*
X19069Y129146D01*
X18642Y127000D01*
X19069Y124854D01*
X20285Y123035D01*
X22104Y121819D01*
X24250Y121392D01*
X26396Y121819D01*
X28215Y123035D01*
X29431Y124854D01*
X29858Y127000D01*
X29431Y129146D01*
X28215Y130965D01*
X27309Y131571D01*
Y182983D01*
X169413Y325087D01*
X170076Y326079D01*
X170309Y327250D01*
Y508429D01*
X171215Y509035D01*
X172431Y510854D01*
X172858Y513000D01*
X172431Y515146D01*
X171215Y516965D01*
X169396Y518181D01*
X167250Y518608D01*
D02*
G37*
G36*
X178500Y527358D02*
X176354Y526931D01*
X174535Y525715D01*
X173319Y523896D01*
X172892Y521750D01*
X173319Y519604D01*
X174535Y517785D01*
X175186Y517349D01*
Y327873D01*
X41907Y194593D01*
X41189Y193518D01*
X40936Y192250D01*
Y127500D01*
X41189Y126232D01*
X41907Y125157D01*
X51657Y115407D01*
X52732Y114689D01*
X54000Y114436D01*
X79250D01*
X80518Y114689D01*
X81593Y115407D01*
X86731Y120545D01*
X87500Y120392D01*
X89646Y120819D01*
X91465Y122035D01*
X92681Y123854D01*
X93108Y126000D01*
X92681Y128146D01*
X91465Y129965D01*
X89646Y131181D01*
X87500Y131608D01*
X85354Y131181D01*
X83535Y129965D01*
X82319Y128146D01*
X81892Y126000D01*
X82045Y125231D01*
X77877Y121064D01*
X55373D01*
X47564Y128872D01*
Y190877D01*
X180843Y324157D01*
X181561Y325232D01*
X181814Y326500D01*
Y517349D01*
X182465Y517785D01*
X183681Y519604D01*
X184108Y521750D01*
X183681Y523896D01*
X182465Y525715D01*
X180646Y526931D01*
X178500Y527358D01*
D02*
G37*
G36*
X611520Y98012D02*
Y77500D01*
X622547D01*
Y85882D01*
X622128Y89065D01*
X620900Y92031D01*
X618945Y94577D01*
X616399Y96532D01*
X613433Y97760D01*
X611520Y98012D01*
D02*
G37*
G36*
X608980Y98012D02*
X607067Y97760D01*
X604101Y96532D01*
X601555Y94577D01*
X599600Y92031D01*
X598372Y89065D01*
X597953Y85882D01*
Y77500D01*
X608980D01*
Y98012D01*
D02*
G37*
G36*
X645250Y97634D02*
X642208Y97234D01*
X639374Y96060D01*
X636940Y94192D01*
X635072Y91758D01*
X633898Y88924D01*
X633498Y85882D01*
Y66578D01*
X633898Y63536D01*
X635072Y60702D01*
X636940Y58268D01*
X639374Y56400D01*
X642208Y55226D01*
X645250Y54826D01*
X648292Y55226D01*
X651126Y56400D01*
X653560Y58268D01*
X655428Y60702D01*
X656602Y63536D01*
X657002Y66578D01*
Y85882D01*
X656602Y88924D01*
X655428Y91758D01*
X653560Y94192D01*
X651126Y96060D01*
X648292Y97234D01*
X645250Y97634D01*
D02*
G37*
G36*
X622547Y74960D02*
X611520D01*
Y54448D01*
X613433Y54700D01*
X616399Y55928D01*
X618945Y57883D01*
X620900Y60429D01*
X622128Y63395D01*
X622547Y66578D01*
Y74960D01*
D02*
G37*
G36*
X608980D02*
X597953D01*
Y66578D01*
X598372Y63395D01*
X599600Y60429D01*
X601555Y57883D01*
X604101Y55928D01*
X607067Y54700D01*
X608980Y54448D01*
Y74960D01*
D02*
G37*
%LPD*%
G36*
X508250Y867000D02*
X470000D01*
Y891000D01*
X508250D01*
Y867000D01*
D02*
G37*
G36*
X86079Y740563D02*
X86152Y739671D01*
X84535Y738590D01*
X83319Y736771D01*
X82892Y734625D01*
X83319Y732479D01*
X84535Y730660D01*
X85441Y730054D01*
Y720500D01*
X85441Y720500D01*
X85674Y719330D01*
X86337Y718337D01*
X99354Y705320D01*
X121109Y683565D01*
X121132Y683394D01*
X120693Y682334D01*
X120555Y682229D01*
X116980D01*
X116945Y682222D01*
X115273Y682002D01*
X113682Y681343D01*
X112316Y680295D01*
X111267Y678928D01*
X110608Y677337D01*
X110384Y675630D01*
X110608Y673923D01*
X111267Y672332D01*
X112316Y670966D01*
X113682Y669918D01*
X115273Y669258D01*
X114986Y668069D01*
X108854D01*
X108819Y668062D01*
X107147Y667842D01*
X105556Y667183D01*
X104190Y666135D01*
X103141Y664768D01*
X102483Y663177D01*
X102258Y661470D01*
X102483Y659763D01*
X103030Y658442D01*
X102704Y657710D01*
X102257Y657239D01*
X81954D01*
X81667Y658428D01*
X83258Y659087D01*
X84624Y660136D01*
X85673Y661502D01*
X86332Y663093D01*
X86552Y664765D01*
X86559Y664800D01*
Y674233D01*
X88181Y675855D01*
X89250Y675642D01*
X91396Y676069D01*
X93215Y677285D01*
X94431Y679104D01*
X94858Y681250D01*
X94431Y683396D01*
X93215Y685215D01*
X91396Y686431D01*
X89250Y686858D01*
X87104Y686431D01*
X85285Y685215D01*
X84069Y683396D01*
X83642Y681250D01*
X83855Y680181D01*
X81337Y677663D01*
X80674Y676671D01*
X80441Y675500D01*
X80441Y675500D01*
Y664800D01*
X80407D01*
X80276Y664484D01*
X79960Y664353D01*
Y664319D01*
X79960D01*
X79925Y664312D01*
X78253Y664092D01*
X76662Y663433D01*
X76329Y663177D01*
X75059Y663804D01*
Y672093D01*
Y677179D01*
X75965Y677785D01*
X77181Y679604D01*
X77608Y681750D01*
X77181Y683896D01*
X75965Y685715D01*
X74146Y686931D01*
X72000Y687358D01*
X69854Y686931D01*
X68035Y685715D01*
X66819Y683896D01*
X66392Y681750D01*
X66819Y679604D01*
X68035Y677785D01*
X68941Y677179D01*
Y672093D01*
Y650094D01*
X68907D01*
X68776Y649778D01*
X68460Y649647D01*
Y649613D01*
X45205D01*
X45171Y649606D01*
X43498Y649386D01*
X41907Y648727D01*
X40579Y647707D01*
X40401Y647733D01*
X39309Y648158D01*
Y701483D01*
X78767Y740941D01*
X85941D01*
X86079Y740563D01*
D02*
G37*
%LPC*%
G36*
X394020Y311114D02*
Y301920D01*
X403214D01*
X403019Y303402D01*
X401957Y305965D01*
X400267Y308167D01*
X398065Y309857D01*
X395502Y310919D01*
X394020Y311114D01*
D02*
G37*
G36*
X391480D02*
X389999Y310919D01*
X387435Y309857D01*
X385233Y308167D01*
X383543Y305965D01*
X382481Y303402D01*
X382286Y301920D01*
X391480D01*
Y311114D01*
D02*
G37*
G36*
X403214Y299380D02*
X394020D01*
Y290186D01*
X395502Y290381D01*
X398065Y291443D01*
X400267Y293133D01*
X401957Y295334D01*
X403019Y297899D01*
X403214Y299380D01*
D02*
G37*
G36*
X391480D02*
X382286D01*
X382481Y297899D01*
X383543Y295334D01*
X385233Y293133D01*
X387435Y291443D01*
X389999Y290381D01*
X391480Y290186D01*
Y299380D01*
D02*
G37*
G36*
X394020Y285714D02*
Y276520D01*
X403214D01*
X403019Y278001D01*
X401957Y280565D01*
X400267Y282767D01*
X398065Y284457D01*
X395502Y285519D01*
X394020Y285714D01*
D02*
G37*
G36*
X391480D02*
X389999Y285519D01*
X387435Y284457D01*
X385233Y282767D01*
X383543Y280565D01*
X382481Y278001D01*
X382286Y276520D01*
X391480D01*
Y285714D01*
D02*
G37*
G36*
X403214Y273980D02*
X394020D01*
Y264786D01*
X395502Y264981D01*
X398065Y266043D01*
X400267Y267733D01*
X401957Y269935D01*
X403019Y272498D01*
X403214Y273980D01*
D02*
G37*
G36*
X391480D02*
X382286D01*
X382481Y272498D01*
X383543Y269935D01*
X385233Y267733D01*
X387435Y266043D01*
X389999Y264981D01*
X391480Y264786D01*
Y273980D01*
D02*
G37*
G36*
X392750Y259936D02*
X390140Y259593D01*
X387707Y258585D01*
X385618Y256982D01*
X384015Y254893D01*
X383007Y252460D01*
X382664Y249850D01*
X383007Y247239D01*
X384015Y244807D01*
X385618Y242718D01*
X387707Y241115D01*
X390140Y240107D01*
X392750Y239764D01*
X395360Y240107D01*
X397793Y241115D01*
X399882Y242718D01*
X401485Y244807D01*
X402493Y247239D01*
X402836Y249850D01*
X402493Y252460D01*
X401485Y254893D01*
X399882Y256982D01*
X397793Y258585D01*
X395360Y259593D01*
X392750Y259936D01*
D02*
G37*
G36*
Y234536D02*
X390140Y234193D01*
X387707Y233185D01*
X385618Y231582D01*
X384015Y229493D01*
X383007Y227061D01*
X382664Y224450D01*
X383007Y221840D01*
X384015Y219407D01*
X385618Y217318D01*
X387707Y215715D01*
X390140Y214707D01*
X392750Y214364D01*
X395360Y214707D01*
X397793Y215715D01*
X399882Y217318D01*
X401485Y219407D01*
X402493Y221840D01*
X402836Y224450D01*
X402493Y227061D01*
X401485Y229493D01*
X399882Y231582D01*
X397793Y233185D01*
X395360Y234193D01*
X392750Y234536D01*
D02*
G37*
G36*
X234000Y199858D02*
X231854Y199431D01*
X230035Y198215D01*
X228819Y196396D01*
X228392Y194250D01*
X228819Y192104D01*
X230035Y190285D01*
X231854Y189069D01*
X234000Y188642D01*
X236146Y189069D01*
X237965Y190285D01*
X238401Y190936D01*
X365127D01*
X400795Y155269D01*
X400642Y154500D01*
X401069Y152354D01*
X402285Y150535D01*
X404104Y149319D01*
X406250Y148892D01*
X408396Y149319D01*
X410215Y150535D01*
X411431Y152354D01*
X411858Y154500D01*
X411431Y156646D01*
X410215Y158465D01*
X408396Y159681D01*
X406250Y160108D01*
X405481Y159955D01*
X368843Y196593D01*
X367768Y197311D01*
X367558Y197353D01*
X366500Y197564D01*
X238401D01*
X237965Y198215D01*
X236146Y199431D01*
X234000Y199858D01*
D02*
G37*
G36*
X200750Y198358D02*
X198604Y197931D01*
X196785Y196715D01*
X195569Y194896D01*
X195142Y192750D01*
X195569Y190604D01*
X196785Y188785D01*
X198604Y187569D01*
X200750Y187142D01*
X201519Y187295D01*
X217907Y170907D01*
X218982Y170189D01*
X220250Y169936D01*
X344878D01*
X415795Y99019D01*
X415642Y98250D01*
X416069Y96104D01*
X417285Y94285D01*
X419104Y93069D01*
X421250Y92642D01*
X423396Y93069D01*
X425215Y94285D01*
X426431Y96104D01*
X426858Y98250D01*
X426431Y100396D01*
X425215Y102215D01*
X423396Y103431D01*
X421250Y103858D01*
X420481Y103705D01*
X348593Y175593D01*
X347518Y176311D01*
X347308Y176353D01*
X346250Y176564D01*
X221623D01*
X206205Y191981D01*
X206358Y192750D01*
X205931Y194896D01*
X204715Y196715D01*
X202896Y197931D01*
X200750Y198358D01*
D02*
G37*
G36*
X271020Y97142D02*
Y76630D01*
X282047D01*
Y85012D01*
X281628Y88195D01*
X280400Y91161D01*
X278445Y93707D01*
X275899Y95662D01*
X272933Y96890D01*
X271020Y97142D01*
D02*
G37*
G36*
X268480Y97142D02*
X266567Y96890D01*
X263601Y95662D01*
X261055Y93707D01*
X259100Y91161D01*
X257872Y88195D01*
X257453Y85012D01*
Y76630D01*
X268480D01*
Y97142D01*
D02*
G37*
G36*
X234750Y96764D02*
X231708Y96364D01*
X228874Y95190D01*
X226440Y93322D01*
X224572Y90888D01*
X223398Y88054D01*
X222997Y85012D01*
Y65708D01*
X223398Y62666D01*
X224572Y59832D01*
X226440Y57398D01*
X228874Y55530D01*
X231708Y54356D01*
X234750Y53955D01*
X237792Y54356D01*
X240626Y55530D01*
X243060Y57398D01*
X244928Y59832D01*
X246102Y62666D01*
X246502Y65708D01*
Y85012D01*
X246102Y88054D01*
X244928Y90888D01*
X243060Y93322D01*
X240626Y95190D01*
X237792Y96364D01*
X234750Y96764D01*
D02*
G37*
G36*
X199750D02*
X196708Y96364D01*
X193874Y95190D01*
X191440Y93322D01*
X189572Y90888D01*
X188398Y88054D01*
X187997Y85012D01*
Y65708D01*
X188398Y62666D01*
X189572Y59832D01*
X191440Y57398D01*
X193874Y55530D01*
X196708Y54356D01*
X199750Y53955D01*
X202792Y54356D01*
X205626Y55530D01*
X208060Y57398D01*
X209928Y59832D01*
X211102Y62666D01*
X211502Y65708D01*
Y85012D01*
X211102Y88054D01*
X209928Y90888D01*
X208060Y93322D01*
X205626Y95190D01*
X202792Y96364D01*
X199750Y96764D01*
D02*
G37*
G36*
X282047Y74090D02*
X271020D01*
Y53578D01*
X272933Y53830D01*
X275899Y55058D01*
X278445Y57013D01*
X280400Y59559D01*
X281628Y62525D01*
X282047Y65708D01*
Y74090D01*
D02*
G37*
G36*
X268480D02*
X257453D01*
Y65708D01*
X257872Y62525D01*
X259100Y59559D01*
X261055Y57013D01*
X263601Y55058D01*
X266567Y53830D01*
X268480Y53578D01*
Y74090D01*
D02*
G37*
G36*
X417250Y56250D02*
X397250D01*
Y36250D01*
X417250D01*
Y56250D01*
D02*
G37*
G36*
X381850Y56336D02*
X379240Y55993D01*
X376807Y54985D01*
X374718Y53382D01*
X373115Y51293D01*
X372107Y48861D01*
X371764Y46250D01*
X372107Y43639D01*
X373115Y41207D01*
X374718Y39118D01*
X376807Y37515D01*
X379240Y36507D01*
X381850Y36164D01*
X384460Y36507D01*
X386893Y37515D01*
X388982Y39118D01*
X390585Y41207D01*
X391593Y43639D01*
X391936Y46250D01*
X391593Y48861D01*
X390585Y51293D01*
X388982Y53382D01*
X386893Y54985D01*
X384460Y55993D01*
X381850Y56336D01*
D02*
G37*
G36*
X356450D02*
X353839Y55993D01*
X351407Y54985D01*
X349318Y53382D01*
X347715Y51293D01*
X346707Y48861D01*
X346364Y46250D01*
X346707Y43639D01*
X347715Y41207D01*
X349318Y39118D01*
X351407Y37515D01*
X353839Y36507D01*
X356450Y36164D01*
X359061Y36507D01*
X361493Y37515D01*
X363582Y39118D01*
X365185Y41207D01*
X366193Y43639D01*
X366536Y46250D01*
X366193Y48861D01*
X365185Y51293D01*
X363582Y53382D01*
X361493Y54985D01*
X359061Y55993D01*
X356450Y56336D01*
D02*
G37*
%LPD*%
D10*
X178500Y326500D02*
Y521750D01*
X44250Y192250D02*
X178500Y326500D01*
X220250Y173250D02*
X346250D01*
X421250Y98250D01*
X257250Y410250D02*
X264750D01*
X242750Y424750D02*
X257250Y410250D01*
X242750Y424750D02*
Y438500D01*
X257750Y453500D01*
X197639Y742111D02*
X198500Y741250D01*
X197639Y742111D02*
Y744611D01*
X146000Y796250D02*
X197639Y744611D01*
X229610Y720855D02*
X254237Y745482D01*
Y755679D01*
X246688Y745061D02*
Y752594D01*
X245247Y754035D02*
X246688Y752594D01*
X227523Y725895D02*
X246688Y745061D01*
X245247Y754035D02*
Y755253D01*
X191500Y556500D02*
X280000Y645000D01*
Y656550D02*
X298750Y675300D01*
X280000Y645000D02*
Y656550D01*
X191500Y540500D02*
Y556500D01*
X54000Y117750D02*
X79250D01*
X44250Y127500D02*
Y192250D01*
Y127500D02*
X54000Y117750D01*
X79250D02*
X87500Y126000D01*
X200750Y192750D02*
X220250Y173250D01*
X366500Y194250D02*
X406250Y154500D01*
X234000Y194250D02*
X366500D01*
X221500Y915550D02*
Y932500D01*
X219750Y934250D02*
Y951594D01*
Y934250D02*
X221500Y932500D01*
Y915550D02*
X222200Y914850D01*
X219750Y951594D02*
X231826Y963670D01*
X224660Y949546D02*
X233864Y958750D01*
X224660Y936009D02*
X230658Y930010D01*
X250060D01*
X224660Y936009D02*
Y949546D01*
X295674Y963670D02*
X314900Y944444D01*
X315020Y895948D02*
Y942576D01*
X314900Y942696D02*
Y944444D01*
X231826Y963670D02*
X295674D01*
X314900Y942696D02*
X315020Y942576D01*
X233864Y958750D02*
X293636D01*
X309980Y895948D02*
Y942406D01*
X293636Y958750D02*
X309980Y942406D01*
X185198Y725895D02*
X227523D01*
X185198Y720855D02*
X229610D01*
X182000Y727875D02*
X183218D01*
X182000Y718875D02*
X183218D01*
Y727875D02*
X185198Y725895D01*
X183218Y718875D02*
X185198Y720855D01*
X250060Y930010D02*
X260300Y940250D01*
X308000Y893968D02*
X309980Y895948D01*
X308000Y892750D02*
Y893968D01*
X317000Y892750D02*
Y893968D01*
X315020Y895948D02*
X317000Y893968D01*
D11*
X68460Y646554D02*
G03*
X72000Y650094I0J3540D01*
G01*
X45205Y646554D02*
G03*
X45205Y639474I0J-3540D01*
G01*
X69047Y632394D02*
G03*
X69047Y639474I0J3540D01*
G01*
X45205Y632394D02*
G03*
X45205Y625314I0J-3540D01*
G01*
X69006Y618234D02*
G03*
X69006Y625314I0J3540D01*
G01*
X45205Y618234D02*
G03*
X45205Y611154I0J-3540D01*
G01*
X72000Y607614D02*
G03*
X68460Y611154I-3540J0D01*
G01*
X101339Y543345D02*
G03*
X106345Y543345I2503J2503D01*
G01*
X98071Y546612D02*
G03*
X93065Y546612I-2503J-2503D01*
G01*
X93065Y546612D02*
G03*
X93065Y541606I2503J-2503D01*
G01*
X96332Y533332D02*
G03*
X96332Y538339I-2503J2503D01*
G01*
X121284Y679170D02*
G03*
X123787Y685213I0J3540D01*
G01*
X116980Y679170D02*
G03*
X116980Y672090I0J-3540D01*
G01*
X125210Y665010D02*
G03*
X125210Y672090I0J3540D01*
G01*
X108854Y665010D02*
G03*
X108854Y657930I0J-3540D01*
G01*
X125210Y650850D02*
G03*
X125210Y657930I0J3540D01*
G01*
X113536Y650850D02*
G03*
X113536Y643770I0J-3540D01*
G01*
X125210Y636690D02*
G03*
X125210Y643770I0J3540D01*
G01*
X116440Y636690D02*
G03*
X116440Y629610I0J-3540D01*
G01*
X125210Y622530D02*
G03*
X125210Y629610I0J3540D01*
G01*
X116440Y622530D02*
G03*
X116440Y615450I0J-3540D01*
G01*
X125210Y608370D02*
G03*
X125210Y615450I0J3540D01*
G01*
X116440Y608370D02*
G03*
X116440Y601290I0J-3540D01*
G01*
X126500Y597750D02*
G03*
X122960Y601290I-3540J0D01*
G01*
X79960Y661260D02*
G03*
X83500Y664800I0J3540D01*
G01*
X79960Y661260D02*
G03*
X79960Y654180I0J-3540D01*
G01*
X102456Y647100D02*
G03*
X102456Y654180I0J3540D01*
G01*
X79540Y647100D02*
G03*
X79540Y640020I0J-3540D01*
G01*
X105360Y632940D02*
G03*
X105360Y640020I0J3540D01*
G01*
X79540Y632940D02*
G03*
X79540Y625860I0J-3540D01*
G01*
X105360Y618780D02*
G03*
X105360Y625860I0J3540D01*
G01*
X79540Y618780D02*
G03*
X79540Y611700I0J-3540D01*
G01*
X105360Y604620D02*
G03*
X105360Y611700I0J3540D01*
G01*
X79540Y604620D02*
G03*
X79540Y597540I0J-3540D01*
G01*
X83500Y594000D02*
G03*
X79960Y597540I-3540J0D01*
G01*
X143250Y847500D02*
X312000D01*
X120500Y824750D02*
X143250Y847500D01*
X106275Y825225D02*
X106475Y825425D01*
X234000Y459942D02*
Y459942D01*
X225500Y335750D02*
Y451442D01*
X234000Y459942D01*
Y459942D02*
X247558Y473500D01*
X265250D01*
X240500Y457250D02*
X248500Y465250D01*
X267250D01*
X306000Y426500D01*
X219500Y352750D02*
Y457250D01*
X244779Y482529D01*
X256279D01*
X215500Y464250D02*
X239250Y488000D01*
X215500Y362250D02*
Y464250D01*
X167250Y327250D02*
Y513000D01*
X24250Y184250D02*
X167250Y327250D01*
X24250Y127000D02*
Y184250D01*
X256279Y482529D02*
X256500Y482750D01*
X203500Y554650D02*
X298750Y649900D01*
X203500Y434500D02*
Y554650D01*
X254108Y433892D02*
X292293Y395707D01*
X126250Y578000D02*
X126500Y578250D01*
Y596750D01*
X103353Y450250D02*
X104525Y451422D01*
X104750D01*
X102000Y450250D02*
X103353D01*
X104750Y451422D02*
Y519750D01*
X149750Y564750D02*
Y722250D01*
X57500Y191250D02*
X191250Y325000D01*
Y516750D01*
X199250Y346000D02*
X215500Y362250D01*
X199250Y346000D02*
Y346000D01*
X104750Y519750D02*
X149750Y564750D01*
X57500Y128750D02*
Y191250D01*
X324750Y585500D02*
X332750Y577500D01*
X272750Y585500D02*
X324750D01*
X312000Y847500D02*
X337500Y873000D01*
X409500D01*
X300000Y857000D02*
X335500Y892500D01*
X131750Y857000D02*
X300000D01*
X72000Y585250D02*
Y606614D01*
Y650094D02*
Y672093D01*
X45205Y646554D02*
X68460D01*
X45205Y639474D02*
X69047D01*
X45205Y632394D02*
X69047D01*
X45205Y625314D02*
X69006D01*
X45205Y618234D02*
X69006D01*
X45205Y611154D02*
X68460D01*
X72000Y606614D02*
Y607614D01*
Y672093D02*
Y681750D01*
X121875Y722630D02*
X121995D01*
X122000Y722625D01*
X127000Y745000D02*
X149750Y722250D01*
X95250Y459250D02*
Y519000D01*
X136750Y560500D02*
Y719000D01*
X95250Y519000D02*
X136750Y560500D01*
X122000Y722625D02*
X133125D01*
X136750Y719000D01*
X106345Y543345D02*
X119875Y556875D01*
X98071Y546612D02*
X101339Y543345D01*
X93065Y546612D02*
Y546612D01*
X93065Y546612D02*
X93065Y546612D01*
X93065Y546612D02*
Y546612D01*
Y541606D02*
X96332Y538339D01*
X95625Y532625D02*
X96332Y533332D01*
X119875Y556875D02*
X132750Y569750D01*
X88250Y525250D02*
X95625Y532625D01*
X101517Y707483D02*
X123787Y685213D01*
X123787Y685213D02*
X123787Y685213D01*
X116980Y679170D02*
X121284D01*
X116980Y672090D02*
X125210D01*
X108854Y665010D02*
X125210D01*
X108854Y657930D02*
X125210D01*
X113536Y650850D02*
X125210D01*
X113536Y643770D02*
X125210D01*
X116440Y636690D02*
X125210D01*
X116440Y629610D02*
X125210D01*
X116440Y622530D02*
X125210D01*
X116440Y615450D02*
X125210D01*
X116440Y608370D02*
X125210D01*
X116440Y601290D02*
X122960D01*
X126500Y596750D02*
Y597750D01*
X88500Y720500D02*
X101517Y707483D01*
X36250Y579500D02*
X52750Y563000D01*
X36250Y702750D02*
X77500Y744000D01*
X36250Y579500D02*
Y702750D01*
X77500Y744000D02*
X98750D01*
X104250Y718500D02*
Y738500D01*
X98750Y744000D02*
X104250Y738500D01*
X83500Y664800D02*
Y675241D01*
X79960Y661260D02*
X79960D01*
X79960Y654180D02*
X102456D01*
X79540Y647100D02*
X102456D01*
X79540Y640020D02*
X105360D01*
X79540Y632940D02*
X105360D01*
X79540Y625860D02*
X105360D01*
X79540Y618780D02*
X105360D01*
X79540Y611700D02*
X105360D01*
X79540Y604620D02*
X105360D01*
X79540Y597540D02*
X79960D01*
X83500Y593000D02*
Y594000D01*
Y675241D02*
Y675500D01*
X88500Y720500D02*
Y734625D01*
X83500Y675500D02*
X89250Y681250D01*
X132750Y569750D02*
Y696250D01*
X113500Y715500D02*
Y729000D01*
Y715500D02*
X132750Y696250D01*
X127000Y745000D02*
Y745000D01*
X83500Y588250D02*
Y593000D01*
X72000Y585250D02*
X82000Y575250D01*
X52750Y563000D02*
X90500D01*
X88250Y431500D02*
Y525250D01*
X377500Y697250D02*
X394500Y680250D01*
Y485250D02*
Y680250D01*
X352000Y472500D02*
X381750D01*
X394500Y485250D01*
X332750Y491750D02*
X352000Y472500D01*
X332750Y491750D02*
Y577500D01*
X353750Y525500D02*
X367000D01*
X347750Y531500D02*
X353750Y525500D01*
X324000Y611000D02*
X347750Y587250D01*
Y531500D02*
Y587250D01*
X275000Y611000D02*
X324000D01*
X96750Y569250D02*
Y586500D01*
X90500Y563000D02*
X96750Y569250D01*
Y586500D02*
X97000Y586750D01*
X106475Y831725D02*
X131750Y857000D01*
X106475Y825425D02*
Y831725D01*
X292293Y392957D02*
Y395707D01*
Y392957D02*
X293250Y392000D01*
X213000Y346250D02*
X219500Y352750D01*
X306000Y392250D02*
Y426500D01*
D17*
X548750Y424750D02*
X563250Y410250D01*
X666250D01*
D111*
X367000Y525500D02*
D03*
X377500Y697250D02*
D03*
X352100D02*
D03*
X93750Y314250D02*
D03*
X392750Y275250D02*
D03*
Y300650D02*
D03*
Y351450D02*
D03*
D112*
X83100Y960800D02*
D03*
X108500D02*
D03*
Y1011600D02*
D03*
X83100D02*
D03*
X638900D02*
D03*
X613500D02*
D03*
Y960800D02*
D03*
X638900D02*
D03*
X298750Y624500D02*
D03*
Y649900D02*
D03*
D113*
Y675300D02*
D03*
D115*
X269750Y75360D02*
D03*
X610250Y76230D02*
D03*
D118*
X260300Y940250D02*
D03*
X222200Y914850D02*
D03*
D119*
X462000Y297250D02*
D03*
X643000Y670000D02*
D03*
D122*
X120500Y824750D02*
D03*
X106275Y825225D02*
D03*
X240500Y457250D02*
D03*
X239250Y488000D02*
D03*
X167250Y513000D02*
D03*
X178500Y521750D02*
D03*
X421250Y98250D02*
D03*
X203500Y434500D02*
D03*
X254108Y433892D02*
D03*
X198500Y741250D02*
D03*
X126250Y578000D02*
D03*
X102000Y450250D02*
D03*
X254237Y755679D02*
D03*
X245247Y755253D02*
D03*
X191500Y540500D02*
D03*
X191250Y516750D02*
D03*
X199250Y346000D02*
D03*
X146000Y796250D02*
D03*
X256500Y482750D02*
D03*
X265250Y473500D02*
D03*
X272750Y585500D02*
D03*
X409500Y873000D02*
D03*
X335500Y892500D02*
D03*
X121875Y722630D02*
D03*
X88500Y734625D02*
D03*
X89250Y681250D02*
D03*
X72000Y681750D02*
D03*
X95250Y459250D02*
D03*
X88250Y431500D02*
D03*
X104250Y718500D02*
D03*
X87500Y126000D02*
D03*
X24250Y127000D02*
D03*
X57500Y128750D02*
D03*
X275000Y611000D02*
D03*
X83500Y588250D02*
D03*
X97000Y586750D02*
D03*
X293250Y392000D02*
D03*
X306000Y392250D02*
D03*
X264750Y410250D02*
D03*
X257750Y453500D02*
D03*
X225500Y335750D02*
D03*
X213000Y346250D02*
D03*
X82000Y575250D02*
D03*
X127000Y745000D02*
D03*
X113500Y729000D02*
D03*
X666250Y410250D02*
D03*
X548750Y424750D02*
D03*
X200750Y192750D02*
D03*
X406250Y154500D02*
D03*
X234000Y194250D02*
D03*
X182000Y727875D02*
D03*
Y718875D02*
D03*
X317000Y892750D02*
D03*
X308000D02*
D03*
D123*
X158750Y518500D02*
D03*
Y508000D02*
D03*
X171250Y691250D02*
D03*
X385625Y819500D02*
D03*
X409375D02*
D03*
X397500D02*
D03*
X477500Y883250D02*
D03*
X489375D02*
D03*
X385625Y809250D02*
D03*
X397500D02*
D03*
X409375D02*
D03*
X245125Y669250D02*
D03*
X257000D02*
D03*
X268875Y658500D02*
D03*
X257000D02*
D03*
X245125D02*
D03*
X268875Y669250D02*
D03*
X437125Y621000D02*
D03*
Y610250D02*
D03*
X425250D02*
D03*
X448875Y765750D02*
D03*
X275750Y503750D02*
D03*
Y514500D02*
D03*
X287625D02*
D03*
X299500D02*
D03*
X287625Y503750D02*
D03*
X299500D02*
D03*
X657125Y240000D02*
D03*
X50750Y584500D02*
D03*
X34250Y556500D02*
D03*
X287250Y802000D02*
D03*
X266250Y802250D02*
D03*
X409500Y460875D02*
D03*
X398750D02*
D03*
X44000Y666125D02*
D03*
Y678000D02*
D03*
Y689875D02*
D03*
X54750D02*
D03*
Y678000D02*
D03*
Y666125D02*
D03*
X237750Y990375D02*
D03*
Y1002250D02*
D03*
Y1014125D02*
D03*
X248500D02*
D03*
Y1002250D02*
D03*
Y990375D02*
D03*
X85625Y899000D02*
D03*
X73750D02*
D03*
X61875D02*
D03*
Y909750D02*
D03*
X73750D02*
D03*
X85625D02*
D03*
X20250Y860625D02*
D03*
Y872500D02*
D03*
Y884375D02*
D03*
X31000D02*
D03*
Y872500D02*
D03*
Y860625D02*
D03*
X18500Y462125D02*
D03*
Y474000D02*
D03*
Y485875D02*
D03*
X29250D02*
D03*
Y474000D02*
D03*
Y462125D02*
D03*
X398750Y437125D02*
D03*
Y449000D02*
D03*
X409500D02*
D03*
Y437125D02*
D03*
X339625Y270000D02*
D03*
X351500D02*
D03*
X363375D02*
D03*
Y259250D02*
D03*
X351500D02*
D03*
X339625D02*
D03*
X158375Y180750D02*
D03*
X170250D02*
D03*
X182125D02*
D03*
Y170000D02*
D03*
X170250D02*
D03*
X158375D02*
D03*
X306125Y79000D02*
D03*
X318000D02*
D03*
X329875D02*
D03*
Y68250D02*
D03*
X318000D02*
D03*
X306125D02*
D03*
X28625Y256750D02*
D03*
X40500D02*
D03*
X52375D02*
D03*
Y246000D02*
D03*
X40500D02*
D03*
X28625D02*
D03*
X505375Y142750D02*
D03*
X517250D02*
D03*
X529125D02*
D03*
Y132000D02*
D03*
X517250D02*
D03*
X505375D02*
D03*
X503625Y203000D02*
D03*
X515500D02*
D03*
X527375D02*
D03*
Y192250D02*
D03*
X515500D02*
D03*
X503625D02*
D03*
X633375Y251000D02*
D03*
X645250D02*
D03*
X657125D02*
D03*
X645250Y240000D02*
D03*
X633375D02*
D03*
X597125Y251000D02*
D03*
X609000D02*
D03*
X620875D02*
D03*
Y240000D02*
D03*
X609000D02*
D03*
X597125D02*
D03*
X560625Y251000D02*
D03*
X572500D02*
D03*
X584375D02*
D03*
Y240000D02*
D03*
X572500D02*
D03*
X560625D02*
D03*
X492875Y572000D02*
D03*
X504750D02*
D03*
X516625D02*
D03*
Y561250D02*
D03*
X504750D02*
D03*
X492875D02*
D03*
X413375Y621000D02*
D03*
X425250D02*
D03*
X413375Y610250D02*
D03*
X351375Y648500D02*
D03*
X363250D02*
D03*
X375125D02*
D03*
Y637750D02*
D03*
X363250D02*
D03*
X351375D02*
D03*
X425125Y776500D02*
D03*
X437000D02*
D03*
X448875D02*
D03*
X437000Y765750D02*
D03*
X425125D02*
D03*
X104750Y775000D02*
D03*
X117000Y774750D02*
D03*
X116750Y785750D02*
D03*
X104750D02*
D03*
X477500Y872500D02*
D03*
X489375D02*
D03*
X501250D02*
D03*
Y883250D02*
D03*
M02*
