G04*
G04 #@! TF.GenerationSoftware,Altium Limited,Altium Designer,20.0.13 (296)*
G04*
G04 Layer_Color=65535*
%FSLAX44Y44*%
%MOMM*%
G71*
G01*
G75*
%ADD10C,0.2000*%
%ADD11C,0.2540*%
%ADD12C,0.2500*%
%ADD13C,0.1500*%
%ADD14C,0.1270*%
%ADD15C,0.4000*%
%ADD16C,0.6096*%
%ADD17C,0.6000*%
%ADD18C,0.3000*%
%ADD19C,0.1520*%
%ADD20C,0.1524*%
%ADD21R,2.8000X0.5500*%
%ADD22R,2.8000X0.5500*%
D10*
X525500Y131500D02*
G03*
X525500Y131500I-1000J0D01*
G01*
X207250Y574900D02*
G03*
X207250Y574900I-1000J0D01*
G01*
X466750Y354250D02*
G03*
X466750Y354250I-1000J0D01*
G01*
X585000Y672750D02*
G03*
X585000Y672750I-1000J0D01*
G01*
X268950Y327250D02*
G03*
X268950Y327250I-1000J0D01*
G01*
X605500Y795750D02*
G03*
X605500Y795750I-1000J0D01*
G01*
X537000Y297250D02*
G03*
X537000Y297250I-50000J0D01*
G01*
X693000Y695000D02*
G03*
X693000Y695000I-50000J0D01*
G01*
X348800Y979150D02*
G03*
X348800Y991850I0J6350D01*
G01*
X465000Y979150D02*
G03*
X465000Y991850I0J6350D01*
G01*
X605500Y879000D02*
Y882000D01*
X614500Y879000D02*
Y882000D01*
X624072Y879000D02*
Y882000D01*
X633072Y879000D02*
Y882000D01*
X442500Y565250D02*
Y568250D01*
X433500Y565250D02*
Y568250D01*
X426250Y565250D02*
Y568250D01*
X417250Y565250D02*
Y568250D01*
X376000Y565250D02*
Y568250D01*
X367000Y565250D02*
Y568250D01*
X359500Y565250D02*
Y568250D01*
X350500Y565250D02*
Y568250D01*
X216500Y117000D02*
Y125000D01*
X207500Y117000D02*
X216500D01*
Y139000D02*
Y147000D01*
X207500D02*
X216500D01*
X181120Y34685D02*
X293500D01*
X181120D02*
Y106935D01*
X181830Y107645D01*
X293500D01*
Y34685D02*
Y107645D01*
X-22766Y990434D02*
X31420D01*
X-27000Y986200D02*
X-22766Y981967D01*
X31420D01*
X-27000Y986200D02*
X-22766Y990434D01*
X61900Y922700D02*
Y1049700D01*
X31420Y922700D02*
X61900D01*
X-27000Y960800D02*
X-22766Y965034D01*
X-27000Y935400D02*
X-22766Y939634D01*
X-27000Y935400D02*
X-22766Y931167D01*
Y956567D02*
X31420D01*
X-27000Y960800D02*
X-22766Y956567D01*
Y965034D02*
X31420D01*
X-22766Y939634D02*
X31420D01*
X-22766Y931167D02*
X31420D01*
Y922700D02*
Y1049700D01*
X61900Y922700D02*
X112700D01*
Y1049700D01*
X-27000Y1011600D02*
X-22766Y1015834D01*
Y1007367D02*
X31420D01*
X-27000Y1011600D02*
X-22766Y1007367D01*
Y1015834D02*
X31420D01*
X-27000Y1037000D02*
X-22766Y1041234D01*
Y1032767D02*
X31420D01*
X-27000Y1037000D02*
X-22766Y1032767D01*
Y1041234D02*
X31420D01*
Y1049700D02*
X112700D01*
X301250Y218250D02*
Y224250D01*
X334250Y218250D02*
Y224250D01*
X339400Y634050D02*
X415600D01*
X339400Y659450D02*
X415600D01*
X339400Y634050D02*
Y659450D01*
X415600Y634050D02*
Y659450D01*
X669250Y838750D02*
Y846750D01*
X653250Y838750D02*
Y846750D01*
X406248Y850250D02*
X416248D01*
X518000Y1036500D02*
Y1047500D01*
X538000D01*
Y1036500D02*
Y1047500D01*
X518000Y1036500D02*
X538000D01*
X462500D02*
Y1047500D01*
X482500D01*
Y1036500D02*
Y1047500D01*
X462500Y1036500D02*
X482500D01*
X407000D02*
Y1047500D01*
X427000D01*
Y1036500D02*
Y1047500D01*
X407000Y1036500D02*
X427000D01*
X545750D02*
Y1047500D01*
X565750D01*
Y1036500D02*
Y1047500D01*
X545750Y1036500D02*
X565750D01*
X490250D02*
Y1047500D01*
X510250D01*
Y1036500D02*
Y1047500D01*
X490250Y1036500D02*
X510250D01*
X434750D02*
Y1047500D01*
X454751D01*
Y1036500D02*
Y1047500D01*
X434750Y1036500D02*
X454751D01*
X379250D02*
Y1047500D01*
X399250D01*
Y1036500D02*
Y1047500D01*
X379250Y1036500D02*
X399250D01*
X351500D02*
Y1047500D01*
X371500D01*
Y1036500D02*
Y1047500D01*
X351500Y1036500D02*
X371500D01*
X390250Y612500D02*
X393250D01*
X390250Y621500D02*
X393250D01*
X362750Y109600D02*
Y159600D01*
X344750Y109600D02*
Y159600D01*
Y109600D02*
X362750D01*
X344750Y159600D02*
X362750D01*
X476250Y0D02*
Y194500D01*
X418250Y252500D02*
X476250Y194500D01*
X418250Y252500D02*
Y328250D01*
X359750D02*
X418250D01*
X302750Y271250D02*
X359750Y328250D01*
X156000Y271250D02*
X302750D01*
X145500Y260750D02*
X156000Y271250D01*
X145500Y0D02*
Y260750D01*
X339400Y684550D02*
X415600D01*
X339400Y709950D02*
X415600D01*
X339400Y684550D02*
Y709950D01*
X415600Y684550D02*
Y709950D01*
X55650Y301550D02*
X131850D01*
X55650Y326950D02*
X131850D01*
X55650Y301550D02*
Y326950D01*
X131850Y301550D02*
Y326950D01*
X410500Y110250D02*
X413500D01*
X410500Y119250D02*
X413500D01*
X410500Y136000D02*
X413500D01*
X410500Y145000D02*
X413500D01*
X343750Y33550D02*
X419950D01*
X343750Y58950D02*
X419950D01*
X343750Y33550D02*
Y58950D01*
X419950Y33550D02*
Y58950D01*
X268500Y137000D02*
X271500D01*
X268500Y146000D02*
X271500D01*
X268250Y122000D02*
X271250D01*
X268250Y131000D02*
X271250D01*
X428250Y844250D02*
Y847250D01*
X437250Y844250D02*
Y847250D01*
X361750Y850250D02*
X371750D01*
X547000Y879000D02*
Y882000D01*
X556000Y879000D02*
Y882000D01*
X50000Y707000D02*
Y710000D01*
X41000Y707000D02*
Y710000D01*
X52250Y761500D02*
X55250D01*
X52250Y770500D02*
X55250D01*
X59000Y884500D02*
X62000D01*
X59000Y875500D02*
X62000D01*
X68750Y812250D02*
X71750D01*
X68750Y821250D02*
X71750D01*
X94750Y844750D02*
Y847750D01*
X103750Y844750D02*
Y847750D01*
X215000Y721000D02*
X218000D01*
X215000Y730000D02*
X218000D01*
X178000Y802500D02*
Y805500D01*
X187000Y802500D02*
Y805500D01*
X110500Y844750D02*
Y847750D01*
X119500Y844750D02*
Y847750D01*
X93500Y707500D02*
Y710500D01*
X84500Y707500D02*
Y710500D01*
X539000Y879250D02*
Y882250D01*
X530000Y879250D02*
Y882250D01*
X170750Y845750D02*
Y848750D01*
X179750Y845750D02*
Y848750D01*
X167500Y736000D02*
Y739000D01*
X158500Y736000D02*
Y739000D01*
X196000Y875500D02*
Y878500D01*
X187000Y875500D02*
Y878500D01*
X202250Y697500D02*
X205250D01*
X202250Y706500D02*
X205250D01*
X130250Y663000D02*
Y669000D01*
X102250Y663000D02*
Y669000D01*
X130250D01*
X187000Y845750D02*
Y848750D01*
X196000Y845750D02*
Y848750D01*
X180000Y875500D02*
Y878500D01*
X171000Y875500D02*
Y878500D01*
X344250Y792200D02*
Y852800D01*
X217250Y792200D02*
X344250D01*
X217250D02*
Y852800D01*
X344250D01*
X450250Y48000D02*
Y50000D01*
X436250Y48000D02*
Y50000D01*
X236750Y573750D02*
X239750D01*
X236750Y582750D02*
X239750D01*
X256500Y519250D02*
X259500D01*
X256500Y528250D02*
X259500D01*
X274750Y465750D02*
X324750D01*
X274750Y447750D02*
X324750D01*
Y465750D01*
X274750Y447750D02*
Y465750D01*
X661500Y351750D02*
Y374250D01*
X557500D02*
X661500D01*
X557500Y351750D02*
Y374250D01*
X17750Y57000D02*
X27750D01*
X51000D02*
X61000D01*
X84250D02*
X94250D01*
X92998Y97000D02*
Y100000D01*
X83998Y97000D02*
Y100000D01*
X61248Y97000D02*
Y100000D01*
X52247Y97000D02*
Y100000D01*
X27998Y97000D02*
Y100000D01*
X18997Y97000D02*
Y100000D01*
X392751Y844250D02*
Y847250D01*
X383752Y844250D02*
Y847250D01*
X52500Y786000D02*
X55500D01*
X52500Y777000D02*
X55500D01*
X171000Y587000D02*
X174000D01*
X171000Y596000D02*
X174000D01*
X156194Y648750D02*
X159194D01*
X156194Y657750D02*
X159194D01*
X410750Y787750D02*
X438750D01*
X410750Y781750D02*
Y787750D01*
X438750Y781750D02*
Y787750D01*
X57000Y707500D02*
Y710500D01*
X66000Y707500D02*
Y710500D01*
X602250Y144003D02*
X605250D01*
X602250Y153002D02*
X605250D01*
X651600Y1049700D02*
X740500D01*
Y922700D02*
Y1049700D01*
X651600Y922700D02*
X740500D01*
X600800D02*
Y1049700D01*
X651600Y922700D02*
Y1049700D01*
X600800D02*
X651600D01*
X600800Y922700D02*
X651600D01*
X645500Y144250D02*
Y154250D01*
X286050Y688000D02*
X311450D01*
Y561000D02*
Y688000D01*
X286050Y561000D02*
Y688000D01*
Y561000D02*
X311450D01*
X473000Y800000D02*
Y806000D01*
X506000Y800000D02*
Y806000D01*
X545750Y293750D02*
Y300750D01*
X542250Y297250D02*
X549250D01*
X639500Y753750D02*
X646500D01*
X643000Y750250D02*
Y757250D01*
X348800Y959000D02*
X451800D01*
X348800Y1012000D02*
X451800D01*
X348800Y959000D02*
Y979150D01*
Y991850D02*
Y1012000D01*
X451800Y959000D02*
Y1012000D01*
X465000Y959000D02*
X568000D01*
X465000Y1012000D02*
X568000D01*
X465000Y959000D02*
Y979150D01*
Y991850D02*
Y1012000D01*
X568000Y959000D02*
Y1012000D01*
X158500Y707750D02*
Y710750D01*
X167500Y707750D02*
Y710750D01*
Y794750D02*
Y797750D01*
X158500Y794750D02*
Y797750D01*
Y766500D02*
Y769500D01*
X167500Y766500D02*
Y769500D01*
X597249Y870837D02*
X589251D01*
Y874836D01*
X590584Y876168D01*
X593250D01*
X594583Y874836D01*
Y870837D01*
Y873503D02*
X597249Y876168D01*
X589251Y884166D02*
Y878834D01*
X593250D01*
X591917Y881500D01*
Y882833D01*
X593250Y884166D01*
X595916D01*
X597249Y882833D01*
Y880167D01*
X595916Y878834D01*
X597249Y892163D02*
Y886832D01*
X591917Y892163D01*
X590584D01*
X589251Y890830D01*
Y888165D01*
X590584Y886832D01*
X648249Y872907D02*
X640251D01*
Y876905D01*
X641584Y878238D01*
X644250D01*
X645583Y876905D01*
Y872907D01*
Y875572D02*
X648249Y878238D01*
X640251Y886236D02*
Y880904D01*
X644250D01*
X642917Y883570D01*
Y884903D01*
X644250Y886236D01*
X646916D01*
X648249Y884903D01*
Y882237D01*
X646916Y880904D01*
X648249Y888901D02*
Y891567D01*
Y890234D01*
X640251D01*
X641584Y888901D01*
X495001Y85085D02*
X502999D01*
Y89084D01*
X501666Y90417D01*
X496334D01*
X495001Y89084D01*
Y85085D01*
X502999Y97082D02*
X495001D01*
X499000Y93083D01*
Y98414D01*
X99503Y748249D02*
X102169D01*
X100836D01*
Y740251D01*
X99503D01*
X102169D01*
X111499Y746916D02*
X110167Y748249D01*
X107501D01*
X106168Y746916D01*
Y741584D01*
X107501Y740251D01*
X110167D01*
X111499Y741584D01*
X119497Y740251D02*
X114165D01*
X119497Y745583D01*
Y746916D01*
X118164Y748249D01*
X115498D01*
X114165Y746916D01*
X457249Y555837D02*
X449251D01*
Y559836D01*
X450584Y561168D01*
X453250D01*
X454583Y559836D01*
Y555837D01*
Y558503D02*
X457249Y561168D01*
Y567833D02*
X449251D01*
X453250Y563834D01*
Y569166D01*
X450584Y571832D02*
X449251Y573164D01*
Y575830D01*
X450584Y577163D01*
X451917D01*
X453250Y575830D01*
X454583Y577163D01*
X455916D01*
X457249Y575830D01*
Y573164D01*
X455916Y571832D01*
X454583D01*
X453250Y573164D01*
X451917Y571832D01*
X450584D01*
X453250Y573164D02*
Y575830D01*
X409749Y555837D02*
X401751D01*
Y559836D01*
X403084Y561168D01*
X405750D01*
X407083Y559836D01*
Y555837D01*
Y558503D02*
X409749Y561168D01*
Y567833D02*
X401751D01*
X405750Y563834D01*
Y569166D01*
X401751Y571832D02*
Y577163D01*
X403084D01*
X408416Y571832D01*
X409749D01*
X390749Y555837D02*
X382751D01*
Y559836D01*
X384084Y561168D01*
X386750D01*
X388083Y559836D01*
Y555837D01*
Y558503D02*
X390749Y561168D01*
Y567833D02*
X382751D01*
X386750Y563834D01*
Y569166D01*
X382751Y577163D02*
X384084Y574497D01*
X386750Y571832D01*
X389416D01*
X390749Y573164D01*
Y575830D01*
X389416Y577163D01*
X388083D01*
X386750Y575830D01*
Y571832D01*
X341749Y555837D02*
X333751D01*
Y559836D01*
X335084Y561168D01*
X337750D01*
X339083Y559836D01*
Y555837D01*
Y558503D02*
X341749Y561168D01*
Y567833D02*
X333751D01*
X337750Y563834D01*
Y569166D01*
X333751Y577163D02*
Y571832D01*
X337750D01*
X336417Y574497D01*
Y575830D01*
X337750Y577163D01*
X340416D01*
X341749Y575830D01*
Y573164D01*
X340416Y571832D01*
X560670Y44999D02*
Y37001D01*
X564668D01*
X566001Y38334D01*
Y43666D01*
X564668Y44999D01*
X560670D01*
X573999Y43666D02*
X572666Y44999D01*
X570000D01*
X568667Y43666D01*
Y38334D01*
X570000Y37001D01*
X572666D01*
X573999Y38334D01*
Y41000D01*
X571333D01*
X576665Y37001D02*
X579330D01*
X577997D01*
Y44999D01*
X576665Y43666D01*
X303087Y48749D02*
Y40751D01*
X307085D01*
X308418Y42084D01*
Y47416D01*
X307085Y48749D01*
X303087D01*
X316416Y47416D02*
X315083Y48749D01*
X312417D01*
X311084Y47416D01*
Y42084D01*
X312417Y40751D01*
X315083D01*
X316416Y42084D01*
Y44750D01*
X313750D01*
X324413Y40751D02*
X319082D01*
X324413Y46083D01*
Y47416D01*
X323080Y48749D01*
X320415D01*
X319082Y47416D01*
X511168Y665166D02*
X509836Y666499D01*
X507170D01*
X505837Y665166D01*
Y659834D01*
X507170Y658501D01*
X509836D01*
X511168Y659834D01*
X513834Y665166D02*
X515167Y666499D01*
X517833D01*
X519166Y665166D01*
Y663833D01*
X517833Y662500D01*
X516500D01*
X517833D01*
X519166Y661167D01*
Y659834D01*
X517833Y658501D01*
X515167D01*
X513834Y659834D01*
X527163Y666499D02*
X524497Y665166D01*
X521832Y662500D01*
Y659834D01*
X523164Y658501D01*
X525830D01*
X527163Y659834D01*
Y661167D01*
X525830Y662500D01*
X521832D01*
X444418Y492166D02*
X443086Y493499D01*
X440420D01*
X439087Y492166D01*
Y486834D01*
X440420Y485501D01*
X443086D01*
X444418Y486834D01*
X447084Y492166D02*
X448417Y493499D01*
X451083D01*
X452416Y492166D01*
Y490833D01*
X451083Y489500D01*
X449750D01*
X451083D01*
X452416Y488167D01*
Y486834D01*
X451083Y485501D01*
X448417D01*
X447084Y486834D01*
X460413Y493499D02*
X455082D01*
Y489500D01*
X457747Y490833D01*
X459080D01*
X460413Y489500D01*
Y486834D01*
X459080Y485501D01*
X456414D01*
X455082Y486834D01*
X408250Y876587D02*
X413581D01*
X416247Y879253D01*
X413581Y881918D01*
X408250D01*
Y884584D02*
X416247D01*
Y888583D01*
X414914Y889916D01*
X409582D01*
X408250Y888583D01*
Y884584D01*
Y897913D02*
X409582Y895247D01*
X412248Y892582D01*
X414914D01*
X416247Y893914D01*
Y896580D01*
X414914Y897913D01*
X413581D01*
X412248Y896580D01*
Y892582D01*
X364501Y876337D02*
X369833D01*
X372499Y879003D01*
X369833Y881668D01*
X364501D01*
Y884334D02*
X372499D01*
Y888333D01*
X371166Y889666D01*
X365834D01*
X364501Y888333D01*
Y884334D01*
Y897663D02*
Y892332D01*
X368500D01*
X367167Y894997D01*
Y896330D01*
X368500Y897663D01*
X371166D01*
X372499Y896330D01*
Y893664D01*
X371166Y892332D01*
X272418Y825999D02*
X277750D01*
X275084D01*
Y818001D01*
X280416D02*
X283082D01*
X281749D01*
Y825999D01*
X280416Y824666D01*
X119499Y807337D02*
X111501D01*
Y811336D01*
X112834Y812668D01*
X115500D01*
X116833Y811336D01*
Y807337D01*
Y810003D02*
X119499Y812668D01*
Y819333D02*
X111501D01*
X115500Y815334D01*
Y820666D01*
X119499Y827330D02*
X111501D01*
X115500Y823332D01*
Y828663D01*
X102749Y807337D02*
X94751D01*
Y811336D01*
X96084Y812668D01*
X98750D01*
X100083Y811336D01*
Y807337D01*
Y810003D02*
X102749Y812668D01*
Y819333D02*
X94751D01*
X98750Y815334D01*
Y820666D01*
X96084Y823332D02*
X94751Y824665D01*
Y827330D01*
X96084Y828663D01*
X97417D01*
X98750Y827330D01*
Y825997D01*
Y827330D01*
X100083Y828663D01*
X101416D01*
X102749Y827330D01*
Y824665D01*
X101416Y823332D01*
X437249Y865837D02*
X429251D01*
Y869836D01*
X430584Y871168D01*
X433250D01*
X434583Y869836D01*
Y865837D01*
Y868503D02*
X437249Y871168D01*
Y877833D02*
X429251D01*
X433250Y873834D01*
Y879166D01*
X437249Y887163D02*
Y881832D01*
X431917Y887163D01*
X430584D01*
X429251Y885830D01*
Y883165D01*
X430584Y881832D01*
X92499Y671420D02*
X84501D01*
Y675418D01*
X85834Y676751D01*
X88500D01*
X89833Y675418D01*
Y671420D01*
Y674085D02*
X92499Y676751D01*
Y683416D02*
X84501D01*
X88500Y679417D01*
Y684749D01*
X92499Y687414D02*
Y690080D01*
Y688747D01*
X84501D01*
X85834Y687414D01*
X212499Y867837D02*
X204501D01*
Y871835D01*
X205834Y873168D01*
X208500D01*
X209833Y871835D01*
Y867837D01*
Y870502D02*
X212499Y873168D01*
Y879833D02*
X204501D01*
X208500Y875834D01*
Y881166D01*
X205834Y883831D02*
X204501Y885164D01*
Y887830D01*
X205834Y889163D01*
X211166D01*
X212499Y887830D01*
Y885164D01*
X211166Y883831D01*
X205834D01*
X572249Y869753D02*
X564251D01*
Y873752D01*
X565584Y875085D01*
X568250D01*
X569583Y873752D01*
Y869753D01*
Y872419D02*
X572249Y875085D01*
Y877751D02*
Y880416D01*
Y879084D01*
X564251D01*
X565584Y877751D01*
Y884415D02*
X564251Y885748D01*
Y888414D01*
X565584Y889747D01*
X566917D01*
X568250Y888414D01*
X569583Y889747D01*
X570916D01*
X572249Y888414D01*
Y885748D01*
X570916Y884415D01*
X569583D01*
X568250Y885748D01*
X566917Y884415D01*
X565584D01*
X568250Y885748D02*
Y888414D01*
X688749Y833503D02*
X680751D01*
Y837502D01*
X682084Y838835D01*
X684750D01*
X686083Y837502D01*
Y833503D01*
Y836169D02*
X688749Y838835D01*
Y841501D02*
Y844166D01*
Y842834D01*
X680751D01*
X682084Y841501D01*
X680751Y848165D02*
Y853497D01*
X682084D01*
X687416Y848165D01*
X688749D01*
X368337Y25749D02*
X373668Y17751D01*
Y25749D02*
X368337Y17751D01*
X376334D02*
Y25749D01*
X380333D01*
X381666Y24416D01*
Y21750D01*
X380333Y20417D01*
X376334D01*
X388330Y17751D02*
Y25749D01*
X384332Y21750D01*
X389663D01*
X433753Y137751D02*
Y145749D01*
X437752D01*
X439085Y144416D01*
Y141750D01*
X437752Y140417D01*
X433753D01*
X436419D02*
X439085Y137751D01*
X441751D02*
X444417D01*
X443084D01*
Y145749D01*
X441751Y144416D01*
X453747Y145749D02*
X451081Y144416D01*
X448415Y141750D01*
Y139084D01*
X449748Y137751D01*
X452414D01*
X453747Y139084D01*
Y140417D01*
X452414Y141750D01*
X448415D01*
X432253Y110501D02*
Y118499D01*
X436252D01*
X437585Y117166D01*
Y114500D01*
X436252Y113167D01*
X432253D01*
X434919D02*
X437585Y110501D01*
X440251D02*
X442916D01*
X441584D01*
Y118499D01*
X440251Y117166D01*
X452247Y118499D02*
X446915D01*
Y114500D01*
X449581Y115833D01*
X450914D01*
X452247Y114500D01*
Y111834D01*
X450914Y110501D01*
X448248D01*
X446915Y111834D01*
X232753Y135501D02*
Y143499D01*
X236752D01*
X238085Y142166D01*
Y139500D01*
X236752Y138167D01*
X232753D01*
X235419D02*
X238085Y135501D01*
X240751D02*
X243416D01*
X242083D01*
Y143499D01*
X240751Y142166D01*
X247415D02*
X248748Y143499D01*
X251414D01*
X252747Y142166D01*
Y140833D01*
X251414Y139500D01*
X250081D01*
X251414D01*
X252747Y138167D01*
Y136834D01*
X251414Y135501D01*
X248748D01*
X247415Y136834D01*
X466249Y38253D02*
X458251D01*
Y42252D01*
X459584Y43585D01*
X462250D01*
X463583Y42252D01*
Y38253D01*
Y40919D02*
X466249Y43585D01*
Y46251D02*
Y48916D01*
Y47583D01*
X458251D01*
X459584Y46251D01*
X466249Y58247D02*
Y52915D01*
X460917Y58247D01*
X459584D01*
X458251Y56914D01*
Y54248D01*
X459584Y52915D01*
X232753Y120751D02*
Y128749D01*
X236752D01*
X238085Y127416D01*
Y124750D01*
X236752Y123417D01*
X232753D01*
X235419D02*
X238085Y120751D01*
X240751D02*
X243416D01*
X242083D01*
Y128749D01*
X240751Y127416D01*
X247415Y120751D02*
X250081D01*
X248748D01*
Y128749D01*
X247415Y127416D01*
X167302Y344207D02*
X169968D01*
X168635D01*
Y336210D01*
X167302D01*
X169968D01*
X179298Y342874D02*
X177965Y344207D01*
X175299D01*
X173967Y342874D01*
Y341542D01*
X175299Y340209D01*
X177965D01*
X179298Y338876D01*
Y337543D01*
X177965Y336210D01*
X175299D01*
X173967Y337543D01*
X185963Y344207D02*
X183297D01*
X181964Y342874D01*
Y337543D01*
X183297Y336210D01*
X185963D01*
X187296Y337543D01*
Y342874D01*
X185963Y344207D01*
X189961Y336210D02*
X192627D01*
X191294D01*
Y344207D01*
X189961Y342874D01*
X341587Y100499D02*
Y92501D01*
X345586D01*
X346918Y93834D01*
Y99166D01*
X345586Y100499D01*
X341587D01*
X349584D02*
Y92501D01*
X353583D01*
X354916Y93834D01*
Y99166D01*
X353583Y100499D01*
X349584D01*
X362913Y92501D02*
X357582D01*
X362913Y97833D01*
Y99166D01*
X361580Y100499D01*
X358914D01*
X357582Y99166D01*
X167586Y129249D02*
Y121251D01*
X171584D01*
X172917Y122584D01*
Y127916D01*
X171584Y129249D01*
X167586D01*
X175583Y127916D02*
X176916Y129249D01*
X179582D01*
X180914Y127916D01*
Y126583D01*
X179582Y125250D01*
X178249D01*
X179582D01*
X180914Y123917D01*
Y122584D01*
X179582Y121251D01*
X176916D01*
X175583Y122584D01*
X368086Y414249D02*
Y406251D01*
X372084D01*
X373417Y407584D01*
Y412916D01*
X372084Y414249D01*
X368086D01*
X381414Y406251D02*
X376083D01*
X381414Y411583D01*
Y412916D01*
X380082Y414249D01*
X377416D01*
X376083Y412916D01*
X419668Y92166D02*
X418335Y93499D01*
X415670D01*
X414337Y92166D01*
Y86834D01*
X415670Y85501D01*
X418335D01*
X419668Y86834D01*
X422334Y92166D02*
X423667Y93499D01*
X426333D01*
X427666Y92166D01*
Y90833D01*
X426333Y89500D01*
X425000D01*
X426333D01*
X427666Y88167D01*
Y86834D01*
X426333Y85501D01*
X423667D01*
X422334Y86834D01*
X430332Y92166D02*
X431665Y93499D01*
X434330D01*
X435663Y92166D01*
Y90833D01*
X434330Y89500D01*
X432997D01*
X434330D01*
X435663Y88167D01*
Y86834D01*
X434330Y85501D01*
X431665D01*
X430332Y86834D01*
X283334Y248418D02*
X282001Y247085D01*
Y244420D01*
X283334Y243087D01*
X288666D01*
X289999Y244420D01*
Y247085D01*
X288666Y248418D01*
X283334Y251084D02*
X282001Y252417D01*
Y255083D01*
X283334Y256416D01*
X284667D01*
X286000Y255083D01*
Y253750D01*
Y255083D01*
X287333Y256416D01*
X288666D01*
X289999Y255083D01*
Y252417D01*
X288666Y251084D01*
X289999Y264413D02*
Y259082D01*
X284667Y264413D01*
X283334D01*
X282001Y263080D01*
Y260415D01*
X283334Y259082D01*
X283446Y353302D02*
X282113Y354635D01*
X279447D01*
X278114Y353302D01*
Y347971D01*
X279447Y346638D01*
X282113D01*
X283446Y347971D01*
X286111Y353302D02*
X287444Y354635D01*
X290110D01*
X291443Y353302D01*
Y351970D01*
X290110Y350637D01*
X288777D01*
X290110D01*
X291443Y349304D01*
Y347971D01*
X290110Y346638D01*
X287444D01*
X286111Y347971D01*
X294109Y346638D02*
X296775D01*
X295442D01*
Y354635D01*
X294109Y353302D01*
X313834Y263417D02*
X312501Y262084D01*
Y259418D01*
X313834Y258085D01*
X319166D01*
X320499Y259418D01*
Y262084D01*
X319166Y263417D01*
X313834Y266083D02*
X312501Y267416D01*
Y270082D01*
X313834Y271415D01*
X315167D01*
X316500Y270082D01*
Y268749D01*
Y270082D01*
X317833Y271415D01*
X319166D01*
X320499Y270082D01*
Y267416D01*
X319166Y266083D01*
X229087Y588501D02*
Y596499D01*
X233085D01*
X234418Y595166D01*
Y592500D01*
X233085Y591167D01*
X229087D01*
X231753D02*
X234418Y588501D01*
X237084Y595166D02*
X238417Y596499D01*
X241083D01*
X242416Y595166D01*
Y593833D01*
X241083Y592500D01*
X239750D01*
X241083D01*
X242416Y591167D01*
Y589834D01*
X241083Y588501D01*
X238417D01*
X237084Y589834D01*
X245082D02*
X246415Y588501D01*
X249080D01*
X250413Y589834D01*
Y595166D01*
X249080Y596499D01*
X246415D01*
X245082Y595166D01*
Y593833D01*
X246415Y592500D01*
X250413D01*
X79501Y874585D02*
X87499Y879917D01*
X79501D02*
X87499Y874585D01*
X79501Y887915D02*
Y882583D01*
X83500D01*
X82167Y885249D01*
Y886582D01*
X83500Y887915D01*
X86166D01*
X87499Y886582D01*
Y883916D01*
X86166Y882583D01*
X178251Y648335D02*
X186249Y653667D01*
X178251D02*
X186249Y648335D01*
Y660332D02*
X178251D01*
X182250Y656333D01*
Y661665D01*
X268751Y622585D02*
X276749Y627917D01*
X268751D02*
X276749Y622585D01*
X270084Y630583D02*
X268751Y631916D01*
Y634582D01*
X270084Y635914D01*
X271417D01*
X272750Y634582D01*
Y633249D01*
Y634582D01*
X274083Y635914D01*
X275416D01*
X276749Y634582D01*
Y631916D01*
X275416Y630583D01*
X686249Y350503D02*
X678251D01*
Y354502D01*
X679584Y355835D01*
X682250D01*
X683583Y354502D01*
Y350503D01*
Y353169D02*
X686249Y355835D01*
Y358501D02*
Y361166D01*
Y359833D01*
X678251D01*
X679584Y358501D01*
Y365165D02*
X678251Y366498D01*
Y369164D01*
X679584Y370497D01*
X684916D01*
X686249Y369164D01*
Y366498D01*
X684916Y365165D01*
X679584D01*
X679001Y464664D02*
X686999D01*
Y460665D01*
X685666Y459333D01*
X683000D01*
X681667Y460665D01*
Y464664D01*
Y461998D02*
X679001Y459333D01*
X680334Y456667D02*
X679001Y455334D01*
Y452668D01*
X680334Y451335D01*
X685666D01*
X686999Y452668D01*
Y455334D01*
X685666Y456667D01*
X684333D01*
X683000Y455334D01*
Y451335D01*
X487000Y282666D02*
X485667Y283999D01*
X483001D01*
X481668Y282666D01*
Y277334D01*
X483001Y276001D01*
X485667D01*
X487000Y277334D01*
X489666Y276001D02*
X492332D01*
X490999D01*
Y283999D01*
X489666Y282666D01*
X83587Y342749D02*
X88918Y334751D01*
Y342749D02*
X83587Y334751D01*
X91584D02*
Y342749D01*
X95583D01*
X96916Y341416D01*
Y338750D01*
X95583Y337417D01*
X91584D01*
X99582Y341416D02*
X100914Y342749D01*
X103580D01*
X104913Y341416D01*
Y340083D01*
X103580Y338750D01*
X102247D01*
X103580D01*
X104913Y337417D01*
Y336084D01*
X103580Y334751D01*
X100914D01*
X99582Y336084D01*
X13918Y752666D02*
X12586Y753999D01*
X9920D01*
X8587Y752666D01*
Y747334D01*
X9920Y746001D01*
X12586D01*
X13918Y747334D01*
X21916Y746001D02*
X16584D01*
X21916Y751333D01*
Y752666D01*
X20583Y753999D01*
X17917D01*
X16584Y752666D01*
X24582D02*
X25915Y753999D01*
X28580D01*
X29913Y752666D01*
Y747334D01*
X28580Y746001D01*
X25915D01*
X24582Y747334D01*
Y752666D01*
X70335Y1064499D02*
X75667Y1056501D01*
Y1064499D02*
X70335Y1056501D01*
X83665D02*
X78333D01*
X83665Y1061833D01*
Y1063166D01*
X82332Y1064499D01*
X79666D01*
X78333Y1063166D01*
X423587Y700999D02*
X428918Y693001D01*
Y700999D02*
X423587Y693001D01*
X431584D02*
Y700999D01*
X435583D01*
X436916Y699666D01*
Y697000D01*
X435583Y695667D01*
X431584D01*
X444913Y693001D02*
X439582D01*
X444913Y698333D01*
Y699666D01*
X443580Y700999D01*
X440914D01*
X439582Y699666D01*
X424420Y649999D02*
X429751Y642001D01*
Y649999D02*
X424420Y642001D01*
X432417D02*
Y649999D01*
X436416D01*
X437749Y648666D01*
Y646000D01*
X436416Y644667D01*
X432417D01*
X440415Y642001D02*
X443080D01*
X441748D01*
Y649999D01*
X440415Y648666D01*
X637168Y1066499D02*
X642500Y1058501D01*
Y1066499D02*
X637168Y1058501D01*
X645166D02*
X647832D01*
X646499D01*
Y1066499D01*
X645166Y1065166D01*
X523920Y779499D02*
Y774167D01*
X526586Y771501D01*
X529251Y774167D01*
Y779499D01*
X531917Y771501D02*
Y779499D01*
X535916D01*
X537249Y778166D01*
Y775500D01*
X535916Y774167D01*
X531917D01*
X534583D02*
X537249Y771501D01*
X539915D02*
X542580D01*
X541247D01*
Y779499D01*
X539915Y778166D01*
X41999Y67913D02*
X36667D01*
X34001Y65247D01*
X36667Y62582D01*
X41999D01*
Y59916D02*
X34001D01*
Y55917D01*
X35334Y54584D01*
X40666D01*
X41999Y55917D01*
Y59916D01*
X34001Y47920D02*
X41999D01*
X38000Y51918D01*
Y46587D01*
X109499Y67663D02*
X104167D01*
X101501Y64997D01*
X104167Y62332D01*
X109499D01*
Y59666D02*
X101501D01*
Y55667D01*
X102834Y54334D01*
X108166D01*
X109499Y55667D01*
Y59666D01*
X108166Y51668D02*
X109499Y50335D01*
Y47670D01*
X108166Y46337D01*
X106833D01*
X105500Y47670D01*
Y49003D01*
Y47670D01*
X104167Y46337D01*
X102834D01*
X101501Y47670D01*
Y50335D01*
X102834Y51668D01*
X77499Y67663D02*
X72167D01*
X69501Y64997D01*
X72167Y62332D01*
X77499D01*
Y59666D02*
X69501D01*
Y55667D01*
X70834Y54334D01*
X76166D01*
X77499Y55667D01*
Y59666D01*
X69501Y46337D02*
Y51668D01*
X74833Y46337D01*
X76166D01*
X77499Y47670D01*
Y50335D01*
X76166Y51668D01*
X137918Y487999D02*
Y481334D01*
X139251Y480001D01*
X141917D01*
X143250Y481334D01*
Y487999D01*
X145916Y480001D02*
X148582D01*
X147249D01*
Y487999D01*
X145916Y486666D01*
X579917Y988916D02*
X578584Y990249D01*
X575918D01*
X574585Y988916D01*
Y987583D01*
X575918Y986250D01*
X578584D01*
X579917Y984917D01*
Y983584D01*
X578584Y982251D01*
X575918D01*
X574585Y983584D01*
X587915Y982251D02*
X582583D01*
X587915Y987583D01*
Y988916D01*
X586582Y990249D01*
X583916D01*
X582583Y988916D01*
X337584Y986250D02*
X336251Y984917D01*
Y982251D01*
X337584Y980918D01*
X338917D01*
X340250Y982251D01*
Y984917D01*
X341583Y986250D01*
X342916D01*
X344249Y984917D01*
Y982251D01*
X342916Y980918D01*
X344249Y988916D02*
Y991582D01*
Y990249D01*
X336251D01*
X337584Y988916D01*
X163249Y867087D02*
X155251D01*
Y871086D01*
X156584Y872418D01*
X159250D01*
X160583Y871086D01*
Y867087D01*
Y869753D02*
X163249Y872418D01*
X156584Y875084D02*
X155251Y876417D01*
Y879083D01*
X156584Y880416D01*
X157917D01*
X159250Y879083D01*
Y877750D01*
Y879083D01*
X160583Y880416D01*
X161916D01*
X163249Y879083D01*
Y876417D01*
X161916Y875084D01*
X156584Y883082D02*
X155251Y884415D01*
Y887080D01*
X156584Y888413D01*
X157917D01*
X159250Y887080D01*
X160583Y888413D01*
X161916D01*
X163249Y887080D01*
Y884415D01*
X161916Y883082D01*
X160583D01*
X159250Y884415D01*
X157917Y883082D01*
X156584D01*
X159250Y884415D02*
Y887080D01*
X210749Y836587D02*
X202751D01*
Y840585D01*
X204084Y841918D01*
X206750D01*
X208083Y840585D01*
Y836587D01*
Y839253D02*
X210749Y841918D01*
X204084Y844584D02*
X202751Y845917D01*
Y848583D01*
X204084Y849916D01*
X205417D01*
X206750Y848583D01*
Y847250D01*
Y848583D01*
X208083Y849916D01*
X209416D01*
X210749Y848583D01*
Y845917D01*
X209416Y844584D01*
X202751Y852582D02*
Y857913D01*
X204084D01*
X209416Y852582D01*
X210749D01*
X162499Y837337D02*
X154501D01*
Y841336D01*
X155834Y842668D01*
X158500D01*
X159833Y841336D01*
Y837337D01*
Y840003D02*
X162499Y842668D01*
X155834Y845334D02*
X154501Y846667D01*
Y849333D01*
X155834Y850666D01*
X157167D01*
X158500Y849333D01*
Y848000D01*
Y849333D01*
X159833Y850666D01*
X161166D01*
X162499Y849333D01*
Y846667D01*
X161166Y845334D01*
X154501Y858663D02*
X155834Y855997D01*
X158500Y853332D01*
X161166D01*
X162499Y854665D01*
Y857330D01*
X161166Y858663D01*
X159833D01*
X158500Y857330D01*
Y853332D01*
X394000Y867337D02*
X386003D01*
Y871336D01*
X387336Y872668D01*
X390002D01*
X391334Y871336D01*
Y867337D01*
Y870003D02*
X394000Y872668D01*
X387336Y875334D02*
X386003Y876667D01*
Y879333D01*
X387336Y880666D01*
X388669D01*
X390002Y879333D01*
Y878000D01*
Y879333D01*
X391334Y880666D01*
X392667D01*
X394000Y879333D01*
Y876667D01*
X392667Y875334D01*
X386003Y888663D02*
Y883332D01*
X390002D01*
X388669Y885997D01*
Y887330D01*
X390002Y888663D01*
X392667D01*
X394000Y887330D01*
Y884665D01*
X392667Y883332D01*
X235837Y721001D02*
Y728999D01*
X239835D01*
X241168Y727666D01*
Y725000D01*
X239835Y723667D01*
X235837D01*
X238503D02*
X241168Y721001D01*
X243834Y727666D02*
X245167Y728999D01*
X247833D01*
X249166Y727666D01*
Y726333D01*
X247833Y725000D01*
X246500D01*
X247833D01*
X249166Y723667D01*
Y722334D01*
X247833Y721001D01*
X245167D01*
X243834Y722334D01*
X255830Y721001D02*
Y728999D01*
X251832Y725000D01*
X257163D01*
X65249Y668337D02*
X57251D01*
Y672336D01*
X58584Y673668D01*
X61250D01*
X62583Y672336D01*
Y668337D01*
Y671003D02*
X65249Y673668D01*
X58584Y676334D02*
X57251Y677667D01*
Y680333D01*
X58584Y681666D01*
X59917D01*
X61250Y680333D01*
Y679000D01*
Y680333D01*
X62583Y681666D01*
X63916D01*
X65249Y680333D01*
Y677667D01*
X63916Y676334D01*
X58584Y684332D02*
X57251Y685665D01*
Y688330D01*
X58584Y689663D01*
X59917D01*
X61250Y688330D01*
Y686997D01*
Y688330D01*
X62583Y689663D01*
X63916D01*
X65249Y688330D01*
Y685665D01*
X63916Y684332D01*
X49999Y668337D02*
X42001D01*
Y672336D01*
X43334Y673668D01*
X46000D01*
X47333Y672336D01*
Y668337D01*
Y671003D02*
X49999Y673668D01*
X43334Y676334D02*
X42001Y677667D01*
Y680333D01*
X43334Y681666D01*
X44667D01*
X46000Y680333D01*
Y679000D01*
Y680333D01*
X47333Y681666D01*
X48666D01*
X49999Y680333D01*
Y677667D01*
X48666Y676334D01*
X49999Y689663D02*
Y684332D01*
X44667Y689663D01*
X43334D01*
X42001Y688330D01*
Y685665D01*
X43334Y684332D01*
X13420Y777251D02*
Y785249D01*
X17418D01*
X18751Y783916D01*
Y781250D01*
X17418Y779917D01*
X13420D01*
X16085D02*
X18751Y777251D01*
X21417Y783916D02*
X22750Y785249D01*
X25416D01*
X26749Y783916D01*
Y782583D01*
X25416Y781250D01*
X24083D01*
X25416D01*
X26749Y779917D01*
Y778584D01*
X25416Y777251D01*
X22750D01*
X21417Y778584D01*
X29415Y777251D02*
X32080D01*
X30747D01*
Y785249D01*
X29415Y783916D01*
X13337Y761501D02*
Y769499D01*
X17335D01*
X18668Y768166D01*
Y765500D01*
X17335Y764167D01*
X13337D01*
X16003D02*
X18668Y761501D01*
X21334Y768166D02*
X22667Y769499D01*
X25333D01*
X26666Y768166D01*
Y766833D01*
X25333Y765500D01*
X24000D01*
X25333D01*
X26666Y764167D01*
Y762834D01*
X25333Y761501D01*
X22667D01*
X21334Y762834D01*
X29332Y768166D02*
X30665Y769499D01*
X33330D01*
X34663Y768166D01*
Y762834D01*
X33330Y761501D01*
X30665D01*
X29332Y762834D01*
Y768166D01*
X521749Y870087D02*
X513751D01*
Y874085D01*
X515084Y875418D01*
X517750D01*
X519083Y874085D01*
Y870087D01*
Y872753D02*
X521749Y875418D01*
Y883416D02*
Y878084D01*
X516417Y883416D01*
X515084D01*
X513751Y882083D01*
Y879417D01*
X515084Y878084D01*
X513751Y891413D02*
Y886082D01*
X517750D01*
X516417Y888747D01*
Y890080D01*
X517750Y891413D01*
X520416D01*
X521749Y890080D01*
Y887414D01*
X520416Y886082D01*
X34001Y109163D02*
X41999D01*
Y105164D01*
X40666Y103832D01*
X38000D01*
X36667Y105164D01*
Y109163D01*
Y106497D02*
X34001Y103832D01*
Y95834D02*
Y101166D01*
X39333Y95834D01*
X40666D01*
X41999Y97167D01*
Y99833D01*
X40666Y101166D01*
X34001Y89170D02*
X41999D01*
X38000Y93168D01*
Y87837D01*
X412087Y612751D02*
Y620749D01*
X416086D01*
X417418Y619416D01*
Y616750D01*
X416086Y615417D01*
X412087D01*
X414753D02*
X417418Y612751D01*
X425416D02*
X420084D01*
X425416Y618083D01*
Y619416D01*
X424083Y620749D01*
X421417D01*
X420084Y619416D01*
X428082D02*
X429414Y620749D01*
X432080D01*
X433413Y619416D01*
Y618083D01*
X432080Y616750D01*
X430747D01*
X432080D01*
X433413Y615417D01*
Y614084D01*
X432080Y612751D01*
X429414D01*
X428082Y614084D01*
X100501Y108663D02*
X108499D01*
Y104664D01*
X107166Y103332D01*
X104500D01*
X103167Y104664D01*
Y108663D01*
Y105997D02*
X100501Y103332D01*
Y95334D02*
Y100666D01*
X105833Y95334D01*
X107166D01*
X108499Y96667D01*
Y99333D01*
X107166Y100666D01*
X100501Y87337D02*
Y92668D01*
X105833Y87337D01*
X107166D01*
X108499Y88670D01*
Y91335D01*
X107166Y92668D01*
X68501Y108330D02*
X76499D01*
Y104332D01*
X75166Y102999D01*
X72500D01*
X71167Y104332D01*
Y108330D01*
Y105665D02*
X68501Y102999D01*
Y95001D02*
Y100333D01*
X73833Y95001D01*
X75166D01*
X76499Y96334D01*
Y99000D01*
X75166Y100333D01*
X68501Y92336D02*
Y89670D01*
Y91003D01*
X76499D01*
X75166Y92336D01*
X248087Y503251D02*
Y511249D01*
X252085D01*
X253418Y509916D01*
Y507250D01*
X252085Y505917D01*
X248087D01*
X250753D02*
X253418Y503251D01*
X261416D02*
X256084D01*
X261416Y508583D01*
Y509916D01*
X260083Y511249D01*
X257417D01*
X256084Y509916D01*
X264082D02*
X265415Y511249D01*
X268080D01*
X269413Y509916D01*
Y504584D01*
X268080Y503251D01*
X265415D01*
X264082Y504584D01*
Y509916D01*
X562253Y144004D02*
Y152001D01*
X566252D01*
X567585Y150668D01*
Y148002D01*
X566252Y146670D01*
X562253D01*
X564919D02*
X567585Y144004D01*
X570251D02*
X572916D01*
X571584D01*
Y152001D01*
X570251Y150668D01*
X576915Y145337D02*
X578248Y144004D01*
X580914D01*
X582247Y145337D01*
Y150668D01*
X580914Y152001D01*
X578248D01*
X576915Y150668D01*
Y149335D01*
X578248Y148002D01*
X582247D01*
X547836Y1054751D02*
Y1062749D01*
X551834D01*
X553167Y1061416D01*
Y1058750D01*
X551834Y1057417D01*
X547836D01*
X550501D02*
X553167Y1054751D01*
X555833Y1061416D02*
X557166Y1062749D01*
X559832D01*
X561165Y1061416D01*
Y1060083D01*
X559832Y1058750D01*
X561165Y1057417D01*
Y1056084D01*
X559832Y1054751D01*
X557166D01*
X555833Y1056084D01*
Y1057417D01*
X557166Y1058750D01*
X555833Y1060083D01*
Y1061416D01*
X557166Y1058750D02*
X559832D01*
X520085Y1054751D02*
Y1062749D01*
X524084D01*
X525417Y1061416D01*
Y1058750D01*
X524084Y1057417D01*
X520085D01*
X522751D02*
X525417Y1054751D01*
X528083Y1062749D02*
X533414D01*
Y1061416D01*
X528083Y1056084D01*
Y1054751D01*
X493086D02*
Y1062749D01*
X497084D01*
X498417Y1061416D01*
Y1058750D01*
X497084Y1057417D01*
X493086D01*
X495751D02*
X498417Y1054751D01*
X506414Y1062749D02*
X503749Y1061416D01*
X501083Y1058750D01*
Y1056084D01*
X502416Y1054751D01*
X505082D01*
X506414Y1056084D01*
Y1057417D01*
X505082Y1058750D01*
X501083D01*
X465336Y1054751D02*
Y1062749D01*
X469334D01*
X470667Y1061416D01*
Y1058750D01*
X469334Y1057417D01*
X465336D01*
X468001D02*
X470667Y1054751D01*
X478665Y1062749D02*
X473333D01*
Y1058750D01*
X475999Y1060083D01*
X477332D01*
X478665Y1058750D01*
Y1056084D01*
X477332Y1054751D01*
X474666D01*
X473333Y1056084D01*
X438086Y1054751D02*
Y1062749D01*
X442084D01*
X443417Y1061416D01*
Y1058750D01*
X442084Y1057417D01*
X438086D01*
X440751D02*
X443417Y1054751D01*
X450082D02*
Y1062749D01*
X446083Y1058750D01*
X451414D01*
X409836Y1054751D02*
Y1062749D01*
X413834D01*
X415167Y1061416D01*
Y1058750D01*
X413834Y1057417D01*
X409836D01*
X412501D02*
X415167Y1054751D01*
X417833Y1061416D02*
X419166Y1062749D01*
X421832D01*
X423164Y1061416D01*
Y1060083D01*
X421832Y1058750D01*
X420499D01*
X421832D01*
X423164Y1057417D01*
Y1056084D01*
X421832Y1054751D01*
X419166D01*
X417833Y1056084D01*
X382836Y1054751D02*
Y1062749D01*
X386834D01*
X388167Y1061416D01*
Y1058750D01*
X386834Y1057417D01*
X382836D01*
X385501D02*
X388167Y1054751D01*
X396165D02*
X390833D01*
X396165Y1060083D01*
Y1061416D01*
X394832Y1062749D01*
X392166D01*
X390833Y1061416D01*
X357168Y1054751D02*
Y1062749D01*
X361167D01*
X362500Y1061416D01*
Y1058750D01*
X361167Y1057417D01*
X357168D01*
X359834D02*
X362500Y1054751D01*
X365166D02*
X367832D01*
X366499D01*
Y1062749D01*
X365166Y1061416D01*
X608249Y567832D02*
X600251D01*
Y562500D01*
Y559834D02*
Y557168D01*
Y558501D01*
X608249D01*
X606916Y559834D01*
X140250Y1067499D02*
X137584D01*
X138917D01*
Y1060834D01*
X137584Y1059501D01*
X136251D01*
X134918Y1060834D01*
X142916Y1059501D02*
X145582D01*
X144249D01*
Y1067499D01*
X142916Y1066166D01*
X345999Y493664D02*
Y490998D01*
Y492331D01*
X338001D01*
Y493664D01*
Y490998D01*
X344666Y481668D02*
X345999Y483001D01*
Y485666D01*
X344666Y486999D01*
X339334D01*
X338001Y485666D01*
Y483001D01*
X339334Y481668D01*
X338001Y479002D02*
Y476336D01*
Y477669D01*
X345999D01*
X344666Y479002D01*
X673001Y271920D02*
X680999D01*
Y275918D01*
X679666Y277251D01*
X674334D01*
X673001Y275918D01*
Y271920D01*
Y279917D02*
X680999D01*
Y283916D01*
X679666Y285249D01*
X674334D01*
X673001Y283916D01*
Y279917D01*
X680999Y287915D02*
Y290580D01*
Y289247D01*
X673001D01*
X674334Y287915D01*
X599251Y456168D02*
X607249D01*
Y460167D01*
X605916Y461500D01*
X600584D01*
X599251Y460167D01*
Y456168D01*
X607249Y464166D02*
Y466832D01*
Y465499D01*
X599251D01*
X600584Y464166D01*
X38566Y449418D02*
X37233Y450751D01*
X34567D01*
X33234Y449418D01*
Y444087D01*
X34567Y442754D01*
X37233D01*
X38566Y444087D01*
X41231Y449418D02*
X42564Y450751D01*
X45230D01*
X46563Y449418D01*
Y448086D01*
X45230Y446753D01*
X43897D01*
X45230D01*
X46563Y445420D01*
Y444087D01*
X45230Y442754D01*
X42564D01*
X41231Y444087D01*
X49229Y449418D02*
X50562Y450751D01*
X53228D01*
X54560Y449418D01*
Y444087D01*
X53228Y442754D01*
X50562D01*
X49229Y444087D01*
Y449418D01*
X63084Y637418D02*
X61751Y636086D01*
Y633420D01*
X63084Y632087D01*
X68416D01*
X69749Y633420D01*
Y636086D01*
X68416Y637418D01*
X69749Y645416D02*
Y640084D01*
X64417Y645416D01*
X63084D01*
X61751Y644083D01*
Y641417D01*
X63084Y640084D01*
Y648082D02*
X61751Y649415D01*
Y652080D01*
X63084Y653413D01*
X64417D01*
X65750Y652080D01*
X67083Y653413D01*
X68416D01*
X69749Y652080D01*
Y649415D01*
X68416Y648082D01*
X67083D01*
X65750Y649415D01*
X64417Y648082D01*
X63084D01*
X65750Y649415D02*
Y652080D01*
X44918Y363416D02*
X43586Y364749D01*
X40920D01*
X39587Y363416D01*
Y358084D01*
X40920Y356751D01*
X43586D01*
X44918Y358084D01*
X52916Y356751D02*
X47584D01*
X52916Y362083D01*
Y363416D01*
X51583Y364749D01*
X48917D01*
X47584Y363416D01*
X55582Y364749D02*
X60913D01*
Y363416D01*
X55582Y358084D01*
Y356751D01*
X90334Y645918D02*
X89001Y644585D01*
Y641920D01*
X90334Y640587D01*
X95666D01*
X96999Y641920D01*
Y644585D01*
X95666Y645918D01*
X96999Y653916D02*
Y648584D01*
X91667Y653916D01*
X90334D01*
X89001Y652583D01*
Y649917D01*
X90334Y648584D01*
X89001Y661913D02*
X90334Y659247D01*
X93000Y656582D01*
X95666D01*
X96999Y657915D01*
Y660580D01*
X95666Y661913D01*
X94333D01*
X93000Y660580D01*
Y656582D01*
X19918Y839166D02*
X18585Y840499D01*
X15920D01*
X14587Y839166D01*
Y833834D01*
X15920Y832501D01*
X18585D01*
X19918Y833834D01*
X27916Y832501D02*
X22584D01*
X27916Y837833D01*
Y839166D01*
X26583Y840499D01*
X23917D01*
X22584Y839166D01*
X35913Y840499D02*
X30582D01*
Y836500D01*
X33247Y837833D01*
X34580D01*
X35913Y836500D01*
Y833834D01*
X34580Y832501D01*
X31915D01*
X30582Y833834D01*
X63918Y802166D02*
X62586Y803499D01*
X59920D01*
X58587Y802166D01*
Y796834D01*
X59920Y795501D01*
X62586D01*
X63918Y796834D01*
X71916Y795501D02*
X66584D01*
X71916Y800833D01*
Y802166D01*
X70583Y803499D01*
X67917D01*
X66584Y802166D01*
X78580Y795501D02*
Y803499D01*
X74582Y799500D01*
X79913D01*
X126168Y728166D02*
X124836Y729499D01*
X122170D01*
X120837Y728166D01*
Y722834D01*
X122170Y721501D01*
X124836D01*
X126168Y722834D01*
X134166Y721501D02*
X128834D01*
X134166Y726833D01*
Y728166D01*
X132833Y729499D01*
X130167D01*
X128834Y728166D01*
X142163Y721501D02*
X136832D01*
X142163Y726833D01*
Y728166D01*
X140830Y729499D01*
X138165D01*
X136832Y728166D01*
X142334Y804751D02*
X141001Y803418D01*
Y800753D01*
X142334Y799420D01*
X147666D01*
X148999Y800753D01*
Y803418D01*
X147666Y804751D01*
X148999Y812749D02*
Y807417D01*
X143667Y812749D01*
X142334D01*
X141001Y811416D01*
Y808750D01*
X142334Y807417D01*
X148999Y815415D02*
Y818080D01*
Y816747D01*
X141001D01*
X142334Y815415D01*
X124835Y582666D02*
X123502Y583999D01*
X120836D01*
X119503Y582666D01*
Y577334D01*
X120836Y576001D01*
X123502D01*
X124835Y577334D01*
X127501Y576001D02*
X130166D01*
X128834D01*
Y583999D01*
X127501Y582666D01*
X134165Y577334D02*
X135498Y576001D01*
X138164D01*
X139497Y577334D01*
Y582666D01*
X138164Y583999D01*
X135498D01*
X134165Y582666D01*
Y581333D01*
X135498Y580000D01*
X139497D01*
X94835Y582416D02*
X93502Y583749D01*
X90836D01*
X89503Y582416D01*
Y577084D01*
X90836Y575751D01*
X93502D01*
X94835Y577084D01*
X97501Y575751D02*
X100166D01*
X98834D01*
Y583749D01*
X97501Y582416D01*
X104165D02*
X105498Y583749D01*
X108164D01*
X109497Y582416D01*
Y581083D01*
X108164Y579750D01*
X109497Y578417D01*
Y577084D01*
X108164Y575751D01*
X105498D01*
X104165Y577084D01*
Y578417D01*
X105498Y579750D01*
X104165Y581083D01*
Y582416D01*
X105498Y579750D02*
X108164D01*
X155585Y669416D02*
X154252Y670749D01*
X151586D01*
X150253Y669416D01*
Y664084D01*
X151586Y662751D01*
X154252D01*
X155585Y664084D01*
X158251Y662751D02*
X160916D01*
X159584D01*
Y670749D01*
X158251Y669416D01*
X164915Y670749D02*
X170247D01*
Y669416D01*
X164915Y664084D01*
Y662751D01*
X197084Y646835D02*
X195751Y645502D01*
Y642836D01*
X197084Y641503D01*
X202416D01*
X203749Y642836D01*
Y645502D01*
X202416Y646835D01*
X203749Y649501D02*
Y652167D01*
Y650834D01*
X195751D01*
X197084Y649501D01*
X195751Y661497D02*
X197084Y658831D01*
X199750Y656165D01*
X202416D01*
X203749Y657498D01*
Y660164D01*
X202416Y661497D01*
X201083D01*
X199750Y660164D01*
Y656165D01*
X166835Y580916D02*
X165502Y582249D01*
X162836D01*
X161503Y580916D01*
Y575584D01*
X162836Y574251D01*
X165502D01*
X166835Y575584D01*
X169501Y574251D02*
X172167D01*
X170834D01*
Y582249D01*
X169501Y580916D01*
X181497Y582249D02*
X176165D01*
Y578250D01*
X178831Y579583D01*
X180164D01*
X181497Y578250D01*
Y575584D01*
X180164Y574251D01*
X177498D01*
X176165Y575584D01*
X227584Y650085D02*
X226251Y648752D01*
Y646086D01*
X227584Y644753D01*
X232916D01*
X234249Y646086D01*
Y648752D01*
X232916Y650085D01*
X234249Y652751D02*
Y655416D01*
Y654084D01*
X226251D01*
X227584Y652751D01*
X234249Y663414D02*
X226251D01*
X230250Y659415D01*
Y664747D01*
X227835Y704916D02*
X226502Y706249D01*
X223836D01*
X222503Y704916D01*
Y699584D01*
X223836Y698251D01*
X226502D01*
X227835Y699584D01*
X230500Y698251D02*
X233166D01*
X231833D01*
Y706249D01*
X230500Y704916D01*
X237165D02*
X238498Y706249D01*
X241164D01*
X242497Y704916D01*
Y703583D01*
X241164Y702250D01*
X239831D01*
X241164D01*
X242497Y700917D01*
Y699584D01*
X241164Y698251D01*
X238498D01*
X237165Y699584D01*
X180084Y769585D02*
X178751Y768252D01*
Y765586D01*
X180084Y764253D01*
X185416D01*
X186749Y765586D01*
Y768252D01*
X185416Y769585D01*
X186749Y772251D02*
Y774916D01*
Y773584D01*
X178751D01*
X180084Y772251D01*
X186749Y784247D02*
Y778915D01*
X181417Y784247D01*
X180084D01*
X178751Y782914D01*
Y780248D01*
X180084Y778915D01*
X207168Y361916D02*
X205835Y363249D01*
X203169D01*
X201836Y361916D01*
Y356584D01*
X203169Y355251D01*
X205835D01*
X207168Y356584D01*
X209834Y355251D02*
X212499D01*
X211166D01*
Y363249D01*
X209834Y361916D01*
X216498Y355251D02*
X219164D01*
X217831D01*
Y363249D01*
X216498Y361916D01*
X262084Y376585D02*
X260751Y375252D01*
Y372586D01*
X262084Y371253D01*
X267416D01*
X268749Y372586D01*
Y375252D01*
X267416Y376585D01*
X268749Y379251D02*
Y381917D01*
Y380584D01*
X260751D01*
X262084Y379251D01*
Y385915D02*
X260751Y387248D01*
Y389914D01*
X262084Y391247D01*
X267416D01*
X268749Y389914D01*
Y387248D01*
X267416Y385915D01*
X262084D01*
X401916Y791583D02*
X403249Y792916D01*
Y795582D01*
X401916Y796915D01*
X396584D01*
X395251Y795582D01*
Y792916D01*
X396584Y791583D01*
Y788917D02*
X395251Y787584D01*
Y784918D01*
X396584Y783586D01*
X401916D01*
X403249Y784918D01*
Y787584D01*
X401916Y788917D01*
X400583D01*
X399250Y787584D01*
Y783586D01*
X201334Y761167D02*
X200001Y759834D01*
Y757168D01*
X201334Y755835D01*
X206666D01*
X207999Y757168D01*
Y759834D01*
X206666Y761167D01*
X201334Y763833D02*
X200001Y765166D01*
Y767832D01*
X201334Y769165D01*
X202667D01*
X204000Y767832D01*
X205333Y769165D01*
X206666D01*
X207999Y767832D01*
Y765166D01*
X206666Y763833D01*
X205333D01*
X204000Y765166D01*
X202667Y763833D01*
X201334D01*
X204000Y765166D02*
Y767832D01*
X261667Y561916D02*
X260334Y563249D01*
X257668D01*
X256336Y561916D01*
Y556584D01*
X257668Y555251D01*
X260334D01*
X261667Y556584D01*
X264333Y563249D02*
X269664D01*
Y561916D01*
X264333Y556584D01*
Y555251D01*
X375084Y790417D02*
X373751Y789084D01*
Y786419D01*
X375084Y785086D01*
X380416D01*
X381749Y786419D01*
Y789084D01*
X380416Y790417D01*
X373751Y798415D02*
X375084Y795749D01*
X377750Y793083D01*
X380416D01*
X381749Y794416D01*
Y797082D01*
X380416Y798415D01*
X379083D01*
X377750Y797082D01*
Y793083D01*
X355834Y445667D02*
X354501Y444334D01*
Y441668D01*
X355834Y440336D01*
X361166D01*
X362499Y441668D01*
Y444334D01*
X361166Y445667D01*
X354501Y453665D02*
Y448333D01*
X358500D01*
X357167Y450999D01*
Y452332D01*
X358500Y453665D01*
X361166D01*
X362499Y452332D01*
Y449666D01*
X361166Y448333D01*
X656584Y692167D02*
X655251Y690834D01*
Y688168D01*
X656584Y686835D01*
X661916D01*
X663249Y688168D01*
Y690834D01*
X661916Y692167D01*
X663249Y698832D02*
X655251D01*
X659250Y694833D01*
Y700164D01*
X457834Y800417D02*
X456501Y799084D01*
Y796418D01*
X457834Y795086D01*
X463166D01*
X464499Y796418D01*
Y799084D01*
X463166Y800417D01*
X464499Y808415D02*
Y803083D01*
X459167Y808415D01*
X457834D01*
X456501Y807082D01*
Y804416D01*
X457834Y803083D01*
D11*
X132085Y805400D02*
G03*
X132085Y805400I-995J0D01*
G01*
X146864Y601488D02*
Y624602D01*
Y601488D02*
X181916D01*
Y643398D01*
X164644D02*
X181916D01*
X146864Y636540D02*
Y643398D01*
X154230D01*
X82386Y846148D02*
Y869262D01*
X47334D02*
X82386D01*
X47334Y827352D02*
Y869262D01*
Y827352D02*
X64606D01*
X82386D02*
Y834210D01*
X75020Y827352D02*
X82386D01*
X429290Y546287D02*
X435955D01*
X432622D01*
Y536290D01*
X439287Y546287D02*
X445951Y536290D01*
Y546287D02*
X439287Y536290D01*
X362540D02*
Y546287D01*
X367538D01*
X369204Y544621D01*
Y541288D01*
X367538Y539622D01*
X362540D01*
X365872D02*
X369204Y536290D01*
X372537Y546287D02*
X379201Y536290D01*
Y546287D02*
X372537Y536290D01*
X297962Y527290D02*
Y533955D01*
X294629Y530622D02*
X301294D01*
X294629Y537287D02*
X292963Y538953D01*
Y542285D01*
X294629Y543951D01*
X296296D01*
X297962Y542285D01*
Y540619D01*
Y542285D01*
X299628Y543951D01*
X301294D01*
X302960Y542285D01*
Y538953D01*
X301294Y537287D01*
X296296Y547284D02*
X302960Y550616D01*
X296296Y553948D01*
X269290Y673790D02*
Y683787D01*
X274288D01*
X275954Y682121D01*
Y678788D01*
X274288Y677122D01*
X269290D01*
X272622D02*
X275954Y673790D01*
X553790Y928537D02*
X560454D01*
Y926871D01*
X553790Y920206D01*
Y918540D01*
X532954Y928537D02*
X529622Y926871D01*
X526290Y923538D01*
Y920206D01*
X527956Y918540D01*
X531288D01*
X532954Y920206D01*
Y921872D01*
X531288Y923538D01*
X526290D01*
X505038Y918540D02*
Y928537D01*
X500040Y923538D01*
X506704D01*
X480704Y928537D02*
X474040D01*
Y923538D01*
X477372Y925204D01*
X479038D01*
X480704Y923538D01*
Y920206D01*
X479038Y918540D01*
X475706D01*
X474040Y920206D01*
X435540Y926871D02*
X437206Y928537D01*
X440538D01*
X442205Y926871D01*
Y925204D01*
X440538Y923538D01*
X438872D01*
X440538D01*
X442205Y921872D01*
Y920206D01*
X440538Y918540D01*
X437206D01*
X435540Y920206D01*
X416455Y918540D02*
X409790D01*
X416455Y925204D01*
Y926871D01*
X414788Y928537D01*
X411456D01*
X409790Y926871D01*
X386040Y918540D02*
X389372D01*
X387706D01*
Y928537D01*
X386040Y926871D01*
X358790D02*
X360456Y928537D01*
X363788D01*
X365454Y926871D01*
Y920206D01*
X363788Y918540D01*
X360456D01*
X358790Y920206D01*
Y926871D01*
X349204Y726621D02*
X347538Y728287D01*
X344206D01*
X342540Y726621D01*
Y719956D01*
X344206Y718290D01*
X347538D01*
X349204Y719956D01*
Y723288D01*
X345872D01*
X379195Y726621D02*
X377529Y728287D01*
X374197D01*
X372530Y726621D01*
Y724955D01*
X374197Y723288D01*
X377529D01*
X379195Y721622D01*
Y719956D01*
X377529Y718290D01*
X374197D01*
X372530Y719956D01*
X392524Y723288D02*
X399188D01*
X395856Y726621D02*
Y719956D01*
X402521Y726621D02*
X404187Y728287D01*
X407519D01*
X409185Y726621D01*
Y724955D01*
X407519Y723288D01*
X405853D01*
X407519D01*
X409185Y721622D01*
Y719956D01*
X407519Y718290D01*
X404187D01*
X402521Y719956D01*
X412518Y718290D02*
Y719956D01*
X414184D01*
Y718290D01*
X412518D01*
X420848Y726621D02*
X422514Y728287D01*
X425846D01*
X427513Y726621D01*
Y724955D01*
X425846Y723288D01*
X424180D01*
X425846D01*
X427513Y721622D01*
Y719956D01*
X425846Y718290D01*
X422514D01*
X420848Y719956D01*
X51290Y292787D02*
X57955D01*
X54622D01*
Y282790D01*
X61287Y292787D02*
X67951Y282790D01*
Y292787D02*
X61287Y282790D01*
X97942Y291121D02*
X96276Y292787D01*
X92943D01*
X91277Y291121D01*
Y284456D01*
X92943Y282790D01*
X96276D01*
X97942Y284456D01*
Y287788D01*
X94609D01*
X121267Y282790D02*
Y292787D01*
X126266D01*
X127932Y291121D01*
Y287788D01*
X126266Y286122D01*
X121267D01*
X124600D02*
X127932Y282790D01*
X131264Y292787D02*
X137929Y282790D01*
Y292787D02*
X131264Y282790D01*
X368290Y675787D02*
Y665790D01*
X373288D01*
X374954Y667456D01*
Y669122D01*
Y670788D01*
X373288Y672455D01*
X368290D01*
X379953D02*
X383285D01*
X384951Y670788D01*
Y665790D01*
X379953D01*
X378287Y667456D01*
X379953Y669122D01*
X384951D01*
X389950Y674121D02*
Y672455D01*
X388284D01*
X391616D01*
X389950D01*
Y667456D01*
X391616Y665790D01*
X406611Y670788D02*
X413275D01*
X409943Y674121D02*
Y667456D01*
X605454Y132621D02*
X603788Y134287D01*
X600456D01*
X598790Y132621D01*
Y125956D01*
X600456Y124290D01*
X603788D01*
X605454Y125956D01*
Y129288D01*
X602122D01*
X628780D02*
X635445D01*
X632113Y132621D02*
Y125956D01*
X645442Y124290D02*
X638777D01*
X645442Y130955D01*
Y132621D01*
X643775Y134287D01*
X640443D01*
X638777Y132621D01*
X653772Y124290D02*
Y134287D01*
X648774Y129288D01*
X655438D01*
X181790Y156206D02*
Y162871D01*
X185122Y166203D01*
X188454Y162871D01*
Y156206D01*
Y161204D01*
X181790D01*
X211780Y166203D02*
Y156206D01*
X216779D01*
X218445Y157872D01*
Y159538D01*
X216779Y161204D01*
X211780D01*
X216779D01*
X218445Y162871D01*
Y164537D01*
X216779Y166203D01*
X211780D01*
X248435Y164537D02*
X246769Y166203D01*
X243437D01*
X241771Y164537D01*
Y157872D01*
X243437Y156206D01*
X246769D01*
X248435Y157872D01*
Y161204D01*
X245103D01*
X251768Y154540D02*
X258432D01*
X261764Y156206D02*
X265096D01*
X263430D01*
Y162871D01*
X261764D01*
X270095Y156206D02*
X275093D01*
X276759Y157872D01*
X275093Y159538D01*
X271761D01*
X270095Y161204D01*
X271761Y162871D01*
X276759D01*
X281758Y156206D02*
X285090D01*
X286756Y157872D01*
Y161204D01*
X285090Y162871D01*
X281758D01*
X280092Y161204D01*
Y157872D01*
X281758Y156206D01*
X335290Y75287D02*
X341954D01*
X338622D01*
Y65290D01*
X350285D02*
X346953D01*
X345287Y66956D01*
Y70288D01*
X346953Y71954D01*
X350285D01*
X351951Y70288D01*
Y68622D01*
X345287D01*
X355284Y71954D02*
Y65290D01*
Y68622D01*
X356950Y70288D01*
X358616Y71954D01*
X360282D01*
X365280Y65290D02*
Y71954D01*
X366946D01*
X368613Y70288D01*
Y65290D01*
Y70288D01*
X370279Y71954D01*
X371945Y70288D01*
Y65290D01*
X375277D02*
X378609D01*
X376943D01*
Y71954D01*
X375277D01*
X383608Y65290D02*
Y71954D01*
X388606D01*
X390272Y70288D01*
Y65290D01*
X395271Y71954D02*
X398603D01*
X400269Y70288D01*
Y65290D01*
X395271D01*
X393605Y66956D01*
X395271Y68622D01*
X400269D01*
X405267Y73621D02*
Y71954D01*
X403601D01*
X406934D01*
X405267D01*
Y66956D01*
X406934Y65290D01*
X413598D02*
X416930D01*
X418596Y66956D01*
Y70288D01*
X416930Y71954D01*
X413598D01*
X411932Y70288D01*
Y66956D01*
X413598Y65290D01*
X421929Y71954D02*
Y65290D01*
Y68622D01*
X423595Y70288D01*
X425261Y71954D01*
X426927D01*
D12*
X379000Y107050D02*
G03*
X379000Y107050I-1250J0D01*
G01*
X237550Y763650D02*
G03*
X237550Y763650I-1250J0D01*
G01*
X328550Y480750D02*
G03*
X328550Y480750I-1250J0D01*
G01*
X655500Y400750D02*
G03*
X655500Y400750I-1250J0D01*
G01*
X350450Y947400D02*
G03*
X350450Y947400I-1250J0D01*
G01*
X466650D02*
G03*
X466650Y947400I-1250J0D01*
G01*
D13*
X278487Y204095D02*
G03*
X294400Y204200I7877J12168D01*
G01*
X294513Y235205D02*
G03*
X278600Y235100I-7877J-12168D01*
G01*
X375277Y97331D02*
G03*
X375382Y81418I12168J-7877D01*
G01*
X406386Y81305D02*
G03*
X406282Y97218I-12168J7877D01*
G01*
X195988Y775796D02*
G03*
X211900Y775900I7877J12168D01*
G01*
X212013Y806905D02*
G03*
X196100Y806800I-7877J-12168D01*
G01*
X113870Y715688D02*
G03*
X113975Y699775I12168J-7877D01*
G01*
X144979Y699663D02*
G03*
X144875Y715575I-12168J7877D01*
G01*
X19046Y806512D02*
G03*
X19150Y790600I12168J-7877D01*
G01*
X50155Y790487D02*
G03*
X50050Y806400I-12168J7877D01*
G01*
X351237Y775796D02*
G03*
X367150Y775900I7877J12168D01*
G01*
X367262Y806905D02*
G03*
X351350Y806800I-7877J-12168D01*
G01*
X11295Y826012D02*
G03*
X11400Y810100I12168J-7877D01*
G01*
X42405Y809987D02*
G03*
X42300Y825900I-12168J7877D01*
G01*
X293013Y336455D02*
G03*
X277100Y336350I-7877J-12168D01*
G01*
X276987Y305345D02*
G03*
X292900Y305450I7877J12168D01*
G01*
X237013Y636655D02*
G03*
X221100Y636550I-7877J-12168D01*
G01*
X220988Y605546D02*
G03*
X236900Y605650I7877J12168D01*
G01*
X205263Y634655D02*
G03*
X189350Y634550I-7877J-12168D01*
G01*
X189237Y603545D02*
G03*
X205150Y603650I7877J12168D01*
G01*
X241845Y548512D02*
G03*
X241950Y532600I12168J-7877D01*
G01*
X272955Y532487D02*
G03*
X272850Y548400I-12168J7877D01*
G01*
X333487Y431096D02*
G03*
X349400Y431200I7877J12168D01*
G01*
X349512Y462205D02*
G03*
X333600Y462100I-7877J-12168D01*
G01*
X253762Y397655D02*
G03*
X237850Y397550I-7877J-12168D01*
G01*
X237738Y366545D02*
G03*
X253650Y366650I7877J12168D01*
G01*
X66405Y371487D02*
G03*
X66300Y387400I-12168J7877D01*
G01*
X35296Y387513D02*
G03*
X35400Y371600I12168J-7877D01*
G01*
X58987Y591095D02*
G03*
X74900Y591200I7877J12168D01*
G01*
X75012Y622205D02*
G03*
X59100Y622100I-7877J-12168D01*
G01*
X132762Y622405D02*
G03*
X116850Y622300I-7877J-12168D01*
G01*
X116737Y591296D02*
G03*
X132650Y591400I7877J12168D01*
G01*
X115763Y622155D02*
G03*
X99850Y622050I-7877J-12168D01*
G01*
X99738Y591045D02*
G03*
X115650Y591150I7877J12168D01*
G01*
X192500Y389000D02*
G03*
X192423Y369016I14270J-10047D01*
G01*
X228500Y369000D02*
G03*
X228576Y388984I-14270J10047D01*
G01*
X146763Y855905D02*
G03*
X130850Y855800I-7877J-12168D01*
G01*
X130737Y824796D02*
G03*
X146650Y824900I7877J12168D01*
G01*
X68155Y741737D02*
G03*
X68050Y757650I-12168J7877D01*
G01*
X37046Y757762D02*
G03*
X37150Y741850I12168J-7877D01*
G01*
X52000Y431750D02*
G03*
X32016Y431826I-10047J-14270D01*
G01*
X32000Y395750D02*
G03*
X51984Y395673I10047J14270D01*
G01*
X294500Y204250D02*
Y235000D01*
X278500Y204250D02*
Y235000D01*
X283800Y218100D02*
X289100D01*
X283800Y220900D02*
X289100D01*
X375432Y81318D02*
X406182D01*
X375432Y97318D02*
X406182D01*
X389282Y86718D02*
Y92018D01*
X392082Y86718D02*
Y92018D01*
X673750Y377750D02*
Y408500D01*
Y377750D02*
X689750D01*
Y408500D01*
X673750D02*
X689750D01*
X679750Y395250D02*
X684000D01*
Y391250D02*
Y395250D01*
X679750Y391250D02*
X684000D01*
X679750D02*
Y395250D01*
X201400Y790100D02*
X206700D01*
X201400Y792900D02*
X206700D01*
X212000Y776000D02*
Y806750D01*
X196000Y776000D02*
Y806750D01*
X128175Y704975D02*
Y710275D01*
X130975Y704975D02*
Y710275D01*
X114075Y699675D02*
X144825D01*
X114075Y715675D02*
X144825D01*
X33351Y795800D02*
Y801100D01*
X36150Y795800D02*
Y801100D01*
X19250Y790500D02*
X50000D01*
X19250Y806500D02*
X50000D01*
X147250Y867500D02*
Y888000D01*
X94750Y867500D02*
Y888000D01*
Y867500D02*
X147250D01*
X94750Y888000D02*
X147250D01*
X123000Y872750D02*
Y882750D01*
X119300Y872750D02*
Y882750D01*
X356650Y790100D02*
X361950D01*
X356650Y792900D02*
X361950D01*
X367250Y776000D02*
Y806750D01*
X351250Y776000D02*
Y806750D01*
X25600Y815300D02*
Y820600D01*
X28400Y815300D02*
Y820600D01*
X11500Y810000D02*
X42250D01*
X11500Y826000D02*
X42250D01*
X282300Y322150D02*
X287600D01*
X282300Y319350D02*
X287600D01*
X277000Y305500D02*
Y336250D01*
X293000Y305500D02*
Y336250D01*
X689750Y413500D02*
Y444249D01*
X673750D02*
X689750D01*
X673750Y413500D02*
Y444249D01*
Y413500D02*
X689750D01*
X679500Y426749D02*
X683750D01*
X679500D02*
Y430749D01*
X683750D01*
Y426749D02*
Y430749D01*
X221000Y605750D02*
Y636500D01*
X237000Y605750D02*
Y636500D01*
X226400Y622650D02*
X231700D01*
X226400Y619850D02*
X231700D01*
X189250Y603750D02*
Y634500D01*
X205250Y603750D02*
Y634500D01*
X194650Y620650D02*
X199950D01*
X194650Y617850D02*
X199950D01*
X242000Y532500D02*
X272750D01*
X242000Y548500D02*
X272750D01*
X255850Y537900D02*
Y543200D01*
X258650Y537900D02*
Y543200D01*
X349500Y431250D02*
Y462000D01*
X333500Y431250D02*
Y462000D01*
X338800Y445100D02*
X344100D01*
X338800Y447900D02*
X344100D01*
X237750Y366750D02*
Y397500D01*
X253750Y366750D02*
Y397500D01*
X243150Y383650D02*
X248450D01*
X243150Y380850D02*
X248450D01*
X35500Y387500D02*
X66250D01*
X35500Y371500D02*
X66250D01*
X52400Y376800D02*
Y382100D01*
X49600Y376800D02*
Y382100D01*
X75000Y591250D02*
Y622000D01*
X59000Y591250D02*
Y622000D01*
X64300Y605100D02*
X69600D01*
X64300Y607900D02*
X69600D01*
X116750Y591500D02*
Y622250D01*
X132750Y591500D02*
Y622250D01*
X122150Y608400D02*
X127450D01*
X122150Y605600D02*
X127450D01*
X99750Y591250D02*
Y622000D01*
X115750Y591250D02*
Y622000D01*
X105150Y608150D02*
X110450D01*
X105150Y605350D02*
X110450D01*
X192500Y389000D02*
X228500D01*
X192500Y369000D02*
X228500D01*
X212500Y374900D02*
Y383000D01*
X208500Y375000D02*
Y383000D01*
X130750Y825000D02*
Y855750D01*
X146750Y825000D02*
Y855750D01*
X136150Y841900D02*
X141450D01*
X136150Y839100D02*
X141450D01*
X37250Y757750D02*
X68000D01*
X37250Y741750D02*
X68000D01*
X54150Y747050D02*
Y752350D01*
X51350Y747050D02*
Y752350D01*
X38000Y411750D02*
X46000D01*
X38000Y415750D02*
X46100D01*
X52000Y395750D02*
Y431750D01*
X32000Y395750D02*
Y431750D01*
D14*
X385164Y391850D02*
G03*
X385164Y391850I-1414J0D01*
G01*
X509900Y65500D02*
Y117500D01*
X539100Y65500D02*
Y117500D01*
X130950Y760220D02*
Y764240D01*
X130890Y760160D02*
X130950Y760220D01*
X126930Y760160D02*
X130890D01*
X130980Y796240D02*
Y800200D01*
X126900Y800260D02*
X130920D01*
X90900Y760230D02*
Y764190D01*
X90960Y760170D02*
X94980D01*
X90970Y800280D02*
X94930D01*
X90910Y796200D02*
Y800220D01*
X666750Y34320D02*
Y107280D01*
X589370Y34320D02*
X666750D01*
X589370D02*
Y107280D01*
X666750D01*
X210850Y550500D02*
X216250D01*
X76250D02*
X81650D01*
X210850Y410500D02*
X216250D01*
X76250D02*
X81650D01*
X216250Y545100D02*
Y550500D01*
X76250Y545100D02*
Y550500D01*
X216250Y410500D02*
Y415900D01*
X76250Y410500D02*
Y415900D01*
X520250Y365750D02*
X538250Y383750D01*
Y468750D01*
X435250Y383750D02*
Y468750D01*
Y383750D02*
X453250Y365750D01*
X471050D01*
X502450D02*
X520250D01*
X435250Y468750D02*
X471050D01*
X502450D02*
X538250D01*
X345250Y201850D02*
Y398350D01*
Y201850D02*
X405250D01*
Y398350D01*
X345250D02*
X405250D01*
X554500Y745250D02*
X572500Y727250D01*
X469500Y745250D02*
X554500D01*
X469500Y642250D02*
X554500D01*
X572500Y660250D01*
Y678050D01*
Y709450D02*
Y727250D01*
X469500Y642250D02*
Y678050D01*
Y709450D02*
Y745250D01*
X161850Y1069850D02*
X320650D01*
X161850Y1049850D02*
Y1069850D01*
Y920750D02*
Y1049850D01*
Y900750D02*
Y920750D01*
X320650Y900750D02*
Y920750D01*
Y1049850D01*
Y1069850D01*
Y920750D02*
X332050D01*
Y1049850D01*
X320650D02*
X332050D01*
X150450Y920750D02*
X161850D01*
X150450D02*
Y1049850D01*
X161850D01*
X292050Y900750D02*
X320650D01*
X161850D02*
X190450D01*
X190210Y900740D02*
X291910D01*
X190210D02*
Y900760D01*
X271000Y226750D02*
Y301750D01*
X168000Y226750D02*
Y301750D01*
X541000Y851250D02*
X576000D01*
X541000Y838850D02*
Y851250D01*
Y786250D02*
X576000D01*
X541000D02*
Y798650D01*
X570450Y431550D02*
X639050D01*
X570450Y489950D02*
X639050D01*
D15*
X342700Y940250D02*
G03*
X342700Y940250I-2000J0D01*
G01*
D16*
X649430Y434080D02*
G03*
X649430Y434080I-1500J0D01*
G01*
D17*
X361800Y969000D02*
G03*
X361800Y969000I-3000J0D01*
G01*
X478000D02*
G03*
X478000Y969000I-3000J0D01*
G01*
D18*
X337250Y905000D02*
X702500Y905000D01*
X0D02*
X150250D01*
X0Y175000D02*
X702500D01*
D19*
X669770Y501000D02*
Y527900D01*
Y501000D02*
X670000D01*
X669770Y604100D02*
Y631000D01*
X670000D01*
X540230Y501000D02*
Y527900D01*
X540000Y501000D02*
X540230D01*
Y604100D02*
Y631000D01*
X540000D02*
X540230D01*
X540000D02*
X540230D01*
D20*
X540000Y501000D02*
X670000D01*
X540000Y631000D02*
X670000D01*
D21*
X116250Y666249D02*
D03*
D22*
X424750Y784998D02*
D03*
M02*
