G04*
G04 #@! TF.GenerationSoftware,Altium Limited,Altium Designer,20.0.13 (296)*
G04*
G04 Layer_Physical_Order=2*
G04 Layer_Color=36540*
%FSLAX44Y44*%
%MOMM*%
G71*
G01*
G75*
%ADD10C,0.2500*%
%ADD11C,0.2000*%
%ADD17C,0.3000*%
%ADD18C,0.2540*%
%ADD104C,1.0000*%
%ADD105C,1.5000*%
%ADD106R,1.5000X1.5000*%
%ADD107C,1.6000*%
%ADD109O,1.9304X3.8608*%
%ADD112C,1.3980*%
%ADD113C,1.4000*%
%ADD116C,0.8000*%
%ADD117C,0.7000*%
G36*
X698931Y3569D02*
X478289D01*
Y194250D01*
X478134Y195030D01*
X477692Y195692D01*
X420289Y253095D01*
Y328000D01*
X420134Y328780D01*
X419692Y329442D01*
X419030Y329884D01*
X418250Y330039D01*
X359750D01*
X359750Y330039D01*
X358970Y329884D01*
X358308Y329442D01*
X358308Y329442D01*
X301905Y273039D01*
X156000D01*
X155220Y272884D01*
X154558Y272442D01*
X144058Y261942D01*
X143616Y261280D01*
X143461Y260500D01*
Y3569D01*
X3569D01*
Y1076432D01*
X698931D01*
X698931Y3569D01*
D02*
G37*
G36*
X418250Y252250D02*
X476250Y194250D01*
Y3569D01*
X145500D01*
Y260500D01*
X156000Y271000D01*
X302750D01*
X359750Y328000D01*
X418250D01*
Y252250D01*
D02*
G37*
%LPC*%
G36*
X633000Y1066500D02*
X614000D01*
Y1047500D01*
X633000D01*
Y1066500D01*
D02*
G37*
G36*
X648900Y1066582D02*
X646420Y1066255D01*
X644109Y1065298D01*
X642124Y1063775D01*
X640602Y1061791D01*
X639645Y1059480D01*
X639318Y1057000D01*
X639645Y1054520D01*
X640602Y1052209D01*
X642124Y1050225D01*
X644109Y1048702D01*
X646420Y1047745D01*
X648900Y1047418D01*
X651380Y1047745D01*
X653691Y1048702D01*
X655675Y1050225D01*
X657198Y1052209D01*
X658155Y1054520D01*
X658482Y1057000D01*
X658155Y1059480D01*
X657198Y1061791D01*
X655675Y1063775D01*
X653691Y1065298D01*
X651380Y1066255D01*
X648900Y1066582D01*
D02*
G37*
G36*
X108500D02*
X106020Y1066255D01*
X103709Y1065298D01*
X101725Y1063775D01*
X100202Y1061791D01*
X99245Y1059480D01*
X98918Y1057000D01*
X99245Y1054520D01*
X100202Y1052209D01*
X101725Y1050225D01*
X103709Y1048702D01*
X106020Y1047745D01*
X108500Y1047418D01*
X110980Y1047745D01*
X113291Y1048702D01*
X115276Y1050225D01*
X116798Y1052209D01*
X117756Y1054520D01*
X118082Y1057000D01*
X117756Y1059480D01*
X116798Y1061791D01*
X115276Y1063775D01*
X113291Y1065298D01*
X110980Y1066255D01*
X108500Y1066582D01*
D02*
G37*
G36*
X83100D02*
X80620Y1066255D01*
X78309Y1065298D01*
X76325Y1063775D01*
X74802Y1061791D01*
X73845Y1059480D01*
X73518Y1057000D01*
X73845Y1054520D01*
X74802Y1052209D01*
X76325Y1050225D01*
X78309Y1048702D01*
X80620Y1047745D01*
X83100Y1047418D01*
X85580Y1047745D01*
X87891Y1048702D01*
X89876Y1050225D01*
X91398Y1052209D01*
X92356Y1054520D01*
X92682Y1057000D01*
X92356Y1059480D01*
X91398Y1061791D01*
X89876Y1063775D01*
X87891Y1065298D01*
X85580Y1066255D01*
X83100Y1066582D01*
D02*
G37*
G36*
X571100Y1059932D02*
X568620Y1059606D01*
X566309Y1058648D01*
X564324Y1057125D01*
X562802Y1055141D01*
X561844Y1052830D01*
X561518Y1050350D01*
X561844Y1047870D01*
X562802Y1045559D01*
X564324Y1043575D01*
X566309Y1042052D01*
X568620Y1041095D01*
X571100Y1040768D01*
X573580Y1041095D01*
X575891Y1042052D01*
X577875Y1043575D01*
X579398Y1045559D01*
X580355Y1047870D01*
X580682Y1050350D01*
X580355Y1052830D01*
X579398Y1055141D01*
X577875Y1057125D01*
X575891Y1058648D01*
X573580Y1059606D01*
X571100Y1059932D01*
D02*
G37*
G36*
X545700D02*
X543220Y1059606D01*
X540909Y1058648D01*
X538924Y1057125D01*
X537402Y1055141D01*
X536444Y1052830D01*
X536118Y1050350D01*
X536444Y1047870D01*
X537402Y1045559D01*
X538924Y1043575D01*
X540909Y1042052D01*
X543220Y1041095D01*
X545700Y1040768D01*
X548180Y1041095D01*
X550491Y1042052D01*
X552475Y1043575D01*
X553998Y1045559D01*
X554955Y1047870D01*
X555282Y1050350D01*
X554955Y1052830D01*
X553998Y1055141D01*
X552475Y1057125D01*
X550491Y1058648D01*
X548180Y1059606D01*
X545700Y1059932D01*
D02*
G37*
G36*
X520300D02*
X517820Y1059606D01*
X515509Y1058648D01*
X513524Y1057125D01*
X512002Y1055141D01*
X511044Y1052830D01*
X510718Y1050350D01*
X511044Y1047870D01*
X512002Y1045559D01*
X513524Y1043575D01*
X515509Y1042052D01*
X517820Y1041095D01*
X520300Y1040768D01*
X522780Y1041095D01*
X525091Y1042052D01*
X527075Y1043575D01*
X528598Y1045559D01*
X529555Y1047870D01*
X529882Y1050350D01*
X529555Y1052830D01*
X528598Y1055141D01*
X527075Y1057125D01*
X525091Y1058648D01*
X522780Y1059606D01*
X520300Y1059932D01*
D02*
G37*
G36*
X494900D02*
X492420Y1059606D01*
X490109Y1058648D01*
X488124Y1057125D01*
X486602Y1055141D01*
X485644Y1052830D01*
X485318Y1050350D01*
X485644Y1047870D01*
X486602Y1045559D01*
X488124Y1043575D01*
X490109Y1042052D01*
X492420Y1041095D01*
X494900Y1040768D01*
X497380Y1041095D01*
X499691Y1042052D01*
X501675Y1043575D01*
X503198Y1045559D01*
X504155Y1047870D01*
X504482Y1050350D01*
X504155Y1052830D01*
X503198Y1055141D01*
X501675Y1057125D01*
X499691Y1058648D01*
X497380Y1059606D01*
X494900Y1059932D01*
D02*
G37*
G36*
X462600D02*
X460120Y1059606D01*
X457809Y1058648D01*
X455825Y1057125D01*
X454302Y1055141D01*
X453345Y1052830D01*
X453018Y1050350D01*
X453345Y1047870D01*
X454302Y1045559D01*
X455825Y1043575D01*
X457809Y1042052D01*
X460120Y1041095D01*
X462600Y1040768D01*
X465080Y1041095D01*
X467391Y1042052D01*
X469375Y1043575D01*
X470898Y1045559D01*
X471856Y1047870D01*
X472182Y1050350D01*
X471856Y1052830D01*
X470898Y1055141D01*
X469375Y1057125D01*
X467391Y1058648D01*
X465080Y1059606D01*
X462600Y1059932D01*
D02*
G37*
G36*
X437200D02*
X434720Y1059606D01*
X432409Y1058648D01*
X430425Y1057125D01*
X428902Y1055141D01*
X427945Y1052830D01*
X427618Y1050350D01*
X427945Y1047870D01*
X428902Y1045559D01*
X430425Y1043575D01*
X432409Y1042052D01*
X434720Y1041095D01*
X437200Y1040768D01*
X439680Y1041095D01*
X441991Y1042052D01*
X443975Y1043575D01*
X445498Y1045559D01*
X446455Y1047870D01*
X446782Y1050350D01*
X446455Y1052830D01*
X445498Y1055141D01*
X443975Y1057125D01*
X441991Y1058648D01*
X439680Y1059606D01*
X437200Y1059932D01*
D02*
G37*
G36*
X411800D02*
X409320Y1059606D01*
X407009Y1058648D01*
X405025Y1057125D01*
X403502Y1055141D01*
X402545Y1052830D01*
X402218Y1050350D01*
X402545Y1047870D01*
X403502Y1045559D01*
X405025Y1043575D01*
X407009Y1042052D01*
X409320Y1041095D01*
X411800Y1040768D01*
X414280Y1041095D01*
X416591Y1042052D01*
X418576Y1043575D01*
X420098Y1045559D01*
X421055Y1047870D01*
X421382Y1050350D01*
X421055Y1052830D01*
X420098Y1055141D01*
X418576Y1057125D01*
X416591Y1058648D01*
X414280Y1059606D01*
X411800Y1059932D01*
D02*
G37*
G36*
X386400D02*
X383920Y1059606D01*
X381609Y1058648D01*
X379625Y1057125D01*
X378102Y1055141D01*
X377145Y1052830D01*
X376818Y1050350D01*
X377145Y1047870D01*
X378102Y1045559D01*
X379625Y1043575D01*
X381609Y1042052D01*
X383920Y1041095D01*
X386400Y1040768D01*
X388880Y1041095D01*
X391191Y1042052D01*
X393176Y1043575D01*
X394698Y1045559D01*
X395656Y1047870D01*
X395982Y1050350D01*
X395656Y1052830D01*
X394698Y1055141D01*
X393176Y1057125D01*
X391191Y1058648D01*
X388880Y1059606D01*
X386400Y1059932D01*
D02*
G37*
G36*
X109770Y1041559D02*
Y1032870D01*
X118460D01*
X118282Y1034221D01*
X117270Y1036663D01*
X115661Y1038761D01*
X113563Y1040370D01*
X111121Y1041382D01*
X109770Y1041559D01*
D02*
G37*
G36*
X84370D02*
Y1032870D01*
X93060D01*
X92882Y1034221D01*
X91870Y1036663D01*
X90261Y1038761D01*
X88163Y1040370D01*
X85721Y1041382D01*
X84370Y1041559D01*
D02*
G37*
G36*
X650170D02*
Y1032870D01*
X658859D01*
X658681Y1034221D01*
X657670Y1036663D01*
X656060Y1038761D01*
X653963Y1040370D01*
X651521Y1041382D01*
X650170Y1041559D01*
D02*
G37*
G36*
X624770D02*
Y1032870D01*
X633459D01*
X633282Y1034221D01*
X632270Y1036663D01*
X630661Y1038761D01*
X628563Y1040370D01*
X626121Y1041382D01*
X624770Y1041559D01*
D02*
G37*
G36*
X647630D02*
X646279Y1041382D01*
X643837Y1040370D01*
X641739Y1038761D01*
X640130Y1036663D01*
X639118Y1034221D01*
X638941Y1032870D01*
X647630D01*
Y1041559D01*
D02*
G37*
G36*
X622230D02*
X620879Y1041382D01*
X618437Y1040370D01*
X616339Y1038761D01*
X614730Y1036663D01*
X613718Y1034221D01*
X613540Y1032870D01*
X622230D01*
Y1041559D01*
D02*
G37*
G36*
X107230D02*
X105879Y1041382D01*
X103437Y1040370D01*
X101340Y1038761D01*
X99730Y1036663D01*
X98719Y1034221D01*
X98541Y1032870D01*
X107230D01*
Y1041559D01*
D02*
G37*
G36*
X81830D02*
X80479Y1041382D01*
X78037Y1040370D01*
X75940Y1038761D01*
X74330Y1036663D01*
X73319Y1034221D01*
X73141Y1032870D01*
X81830D01*
Y1041559D01*
D02*
G37*
G36*
X118460Y1030330D02*
X109770D01*
Y1021641D01*
X111121Y1021818D01*
X113563Y1022830D01*
X115661Y1024439D01*
X117270Y1026537D01*
X118282Y1028979D01*
X118460Y1030330D01*
D02*
G37*
G36*
X93060D02*
X84370D01*
Y1021641D01*
X85721Y1021818D01*
X88163Y1022830D01*
X90261Y1024439D01*
X91870Y1026537D01*
X92882Y1028979D01*
X93060Y1030330D01*
D02*
G37*
G36*
X658859D02*
X650170D01*
Y1021641D01*
X651521Y1021818D01*
X653963Y1022830D01*
X656060Y1024439D01*
X657670Y1026537D01*
X658681Y1028979D01*
X658859Y1030330D01*
D02*
G37*
G36*
X647630D02*
X638941D01*
X639118Y1028979D01*
X640130Y1026537D01*
X641739Y1024439D01*
X643837Y1022830D01*
X646279Y1021818D01*
X647630Y1021641D01*
Y1030330D01*
D02*
G37*
G36*
X107230D02*
X98541D01*
X98719Y1028979D01*
X99730Y1026537D01*
X101340Y1024439D01*
X103437Y1022830D01*
X105879Y1021818D01*
X107230Y1021641D01*
Y1030330D01*
D02*
G37*
G36*
X81830D02*
X73141D01*
X73319Y1028979D01*
X74330Y1026537D01*
X75940Y1024439D01*
X78037Y1022830D01*
X80479Y1021818D01*
X81830Y1021641D01*
Y1030330D01*
D02*
G37*
G36*
X633459D02*
X623500D01*
X613540D01*
X613718Y1028979D01*
X614730Y1026537D01*
X616339Y1024439D01*
X617787Y1023329D01*
X617356Y1022059D01*
X362672D01*
X361501Y1021826D01*
X360509Y1021163D01*
X360509Y1021163D01*
X348759Y1009413D01*
X348759Y1009413D01*
X348759Y1009413D01*
X347587Y1008241D01*
X346924Y1007249D01*
X346691Y1006078D01*
X346691Y1006078D01*
Y961000D01*
X346691Y961000D01*
X346924Y959829D01*
X347587Y958837D01*
X399941Y906483D01*
Y859174D01*
X165087Y624320D01*
X164424Y623327D01*
X164191Y622157D01*
X164191Y622157D01*
Y520523D01*
X162921Y520138D01*
X162607Y520608D01*
X156903Y526312D01*
X156903Y526312D01*
X146960Y536255D01*
X147108Y537000D01*
X146681Y539146D01*
X145465Y540965D01*
X143646Y542181D01*
X141500Y542608D01*
X139354Y542181D01*
X137535Y540965D01*
X136319Y539146D01*
X135892Y537000D01*
X136319Y534854D01*
X137535Y533035D01*
X139354Y531819D01*
X141500Y531392D01*
X142245Y531540D01*
X152188Y521597D01*
X152188Y521597D01*
X156916Y516869D01*
Y485500D01*
X157170Y484224D01*
X157893Y483143D01*
X165392Y475643D01*
X166474Y474920D01*
X167750Y474666D01*
X184750D01*
X186026Y474920D01*
X187108Y475643D01*
X192358Y480892D01*
X192671Y481362D01*
X193199Y481340D01*
X193941Y480977D01*
Y429017D01*
X192569Y427645D01*
X191500Y427858D01*
X189354Y427431D01*
X187535Y426215D01*
X186319Y424396D01*
X185892Y422250D01*
X186319Y420104D01*
X187535Y418285D01*
X189354Y417069D01*
X191500Y416642D01*
X193646Y417069D01*
X195465Y418285D01*
X196681Y420104D01*
X197108Y422250D01*
X196895Y423319D01*
X198349Y424773D01*
X199535Y425285D01*
X201354Y424069D01*
X203500Y423642D01*
X205646Y424069D01*
X207465Y425285D01*
X208681Y427104D01*
X209108Y429250D01*
X208681Y431396D01*
X207465Y433215D01*
X206559Y433821D01*
Y536983D01*
X265617Y596041D01*
X289734D01*
X290452Y594309D01*
X291975Y592324D01*
X293959Y590802D01*
X296270Y589845D01*
X296390Y589829D01*
X296307Y588559D01*
X277321D01*
X276715Y589465D01*
X274896Y590681D01*
X272750Y591108D01*
X270604Y590681D01*
X268785Y589465D01*
X267569Y587646D01*
X267142Y585500D01*
X267569Y583354D01*
X268785Y581535D01*
X270604Y580319D01*
X272750Y579892D01*
X274896Y580319D01*
X276715Y581535D01*
X277321Y582441D01*
X292450D01*
X292881Y581171D01*
X291975Y580475D01*
X290452Y578491D01*
X289494Y576180D01*
X289168Y573700D01*
X289494Y571220D01*
X290452Y568909D01*
X291975Y566925D01*
X293959Y565402D01*
X296270Y564445D01*
X298750Y564118D01*
X301230Y564445D01*
X303541Y565402D01*
X305525Y566925D01*
X307048Y568909D01*
X308006Y571220D01*
X308332Y573700D01*
X308006Y576180D01*
X307048Y578491D01*
X305525Y580475D01*
X304619Y581171D01*
X305050Y582441D01*
X323483D01*
X329691Y576233D01*
Y491750D01*
X329691Y491750D01*
X329924Y490579D01*
X330587Y489587D01*
X349837Y470337D01*
X349837Y470337D01*
X350830Y469674D01*
X352000Y469441D01*
X352000Y469441D01*
X381750D01*
X381750Y469441D01*
X382920Y469674D01*
X383913Y470337D01*
X396663Y483087D01*
X396663Y483087D01*
X397326Y484079D01*
X397559Y485250D01*
Y680250D01*
X397326Y681421D01*
X396663Y682413D01*
X396663Y682413D01*
X393096Y685980D01*
X393622Y687250D01*
X393838Y687250D01*
X393838Y687250D01*
X393871Y687250D01*
X412900D01*
Y707250D01*
X392900D01*
X392900Y688221D01*
Y688188D01*
D01*
X392900Y687972D01*
X392532Y687819D01*
X391630Y687446D01*
X386421Y692655D01*
X387243Y694640D01*
X387586Y697250D01*
X387243Y699861D01*
X386235Y702293D01*
X384632Y704382D01*
X382543Y705985D01*
X380111Y706993D01*
X377500Y707336D01*
X374889Y706993D01*
X372457Y705985D01*
X370368Y704382D01*
X368765Y702293D01*
X367757Y699861D01*
X367414Y697250D01*
X367757Y694640D01*
X368765Y692207D01*
X370368Y690118D01*
X372457Y688515D01*
X374889Y687507D01*
X377500Y687164D01*
X380111Y687507D01*
X382095Y688329D01*
X391441Y678983D01*
Y486517D01*
X380483Y475559D01*
X353267D01*
X335809Y493017D01*
Y577500D01*
X335576Y578671D01*
X334913Y579663D01*
X326913Y587663D01*
X325920Y588326D01*
X324750Y588559D01*
X324750Y588559D01*
X301193D01*
X301110Y589829D01*
X301230Y589845D01*
X303541Y590802D01*
X305525Y592324D01*
X307048Y594309D01*
X308006Y596620D01*
X308332Y599100D01*
X308006Y601580D01*
X307048Y603891D01*
X305525Y605875D01*
X304488Y606671D01*
X304919Y607941D01*
X322733D01*
X344691Y585983D01*
Y531500D01*
X344691Y531500D01*
X344924Y530330D01*
X345587Y529337D01*
X351587Y523337D01*
X351587Y523337D01*
X352579Y522674D01*
X353750Y522441D01*
X357443D01*
X358265Y520457D01*
X359868Y518368D01*
X361957Y516765D01*
X364390Y515758D01*
X367000Y515414D01*
X369611Y515758D01*
X372043Y516765D01*
X374132Y518368D01*
X375735Y520457D01*
X376743Y522890D01*
X377086Y525500D01*
X376743Y528111D01*
X375735Y530543D01*
X374132Y532632D01*
X372043Y534235D01*
X369611Y535243D01*
X367000Y535586D01*
X364390Y535243D01*
X361957Y534235D01*
X359868Y532632D01*
X358265Y530543D01*
X357443Y528559D01*
X355017D01*
X350809Y532767D01*
Y587250D01*
X350809Y587250D01*
X350576Y588420D01*
X349913Y589413D01*
X326163Y613163D01*
X325171Y613826D01*
X324000Y614059D01*
X324000Y614059D01*
X303097D01*
X302845Y615329D01*
X303813Y615730D01*
X305911Y617339D01*
X307520Y619437D01*
X308532Y621879D01*
X308709Y623230D01*
X298750D01*
X288791D01*
X288968Y621879D01*
X289980Y619437D01*
X291589Y617339D01*
X293687Y615730D01*
X294655Y615329D01*
X294403Y614059D01*
X279571D01*
X278965Y614965D01*
X277146Y616181D01*
X275000Y616608D01*
X272854Y616181D01*
X271035Y614965D01*
X269819Y613146D01*
X269392Y611000D01*
X269819Y608854D01*
X271035Y607035D01*
X272854Y605819D01*
X275000Y605392D01*
X277146Y605819D01*
X278965Y607035D01*
X279571Y607941D01*
X292581D01*
X293012Y606671D01*
X291975Y605875D01*
X290452Y603891D01*
X289734Y602159D01*
X264350D01*
X263179Y601926D01*
X262187Y601263D01*
X201337Y540413D01*
X201329Y540400D01*
X200059Y540786D01*
Y546883D01*
X294538Y641362D01*
X296270Y640645D01*
X298750Y640318D01*
X301230Y640645D01*
X303541Y641602D01*
X305525Y643124D01*
X307048Y645109D01*
X308006Y647420D01*
X308332Y649900D01*
X308006Y652380D01*
X307048Y654691D01*
X305525Y656675D01*
X303541Y658198D01*
X301230Y659156D01*
X298750Y659482D01*
X297126Y659268D01*
X296389Y660452D01*
X296553Y660696D01*
X296806Y661972D01*
Y663853D01*
X296672Y664530D01*
X297515Y665800D01*
X308250D01*
Y684800D01*
X289250D01*
Y670777D01*
X289039Y670461D01*
X288785Y669185D01*
Y665206D01*
X289039Y663930D01*
X289710Y662925D01*
X187642Y560858D01*
X186920Y559776D01*
X186666Y558500D01*
Y504694D01*
X185396Y504568D01*
X185326Y504921D01*
X184663Y505913D01*
X184663Y505913D01*
X176059Y514517D01*
Y620983D01*
X414663Y859587D01*
X414663Y859587D01*
X415326Y860580D01*
X415559Y861750D01*
Y916500D01*
X415326Y917671D01*
X414663Y918663D01*
X414663Y918663D01*
X367559Y965767D01*
Y990483D01*
X380217Y1003141D01*
X614484D01*
X615202Y1001409D01*
X616725Y999425D01*
X618709Y997902D01*
X621020Y996945D01*
X623500Y996618D01*
X625980Y996945D01*
X628291Y997902D01*
X630275Y999425D01*
X631798Y1001409D01*
X632755Y1003720D01*
X633082Y1006200D01*
X632755Y1008680D01*
X631798Y1010991D01*
X630275Y1012975D01*
X628291Y1014498D01*
X627873Y1014671D01*
X628126Y1015941D01*
X634833D01*
X640362Y1010412D01*
X639645Y1008680D01*
X639318Y1006200D01*
X639645Y1003720D01*
X640602Y1001409D01*
X642124Y999425D01*
X644109Y997902D01*
X646420Y996945D01*
X648900Y996618D01*
X651380Y996945D01*
X653691Y997902D01*
X655675Y999425D01*
X657198Y1001409D01*
X658155Y1003720D01*
X658482Y1006200D01*
X658155Y1008680D01*
X657198Y1010991D01*
X655675Y1012975D01*
X653691Y1014498D01*
X651380Y1015455D01*
X648900Y1015782D01*
X646420Y1015455D01*
X644688Y1014738D01*
X638263Y1021163D01*
X637271Y1021826D01*
X636100Y1022059D01*
X636100Y1022059D01*
X629644D01*
X629213Y1023329D01*
X630661Y1024439D01*
X632270Y1026537D01*
X633282Y1028979D01*
X633459Y1030330D01*
D02*
G37*
G36*
X108500Y1015782D02*
X106020Y1015455D01*
X103709Y1014498D01*
X101725Y1012975D01*
X100202Y1010991D01*
X99245Y1008680D01*
X98918Y1006200D01*
X99245Y1003720D01*
X100202Y1001409D01*
X101725Y999425D01*
X103709Y997902D01*
X106020Y996945D01*
X108500Y996618D01*
X110980Y996945D01*
X113291Y997902D01*
X115276Y999425D01*
X116798Y1001409D01*
X117756Y1003720D01*
X118082Y1006200D01*
X117756Y1008680D01*
X116798Y1010991D01*
X115276Y1012975D01*
X113291Y1014498D01*
X110980Y1015455D01*
X108500Y1015782D01*
D02*
G37*
G36*
X83100D02*
X80620Y1015455D01*
X78309Y1014498D01*
X76325Y1012975D01*
X74802Y1010991D01*
X73845Y1008680D01*
X73518Y1006200D01*
X73845Y1003720D01*
X74802Y1001409D01*
X76325Y999425D01*
X78309Y997902D01*
X80620Y996945D01*
X83100Y996618D01*
X85580Y996945D01*
X87891Y997902D01*
X89876Y999425D01*
X91398Y1001409D01*
X92356Y1003720D01*
X92682Y1006200D01*
X92356Y1008680D01*
X91398Y1010991D01*
X89876Y1012975D01*
X87891Y1014498D01*
X85580Y1015455D01*
X83100Y1015782D01*
D02*
G37*
G36*
X298400Y1022088D02*
X294822Y1021736D01*
X291382Y1020692D01*
X288212Y1018998D01*
X285433Y1016717D01*
X283152Y1013938D01*
X281458Y1010768D01*
X280414Y1007328D01*
X280062Y1003750D01*
X280414Y1000172D01*
X281458Y996732D01*
X283152Y993562D01*
X285433Y990783D01*
X288212Y988502D01*
X291382Y986808D01*
X294822Y985764D01*
X298400Y985412D01*
X301978Y985764D01*
X305418Y986808D01*
X308588Y988502D01*
X311367Y990783D01*
X313648Y993562D01*
X315342Y996732D01*
X316386Y1000172D01*
X316738Y1003750D01*
X316386Y1007328D01*
X315342Y1010768D01*
X313648Y1013938D01*
X311367Y1016717D01*
X308588Y1018998D01*
X305418Y1020692D01*
X301978Y1021736D01*
X298400Y1022088D01*
D02*
G37*
G36*
X184100D02*
X180522Y1021736D01*
X177082Y1020692D01*
X173912Y1018998D01*
X171133Y1016717D01*
X168852Y1013938D01*
X167158Y1010768D01*
X166114Y1007328D01*
X165762Y1003750D01*
X166114Y1000172D01*
X167158Y996732D01*
X168852Y993562D01*
X171133Y990783D01*
X173912Y988502D01*
X177082Y986808D01*
X180522Y985764D01*
X184100Y985412D01*
X187678Y985764D01*
X191118Y986808D01*
X194288Y988502D01*
X197067Y990783D01*
X199348Y993562D01*
X201042Y996732D01*
X202086Y1000172D01*
X202438Y1003750D01*
X202086Y1007328D01*
X201042Y1010768D01*
X199348Y1013938D01*
X197067Y1016717D01*
X194288Y1018998D01*
X191118Y1020692D01*
X187678Y1021736D01*
X184100Y1022088D01*
D02*
G37*
G36*
X109770Y990759D02*
Y982070D01*
X118460D01*
X118282Y983421D01*
X117270Y985863D01*
X115661Y987961D01*
X113563Y989570D01*
X111121Y990582D01*
X109770Y990759D01*
D02*
G37*
G36*
X84370D02*
Y982070D01*
X93060D01*
X92882Y983421D01*
X91870Y985863D01*
X90261Y987961D01*
X88163Y989570D01*
X85721Y990582D01*
X84370Y990759D01*
D02*
G37*
G36*
X650170D02*
Y982070D01*
X658859D01*
X658681Y983421D01*
X657670Y985863D01*
X656060Y987961D01*
X653963Y989570D01*
X651521Y990582D01*
X650170Y990759D01*
D02*
G37*
G36*
X624770D02*
Y982070D01*
X633459D01*
X633282Y983421D01*
X632270Y985863D01*
X630661Y987961D01*
X628563Y989570D01*
X626121Y990582D01*
X624770Y990759D01*
D02*
G37*
G36*
X647630D02*
X646279Y990582D01*
X643837Y989570D01*
X641739Y987961D01*
X640130Y985863D01*
X639118Y983421D01*
X638941Y982070D01*
X647630D01*
Y990759D01*
D02*
G37*
G36*
X622230D02*
X620879Y990582D01*
X618437Y989570D01*
X616339Y987961D01*
X614730Y985863D01*
X613718Y983421D01*
X613540Y982070D01*
X622230D01*
Y990759D01*
D02*
G37*
G36*
X107230D02*
X105879Y990582D01*
X103437Y989570D01*
X101340Y987961D01*
X99730Y985863D01*
X98719Y983421D01*
X98541Y982070D01*
X107230D01*
Y990759D01*
D02*
G37*
G36*
X81830D02*
X80479Y990582D01*
X78037Y989570D01*
X75940Y987961D01*
X74330Y985863D01*
X73319Y983421D01*
X73141Y982070D01*
X81830D01*
Y990759D01*
D02*
G37*
G36*
X118460Y979530D02*
X109770D01*
Y970841D01*
X111121Y971018D01*
X113563Y972030D01*
X115661Y973639D01*
X117270Y975737D01*
X118282Y978179D01*
X118460Y979530D01*
D02*
G37*
G36*
X93060D02*
X84370D01*
Y970841D01*
X85721Y971018D01*
X88163Y972030D01*
X90261Y973639D01*
X91870Y975737D01*
X92882Y978179D01*
X93060Y979530D01*
D02*
G37*
G36*
X658859D02*
X650170D01*
Y970841D01*
X651521Y971018D01*
X653963Y972030D01*
X656060Y973639D01*
X657670Y975737D01*
X658681Y978179D01*
X658859Y979530D01*
D02*
G37*
G36*
X633459D02*
X624770D01*
Y970841D01*
X626121Y971018D01*
X628563Y972030D01*
X630661Y973639D01*
X632270Y975737D01*
X633282Y978179D01*
X633459Y979530D01*
D02*
G37*
G36*
X647630D02*
X638941D01*
X639118Y978179D01*
X640130Y975737D01*
X641739Y973639D01*
X643837Y972030D01*
X646279Y971018D01*
X647630Y970841D01*
Y979530D01*
D02*
G37*
G36*
X622230D02*
X613540D01*
X613718Y978179D01*
X614730Y975737D01*
X616339Y973639D01*
X618437Y972030D01*
X620879Y971018D01*
X622230Y970841D01*
Y979530D01*
D02*
G37*
G36*
X107230D02*
X98541D01*
X98719Y978179D01*
X99730Y975737D01*
X101340Y973639D01*
X103437Y972030D01*
X105879Y971018D01*
X107230Y970841D01*
Y979530D01*
D02*
G37*
G36*
X81830D02*
X73141D01*
X73319Y978179D01*
X74330Y975737D01*
X75940Y973639D01*
X78037Y972030D01*
X80479Y971018D01*
X81830Y970841D01*
Y979530D01*
D02*
G37*
G36*
X395900Y983650D02*
X376900D01*
Y964650D01*
X395900D01*
Y983650D01*
D02*
G37*
G36*
X462600Y983732D02*
X460120Y983406D01*
X457809Y982448D01*
X455825Y980926D01*
X454302Y978941D01*
X453345Y976630D01*
X453018Y974150D01*
X453345Y971670D01*
X454302Y969359D01*
X455825Y967375D01*
X457809Y965852D01*
X460120Y964895D01*
X462600Y964568D01*
X465080Y964895D01*
X467391Y965852D01*
X469375Y967375D01*
X470898Y969359D01*
X471856Y971670D01*
X472182Y974150D01*
X471856Y976630D01*
X470898Y978941D01*
X469375Y980926D01*
X467391Y982448D01*
X465080Y983406D01*
X462600Y983732D01*
D02*
G37*
G36*
X437200D02*
X434720Y983406D01*
X432409Y982448D01*
X430425Y980926D01*
X428902Y978941D01*
X427945Y976630D01*
X427618Y974150D01*
X427945Y971670D01*
X428902Y969359D01*
X430425Y967375D01*
X432409Y965852D01*
X434720Y964895D01*
X437200Y964568D01*
X439680Y964895D01*
X441991Y965852D01*
X443975Y967375D01*
X445498Y969359D01*
X446455Y971670D01*
X446782Y974150D01*
X446455Y976630D01*
X445498Y978941D01*
X443975Y980926D01*
X441991Y982448D01*
X439680Y983406D01*
X437200Y983732D01*
D02*
G37*
G36*
X411800D02*
X409320Y983406D01*
X407009Y982448D01*
X405025Y980926D01*
X403502Y978941D01*
X402545Y976630D01*
X402218Y974150D01*
X402545Y971670D01*
X403502Y969359D01*
X405025Y967375D01*
X407009Y965852D01*
X409320Y964895D01*
X411800Y964568D01*
X414280Y964895D01*
X416591Y965852D01*
X418576Y967375D01*
X420098Y969359D01*
X421055Y971670D01*
X421382Y974150D01*
X421055Y976630D01*
X420098Y978941D01*
X418576Y980926D01*
X416591Y982448D01*
X414280Y983406D01*
X411800Y983732D01*
D02*
G37*
G36*
X648900Y964982D02*
X646420Y964655D01*
X644109Y963698D01*
X642496Y962460D01*
X629904D01*
X628291Y963698D01*
X625980Y964655D01*
X623500Y964982D01*
X621020Y964655D01*
X618709Y963698D01*
X616725Y962175D01*
X615202Y960191D01*
X614244Y957880D01*
X613918Y955400D01*
X614244Y952920D01*
X615202Y950609D01*
X616725Y948624D01*
X618709Y947102D01*
X621020Y946144D01*
X623500Y945818D01*
X625980Y946144D01*
X628291Y947102D01*
X629904Y948340D01*
X642496D01*
X644109Y947102D01*
X646420Y946144D01*
X648900Y945818D01*
X651380Y946144D01*
X653691Y947102D01*
X655675Y948624D01*
X657198Y950609D01*
X658155Y952920D01*
X658482Y955400D01*
X658155Y957880D01*
X657198Y960191D01*
X655675Y962175D01*
X653691Y963698D01*
X651380Y964655D01*
X648900Y964982D01*
D02*
G37*
G36*
X118000Y964900D02*
X99000D01*
Y945900D01*
X118000D01*
Y964900D01*
D02*
G37*
G36*
X83100Y964982D02*
X80620Y964655D01*
X78309Y963698D01*
X76325Y962175D01*
X74802Y960191D01*
X73845Y957880D01*
X73518Y955400D01*
X73845Y952920D01*
X74802Y950609D01*
X76325Y948624D01*
X78309Y947102D01*
X80620Y946144D01*
X83100Y945818D01*
X85580Y946144D01*
X87891Y947102D01*
X89876Y948624D01*
X91398Y950609D01*
X92356Y952920D01*
X92682Y955400D01*
X92356Y957880D01*
X91398Y960191D01*
X89876Y962175D01*
X87891Y963698D01*
X85580Y964655D01*
X83100Y964982D01*
D02*
G37*
G36*
X294690Y949240D02*
X276710D01*
Y931260D01*
X294690D01*
Y949240D01*
D02*
G37*
G36*
X273000Y923918D02*
X270653Y923609D01*
X268466Y922703D01*
X266588Y921262D01*
X265147Y919384D01*
X264241Y917197D01*
X263932Y914850D01*
X264241Y912503D01*
X265147Y910316D01*
X266588Y908438D01*
X268466Y906997D01*
X270653Y906091D01*
X273000Y905782D01*
X275347Y906091D01*
X277534Y906997D01*
X279412Y908438D01*
X280853Y910316D01*
X281759Y912503D01*
X282068Y914850D01*
X281759Y917197D01*
X280853Y919384D01*
X279412Y921262D01*
X277534Y922703D01*
X275347Y923609D01*
X273000Y923918D01*
D02*
G37*
G36*
X247600D02*
X245253Y923609D01*
X243066Y922703D01*
X241188Y921262D01*
X239747Y919384D01*
X238841Y917197D01*
X238532Y914850D01*
X238841Y912503D01*
X239747Y910316D01*
X241188Y908438D01*
X243066Y906997D01*
X245253Y906091D01*
X247600Y905782D01*
X249947Y906091D01*
X252134Y906997D01*
X254012Y908438D01*
X255453Y910316D01*
X256359Y912503D01*
X256668Y914850D01*
X256359Y917197D01*
X255453Y919384D01*
X254012Y921262D01*
X252134Y922703D01*
X249947Y923609D01*
X247600Y923918D01*
D02*
G37*
G36*
X196800D02*
X194453Y923609D01*
X192266Y922703D01*
X190388Y921262D01*
X188947Y919384D01*
X188041Y917197D01*
X187732Y914850D01*
X188041Y912503D01*
X188947Y910316D01*
X190388Y908438D01*
X192266Y906997D01*
X194453Y906091D01*
X196800Y905782D01*
X199147Y906091D01*
X201334Y906997D01*
X203212Y908438D01*
X204653Y910316D01*
X205559Y912503D01*
X205868Y914850D01*
X205559Y917197D01*
X204653Y919384D01*
X203212Y921262D01*
X201334Y922703D01*
X199147Y923609D01*
X196800Y923918D01*
D02*
G37*
G36*
X351000Y911608D02*
X348854Y911181D01*
X347035Y909965D01*
X345819Y908146D01*
X345392Y906000D01*
X345605Y904931D01*
X300733Y860059D01*
X131750D01*
X130580Y859826D01*
X129587Y859163D01*
X129587Y859163D01*
X104312Y833888D01*
X103649Y832896D01*
X103416Y831725D01*
X103416Y831725D01*
Y829930D01*
X102310Y829190D01*
X101094Y827371D01*
X100667Y825225D01*
X101094Y823079D01*
X102310Y821260D01*
X104129Y820044D01*
X106275Y819617D01*
X108421Y820044D01*
X110240Y821260D01*
X111456Y823079D01*
X111538Y823493D01*
X112833D01*
X113119Y822054D01*
X114335Y820235D01*
X116154Y819019D01*
X118300Y818592D01*
X120446Y819019D01*
X122265Y820235D01*
X123481Y822054D01*
X123908Y824200D01*
X123695Y825269D01*
X142867Y844441D01*
X312000D01*
X312000Y844441D01*
X313171Y844674D01*
X314163Y845337D01*
X357767Y888941D01*
X375329D01*
X375935Y888035D01*
X377754Y886819D01*
X379900Y886392D01*
X382046Y886819D01*
X383865Y888035D01*
X385081Y889854D01*
X385508Y892000D01*
X385081Y894146D01*
X383865Y895965D01*
X382046Y897181D01*
X379900Y897608D01*
X377754Y897181D01*
X375935Y895965D01*
X375329Y895059D01*
X356500D01*
X356500Y895059D01*
X355330Y894826D01*
X354337Y894163D01*
X310733Y850559D01*
X141600D01*
X141600Y850559D01*
X140429Y850326D01*
X139437Y849663D01*
X139437Y849663D01*
X119369Y829595D01*
X118300Y829808D01*
X116154Y829381D01*
X114335Y828165D01*
X113119Y826346D01*
X113037Y825932D01*
X111742D01*
X111456Y827371D01*
X110240Y829190D01*
X109972Y829370D01*
X109868Y830792D01*
X133017Y853941D01*
X302000D01*
X302000Y853941D01*
X303171Y854174D01*
X304163Y854837D01*
X349931Y900605D01*
X351000Y900392D01*
X353146Y900819D01*
X354965Y902035D01*
X356181Y903854D01*
X356608Y906000D01*
X356181Y908146D01*
X354965Y909965D01*
X353146Y911181D01*
X351000Y911608D01*
D02*
G37*
G36*
X295674Y966984D02*
X231826D01*
X230558Y966731D01*
X229483Y966013D01*
X217407Y953937D01*
X216689Y952862D01*
X216436Y951594D01*
Y947860D01*
X215166Y947234D01*
X214034Y948103D01*
X211847Y949009D01*
X209500Y949318D01*
X207153Y949009D01*
X204966Y948103D01*
X203088Y946662D01*
X201647Y944784D01*
X200741Y942597D01*
X200432Y940250D01*
X200741Y937903D01*
X201647Y935716D01*
X203088Y933838D01*
X204966Y932397D01*
X207153Y931491D01*
X209500Y931182D01*
X211847Y931491D01*
X214034Y932397D01*
X215315Y933380D01*
X216076Y933273D01*
X216618Y933016D01*
X216733Y932915D01*
X217407Y931907D01*
X218186Y931127D01*
Y922918D01*
X217666Y922703D01*
X215788Y921262D01*
X214347Y919384D01*
X213441Y917197D01*
X213132Y914850D01*
X213441Y912503D01*
X214347Y910316D01*
X215788Y908438D01*
X217666Y906997D01*
X219853Y906091D01*
X222200Y905782D01*
X224547Y906091D01*
X226734Y906997D01*
X228612Y908438D01*
X230053Y910316D01*
X230959Y912503D01*
X231268Y914850D01*
X230959Y917197D01*
X230053Y919384D01*
X228612Y921262D01*
X226734Y922703D01*
X224814Y923498D01*
Y929509D01*
X225987Y929995D01*
X228315Y927667D01*
X229390Y926949D01*
X230658Y926696D01*
X250060D01*
X251328Y926949D01*
X252403Y927667D01*
X256733Y931997D01*
X257953Y931491D01*
X260300Y931182D01*
X262647Y931491D01*
X264834Y932397D01*
X266712Y933838D01*
X268153Y935716D01*
X269059Y937903D01*
X269368Y940250D01*
X269059Y942597D01*
X268153Y944784D01*
X266712Y946662D01*
X264834Y948103D01*
X262647Y949009D01*
X260300Y949318D01*
X257953Y949009D01*
X255766Y948103D01*
X253888Y946662D01*
X252447Y944784D01*
X251541Y942597D01*
X251232Y940250D01*
X251541Y937903D01*
X252047Y936683D01*
X248687Y933324D01*
X242518D01*
X241891Y934594D01*
X242753Y935716D01*
X243659Y937903D01*
X243968Y940250D01*
X243659Y942597D01*
X242753Y944784D01*
X241312Y946662D01*
X239434Y948103D01*
X237247Y949009D01*
X234900Y949318D01*
X232553Y949009D01*
X230366Y948103D01*
X230164Y947948D01*
X228787Y948492D01*
X228717Y948917D01*
X235236Y955436D01*
X292264D01*
X306666Y941033D01*
Y898092D01*
X305854Y897931D01*
X304035Y896715D01*
X302819Y894896D01*
X302392Y892750D01*
X302819Y890604D01*
X304035Y888785D01*
X305854Y887569D01*
X308000Y887142D01*
X310146Y887569D01*
X311649Y888573D01*
X312500Y888703D01*
X313351Y888573D01*
X314854Y887569D01*
X317000Y887142D01*
X319146Y887569D01*
X320965Y888785D01*
X322181Y890604D01*
X322608Y892750D01*
X322181Y894896D01*
X320965Y896715D01*
X319146Y897931D01*
X318334Y898092D01*
Y942576D01*
X318214Y943179D01*
Y944444D01*
X317961Y945712D01*
X317243Y946787D01*
X298017Y966013D01*
X296942Y966731D01*
X296732Y966773D01*
X295674Y966984D01*
D02*
G37*
G36*
X141750Y877858D02*
X139604Y877431D01*
X137785Y876215D01*
X136569Y874396D01*
X136142Y872250D01*
X136569Y870104D01*
X137785Y868285D01*
X139604Y867069D01*
X141750Y866642D01*
X143896Y867069D01*
X145715Y868285D01*
X146931Y870104D01*
X147358Y872250D01*
X146931Y874396D01*
X145715Y876215D01*
X143896Y877431D01*
X141750Y877858D01*
D02*
G37*
G36*
X508250Y893039D02*
X470000D01*
X469220Y892884D01*
X468558Y892442D01*
X468116Y891780D01*
X467961Y891000D01*
Y867000D01*
X468116Y866220D01*
X468558Y865558D01*
X469220Y865116D01*
X470000Y864961D01*
X508250D01*
X509030Y865116D01*
X509692Y865558D01*
X510134Y866220D01*
X510289Y867000D01*
Y891000D01*
X510134Y891780D01*
X509692Y892442D01*
X509030Y892884D01*
X508250Y893039D01*
D02*
G37*
G36*
X571100Y983732D02*
X568620Y983406D01*
X566309Y982448D01*
X564324Y980926D01*
X562802Y978941D01*
X561844Y976630D01*
X561518Y974150D01*
X561844Y971670D01*
X562802Y969359D01*
X564324Y967375D01*
X566309Y965852D01*
X568041Y965134D01*
Y846867D01*
X549932Y828758D01*
X548759Y829244D01*
Y965134D01*
X550491Y965852D01*
X552475Y967375D01*
X553998Y969359D01*
X554955Y971670D01*
X555282Y974150D01*
X554955Y976630D01*
X553998Y978941D01*
X552475Y980926D01*
X550491Y982448D01*
X548180Y983406D01*
X545700Y983732D01*
X543220Y983406D01*
X540909Y982448D01*
X538924Y980926D01*
X537402Y978941D01*
X536444Y976630D01*
X536118Y974150D01*
X536444Y971670D01*
X537402Y969359D01*
X538924Y967375D01*
X540909Y965852D01*
X542641Y965134D01*
Y827124D01*
X540982Y825465D01*
X539809Y825951D01*
Y906000D01*
X539576Y907170D01*
X538913Y908163D01*
X523358Y923717D01*
Y965134D01*
X525091Y965852D01*
X527075Y967375D01*
X528598Y969359D01*
X529555Y971670D01*
X529882Y974150D01*
X529555Y976630D01*
X528598Y978941D01*
X527075Y980926D01*
X525091Y982448D01*
X522780Y983406D01*
X520300Y983732D01*
X517820Y983406D01*
X515509Y982448D01*
X513524Y980926D01*
X512002Y978941D01*
X511044Y976630D01*
X510718Y974150D01*
X511044Y971670D01*
X512002Y969359D01*
X513524Y967375D01*
X515509Y965852D01*
X517241Y965134D01*
Y922450D01*
X517241Y922450D01*
X517474Y921280D01*
X518137Y920287D01*
X533691Y904733D01*
Y823831D01*
X529482Y819622D01*
X528309Y820108D01*
Y900000D01*
X528076Y901171D01*
X527413Y902163D01*
X497958Y931617D01*
Y964650D01*
X504400D01*
Y983650D01*
X485400D01*
Y964650D01*
X491841D01*
Y930350D01*
X491841Y930350D01*
X492074Y929180D01*
X492737Y928187D01*
X522191Y898733D01*
Y818267D01*
X451837Y747913D01*
X451174Y746920D01*
X450941Y745750D01*
X450941Y745750D01*
Y513267D01*
X250983Y313309D01*
X207267D01*
X188059Y332517D01*
Y359750D01*
X188059Y359750D01*
X187826Y360920D01*
X187163Y361913D01*
X162413Y386663D01*
X161420Y387326D01*
X160250Y387559D01*
X160250Y387559D01*
X137750D01*
X136580Y387326D01*
X135587Y386663D01*
X135587Y386663D01*
X128337Y379413D01*
X127674Y378420D01*
X127441Y377250D01*
X127441Y377250D01*
Y375784D01*
X126171Y375105D01*
X125571Y375506D01*
X123425Y375933D01*
X121279Y375506D01*
X119459Y374291D01*
X118244Y372471D01*
X117817Y370325D01*
X118083Y368988D01*
X117015Y367906D01*
X116000Y368108D01*
X114100Y367730D01*
X113346Y368233D01*
X112984Y368627D01*
X113108Y369250D01*
X112681Y371396D01*
X111465Y373215D01*
X109646Y374431D01*
X107500Y374858D01*
X105354Y374431D01*
X103690Y373319D01*
X102925Y373452D01*
X102322Y373686D01*
X102181Y374396D01*
X100965Y376215D01*
X99146Y377431D01*
X97000Y377858D01*
X94854Y377431D01*
X93035Y376215D01*
X91819Y374396D01*
X91392Y372250D01*
X91819Y370104D01*
X93035Y368285D01*
X94854Y367069D01*
X97000Y366642D01*
X99146Y367069D01*
X100810Y368181D01*
X101575Y368048D01*
X102178Y367814D01*
X102319Y367104D01*
X103535Y365285D01*
X105354Y364069D01*
X107500Y363642D01*
X109400Y364020D01*
X110154Y363517D01*
X110516Y363123D01*
X110392Y362500D01*
X110819Y360354D01*
X112035Y358535D01*
X113854Y357319D01*
X116000Y356892D01*
X118146Y357319D01*
X119148Y357989D01*
X119495Y357922D01*
X120473Y357346D01*
X120819Y355604D01*
X122035Y353785D01*
X123854Y352569D01*
X126000Y352142D01*
X128146Y352569D01*
X129676Y353591D01*
X130591Y352676D01*
X129569Y351146D01*
X129142Y349000D01*
X129569Y346854D01*
X130785Y345035D01*
X132604Y343819D01*
X134750Y343392D01*
X136896Y343819D01*
X138715Y345035D01*
X139931Y346854D01*
X140358Y349000D01*
X139931Y351146D01*
X138715Y352965D01*
X138434Y353153D01*
X138469Y353801D01*
X139777Y354455D01*
X140354Y354069D01*
X142500Y353642D01*
X144646Y354069D01*
X146465Y355285D01*
X147681Y357104D01*
X148108Y359250D01*
X147681Y361396D01*
X147324Y361931D01*
X148087Y363074D01*
X149000Y362892D01*
X150069Y363105D01*
X162691Y350483D01*
Y315750D01*
X162691Y315750D01*
X162924Y314580D01*
X163587Y313587D01*
X193837Y283337D01*
X193837Y283337D01*
X194830Y282674D01*
X196000Y282441D01*
X196000Y282441D01*
X244470D01*
X244471Y282441D01*
X245641Y282674D01*
X246633Y283337D01*
X468413Y505117D01*
X468413Y505117D01*
X469076Y506109D01*
X469309Y507280D01*
Y739483D01*
X573263Y843437D01*
X573263Y843437D01*
X573926Y844429D01*
X574159Y845600D01*
Y965134D01*
X575891Y965852D01*
X577875Y967375D01*
X579398Y969359D01*
X580355Y971670D01*
X580682Y974150D01*
X580355Y976630D01*
X579398Y978941D01*
X577875Y980926D01*
X575891Y982448D01*
X573580Y983406D01*
X571100Y983732D01*
D02*
G37*
G36*
X163250Y825858D02*
X161104Y825431D01*
X159285Y824215D01*
X158069Y822396D01*
X157642Y820250D01*
X158069Y818104D01*
X159285Y816285D01*
X161104Y815069D01*
X163250Y814642D01*
X165396Y815069D01*
X167215Y816285D01*
X168431Y818104D01*
X168858Y820250D01*
X168431Y822396D01*
X167215Y824215D01*
X165396Y825431D01*
X163250Y825858D01*
D02*
G37*
G36*
X245247Y760861D02*
X243101Y760434D01*
X241282Y759218D01*
X240066Y757399D01*
X239639Y755253D01*
X240066Y753107D01*
X241282Y751288D01*
X243101Y750072D01*
X243915Y749910D01*
Y746973D01*
X226150Y729209D01*
X187342D01*
X187181Y730021D01*
X185965Y731840D01*
X184146Y733056D01*
X182000Y733483D01*
X179854Y733056D01*
X178035Y731840D01*
X176819Y730021D01*
X176392Y727875D01*
X176819Y725729D01*
X177823Y724226D01*
X177953Y723375D01*
X177823Y722524D01*
X176819Y721021D01*
X176392Y718875D01*
X176819Y716729D01*
X178035Y714910D01*
X179854Y713694D01*
X182000Y713267D01*
X184146Y713694D01*
X185965Y714910D01*
X187181Y716729D01*
X187342Y717541D01*
X229610D01*
X230878Y717794D01*
X231953Y718512D01*
X254612Y741170D01*
X255330Y742245D01*
X255582Y743513D01*
Y749907D01*
X256396Y750069D01*
X258215Y751285D01*
X259431Y753104D01*
X259858Y755250D01*
X259431Y757396D01*
X258215Y759215D01*
X256396Y760431D01*
X254250Y760858D01*
X252104Y760431D01*
X250285Y759215D01*
X248899Y759427D01*
X247393Y760434D01*
X245247Y760861D01*
D02*
G37*
G36*
X42500Y740358D02*
X40354Y739931D01*
X38535Y738715D01*
X37319Y736896D01*
X36892Y734750D01*
X37319Y732604D01*
X38535Y730785D01*
X40354Y729569D01*
X42500Y729142D01*
X44646Y729569D01*
X46465Y730785D01*
X47681Y732604D01*
X48108Y734750D01*
X47681Y736896D01*
X46465Y738715D01*
X44646Y739931D01*
X42500Y740358D01*
D02*
G37*
G36*
X652000Y729000D02*
X634000D01*
Y711000D01*
X652000D01*
Y729000D01*
D02*
G37*
G36*
X353370Y707714D02*
Y698520D01*
X362564D01*
X362369Y700002D01*
X361307Y702565D01*
X359617Y704767D01*
X357416Y706457D01*
X354851Y707519D01*
X353370Y707714D01*
D02*
G37*
G36*
X350830Y707714D02*
X349348Y707519D01*
X346785Y706457D01*
X344583Y704767D01*
X342893Y702565D01*
X341831Y700002D01*
X341636Y698520D01*
X350830D01*
Y707714D01*
D02*
G37*
G36*
Y695980D02*
X341636D01*
X341831Y694499D01*
X342893Y691935D01*
X344583Y689733D01*
X346785Y688043D01*
X349348Y686981D01*
X350830Y686786D01*
Y695980D01*
D02*
G37*
G36*
X362564D02*
X353370D01*
Y686786D01*
X354851Y686981D01*
X357416Y688043D01*
X359617Y689733D01*
X361307Y691935D01*
X362369Y694499D01*
X362564Y695980D01*
D02*
G37*
G36*
X162500Y685608D02*
X160354Y685181D01*
X158535Y683965D01*
X157319Y682146D01*
X156892Y680000D01*
X157319Y677854D01*
X158535Y676035D01*
X160354Y674819D01*
X162500Y674392D01*
X164646Y674819D01*
X166465Y676035D01*
X167681Y677854D01*
X168108Y680000D01*
X167681Y682146D01*
X166465Y683965D01*
X164646Y685181D01*
X162500Y685608D01*
D02*
G37*
G36*
X644270Y679455D02*
Y671270D01*
X652455D01*
X652294Y672490D01*
X651333Y674811D01*
X649804Y676804D01*
X647811Y678333D01*
X645490Y679294D01*
X644270Y679455D01*
D02*
G37*
G36*
X641730Y679455D02*
X640510Y679294D01*
X638189Y678333D01*
X636196Y676804D01*
X634667Y674811D01*
X633706Y672490D01*
X633545Y671270D01*
X641730D01*
Y679455D01*
D02*
G37*
G36*
Y668730D02*
X633545D01*
X633706Y667509D01*
X634667Y665189D01*
X636196Y663196D01*
X638189Y661667D01*
X640510Y660705D01*
X641730Y660545D01*
Y668730D01*
D02*
G37*
G36*
X652455D02*
X644270D01*
Y660545D01*
X645490Y660705D01*
X647811Y661667D01*
X649804Y663196D01*
X651333Y665189D01*
X652294Y667509D01*
X652455Y668730D01*
D02*
G37*
G36*
X213000Y646108D02*
X210854Y645681D01*
X209035Y644465D01*
X207819Y642646D01*
X207392Y640500D01*
X207819Y638354D01*
X209035Y636535D01*
X210854Y635319D01*
X213000Y634892D01*
X215146Y635319D01*
X216965Y636535D01*
X218181Y638354D01*
X218608Y640500D01*
X218181Y642646D01*
X216965Y644465D01*
X215146Y645681D01*
X213000Y646108D01*
D02*
G37*
G36*
X300020Y634459D02*
Y625770D01*
X308709D01*
X308532Y627121D01*
X307520Y629563D01*
X305911Y631661D01*
X303813Y633270D01*
X301371Y634282D01*
X300020Y634459D01*
D02*
G37*
G36*
X297480D02*
X296129Y634282D01*
X293687Y633270D01*
X291589Y631661D01*
X289980Y629563D01*
X288968Y627121D01*
X288791Y625770D01*
X297480D01*
Y634459D01*
D02*
G37*
G36*
X49721Y604579D02*
X47575Y604152D01*
X45756Y602937D01*
X44540Y601117D01*
X44113Y598971D01*
X44540Y596825D01*
X45756Y595006D01*
X47575Y593790D01*
X49721Y593363D01*
X51867Y593790D01*
X53686Y595006D01*
X54902Y596825D01*
X55329Y598971D01*
X54902Y601117D01*
X53686Y602937D01*
X51867Y604152D01*
X49721Y604579D01*
D02*
G37*
G36*
X127000Y750608D02*
X124854Y750181D01*
X123035Y748965D01*
X121819Y747146D01*
X121392Y745000D01*
X121819Y742854D01*
X123035Y741035D01*
X124854Y739819D01*
X127000Y739392D01*
X128069Y739605D01*
X146691Y720983D01*
Y566767D01*
X141079Y561155D01*
X139809Y561681D01*
Y719000D01*
X139809Y719000D01*
X139576Y720171D01*
X138913Y721163D01*
X135288Y724788D01*
X134296Y725451D01*
X133125Y725684D01*
X133125Y725684D01*
X126448D01*
X125840Y726595D01*
X124021Y727811D01*
X121875Y728237D01*
X120184Y727901D01*
X119063Y728777D01*
X119108Y729000D01*
X118681Y731146D01*
X117465Y732965D01*
X115646Y734181D01*
X113500Y734608D01*
X111354Y734181D01*
X109535Y732965D01*
X108579Y731535D01*
X107309Y731920D01*
Y738500D01*
X107076Y739670D01*
X106413Y740663D01*
X100913Y746163D01*
X99921Y746826D01*
X98750Y747059D01*
X98750Y747059D01*
X77500D01*
X77500Y747059D01*
X76329Y746826D01*
X75337Y746163D01*
X34087Y704913D01*
X33424Y703921D01*
X33191Y702750D01*
X33191Y702750D01*
Y579500D01*
X33191Y579500D01*
X33424Y578330D01*
X34087Y577337D01*
X50587Y560837D01*
X50587Y560837D01*
X51580Y560174D01*
X52750Y559941D01*
X52750Y559941D01*
X90500D01*
X90500Y559941D01*
X91671Y560174D01*
X92663Y560837D01*
X98913Y567087D01*
X98913Y567087D01*
X99576Y568079D01*
X99809Y569250D01*
X99809Y569250D01*
Y582012D01*
X100965Y582785D01*
X102181Y584604D01*
X102608Y586750D01*
X102181Y588896D01*
X100965Y590715D01*
X99146Y591931D01*
X97000Y592358D01*
X94854Y591931D01*
X93035Y590715D01*
X91819Y588896D01*
X91392Y586750D01*
X91819Y584604D01*
X93035Y582785D01*
X93691Y582346D01*
Y570517D01*
X89233Y566059D01*
X54017D01*
X39309Y580767D01*
Y609549D01*
X40401Y609975D01*
X40579Y610000D01*
X41907Y608981D01*
X43498Y608322D01*
X45171Y608102D01*
X45205Y608095D01*
X68460D01*
Y608061D01*
X68776Y607930D01*
X68907Y607614D01*
X68941D01*
Y585250D01*
X68941Y585250D01*
X69174Y584080D01*
X69837Y583087D01*
X76605Y576319D01*
X76392Y575250D01*
X76819Y573104D01*
X78035Y571285D01*
X79854Y570069D01*
X82000Y569642D01*
X84146Y570069D01*
X85965Y571285D01*
X87181Y573104D01*
X87608Y575250D01*
X87181Y577396D01*
X85965Y579215D01*
X84146Y580431D01*
X82000Y580858D01*
X80931Y580645D01*
X75059Y586517D01*
Y594840D01*
X76198Y595401D01*
X76242Y595367D01*
X77833Y594709D01*
X79505Y594488D01*
X79540Y594481D01*
X79995Y593883D01*
X79775Y592376D01*
X79535Y592215D01*
X78319Y590396D01*
X77892Y588250D01*
X78319Y586104D01*
X79535Y584285D01*
X81354Y583069D01*
X83500Y582642D01*
X85646Y583069D01*
X87465Y584285D01*
X88681Y586104D01*
X89108Y588250D01*
X88681Y590396D01*
X87465Y592215D01*
X86559Y592821D01*
Y594000D01*
X86552Y594035D01*
X86332Y595707D01*
X85673Y597298D01*
X84624Y598665D01*
X83258Y599713D01*
X81667Y600372D01*
X81954Y601561D01*
X105360D01*
X105395Y601568D01*
X107067Y601788D01*
X108658Y602447D01*
X108897Y602631D01*
X110444Y602217D01*
X110727Y601532D01*
X111776Y600166D01*
X113142Y599118D01*
X114733Y598459D01*
X116405Y598238D01*
X116440Y598232D01*
X122960D01*
Y598197D01*
X123276Y598066D01*
X123407Y597750D01*
X123441D01*
Y582738D01*
X122285Y581965D01*
X121069Y580146D01*
X120642Y578000D01*
X121069Y575854D01*
X122285Y574035D01*
X124104Y572819D01*
X126250Y572392D01*
X128396Y572819D01*
X128571Y572936D01*
X129691Y572337D01*
Y571017D01*
X117712Y559038D01*
X117712Y559038D01*
X104182Y545508D01*
X104158Y545532D01*
X103842Y545401D01*
X103525Y545532D01*
X103501Y545508D01*
X100234Y548775D01*
X100205Y548795D01*
X98866Y549822D01*
X97275Y550481D01*
X95568Y550705D01*
X93861Y550481D01*
X92270Y549822D01*
X90932Y548795D01*
X90902Y548775D01*
X90882Y548745D01*
X89855Y547407D01*
X89196Y545816D01*
X88972Y544109D01*
X89196Y542402D01*
X89855Y540811D01*
X90882Y539473D01*
X90902Y539443D01*
X93271Y537074D01*
X93752Y536566D01*
X93752Y535078D01*
X86087Y527413D01*
X85424Y526421D01*
X85191Y525250D01*
X85191Y525250D01*
Y436071D01*
X84285Y435465D01*
X83069Y433646D01*
X82642Y431500D01*
X83069Y429354D01*
X84285Y427535D01*
X86104Y426319D01*
X88250Y425892D01*
X90396Y426319D01*
X92215Y427535D01*
X93431Y429354D01*
X93858Y431500D01*
X93431Y433646D01*
X92215Y435465D01*
X91309Y436071D01*
Y453922D01*
X92429Y454520D01*
X93104Y454069D01*
X95250Y453642D01*
X97396Y454069D01*
X99215Y455285D01*
X100431Y457104D01*
X101691Y456931D01*
Y455155D01*
X100285Y454215D01*
X99069Y452396D01*
X98642Y450250D01*
X99069Y448104D01*
X100285Y446285D01*
X102104Y445069D01*
X104250Y444642D01*
X106396Y445069D01*
X108215Y446285D01*
X109431Y448104D01*
X109858Y450250D01*
X109431Y452396D01*
X108215Y454215D01*
X107809Y454487D01*
Y518983D01*
X125163Y536337D01*
X125163Y536337D01*
X125666Y537090D01*
X151913Y563337D01*
X152576Y564329D01*
X152809Y565500D01*
X152809Y565500D01*
Y722250D01*
X152809Y722250D01*
X152576Y723420D01*
X151913Y724413D01*
X151913Y724413D01*
X132395Y743931D01*
X132608Y745000D01*
X132181Y747146D01*
X130965Y748965D01*
X129146Y750181D01*
X127000Y750608D01*
D02*
G37*
G36*
X367000Y560986D02*
X364390Y560643D01*
X361957Y559635D01*
X359868Y558032D01*
X358265Y555943D01*
X357258Y553511D01*
X356914Y550900D01*
X357258Y548290D01*
X358265Y545857D01*
X359868Y543768D01*
X361957Y542165D01*
X364390Y541158D01*
X367000Y540814D01*
X369611Y541158D01*
X372043Y542165D01*
X374132Y543768D01*
X375735Y545857D01*
X376743Y548290D01*
X377086Y550900D01*
X376743Y553511D01*
X375735Y555943D01*
X374132Y558032D01*
X372043Y559635D01*
X369611Y560643D01*
X367000Y560986D01*
D02*
G37*
G36*
X245000Y548358D02*
X242854Y547931D01*
X241035Y546715D01*
X239819Y544896D01*
X239392Y542750D01*
X239819Y540604D01*
X241035Y538785D01*
X242854Y537569D01*
X245000Y537142D01*
X247146Y537569D01*
X248965Y538785D01*
X250181Y540604D01*
X250608Y542750D01*
X250181Y544896D01*
X248965Y546715D01*
X247146Y547931D01*
X245000Y548358D01*
D02*
G37*
G36*
X377000Y510100D02*
X357000D01*
Y490100D01*
X377000D01*
Y510100D01*
D02*
G37*
G36*
X135000Y495608D02*
X132854Y495181D01*
X131035Y493965D01*
X129819Y492146D01*
X129392Y490000D01*
X129819Y487854D01*
X131035Y486035D01*
X132854Y484819D01*
X135000Y484392D01*
X137146Y484819D01*
X138521Y485738D01*
X139437Y484823D01*
X139319Y484646D01*
X138892Y482500D01*
X139319Y480354D01*
X140535Y478535D01*
X142354Y477319D01*
X144500Y476892D01*
X146646Y477319D01*
X147236Y477713D01*
X147580Y477533D01*
X148265Y476873D01*
X147892Y475000D01*
X148319Y472854D01*
X149535Y471035D01*
X151354Y469819D01*
X153500Y469392D01*
X155646Y469819D01*
X157465Y471035D01*
X158681Y472854D01*
X159108Y475000D01*
X158681Y477146D01*
X157465Y478965D01*
X155646Y480181D01*
X153500Y480608D01*
X151354Y480181D01*
X150764Y479787D01*
X150420Y479967D01*
X149735Y480626D01*
X150108Y482500D01*
X149681Y484646D01*
X148465Y486465D01*
X146646Y487681D01*
X144500Y488108D01*
X142354Y487681D01*
X140978Y486762D01*
X140063Y487677D01*
X140181Y487854D01*
X140608Y490000D01*
X140181Y492146D01*
X138965Y493965D01*
X137146Y495181D01*
X135000Y495608D01*
D02*
G37*
G36*
X257750Y459108D02*
X255604Y458681D01*
X253785Y457465D01*
X252569Y455646D01*
X252142Y453500D01*
X252295Y452731D01*
X240407Y440843D01*
X239689Y439768D01*
X239436Y438500D01*
Y424750D01*
X239689Y423482D01*
X240407Y422407D01*
X254907Y407907D01*
X255982Y407189D01*
X257250Y406936D01*
X260349D01*
X260785Y406285D01*
X262604Y405069D01*
X264750Y404642D01*
X266896Y405069D01*
X268715Y406285D01*
X269931Y408104D01*
X270358Y410250D01*
X270042Y411836D01*
X271213Y412462D01*
X288654Y395021D01*
X288069Y394146D01*
X287642Y392000D01*
X288069Y389854D01*
X289285Y388035D01*
X291104Y386819D01*
X293250Y386392D01*
X295396Y386819D01*
X297215Y388035D01*
X298431Y389854D01*
X298858Y392000D01*
X298431Y394146D01*
X297215Y395965D01*
X295396Y397181D01*
X294843Y397291D01*
X294456Y397870D01*
X259503Y432822D01*
X259716Y433892D01*
X259289Y436038D01*
X258074Y437857D01*
X256254Y439073D01*
X254108Y439500D01*
X251962Y439073D01*
X250143Y437857D01*
X248927Y436038D01*
X248500Y433892D01*
X248927Y431746D01*
X250143Y429926D01*
X251962Y428711D01*
X254108Y428284D01*
X255177Y428497D01*
X266961Y416713D01*
X266336Y415542D01*
X264750Y415858D01*
X262604Y415431D01*
X260785Y414215D01*
X260349Y413564D01*
X258623D01*
X246064Y426123D01*
Y437127D01*
X256981Y448045D01*
X257750Y447892D01*
X259896Y448319D01*
X261715Y449535D01*
X262931Y451354D01*
X263358Y453500D01*
X262931Y455646D01*
X261715Y457465D01*
X259896Y458681D01*
X257750Y459108D01*
D02*
G37*
G36*
X548750Y430358D02*
X546604Y429931D01*
X544785Y428715D01*
X543569Y426896D01*
X543142Y424750D01*
X543569Y422604D01*
X544785Y420785D01*
X546604Y419569D01*
X548750Y419142D01*
X549218Y419235D01*
X560727Y407727D01*
X561884Y406953D01*
X563250Y406681D01*
X662020D01*
X662285Y406285D01*
X664104Y405069D01*
X666250Y404642D01*
X668396Y405069D01*
X670215Y406285D01*
X671431Y408104D01*
X671858Y410250D01*
X671431Y412396D01*
X670215Y414215D01*
X668396Y415431D01*
X666250Y415858D01*
X664104Y415431D01*
X662285Y414215D01*
X662020Y413819D01*
X564728D01*
X554265Y424282D01*
X554358Y424750D01*
X553931Y426896D01*
X552715Y428715D01*
X550896Y429931D01*
X548750Y430358D01*
D02*
G37*
G36*
X242512Y490131D02*
X240366Y489705D01*
X238547Y488489D01*
X237331Y486670D01*
X236904Y484524D01*
X237119Y483445D01*
X213337Y459663D01*
X212674Y458671D01*
X212441Y457500D01*
X212441Y457500D01*
Y397017D01*
X198087Y382663D01*
X197424Y381670D01*
X197191Y380500D01*
X197191Y380500D01*
Y341571D01*
X196285Y340965D01*
X195069Y339146D01*
X194642Y337000D01*
X195069Y334854D01*
X196285Y333035D01*
X198104Y331819D01*
X200250Y331392D01*
X202396Y331819D01*
X204215Y333035D01*
X205431Y334854D01*
X205858Y337000D01*
X205431Y339146D01*
X204215Y340965D01*
X203309Y341571D01*
Y379233D01*
X215268Y391192D01*
X216441Y390706D01*
Y354017D01*
X214069Y351645D01*
X213000Y351858D01*
X210854Y351431D01*
X209035Y350215D01*
X207819Y348396D01*
X207392Y346250D01*
X207819Y344104D01*
X209035Y342285D01*
X210854Y341069D01*
X213000Y340642D01*
X215146Y341069D01*
X216965Y342285D01*
X218181Y344104D01*
X218608Y346250D01*
X218395Y347319D01*
X221171Y350095D01*
X222441Y349569D01*
Y340321D01*
X221535Y339715D01*
X220319Y337896D01*
X219892Y335750D01*
X220319Y333604D01*
X221535Y331785D01*
X223354Y330569D01*
X225500Y330142D01*
X227646Y330569D01*
X229465Y331785D01*
X230681Y333604D01*
X231108Y335750D01*
X230681Y337896D01*
X229465Y339715D01*
X228559Y340321D01*
Y450983D01*
X236051Y458475D01*
X237429Y458057D01*
X237569Y457354D01*
X238785Y455535D01*
X240604Y454319D01*
X242750Y453892D01*
X244896Y454319D01*
X246715Y455535D01*
X247931Y457354D01*
X248358Y459500D01*
X248145Y460569D01*
X249767Y462191D01*
X265983D01*
X302941Y425233D01*
Y396821D01*
X302035Y396215D01*
X300819Y394396D01*
X300392Y392250D01*
X300819Y390104D01*
X302035Y388285D01*
X303854Y387069D01*
X306000Y386642D01*
X308146Y387069D01*
X309965Y388285D01*
X311181Y390104D01*
X311608Y392250D01*
X311181Y394396D01*
X309965Y396215D01*
X309059Y396821D01*
Y426500D01*
X308826Y427671D01*
X308163Y428663D01*
X269413Y467413D01*
X268869Y467776D01*
X268740Y469109D01*
X268782Y469245D01*
X269215Y469535D01*
X270431Y471354D01*
X270858Y473500D01*
X270431Y475646D01*
X269215Y477465D01*
X267396Y478681D01*
X265250Y479108D01*
X263104Y478681D01*
X261285Y477465D01*
X260679Y476559D01*
X259420D01*
X259035Y477829D01*
X260465Y478785D01*
X261681Y480604D01*
X262108Y482750D01*
X261681Y484896D01*
X260465Y486715D01*
X258646Y487931D01*
X256500Y488358D01*
X254354Y487931D01*
X252535Y486715D01*
X251929Y485809D01*
X250343D01*
X250343Y485809D01*
X249204Y485582D01*
X249169Y485577D01*
X247790Y486180D01*
X247693Y486670D01*
X246477Y488489D01*
X244658Y489705D01*
X242512Y490131D01*
D02*
G37*
G36*
X263000Y395108D02*
X260854Y394681D01*
X259035Y393465D01*
X257819Y391646D01*
X257392Y389500D01*
X257819Y387354D01*
X259035Y385535D01*
X260854Y384319D01*
X263000Y383892D01*
X265146Y384319D01*
X266965Y385535D01*
X268181Y387354D01*
X268608Y389500D01*
X268181Y391646D01*
X266965Y393465D01*
X265146Y394681D01*
X263000Y395108D01*
D02*
G37*
G36*
X402750Y386850D02*
X382750D01*
Y366850D01*
X402750D01*
Y386850D01*
D02*
G37*
G36*
X394020Y361914D02*
Y352720D01*
X403214D01*
X403019Y354202D01*
X401957Y356766D01*
X400267Y358967D01*
X398065Y360657D01*
X395502Y361719D01*
X394020Y361914D01*
D02*
G37*
G36*
X391480D02*
X389999Y361719D01*
X387435Y360657D01*
X385233Y358967D01*
X383543Y356766D01*
X382481Y354202D01*
X382286Y352720D01*
X391480D01*
Y361914D01*
D02*
G37*
G36*
X60500Y360358D02*
X58354Y359931D01*
X56535Y358715D01*
X55319Y356896D01*
X54892Y354750D01*
X55319Y352604D01*
X56535Y350785D01*
X58354Y349569D01*
X60500Y349142D01*
X62646Y349569D01*
X64465Y350785D01*
X65681Y352604D01*
X66108Y354750D01*
X65681Y356896D01*
X64465Y358715D01*
X62646Y359931D01*
X60500Y360358D01*
D02*
G37*
G36*
X403214Y350180D02*
X394020D01*
Y340986D01*
X395502Y341181D01*
X398065Y342243D01*
X400267Y343933D01*
X401957Y346134D01*
X403019Y348699D01*
X403214Y350180D01*
D02*
G37*
G36*
X391480D02*
X382286D01*
X382481Y348699D01*
X383543Y346134D01*
X385233Y343933D01*
X387435Y342243D01*
X389999Y341181D01*
X391480Y340986D01*
Y350180D01*
D02*
G37*
G36*
X95020Y324714D02*
Y315520D01*
X104214D01*
X104019Y317001D01*
X102957Y319566D01*
X101267Y321767D01*
X99066Y323457D01*
X96502Y324519D01*
X95020Y324714D01*
D02*
G37*
G36*
X92480D02*
X90998Y324519D01*
X88434Y323457D01*
X86233Y321767D01*
X84543Y319566D01*
X83481Y317001D01*
X83286Y315520D01*
X92480D01*
Y324714D01*
D02*
G37*
G36*
X129150Y324250D02*
X109150D01*
Y304250D01*
X129150D01*
Y324250D01*
D02*
G37*
G36*
X68350Y324336D02*
X65739Y323993D01*
X63307Y322985D01*
X61218Y321382D01*
X59615Y319293D01*
X58607Y316861D01*
X58264Y314250D01*
X58607Y311639D01*
X59615Y309207D01*
X61218Y307118D01*
X63307Y305515D01*
X65739Y304507D01*
X68350Y304164D01*
X70960Y304507D01*
X73393Y305515D01*
X75482Y307118D01*
X77085Y309207D01*
X78093Y311639D01*
X78436Y314250D01*
X78093Y316861D01*
X77085Y319293D01*
X75482Y321382D01*
X73393Y322985D01*
X70960Y323993D01*
X68350Y324336D01*
D02*
G37*
G36*
X104214Y312980D02*
X95020D01*
Y303786D01*
X96502Y303981D01*
X99066Y305043D01*
X101267Y306733D01*
X102957Y308934D01*
X104019Y311499D01*
X104214Y312980D01*
D02*
G37*
G36*
X92480D02*
X83286D01*
X83481Y311499D01*
X84543Y308934D01*
X86233Y306733D01*
X88434Y305043D01*
X90998Y303981D01*
X92480Y303786D01*
Y312980D01*
D02*
G37*
G36*
X463270Y306705D02*
Y298520D01*
X471455D01*
X471294Y299740D01*
X470333Y302061D01*
X468804Y304054D01*
X466811Y305583D01*
X464490Y306544D01*
X463270Y306705D01*
D02*
G37*
G36*
X460730Y306705D02*
X459509Y306544D01*
X457189Y305583D01*
X455196Y304054D01*
X453667Y302061D01*
X452705Y299740D01*
X452545Y298520D01*
X460730D01*
Y306705D01*
D02*
G37*
G36*
X521000Y306250D02*
X503000D01*
Y288250D01*
X521000D01*
Y306250D01*
D02*
G37*
G36*
X471455Y295980D02*
X463270D01*
Y287795D01*
X464490Y287955D01*
X466811Y288917D01*
X468804Y290446D01*
X470333Y292439D01*
X471294Y294760D01*
X471455Y295980D01*
D02*
G37*
G36*
X460730D02*
X452545D01*
X452705Y294760D01*
X453667Y292439D01*
X455196Y290446D01*
X457189Y288917D01*
X459509Y287955D01*
X460730Y287795D01*
Y295980D01*
D02*
G37*
G36*
X57500Y134358D02*
X55354Y133931D01*
X53535Y132715D01*
X52319Y130896D01*
X51892Y128750D01*
X52319Y126604D01*
X53535Y124785D01*
X55354Y123569D01*
X57500Y123142D01*
X59646Y123569D01*
X61465Y124785D01*
X62681Y126604D01*
X63108Y128750D01*
X62681Y130896D01*
X61465Y132715D01*
X59646Y133931D01*
X57500Y134358D01*
D02*
G37*
G36*
X24250Y132608D02*
X22104Y132181D01*
X20285Y130965D01*
X19069Y129146D01*
X18642Y127000D01*
X19069Y124854D01*
X20285Y123035D01*
X22104Y121819D01*
X24250Y121392D01*
X26396Y121819D01*
X28215Y123035D01*
X29431Y124854D01*
X29858Y127000D01*
X29431Y129146D01*
X28215Y130965D01*
X26396Y132181D01*
X24250Y132608D01*
D02*
G37*
G36*
X87500Y131608D02*
X85354Y131181D01*
X83535Y129965D01*
X82319Y128146D01*
X81892Y126000D01*
X82319Y123854D01*
X83535Y122035D01*
X85354Y120819D01*
X87500Y120392D01*
X89646Y120819D01*
X91465Y122035D01*
X92681Y123854D01*
X93108Y126000D01*
X92681Y128146D01*
X91465Y129965D01*
X89646Y131181D01*
X87500Y131608D01*
D02*
G37*
G36*
X611520Y88012D02*
Y67500D01*
X622547D01*
Y75882D01*
X622128Y79065D01*
X620900Y82031D01*
X618945Y84577D01*
X616399Y86532D01*
X613433Y87760D01*
X611520Y88012D01*
D02*
G37*
G36*
X608980Y88012D02*
X607067Y87760D01*
X604101Y86532D01*
X601555Y84577D01*
X599600Y82031D01*
X598372Y79065D01*
X597953Y75882D01*
Y67500D01*
X608980D01*
Y88012D01*
D02*
G37*
G36*
X645250Y87634D02*
X642208Y87234D01*
X639374Y86060D01*
X636940Y84192D01*
X635072Y81758D01*
X633898Y78924D01*
X633498Y75882D01*
Y56578D01*
X633898Y53536D01*
X635072Y50702D01*
X636940Y48268D01*
X639374Y46400D01*
X642208Y45226D01*
X645250Y44826D01*
X648292Y45226D01*
X651126Y46400D01*
X653560Y48268D01*
X655428Y50702D01*
X656602Y53536D01*
X657002Y56578D01*
Y75882D01*
X656602Y78924D01*
X655428Y81758D01*
X653560Y84192D01*
X651126Y86060D01*
X648292Y87234D01*
X645250Y87634D01*
D02*
G37*
G36*
X622547Y64960D02*
X611520D01*
Y44448D01*
X613433Y44700D01*
X616399Y45928D01*
X618945Y47883D01*
X620900Y50429D01*
X622128Y53395D01*
X622547Y56578D01*
Y64960D01*
D02*
G37*
G36*
X608980D02*
X597953D01*
Y56578D01*
X598372Y53395D01*
X599600Y50429D01*
X601555Y47883D01*
X604101Y45928D01*
X607067Y44700D01*
X608980Y44448D01*
Y64960D01*
D02*
G37*
%LPD*%
G36*
X508250Y867000D02*
X470000D01*
Y891000D01*
X508250D01*
Y867000D01*
D02*
G37*
G36*
X496710Y966661D02*
X496540Y966601D01*
X496390Y966501D01*
X496260Y966361D01*
X496150Y966181D01*
X496060Y965961D01*
X495990Y965701D01*
X495940Y965401D01*
X495910Y965061D01*
X495900Y964681D01*
X493900D01*
X493890Y965061D01*
X493860Y965401D01*
X493810Y965701D01*
X493740Y965961D01*
X493650Y966181D01*
X493540Y966361D01*
X493410Y966501D01*
X493260Y966601D01*
X493090Y966661D01*
X492900Y966681D01*
X496900D01*
X496710Y966661D01*
D02*
G37*
G36*
X86079Y740563D02*
X86152Y739671D01*
X84535Y738590D01*
X83319Y736771D01*
X82892Y734625D01*
X83319Y732479D01*
X84535Y730660D01*
X85441Y730054D01*
Y720500D01*
X85441Y720500D01*
X85674Y719330D01*
X86337Y718337D01*
X99354Y705320D01*
X121109Y683565D01*
X121132Y683394D01*
X120693Y682334D01*
X120555Y682229D01*
X116980D01*
X116945Y682222D01*
X115273Y682002D01*
X113682Y681343D01*
X112316Y680295D01*
X111267Y678928D01*
X110608Y677337D01*
X110384Y675630D01*
X110608Y673923D01*
X111267Y672332D01*
X112316Y670966D01*
X113682Y669918D01*
X115273Y669258D01*
X114986Y668069D01*
X108854D01*
X108819Y668062D01*
X107147Y667842D01*
X105556Y667183D01*
X104190Y666135D01*
X103141Y664768D01*
X102483Y663177D01*
X102258Y661470D01*
X102483Y659763D01*
X103030Y658442D01*
X102704Y657710D01*
X102257Y657239D01*
X81954D01*
X81667Y658428D01*
X83258Y659087D01*
X84624Y660136D01*
X85673Y661502D01*
X86332Y663093D01*
X86552Y664765D01*
X86559Y664800D01*
Y674233D01*
X88181Y675855D01*
X89250Y675642D01*
X91396Y676069D01*
X93215Y677285D01*
X94431Y679104D01*
X94858Y681250D01*
X94431Y683396D01*
X93215Y685215D01*
X91396Y686431D01*
X89250Y686858D01*
X87104Y686431D01*
X85285Y685215D01*
X84069Y683396D01*
X83642Y681250D01*
X83855Y680181D01*
X81337Y677663D01*
X80674Y676671D01*
X80441Y675500D01*
X80441Y675500D01*
Y664800D01*
X80407D01*
X80276Y664484D01*
X79960Y664353D01*
Y664319D01*
X79960D01*
X79925Y664312D01*
X78253Y664092D01*
X76662Y663433D01*
X76329Y663177D01*
X75059Y663804D01*
Y672093D01*
Y677179D01*
X75965Y677785D01*
X77181Y679604D01*
X77608Y681750D01*
X77181Y683896D01*
X75965Y685715D01*
X74146Y686931D01*
X72000Y687358D01*
X69854Y686931D01*
X68035Y685715D01*
X66819Y683896D01*
X66392Y681750D01*
X66819Y679604D01*
X68035Y677785D01*
X68941Y677179D01*
Y672093D01*
Y650094D01*
X68907D01*
X68776Y649778D01*
X68460Y649647D01*
Y649613D01*
X45205D01*
X45171Y649606D01*
X43498Y649386D01*
X41907Y648727D01*
X40579Y647707D01*
X40401Y647733D01*
X39309Y648158D01*
Y701483D01*
X78767Y740941D01*
X85941D01*
X86079Y740563D01*
D02*
G37*
%LPC*%
G36*
X394020Y311114D02*
Y301920D01*
X403214D01*
X403019Y303402D01*
X401957Y305965D01*
X400267Y308167D01*
X398065Y309857D01*
X395502Y310919D01*
X394020Y311114D01*
D02*
G37*
G36*
X391480D02*
X389999Y310919D01*
X387435Y309857D01*
X385233Y308167D01*
X383543Y305965D01*
X382481Y303402D01*
X382286Y301920D01*
X391480D01*
Y311114D01*
D02*
G37*
G36*
X403214Y299380D02*
X394020D01*
Y290186D01*
X395502Y290381D01*
X398065Y291443D01*
X400267Y293133D01*
X401957Y295334D01*
X403019Y297899D01*
X403214Y299380D01*
D02*
G37*
G36*
X391480D02*
X382286D01*
X382481Y297899D01*
X383543Y295334D01*
X385233Y293133D01*
X387435Y291443D01*
X389999Y290381D01*
X391480Y290186D01*
Y299380D01*
D02*
G37*
G36*
X394020Y285714D02*
Y276520D01*
X403214D01*
X403019Y278001D01*
X401957Y280565D01*
X400267Y282767D01*
X398065Y284457D01*
X395502Y285519D01*
X394020Y285714D01*
D02*
G37*
G36*
X391480D02*
X389999Y285519D01*
X387435Y284457D01*
X385233Y282767D01*
X383543Y280565D01*
X382481Y278001D01*
X382286Y276520D01*
X391480D01*
Y285714D01*
D02*
G37*
G36*
X403214Y273980D02*
X394020D01*
Y264786D01*
X395502Y264981D01*
X398065Y266043D01*
X400267Y267733D01*
X401957Y269935D01*
X403019Y272498D01*
X403214Y273980D01*
D02*
G37*
G36*
X391480D02*
X382286D01*
X382481Y272498D01*
X383543Y269935D01*
X385233Y267733D01*
X387435Y266043D01*
X389999Y264981D01*
X391480Y264786D01*
Y273980D01*
D02*
G37*
G36*
X392750Y259936D02*
X390140Y259593D01*
X387707Y258585D01*
X385618Y256982D01*
X384015Y254893D01*
X383007Y252460D01*
X382664Y249850D01*
X383007Y247239D01*
X384015Y244807D01*
X385618Y242718D01*
X387707Y241115D01*
X390140Y240107D01*
X392750Y239764D01*
X395360Y240107D01*
X397793Y241115D01*
X399882Y242718D01*
X401485Y244807D01*
X402493Y247239D01*
X402836Y249850D01*
X402493Y252460D01*
X401485Y254893D01*
X399882Y256982D01*
X397793Y258585D01*
X395360Y259593D01*
X392750Y259936D01*
D02*
G37*
G36*
Y234536D02*
X390140Y234193D01*
X387707Y233185D01*
X385618Y231582D01*
X384015Y229493D01*
X383007Y227061D01*
X382664Y224450D01*
X383007Y221840D01*
X384015Y219407D01*
X385618Y217318D01*
X387707Y215715D01*
X390140Y214707D01*
X392750Y214364D01*
X395360Y214707D01*
X397793Y215715D01*
X399882Y217318D01*
X401485Y219407D01*
X402493Y221840D01*
X402836Y224450D01*
X402493Y227061D01*
X401485Y229493D01*
X399882Y231582D01*
X397793Y233185D01*
X395360Y234193D01*
X392750Y234536D01*
D02*
G37*
G36*
X234000Y199858D02*
X231854Y199431D01*
X230035Y198215D01*
X228819Y196396D01*
X228392Y194250D01*
X228819Y192104D01*
X230035Y190285D01*
X231854Y189069D01*
X234000Y188642D01*
X236146Y189069D01*
X237965Y190285D01*
X238401Y190936D01*
X365127D01*
X400795Y155269D01*
X400642Y154500D01*
X401069Y152354D01*
X402285Y150535D01*
X404104Y149319D01*
X406250Y148892D01*
X408396Y149319D01*
X410215Y150535D01*
X411431Y152354D01*
X411858Y154500D01*
X411431Y156646D01*
X410215Y158465D01*
X408396Y159681D01*
X406250Y160108D01*
X405481Y159955D01*
X368843Y196593D01*
X367768Y197311D01*
X367558Y197353D01*
X366500Y197564D01*
X238401D01*
X237965Y198215D01*
X236146Y199431D01*
X234000Y199858D01*
D02*
G37*
G36*
X200750Y198358D02*
X198604Y197931D01*
X196785Y196715D01*
X195569Y194896D01*
X195142Y192750D01*
X195569Y190604D01*
X196785Y188785D01*
X198604Y187569D01*
X200750Y187142D01*
X201519Y187295D01*
X217907Y170907D01*
X218982Y170189D01*
X220250Y169936D01*
X366628D01*
X408795Y127769D01*
X408642Y127000D01*
X409069Y124854D01*
X410285Y123035D01*
X412104Y121819D01*
X414250Y121392D01*
X416396Y121819D01*
X418215Y123035D01*
X419431Y124854D01*
X419858Y127000D01*
X419431Y129146D01*
X418215Y130965D01*
X416396Y132181D01*
X414250Y132608D01*
X413481Y132455D01*
X370343Y175593D01*
X369268Y176311D01*
X369058Y176353D01*
X368000Y176564D01*
X221623D01*
X206205Y191981D01*
X206358Y192750D01*
X205931Y194896D01*
X204715Y196715D01*
X202896Y197931D01*
X200750Y198358D01*
D02*
G37*
G36*
X271020Y87147D02*
Y66635D01*
X282047D01*
Y75017D01*
X281628Y78200D01*
X280400Y81166D01*
X278445Y83712D01*
X275899Y85667D01*
X272933Y86895D01*
X271020Y87147D01*
D02*
G37*
G36*
X268480Y87147D02*
X266567Y86895D01*
X263601Y85667D01*
X261055Y83712D01*
X259100Y81166D01*
X257872Y78200D01*
X257453Y75017D01*
Y66635D01*
X268480D01*
Y87147D01*
D02*
G37*
G36*
X234750Y86770D02*
X231708Y86369D01*
X228874Y85195D01*
X226440Y83327D01*
X224572Y80893D01*
X223398Y78059D01*
X222997Y75017D01*
Y55713D01*
X223398Y52671D01*
X224572Y49837D01*
X226440Y47403D01*
X228874Y45535D01*
X231708Y44361D01*
X234750Y43960D01*
X237792Y44361D01*
X240626Y45535D01*
X243060Y47403D01*
X244928Y49837D01*
X246102Y52671D01*
X246502Y55713D01*
Y75017D01*
X246102Y78059D01*
X244928Y80893D01*
X243060Y83327D01*
X240626Y85195D01*
X237792Y86369D01*
X234750Y86770D01*
D02*
G37*
G36*
X199750D02*
X196708Y86369D01*
X193874Y85195D01*
X191440Y83327D01*
X189572Y80893D01*
X188398Y78059D01*
X187997Y75017D01*
Y55713D01*
X188398Y52671D01*
X189572Y49837D01*
X191440Y47403D01*
X193874Y45535D01*
X196708Y44361D01*
X199750Y43960D01*
X202792Y44361D01*
X205626Y45535D01*
X208060Y47403D01*
X209928Y49837D01*
X211102Y52671D01*
X211502Y55713D01*
Y75017D01*
X211102Y78059D01*
X209928Y80893D01*
X208060Y83327D01*
X205626Y85195D01*
X202792Y86369D01*
X199750Y86770D01*
D02*
G37*
G36*
X282047Y64095D02*
X271020D01*
Y43583D01*
X272933Y43835D01*
X275899Y45063D01*
X278445Y47018D01*
X280400Y49564D01*
X281628Y52530D01*
X282047Y55713D01*
Y64095D01*
D02*
G37*
G36*
X268480D02*
X257453D01*
Y55713D01*
X257872Y52530D01*
X259100Y49564D01*
X261055Y47018D01*
X263601Y45063D01*
X266567Y43835D01*
X268480Y43583D01*
Y64095D01*
D02*
G37*
G36*
X417250Y56250D02*
X397250D01*
Y36250D01*
X417250D01*
Y56250D01*
D02*
G37*
G36*
X381850Y56336D02*
X379240Y55993D01*
X376807Y54985D01*
X374718Y53382D01*
X373115Y51293D01*
X372107Y48861D01*
X371764Y46250D01*
X372107Y43639D01*
X373115Y41207D01*
X374718Y39118D01*
X376807Y37515D01*
X379240Y36507D01*
X381850Y36164D01*
X384460Y36507D01*
X386893Y37515D01*
X388982Y39118D01*
X390585Y41207D01*
X391593Y43639D01*
X391936Y46250D01*
X391593Y48861D01*
X390585Y51293D01*
X388982Y53382D01*
X386893Y54985D01*
X384460Y55993D01*
X381850Y56336D01*
D02*
G37*
G36*
X356450D02*
X353839Y55993D01*
X351407Y54985D01*
X349318Y53382D01*
X347715Y51293D01*
X346707Y48861D01*
X346364Y46250D01*
X346707Y43639D01*
X347715Y41207D01*
X349318Y39118D01*
X351407Y37515D01*
X353839Y36507D01*
X356450Y36164D01*
X359061Y36507D01*
X361493Y37515D01*
X363582Y39118D01*
X365185Y41207D01*
X366193Y43639D01*
X366536Y46250D01*
X366193Y48861D01*
X365185Y51293D01*
X363582Y53382D01*
X361493Y54985D01*
X359061Y55993D01*
X356450Y56336D01*
D02*
G37*
%LPD*%
D10*
X245247Y754035D02*
X247229Y752054D01*
X254250Y754032D02*
Y755250D01*
X247229Y745601D02*
Y752054D01*
X252269Y743513D02*
Y752051D01*
X245247Y754035D02*
Y755253D01*
X252269Y752051D02*
X254250Y754032D01*
X229610Y720855D02*
X252269Y743513D01*
X227523Y725895D02*
X247229Y745601D01*
X257250Y410250D02*
X264750D01*
X242750Y424750D02*
X257250Y410250D01*
X242750Y438500D02*
X257750Y453500D01*
X242750Y424750D02*
Y438500D01*
X200750Y192750D02*
X220250Y173250D01*
X368000D02*
X414250Y127000D01*
X220250Y173250D02*
X368000D01*
X366500Y194250D02*
X406250Y154500D01*
X234000Y194250D02*
X366500D01*
X221500Y915550D02*
Y932500D01*
X219750Y934250D02*
Y951594D01*
Y934250D02*
X221500Y932500D01*
Y915550D02*
X222200Y914850D01*
X219750Y951594D02*
X231826Y963670D01*
X224660Y949546D02*
X233864Y958750D01*
X224660Y936009D02*
X230658Y930010D01*
X250060D01*
X224660Y936009D02*
Y949546D01*
X295674Y963670D02*
X314900Y944444D01*
X315020Y895948D02*
Y942576D01*
X314900Y942696D02*
Y944444D01*
X231826Y963670D02*
X295674D01*
X314900Y942696D02*
X315020Y942576D01*
X233864Y958750D02*
X293636D01*
X309980Y895948D02*
Y942406D01*
X293636Y958750D02*
X309980Y942406D01*
X185198Y725895D02*
X227523D01*
X185198Y720855D02*
X229610D01*
X182000Y727875D02*
X183218D01*
X182000Y718875D02*
X183218D01*
Y727875D02*
X185198Y725895D01*
X183218Y718875D02*
X185198Y720855D01*
X250060Y930010D02*
X260300Y940250D01*
X308000Y893968D02*
X309980Y895948D01*
X308000Y892750D02*
Y893968D01*
X317000Y892750D02*
Y893968D01*
X315020Y895948D02*
X317000Y893968D01*
D11*
X68460Y646554D02*
G03*
X72000Y650094I0J3540D01*
G01*
X45205Y646554D02*
G03*
X45205Y639474I0J-3540D01*
G01*
X69047Y632394D02*
G03*
X69047Y639474I0J3540D01*
G01*
X45205Y632394D02*
G03*
X45205Y625314I0J-3540D01*
G01*
X69006Y618234D02*
G03*
X69006Y625314I0J3540D01*
G01*
X45205Y618234D02*
G03*
X45205Y611154I0J-3540D01*
G01*
X72000Y607614D02*
G03*
X68460Y611154I-3540J0D01*
G01*
X101339Y543345D02*
G03*
X106345Y543345I2503J2503D01*
G01*
X98071Y546612D02*
G03*
X93065Y546612I-2503J-2503D01*
G01*
X93065Y546612D02*
G03*
X93065Y541606I2503J-2503D01*
G01*
X96332Y533332D02*
G03*
X96332Y538339I-2503J2503D01*
G01*
X121284Y679170D02*
G03*
X123787Y685213I0J3540D01*
G01*
X116980Y679170D02*
G03*
X116980Y672090I0J-3540D01*
G01*
X125210Y665010D02*
G03*
X125210Y672090I0J3540D01*
G01*
X108854Y665010D02*
G03*
X108854Y657930I0J-3540D01*
G01*
X125210Y650850D02*
G03*
X125210Y657930I0J3540D01*
G01*
X113536Y650850D02*
G03*
X113536Y643770I0J-3540D01*
G01*
X125210Y636690D02*
G03*
X125210Y643770I0J3540D01*
G01*
X116440Y636690D02*
G03*
X116440Y629610I0J-3540D01*
G01*
X125210Y622530D02*
G03*
X125210Y629610I0J3540D01*
G01*
X116440Y622530D02*
G03*
X116440Y615450I0J-3540D01*
G01*
X125210Y608370D02*
G03*
X125210Y615450I0J3540D01*
G01*
X116440Y608370D02*
G03*
X116440Y601290I0J-3540D01*
G01*
X126500Y597750D02*
G03*
X122960Y601290I-3540J0D01*
G01*
X79960Y661260D02*
G03*
X83500Y664800I0J3540D01*
G01*
X79960Y661260D02*
G03*
X79960Y654180I0J-3540D01*
G01*
X102456Y647100D02*
G03*
X102456Y654180I0J3540D01*
G01*
X79540Y647100D02*
G03*
X79540Y640020I0J-3540D01*
G01*
X105360Y632940D02*
G03*
X105360Y640020I0J3540D01*
G01*
X79540Y632940D02*
G03*
X79540Y625860I0J-3540D01*
G01*
X105360Y618780D02*
G03*
X105360Y625860I0J3540D01*
G01*
X79540Y618780D02*
G03*
X79540Y611700I0J-3540D01*
G01*
X105360Y604620D02*
G03*
X105360Y611700I0J3540D01*
G01*
X79540Y604620D02*
G03*
X79540Y597540I0J-3540D01*
G01*
X83500Y594000D02*
G03*
X79960Y597540I-3540J0D01*
G01*
X197000Y427750D02*
Y548150D01*
X298750Y649900D01*
X203500Y429250D02*
Y538250D01*
X264350Y599100D01*
X104750Y450750D02*
Y520250D01*
X123000Y538500D01*
Y538750D01*
X149750Y565500D01*
Y722250D01*
X167250Y492250D02*
Y622157D01*
X191500Y422250D02*
X197000Y427750D01*
X173000Y513250D02*
Y622250D01*
X412500Y861750D01*
X72000Y585250D02*
Y606614D01*
Y650094D02*
Y672093D01*
X45205Y646554D02*
X68460D01*
X45205Y639474D02*
X69047D01*
X45205Y632394D02*
X69047D01*
X45205Y625314D02*
X69006D01*
X45205Y618234D02*
X69006D01*
X45205Y611154D02*
X68460D01*
X72000Y606614D02*
Y607614D01*
Y672093D02*
Y681750D01*
X121875Y722630D02*
X121995D01*
X122000Y722625D01*
X137750Y384500D02*
X160250D01*
X185000Y331250D02*
Y359750D01*
X160250Y384500D02*
X185000Y359750D01*
X140750Y380000D02*
X157250D01*
X178500Y325500D02*
Y358750D01*
X157250Y380000D02*
X178500Y358750D01*
X146250Y376000D02*
X153250D01*
X172000Y321750D02*
Y357250D01*
X153250Y376000D02*
X172000Y357250D01*
X165750Y315750D02*
X196000Y285500D01*
X149000Y368500D02*
X165750Y351750D01*
Y315750D02*
Y351750D01*
X142078Y359672D02*
Y371828D01*
X146250Y376000D01*
X127000Y745000D02*
X149750Y722250D01*
X95250Y459250D02*
Y519000D01*
X136750Y560500D02*
Y719000D01*
X95250Y519000D02*
X136750Y560500D01*
X122000Y722625D02*
X133125D01*
X136750Y719000D01*
X106345Y543345D02*
X119875Y556875D01*
X98071Y546612D02*
X101339Y543345D01*
X93065Y546612D02*
Y546612D01*
X93065Y546612D02*
X93065Y546612D01*
X93065Y546612D02*
Y546612D01*
Y541606D02*
X96332Y538339D01*
X95625Y532625D02*
X96332Y533332D01*
X119875Y556875D02*
X132750Y569750D01*
X88250Y525250D02*
X95625Y532625D01*
X101517Y707483D02*
X123787Y685213D01*
X123787Y685213D02*
X123787Y685213D01*
X116980Y679170D02*
X121284D01*
X116980Y672090D02*
X125210D01*
X108854Y665010D02*
X125210D01*
X108854Y657930D02*
X125210D01*
X113536Y650850D02*
X125210D01*
X113536Y643770D02*
X125210D01*
X116440Y636690D02*
X125210D01*
X116440Y629610D02*
X125210D01*
X116440Y622530D02*
X125210D01*
X116440Y615450D02*
X125210D01*
X116440Y608370D02*
X125210D01*
X116440Y601290D02*
X122960D01*
X126500Y596750D02*
Y597750D01*
X88500Y720500D02*
X101517Y707483D01*
X126500Y578250D02*
Y596750D01*
X36250Y579500D02*
X52750Y563000D01*
X36250Y702750D02*
X77500Y744000D01*
X36250Y579500D02*
Y702750D01*
X77500Y744000D02*
X98750D01*
X104250Y718500D02*
Y738500D01*
X98750Y744000D02*
X104250Y738500D01*
X83500Y664800D02*
Y675241D01*
X79960Y661260D02*
X79960D01*
X79960Y654180D02*
X102456D01*
X79540Y647100D02*
X102456D01*
X79540Y640020D02*
X105360D01*
X79540Y632940D02*
X105360D01*
X79540Y625860D02*
X105360D01*
X79540Y618780D02*
X105360D01*
X79540Y611700D02*
X105360D01*
X79540Y604620D02*
X105360D01*
X79540Y597540D02*
X79960D01*
X83500Y593000D02*
Y594000D01*
Y675241D02*
Y675500D01*
X88500Y720500D02*
Y734625D01*
X83500Y675500D02*
X89250Y681250D01*
X132750Y569750D02*
Y696250D01*
X113500Y715500D02*
Y729000D01*
Y715500D02*
X132750Y696250D01*
X127000Y745000D02*
Y745000D01*
X83500Y588250D02*
Y593000D01*
X72000Y585250D02*
X82000Y575250D01*
X52750Y563000D02*
X90500D01*
X88250Y431500D02*
Y525250D01*
X126250Y578000D02*
X126500Y578250D01*
X104250Y450250D02*
X104750Y450750D01*
X252250Y310250D02*
X454000Y512000D01*
Y745750D02*
X525250Y817000D01*
X454000Y512000D02*
Y745750D01*
X249157Y301500D02*
X458250Y510593D01*
X462250Y508936D02*
Y742407D01*
X458250Y510593D02*
Y744064D01*
X246814Y293500D02*
X462250Y508936D01*
X244471Y285500D02*
X466250Y507280D01*
X462250Y742407D02*
X545700Y825857D01*
X458250Y744064D02*
X536750Y822564D01*
X466250Y740750D02*
X571100Y845600D01*
X466250Y507280D02*
Y740750D01*
X571100Y845600D02*
Y974150D01*
X545700Y825857D02*
Y974150D01*
X536750Y822564D02*
Y906000D01*
X202500Y301500D02*
X249157D01*
X196000Y285500D02*
X244471D01*
X200250Y293500D02*
X246814D01*
X206000Y310250D02*
X252250D01*
X178500Y325500D02*
X202500Y301500D01*
X185000Y331250D02*
X206000Y310250D01*
X130500Y377250D02*
X137750Y384500D01*
X134750Y374000D02*
X140750Y380000D01*
X130500Y362442D02*
Y377250D01*
X134750Y349000D02*
Y374000D01*
X173000Y513250D02*
X182500Y503750D01*
Y487750D02*
Y503750D01*
X167250Y622157D02*
X403000Y857907D01*
X377500Y697250D02*
X394500Y680250D01*
Y485250D02*
Y680250D01*
X352000Y472500D02*
X381750D01*
X394500Y485250D01*
X332750Y491750D02*
X352000Y472500D01*
X332750Y491750D02*
Y577500D01*
X272750Y585500D02*
X324750D01*
X332750Y577500D01*
X378950Y1006200D02*
X623500D01*
X364500Y991750D02*
X378950Y1006200D01*
X364500Y964500D02*
X412500Y916500D01*
X364500Y964500D02*
Y991750D01*
X412500Y861750D02*
Y916500D01*
X403000Y857907D02*
Y907750D01*
X349750Y961000D02*
X403000Y907750D01*
X350922Y1007250D02*
X350922D01*
X362672Y1019000D02*
X636100D01*
X350922Y1007250D02*
X362672Y1019000D01*
X349750Y1006078D02*
X350922Y1007250D01*
X636100Y1019000D02*
X648900Y1006200D01*
X349750Y961000D02*
Y1006078D01*
X172000Y321750D02*
X200250Y293500D01*
X494900Y930350D02*
X525250Y900000D01*
Y817000D02*
Y900000D01*
X142078Y359672D02*
X142500Y359250D01*
X520300Y922450D02*
Y974150D01*
Y922450D02*
X536750Y906000D01*
X126000Y357750D02*
Y357942D01*
X130500Y362442D01*
X494900Y930350D02*
Y974150D01*
X356500Y892000D02*
X379900D01*
X250343Y482750D02*
X256500D01*
X219500Y451907D02*
X250343Y482750D01*
X219500Y352750D02*
Y451907D01*
X242512Y484512D02*
Y484524D01*
X215500Y457500D02*
X242512Y484512D01*
X353750Y525500D02*
X367000D01*
X347750Y531500D02*
X353750Y525500D01*
X324000Y611000D02*
X347750Y587250D01*
Y531500D02*
Y587250D01*
X275000Y611000D02*
X324000D01*
X264350Y599100D02*
X298750D01*
X96750Y569250D02*
Y586500D01*
X90500Y563000D02*
X96750Y569250D01*
Y586500D02*
X97000Y586750D01*
X118300Y824200D02*
X141600Y847500D01*
X312000D01*
X356500Y892000D01*
X302000Y857000D02*
X351000Y906000D01*
X106475Y831725D02*
X131750Y857000D01*
X302000D01*
X106275Y825225D02*
X106475Y825425D01*
Y831725D01*
X292293Y392957D02*
Y395707D01*
Y392957D02*
X293250Y392000D01*
X215500Y395750D02*
Y457500D01*
X213000Y346250D02*
X219500Y352750D01*
X200250Y380500D02*
X215500Y395750D01*
X200250Y337000D02*
Y380500D01*
X246942Y473500D02*
X265250D01*
X245864Y472422D02*
X246942Y473500D01*
X225500Y452250D02*
X245672Y472422D01*
X245864D01*
X225500Y335750D02*
Y452250D01*
X242750Y459500D02*
X248500Y465250D01*
X267250D01*
X306000Y392250D02*
Y426500D01*
X267250Y465250D02*
X306000Y426500D01*
X254108Y433892D02*
X292293Y395707D01*
D17*
X548750Y424750D02*
X563250Y410250D01*
X666250D01*
D18*
X293472Y661972D02*
Y663853D01*
X298635Y675300D02*
X298750D01*
X292119Y669185D02*
X292520D01*
X190000Y483250D02*
Y558500D01*
X292119Y665206D02*
X293472Y663853D01*
X292520Y669185D02*
X298635Y675300D01*
X190000Y558500D02*
X293472Y661972D01*
X292119Y665206D02*
Y669185D01*
X167750Y478000D02*
X184750D01*
X190000Y483250D01*
X154546Y523954D02*
X154546D01*
X160250Y485500D02*
Y518250D01*
X154546Y523954D02*
X160250Y518250D01*
X141500Y537000D02*
X154546Y523954D01*
X160250Y485500D02*
X167750Y478000D01*
D104*
X623500Y955400D02*
X648900D01*
D105*
X83100Y980800D02*
D03*
X108500D02*
D03*
Y1031600D02*
D03*
X83100D02*
D03*
X648900Y955400D02*
D03*
X623500D02*
D03*
X648900Y1006200D02*
D03*
X623500D02*
D03*
X648900Y1031600D02*
D03*
X623500D02*
D03*
Y980800D02*
D03*
X648900D02*
D03*
X298750Y599100D02*
D03*
Y624500D02*
D03*
Y649900D02*
D03*
X520300Y974150D02*
D03*
X545700D02*
D03*
X571100D02*
D03*
D106*
X298750Y675300D02*
D03*
X494900Y974150D02*
D03*
D107*
X377500Y697250D02*
D03*
X352100D02*
D03*
X93750Y314250D02*
D03*
X392750Y275250D02*
D03*
Y300650D02*
D03*
Y351450D02*
D03*
X367000Y525500D02*
D03*
D109*
X269750Y65365D02*
D03*
X610250Y66230D02*
D03*
D112*
X260300Y940250D02*
D03*
X222200Y914850D02*
D03*
D113*
X462000Y297250D02*
D03*
X643000Y670000D02*
D03*
D116*
X657125Y240000D02*
D03*
X171250Y691250D02*
D03*
X50750Y584500D02*
D03*
X34250Y556500D02*
D03*
X287250Y802000D02*
D03*
X266250Y802250D02*
D03*
X299500Y514500D02*
D03*
X287625D02*
D03*
X275750D02*
D03*
Y503750D02*
D03*
X287625D02*
D03*
X299500D02*
D03*
X245125Y658500D02*
D03*
Y669250D02*
D03*
X268875D02*
D03*
X257000D02*
D03*
Y658500D02*
D03*
X268875D02*
D03*
X176000Y467375D02*
D03*
X165250D02*
D03*
X154750Y539250D02*
D03*
X44000Y666125D02*
D03*
Y678000D02*
D03*
Y689875D02*
D03*
X54750D02*
D03*
Y678000D02*
D03*
Y666125D02*
D03*
X237750Y990375D02*
D03*
Y1002250D02*
D03*
Y1014125D02*
D03*
X248500D02*
D03*
Y1002250D02*
D03*
Y990375D02*
D03*
X59750Y903375D02*
D03*
Y915250D02*
D03*
Y927125D02*
D03*
X70500D02*
D03*
Y915250D02*
D03*
Y903375D02*
D03*
X20250Y860625D02*
D03*
Y872500D02*
D03*
Y884375D02*
D03*
X31000D02*
D03*
Y872500D02*
D03*
Y860625D02*
D03*
X18500Y462125D02*
D03*
Y474000D02*
D03*
Y485875D02*
D03*
X29250D02*
D03*
Y474000D02*
D03*
Y462125D02*
D03*
X165250Y443625D02*
D03*
Y455500D02*
D03*
X176000D02*
D03*
Y443625D02*
D03*
X339625Y270000D02*
D03*
X351500D02*
D03*
X363375D02*
D03*
Y259250D02*
D03*
X351500D02*
D03*
X339625D02*
D03*
X158375Y180750D02*
D03*
X170250D02*
D03*
X182125D02*
D03*
Y170000D02*
D03*
X170250D02*
D03*
X158375D02*
D03*
X306125Y79000D02*
D03*
X318000D02*
D03*
X329875D02*
D03*
Y68250D02*
D03*
X318000D02*
D03*
X306125D02*
D03*
X28625Y256750D02*
D03*
X40500D02*
D03*
X52375D02*
D03*
Y246000D02*
D03*
X40500D02*
D03*
X28625D02*
D03*
X505375Y142750D02*
D03*
X517250D02*
D03*
X529125D02*
D03*
Y132000D02*
D03*
X517250D02*
D03*
X505375D02*
D03*
X503625Y203000D02*
D03*
X515500D02*
D03*
X527375D02*
D03*
Y192250D02*
D03*
X515500D02*
D03*
X503625D02*
D03*
X633375Y251000D02*
D03*
X645250D02*
D03*
X657125D02*
D03*
X645250Y240000D02*
D03*
X633375D02*
D03*
X597125Y251000D02*
D03*
X609000D02*
D03*
X620875D02*
D03*
Y240000D02*
D03*
X609000D02*
D03*
X597125D02*
D03*
X560625Y251000D02*
D03*
X572500D02*
D03*
X584375D02*
D03*
Y240000D02*
D03*
X572500D02*
D03*
X560625D02*
D03*
X492875Y572000D02*
D03*
X504750D02*
D03*
X516625D02*
D03*
Y561250D02*
D03*
X504750D02*
D03*
X492875D02*
D03*
X413375Y621000D02*
D03*
X425250D02*
D03*
X437125D02*
D03*
Y610250D02*
D03*
X425250D02*
D03*
X413375D02*
D03*
X351375Y648500D02*
D03*
X363250D02*
D03*
X375125D02*
D03*
Y637750D02*
D03*
X363250D02*
D03*
X351375D02*
D03*
X425125Y776500D02*
D03*
X437000D02*
D03*
X448875D02*
D03*
Y765750D02*
D03*
X437000D02*
D03*
X425125D02*
D03*
X385625Y819750D02*
D03*
X397500D02*
D03*
X409375D02*
D03*
Y809000D02*
D03*
X397500D02*
D03*
X385625D02*
D03*
X104750Y775000D02*
D03*
X117000Y774750D02*
D03*
X116750Y785750D02*
D03*
X104750D02*
D03*
X477500Y872500D02*
D03*
X489375D02*
D03*
X501250D02*
D03*
Y883250D02*
D03*
X489375D02*
D03*
X477500D02*
D03*
D117*
X141500Y537000D02*
D03*
X167250Y492250D02*
D03*
X203500Y429250D02*
D03*
X121875Y722630D02*
D03*
X88500Y734625D02*
D03*
X89250Y681250D02*
D03*
X72000Y681750D02*
D03*
X95250Y459250D02*
D03*
X126250Y578000D02*
D03*
X104250Y450250D02*
D03*
X88250Y431500D02*
D03*
X104250Y718500D02*
D03*
X149000Y368500D02*
D03*
X182500Y487750D02*
D03*
X272750Y585500D02*
D03*
X142500Y359250D02*
D03*
X379900Y892000D02*
D03*
X254250Y755250D02*
D03*
X245247Y755253D02*
D03*
X242512Y484524D02*
D03*
X275000Y611000D02*
D03*
X351000Y906000D02*
D03*
X83500Y588250D02*
D03*
X97000Y586750D02*
D03*
X293250Y392000D02*
D03*
X134750Y349000D02*
D03*
X126000Y357750D02*
D03*
X265250Y473500D02*
D03*
X256500Y482750D02*
D03*
X242750Y459500D02*
D03*
X306000Y392250D02*
D03*
X264750Y410250D02*
D03*
X257750Y453500D02*
D03*
X254108Y433892D02*
D03*
X191500Y422250D02*
D03*
X225500Y335750D02*
D03*
X213000Y346250D02*
D03*
X200250Y337000D02*
D03*
X106275Y825225D02*
D03*
X118300Y824200D02*
D03*
X82000Y575250D02*
D03*
X127000Y745000D02*
D03*
X113500Y729000D02*
D03*
X666250Y410250D02*
D03*
X548750Y424750D02*
D03*
X200750Y192750D02*
D03*
X414250Y127000D02*
D03*
X406250Y154500D02*
D03*
X234000Y194250D02*
D03*
X182000Y727875D02*
D03*
Y718875D02*
D03*
X317000Y892750D02*
D03*
X308000D02*
D03*
M02*
