M48
;Layer_Color=9474304
;FILE_FORMAT=4:4
METRIC,LZ
;TYPE=PLATED
T1F00S00C0.3000
T2F00S00C0.8000
T3F00S00C0.8900
T4F00S00C0.9000
T5F00S00C1.0000
T6F00S00C1.4000
%
T01
X0002425Y00127
X000575Y0012875
X000875Y00126
X00306125Y00079
Y0006825
X00318
Y00079
X00329875
Y0006825
X0041425Y00127
X0040625Y001545
X00505375Y0014275
Y00132
X0051725
Y0014275
X00529125
Y00132
X00527375Y0019225
Y00203
X005155
Y0019225
X00503625
Y00203
X00560625Y0024
Y00251
X005725
Y0024
X00584375
Y00251
X00597125
Y0024
X00609
Y00251
X00620875
Y0024
X00633375
Y00251
X0064525
Y0024
X00657125
Y00251
X0066625Y0041025
X0054875Y0042475
X00306Y0039225
X0029325Y00392
X00263Y003895
X0026475Y0041025
X00254108Y00433892
X0025775Y004535
X0024275Y004595
X00242512Y00484524
X002565Y0048275
X0026525Y004735
X0027575Y0050375
Y005145
X00287625
Y0050375
X002995
Y005145
X00245Y0054275
X0015475Y0053925
X001415Y00537
X00135Y0049
X001445Y004825
X001535Y00475
X0016525Y00467375
X00176
Y004555
X0016525
Y00443625
X00176
X001915Y0042225
X002035Y0042925
X001825Y0048775
X0016725Y0049225
X0009525Y0045925
X0010425Y0045025
X0008825Y004315
X00097Y0037225
X001075Y0036925
X00116Y003625
X00126Y0035775
X00123425Y00370325
X00149Y003685
X001425Y0035925
X0013475Y00349
X0020025Y00337
X00213Y0034625
X002255Y0033575
X00234Y0019425
X0020075Y0019275
X00182125Y0018075
Y0017
X0017025
Y0018075
X00158375
Y0017
X00052375Y00246
Y0025675
X000605Y0035475
X00339625Y0027
Y0025925
X003515
Y0027
X00363375
Y0025925
X000405Y0025675
Y00246
X00028625
Y0025675
X0002925Y00462125
X000185
Y00474
X0002925
Y00485875
X000185
X0003425Y005565
X00044Y00666125
Y00678
Y00689875
X000425Y0073475
X00031Y00860625
X0002025
Y008725
X00031
Y00884375
X0002025
X0005975Y00903375
X000705
Y0091525
X0005975
Y00927125
X000705
X0014175Y0087225
X001183Y008242
X00106275Y00825225
X0010475Y0078575
Y00775
X00117Y0077475
X0011675Y0078575
X00127Y00745
X00121875Y0072263
X001135Y00729
X0010425Y007185
X000885Y00734625
X0008925Y0068125
X00072Y0068175
X0005475Y00678
Y00689875
Y00666125
X00049721Y00598971
X0005075Y005845
X000835Y0058825
X00082Y0057525
X00097Y0058675
X0012625Y00578
X001625Y0068
X0017125Y0069125
X00182Y00718875
Y00727875
X00245247Y00755253
X0025425Y0075525
X0026625Y0080225
X0028725Y00802
X00385625Y00809
Y0081975
X003975
Y00809
X00409375
Y0081975
X00425125Y007765
Y0076575
X00437
Y007765
X00437125Y00621
Y0061025
X0042525
Y00621
X00413375
Y0061025
X00375125Y0063775
Y006485
X0036325
Y0063775
X00351375
Y006485
X00268875Y006585
Y0066925
X00257
Y006585
X00245125
Y0066925
X00213Y006405
X00275Y00611
X0027275Y005855
X00308Y0089275
X00317
X00351Y00906
X003799Y00892
X0016325Y0082025
X00448875Y007765
Y0076575
X004775Y008725
Y0088325
X00489375
Y008725
X0050125
Y0088325
X0050475Y00572
Y0056125
X00516625
Y00572
X00492875
Y0056125
X002485Y00990375
X0023775
Y0100225
X002485
Y01014125
X0023775
T02
X00462Y0029725
X00512
X0039275Y0030065
Y0027525
Y0024985
Y0022445
Y0035145
Y0037685
X00643Y0067
Y0072
T03
X001968Y0091485
X002222
X002476
X00273
X002857Y0094025
X002603
X002349
X002095
T04
X0029875Y005737
Y005991
Y006245
Y006499
Y006753
X004626Y0097415
X004949
X005203
X005457
X005711
X006235Y009808
Y009554
X006489
Y009808
Y010062
X006235
Y010316
X006489
Y01057
X006235
X005711Y0105035
X005457
X005203
X004949
X004626
X004372
X004118
X003864
Y0097415
X004118
X004372
X001085Y009808
Y010062
X000831
Y009808
Y009554
X001085
Y010316
Y01057
X000831
Y010316
T05
X0035645Y0004625
X0038185
X0040725
X00367Y005001
Y005255
Y005509
X0011915Y0031425
X0009375
X0006835
X003521Y0069725
X003775
X004029
T06
X0019975Y00065365
X0023475
X0026975
X0061025Y0006623
X0064525
M30
