M48
;Layer_Color=9474304
;FILE_FORMAT=4:4
METRIC,LZ
;TYPE=PLATED
T1F00S00C0.3000
T2F00S00C0.8000
T3F00S00C0.8900
T4F00S00C0.9000
T5F00S00C1.0000
T6F00S00C1.4000
%
T01
X0002425Y00127
X000575Y0012875
X000875Y00126
X0040625Y001545
X0042125Y0009825
X00506625Y000325
Y0002175
X005185
Y000325
X00530375
Y0002175
X00501875Y0021675
Y002275
X0049
Y0021675
X00478125
Y002275
X00560625Y0024
Y00251
X005725
Y0024
X00584375
Y00251
X00597125
Y0024
X00609
Y00251
X00620875
Y0024
X00633375
Y00251
X0064525
Y0024
X00657125
Y00251
X0066625Y0041025
X0054875Y0042475
X004095Y00437125
X0039875
Y00449
X004095
Y00460875
X0039875
X004215Y0054275
X003285Y005465
X0031Y00514
Y0050325
X00298125
Y00514
X0028625
Y0050325
X00257Y0050575
X002605Y00494
X002565Y0048275
X00242596Y00484654
X002405Y0045725
X0025775Y004535
X00254108Y00433892
X0026475Y0041025
X00263Y003895
X0029325Y00392
X00306Y0039225
X00242Y00411
X002035Y004345
X0019Y00459
X001875Y00474
X0019125Y0051675
X001785Y0052175
X0016925Y005125
X0015875Y00508
Y005185
X001915Y005405
X0026525Y004735
X0023175Y003355
X0022175Y0034375
X0020475Y0034025
X001345Y003455
X0012625Y0035475
X001175Y0036625
X001085Y003725
X0009825Y00372
X0008825Y003725
X000665Y0034875
X001425Y0035925
X00149Y0037375
X0008825Y004315
X0009525Y00441
X00102Y0045025
X0020075Y0019275
X00234Y0019425
X0003075Y00231125
X0002
Y00243
X0003075
Y00254875
X0002
X000185Y00462125
X0002925
Y00474
X000185
Y00485875
X0002925
X0003425Y005565
X00044Y00666125
Y00678
Y00689875
X000425Y0073475
X00031Y00860625
X0002025
Y008725
X00031
Y00884375
X0002025
X00061875Y00899
Y0090975
X0007375
Y00899
X00085625
Y0090975
X00106275Y00825225
X001205Y0082475
X0011643Y0078607
X0010559
Y0077469
X0011643
X00127Y00745
X00121875Y0072263
X001135Y00729
X0010425Y007185
X000885Y00734625
X0008925Y0068125
X00072Y0068175
X0005475Y00678
Y00689875
Y00666125
X00049721Y00598971
X0005075Y005845
X000835Y0058825
X00082Y0057525
X00097Y0058675
X0012625Y00578
X001625Y0068
X0017125Y0069125
X00182Y00718875
Y00727875
X001985Y0074125
X00245247Y00755253
X00254237Y00755679
X0026625Y0080225
X0028725Y00802
X0034675Y0076475
Y00754
X00358625
Y0076475
X003705
Y00754
X0039625Y008945
X003355Y008925
X00317Y0089275
X00308
X00164Y0083375
X0016325Y0082025
X00146Y0079625
X00213Y006405
X0024875Y0063325
X00245125Y006585
Y0066925
X00257
Y006585
X00268875
Y0066925
X0027275Y005855
X002485Y0055875
X004205Y0059475
X004375Y00595
X00492875Y00572
Y0056125
X0050475
Y00572
X00516625
Y0056125
X00520375Y0072625
Y00737
X005085
Y0072625
X0053225
Y00737
X0050125Y008725
Y0088325
X00489375
Y008725
X004775
Y0088325
X0056625Y0091325
X005735Y00926
X005965Y0085975
X006285Y008565
X002485Y00990375
X0023775
Y0100225
X002485
Y01014125
X0023775
T02
X00462Y0029725
X00512
X0039275Y0030065
Y0027525
Y0024985
Y0022445
Y0035145
Y0037685
X00643Y0067
Y0072
T03
X001968Y0091485
X002222
X002476
X00273
X002857Y0094025
X002603
X002349
X002095
T04
X0029875Y005737
Y005991
Y006245
Y006499
Y006753
X003622Y009474
X003876
X00413
X004384
X001Y009354
X000746
X004784Y009474
X005038
X005292
X005546
X006135Y009354
X006389
Y009608
Y009862
X006135
Y010116
X006389
Y01037
X006135
X005546Y010236
X005292
X005038
X004784
X006135Y009608
X004384Y010236
X00413
X003876
X003622
X001Y010116
Y009862
Y009608
X000746
Y009862
Y010116
Y01037
X001
T05
X0035645Y0004625
X0038185
X0040725
X0011915Y0031425
X0009375
X0006835
X003521Y0064675
X003775
X004029
Y0069725
X003775
X003521
T06
X00202Y00065735
X00237
X00272
X0061025Y0006537
X0064525
M30
