M48
;Layer_Color=9474304
;FILE_FORMAT=4:4
METRIC,LZ
;TYPE=PLATED
T1F00S00C0.3000
T2F00S00C0.8000
T3F00S00C0.8900
T4F00S00C0.9000
T5F00S00C1.0000
T6F00S00C1.4000
%
T01
X0002425Y00127
X000575Y0012875
X000875Y00126
X00306125Y00079
Y0006825
X00318
Y00079
X00329875
Y0006825
X0042125Y0009825
X0040625Y001545
X00505375Y0014275
Y00132
X0051725
Y0014275
X00529125
Y00132
X00527375Y0019225
Y00203
X005155
Y0019225
X00503625
Y00203
X00560625Y0024
Y00251
X005725
Y0024
X00584375
Y00251
X00597125
Y0024
X00609
Y00251
X00620875
Y0024
X00633375
Y00251
X0064525
Y0024
X00657125
Y00251
X0066625Y0041025
X0054875Y0042475
X004095Y00437125
X0039875
Y00449
X004095
Y00460875
X0039875
X002995Y0050375
Y005145
X00287625
Y0050375
X0027575
Y005145
X0025025Y0050725
X002525Y004945
X002565Y0048275
X00242596Y00484654
X002405Y0045725
X0025775Y004535
X00254108Y00433892
X0026475Y0041025
X00263Y003895
X0029325Y00392
X00306Y0039225
X00242Y00411
X002035Y004345
X0019125Y0051675
X001785Y0052175
X0016725Y00513
X0015875Y00508
Y005185
X001915Y005405
X00245Y0054275
X0026525Y004735
X0023175Y003355
X0022175Y0034375
X0020475Y0034025
X001345Y003455
X0012625Y0035475
X001175Y0036625
X001085Y003725
X0009825Y00372
X0008825Y003725
X000605Y0035475
X001425Y0035925
X00149Y0037375
X0008825Y004315
X00102Y0045025
X0009525Y0045925
X00052375Y0025675
Y00246
X00158375Y0018075
Y0017
X0017025
Y0018075
X00182125
Y0017
X0020075Y0019275
X00234Y0019425
X00339625Y0025925
Y0027
X003515
Y0025925
X00363375
Y0027
X000405Y0025675
Y00246
X00028625
Y0025675
X0002925Y00462125
X000185
Y00474
X0002925
Y00485875
X000185
X0003425Y005565
X00044Y00666125
Y00678
Y00689875
X000425Y0073475
X00031Y00860625
X0002025
Y008725
X00031
Y00884375
X0002025
X00061875Y00899
Y0090975
X0007375
Y00899
X00085625
Y0090975
X00106275Y00825225
X001205Y0082475
X0011675Y0078575
X00117Y0077475
X0010475Y00775
Y0078575
X00146Y0079625
X0016325Y0082025
X00164Y0083375
X00182Y00727875
Y00718875
X0017125Y0069125
X001625Y0068
X0008925Y0068125
X00072Y0068175
X0005475Y00678
Y00689875
Y00666125
X00049721Y00598971
X0005075Y005845
X000835Y0058825
X00082Y0057525
X00097Y0058675
X0012625Y00578
X00121875Y0072263
X001135Y00729
X0010425Y007185
X000885Y00734625
X00127Y00745
X001985Y0074125
X00245247Y00755253
X00254237Y00755679
X0026625Y0080225
X0028725Y00802
X00385625Y0080925
Y008195
X003975
Y0080925
X00409375
Y008195
X004095Y00873
X003355Y008925
X00317Y0089275
X00308
X00425125Y007765
Y0076575
X00437
Y007765
X00437125Y00621
Y0061025
X0042525
Y00621
X00413375
Y0061025
X004105Y005925
X0041025Y005755
X00375125Y0063775
Y006485
X0036325
Y0063775
X00351375
Y006485
X00268875Y006585
Y0066925
X00257
Y006585
X00245125
Y0066925
X00213Y006405
X00275Y00611
X0027275Y005855
X00492875Y00572
Y0056125
X0050475
Y00572
X00516625
Y0056125
X00448875Y0076575
Y007765
X004775Y008725
Y0088325
X00489375
Y008725
X0050125
Y0088325
X002485Y00990375
X0023775
Y0100225
X002485
Y01014125
X0023775
T02
X00462Y0029725
X00512
X0039275Y0030065
Y0027525
Y0024985
Y0022445
Y0035145
Y0037685
X00643Y0067
Y0072
T03
X001968Y0091485
X002222
X002476
X00273
X002857Y0094025
X002603
X002349
X002095
T04
X0029875Y005737
Y005991
Y006245
Y006499
Y006753
X0036915Y0092965
X0039455
X0041995
X001085Y009354
X000831
X0044535Y0092965
X0048265
X0050805
X0053345
X0055885
X006135Y009354
X006389
Y009608
Y009862
X006135
Y010116
X006389
Y01037
X006135
Y009608
X0055885Y0100585
X0053345
X0050805
X0048265
X0044535
X0041995
X0039455
X0036915
X001085Y010116
Y01037
X000831
Y010116
Y009862
X001085
Y009608
X000831
T05
X0035645Y0004625
X0038185
X0040725
X00367Y005001
Y005255
Y005509
X0011915Y0031425
X0009375
X0006835
X003521Y0069725
X003775
X004029
T06
X0019975Y0007536
X0023475
X0026975
X0061025Y0007623
X0064525
M30
